<?xml version="1.0" encoding="UTF-8"?>
<!DOCTYPE svg PUBLIC "-//W3C//DTD SVG 1.1//EN" "http://www.w3.org/Graphics/SVG/1.1/DTD/svg11.dtd">
<!-- Creator: CorelDRAW -->
<svg xmlns="http://www.w3.org/2000/svg" xml:space="preserve" width="297mm" height="210mm" version="1.1" style="shape-rendering:geometricPrecision; text-rendering:geometricPrecision; image-rendering:optimizeQuality; fill-rule:evenodd; clip-rule:evenodd"
viewBox="0 0 29698.94 20999.25"
 xmlns:xlink="http://www.w3.org/1999/xlink"
 xmlns:xodm="http://www.corel.com/coreldraw/odm/2003">
 <defs>
  <style type="text/css">
   <![CDATA[
    .str0 {stroke:white;stroke-width:149.99;stroke-linecap:round;stroke-linejoin:round;stroke-miterlimit:10}
    .fil5 {fill:none}
    .fil9 {fill:none;fill-rule:nonzero}
    .fil0 {fill:#173966}
    .fil7 {fill:#1F54A1}
    .fil10 {fill:#2DA2C2}
    .fil6 {fill:#338AC2}
    .fil8 {fill:#47C0E3}
    .fil4 {fill:#CCCCCC}
    .fil3 {fill:#EEEEEE}
    .fil2 {fill:white}
    .fil13 {fill:#1F54A1;fill-rule:nonzero}
    .fil11 {fill:#338AC2;fill-rule:nonzero}
    .fil12 {fill:#338AC2;fill-rule:nonzero}
    .fil14 {fill:#47C0E3;fill-rule:nonzero}
    .fil15 {fill:white;fill-rule:nonzero}
    .fil1 {fill:white;fill-rule:nonzero}
    .fil18 {fill:url(#id29);fill-rule:nonzero}
    .fil19 {fill:url(#id30);fill-rule:nonzero}
    .fil16 {fill:url(#id31);fill-rule:nonzero}
    .fil17 {fill:url(#id32);fill-rule:nonzero}
   ]]>
  </style>
     <clipPath id="id0">
      <path d="M9176.44 6432.97l3257.98 -1126.88c151.29,-52.33 317.89,28.64 370.22,179.92l1649.56 4769.14c52.33,151.29 -28.64,317.89 -179.93,370.22l-3257.97 1126.87c-151.29,52.33 -317.89,-28.63 -370.22,-179.92l-1649.56 -4769.14c-52.33,-151.28 28.64,-317.88 179.92,-370.21z"/>
     </clipPath>
     <clipPath id="id1">
      <path d="M9585.99 6678.84l2678.34 -926.39c124.37,-43.02 261.32,23.54 304.34,147.91l1443.98 4174.78c43.02,124.38 -23.54,261.32 -147.9,304.34l-2678.34 926.39c-124.38,43.02 -261.32,-23.54 -304.35,-147.91l-1443.98 -4174.77c-43.02,-124.39 23.54,-261.33 147.91,-304.35z"/>
     </clipPath>
      <clipPath id="id2" style="clip-rule:nonzero">
       <path d="M10732.83 9130.18l-40.8 -117.97 192.32 -66.52c26.38,-9.13 44.83,-21.85 55.46,-37.85 10.63,-16 12.57,-34.06 5.69,-53.97l-16.23 -46.93c-7.45,-21.52 -20.58,-35.82 -39.55,-42.67 -18.77,-6.91 -41.45,-5.78 -68.21,3.48l-191.17 66.13 -40.52 -117.16 189.44 -65.53c24.06,-8.33 41.03,-20.35 50.39,-36.28 9.43,-15.76 10.68,-33.95 3.57,-54.5l-12.82 -37.06c-6.21,-17.96 -17.76,-29.55 -34.52,-34.99 -16.7,-5.27 -37.3,-3.76 -61.36,4.56l-189.44 65.53 -40.7 -117.65 199.07 -68.86c67.77,-23.44 125.12,-27.15 172.31,-11.58 47.06,15.79 79.79,49.94 97.92,102.38l12.76 36.89c12.37,35.77 10.24,69.48 -6.26,100.92 -16.45,31.6 -45.63,58.18 -87.92,79.87 49.6,-11.17 91.77,-8.91 126.76,6.89 34.94,15.64 59.23,43.47 73,83.28l16.4 47.42c18.25,52.75 13.87,99.93 -13.08,141.67 -27.13,41.82 -74.52,74.33 -142.09,97.71l-210.42 72.78zm-73.93 25.57l-238.44 -689.36 147.28 -50.94 238.43 689.36 -147.27 50.94z"/>
      </clipPath>
      <clipPath id="id3" style="clip-rule:nonzero">
       <path d="M11496.71 8873.94c-77.98,26.97 -145.1,29.18 -201.46,6.45 -56.5,-22.49 -96.56,-67.88 -120.18,-136.17l-166.45 -481.26 147.27 -50.94 167.57 484.49c9.74,28.16 25.96,47.01 48.66,56.55 22.65,9.38 49.98,8.62 81.94,-2.43 31.96,-11.05 54.11,-27.41 66.31,-48.85 12.34,-21.66 13.64,-46.57 3.9,-74.73l-167.57 -484.49 147.85 -51.14 166.45 481.25c23.62,68.3 19.98,128.8 -10.93,181.52 -30.66,52.82 -85.2,92.7 -163.36,119.74z"/>
      </clipPath>
      <clipPath id="id4" style="clip-rule:nonzero">
       <path d="M11947.83 8709.94l-41.72 -118.74 151.12 -52.28c34.46,-11.92 58.73,-29.01 72.72,-50.88 13.75,-21.97 15.79,-46.59 6.06,-73.48l-96.27 -278.34c-9.14,-27.64 -25.9,-45.57 -50.17,-54.03 -24.45,-8.39 -53.99,-6.51 -88.45,5.41l-150.54 52.07 -41.78 -118.9 156.13 -54.01c81.25,-28.1 150.1,-32.17 206.67,-12.6 56.43,19.8 95.64,61.5 117.58,124.94l99.58 287.88c14.1,40.78 16.73,79.55 7.76,116.53 -8.85,36.76 -29.47,69.99 -61.69,99.61 -32.47,29.53 -76.4,53.97 -132.04,73.21l-154.97 53.61zm-85.87 29.7l-41.24 -119.23 147.27 -50.94 41.24 119.23 -147.27 50.94zm-98.57 -284.96l-139.88 -404.4 147.28 -50.95 139.88 404.41 -147.28 50.94z"/>
      </clipPath>
      <clipPath id="id5" style="clip-rule:nonzero">
       <path d="M12696.31 8459.03c-46.2,15.98 -88.84,24.2 -127.85,24.83 -38.83,0.57 -73.64,-6.6 -104.44,-21.49 -30.56,-14.8 -56.52,-37.52 -78.04,-67.95l0 0 119.5 -98.23 0 0c20.6,24.04 44.25,39.42 70.93,46.13 26.68,6.72 55.71,4.65 86.9,-6.14 32.35,-11.19 55.5,-25.9 69.4,-44.29 13.76,-18.17 17.04,-37.97 9.6,-59.49l-10.69 -30.91c-5.88,-16.99 -16.55,-28.52 -31.82,-34.66 -15.41,-5.9 -34.05,-8.69 -55.87,-8.21 -22.02,0.55 -45.45,1.95 -70.33,4.21 -27.4,2.41 -55.33,3.92 -83.99,4.59 -28.46,0.6 -56.02,-1.82 -82.18,-7.63 -26.15,-5.81 -49.63,-17.62 -70.64,-35.36 -20.76,-17.64 -37.27,-44.18 -49.42,-79.3l-6.21 -17.96c-20.88,-60.36 -15.05,-114.56 17.37,-162.91 32.67,-48.26 89.15,-86.28 169.61,-114.11 61.23,-21.18 115.92,-26.32 163.75,-15.15 47.79,11.01 87.5,38.59 119.04,82.4l0 0 -112.43 96.87 0 0c-19.58,-22.95 -41.15,-37.95 -64.66,-44.86 -23.52,-6.91 -47.57,-6.02 -72.4,2.57 -31.58,10.93 -53.93,24.82 -67.07,41.68 -13.08,17.03 -16.23,35.33 -9.35,55.24l7.89 22.81c6.66,19.26 18.66,32.14 35.56,38.62 16.96,6.64 37.5,9.32 61.3,8.33 23.8,-0.98 49.39,-2.41 76.64,-4.04 26.63,-2.15 53.6,-3.32 80.85,-3.68 27.19,-0.53 53.03,2.49 77.84,8.77 24.61,6.34 46.83,18.23 66.21,35.62 19.51,17.17 34.94,42.45 46.42,75.62l10.18 29.46c20.77,60.03 14.37,114.43 -19.02,163.11 -33.58,48.76 -90.96,87.27 -172.59,115.51z"/>
      </clipPath>
     <clipPath id="id6">
      <path d="M19116.24 6549.17l-8.03 233.09c-8.02,36.65 -14.89,72.05 -25.65,108.63 -10.46,35.53 -30.32,73.07 -33.45,107.58 -1.26,1.08 -2.57,1.4 -3.37,3.69l-6.3 7.83c-0.79,1.19 -1.94,2.9 -2.78,4.26 -0.24,0.4 -8.57,17.07 -9.3,18.59l-62.57 107.79c-79.24,109.64 -117.63,144.75 -215.38,225.59 -24.52,20.27 -39.97,19.56 -48.77,63.37 -6.22,30.91 -15.56,71.83 -13.34,100.23l8.65 5.77c36.41,16.62 94.2,11.67 129.71,86.24 34.5,72.45 -3.83,112.54 -36.86,160.84 5.03,8.48 3.74,7.79 13.77,18.54 67.3,72.15 214.92,148.59 261.38,255.94l14.16 25.54c-7.98,50.46 35.16,207.29 -232.68,157.72 -138.07,-25.54 -210.66,-30.4 -243.35,166.3 -19.53,117.54 -24.16,256.86 -15.14,368.63 5.77,71.49 34.95,267.77 65.1,310.07 8.23,53.81 81.56,188.95 104.87,225.97 46.01,73.04 89.27,124.31 149.61,191.47 88.51,98.5 235.59,180.04 252.69,267.54 12.86,65.76 -32.78,100.27 -55.2,130.76l-115.44 43.33c-150.24,63.26 -205.63,214.16 -126.18,333.64 73.62,110.68 143.85,155.45 222.17,299.49 9.13,16.8 42.95,90.05 53.69,108.19l-0.7 5.27 38.63 215.28c-15.67,79.98 5.42,155.04 -77.81,312.62 -14.32,27.11 -36.48,57.86 -46.29,82.04 209.87,51.48 165.07,293.15 -3.71,306.1 -70.94,5.45 -470.53,-82.97 -571.52,-101.97 -382.76,-72 -765.51,-143.99 -1148.27,-215.99 -132.99,-25.01 -1670.11,-303.54 -1722.3,-330.98 -148.83,-78.26 -97.39,-312.16 112,-284.23 0.18,-25.1 -9.61,-63.64 -13.05,-93.2 -20.92,-179.8 29.1,-243.16 42.11,-325.39 40.37,-68.36 113.23,-180.56 113.23,-180.56l2.03 -5.52c18.73,-13.75 66.22,-63.89 84.73,-78.67 81.61,-65.12 115.97,-85.95 211.14,-136.78 37.28,-19.91 78.39,-40.69 108.84,-63.48 126.16,-94.41 112.82,-253.47 0.08,-360.33 -16.15,-15.31 -31.84,-25.76 -49.63,-42.22 -19.38,-17.94 -28.4,-33.11 -45.15,-47.26 -4.3,-40.46 -61.97,-128.13 84.62,-193.79 38.16,-17.09 135.08,-44.54 213.27,-77.89 292.55,-124.75 503.97,-346.83 632.57,-651.02 37.53,-88.77 114.38,-306.79 95.62,-407.37 -6.87,-36.8 -31.53,-78.6 -72.41,-85.45 -23.54,-26.45 -182.66,-32.61 -236.89,-72.64 -27.43,-20.25 -47.77,-46.98 -51.81,-85.11 -5.47,-51.76 19.58,-77.5 38.98,-114.53 49.25,-24.99 5.37,-33.09 174.31,-90.31 41.49,-14.06 162.87,-53.05 189.38,-71.07 -33.79,-94.62 -4.48,-176.87 88.21,-199.66 34,-8.37 48.46,-0.09 73.36,1.96 34.57,2.83 30.66,4.34 49.18,-99.21 9.71,-54.26 -44.04,-93.31 -93.27,-211.92 -42.47,-102.32 -48.93,-146.42 -54.63,-203.17l0.68 -1.95c0,0 -8.21,-127.25 2.52,-290.06 6.86,-104.01 53.41,-215.59 86.15,-282.66 26.63,-38.44 84.89,-130.59 98.54,-146.87 39.8,-47.49 86.33,-97.06 128.66,-130.02 92.08,-71.72 187.14,-134.94 327.08,-174.04 294.42,-82.28 577.19,-27.46 821.04,156.55 147.11,111.02 263.03,285.24 313.09,455.11 42.88,145.5 22.27,162.79 38.99,180.55l-3.6 3.18z"/>
     </clipPath>
     <clipPath id="id7">
      <path d="M17357.62 7701.29c-26.8,-11.46 -47.48,-20.85 -71.63,-38.73 -20.88,-15.47 -24.33,-18.2 -31.51,-42.57 -0.53,-1.83 -1.76,-7.42 -2.31,-9.22 -5.1,-16.84 4.52,0.73 -5.04,-14.08 -59.12,39.84 -198.6,60.72 -213.67,135.76 63.82,46.13 312.64,80.69 415.42,100.5 408.26,78.68 793.33,164.73 1202.55,230.32 -59.62,-67.05 -614.25,-174.6 -742.51,-204.48 -156.39,-36.43 -405.28,-95.06 -551.29,-157.49z"/>
     </clipPath>
     <clipPath id="id8">
      <path d="M17354.08 7982.25c-74.62,336.53 -140.92,548.76 -316.02,810.91 -103.34,154.7 -246.56,290.94 -395.6,376.27 -33.24,19.03 -133.48,69.84 -146.19,114.73 -18.55,65.49 113.35,87.22 171.68,100.82 200.08,46.66 542.08,103.69 752.78,143.32 166.41,31.31 332.83,62.61 499.24,93.91 164.48,30.95 342,71.23 506.11,94.39 -98.22,-124.4 -765.38,-289.83 -978.62,-330.46 -102.42,-19.5 -265.94,-48.82 -341.32,-105.06 -98.46,-73.44 -21.33,-187.74 25.49,-286.97 89.61,-189.91 293.05,-764.75 241.04,-976.96l-18.61 -34.9z"/>
     </clipPath>
     <clipPath id="id9">
      <path d="M16395.61 9887.08c-122.09,87.91 -364.93,221.78 -454.92,412.74 -62.77,133.16 -38.84,257.67 34.47,330.55 80.17,79.7 221.42,102.25 348.72,126.2 280.79,52.82 562.28,104.2 842.75,158.44 271.52,52.54 561.39,118.69 834.66,162.11 -75.32,-59.05 -477.01,-178.4 -598.34,-210.98 -217.35,-58.36 -436.57,-111.37 -655.22,-163.1 -220.2,-52.11 -449.01,-83.5 -517.1,-263.46 -76.75,-202.88 143.92,-488.01 164.98,-552.49z"/>
     </clipPath>
    <clipPath id="id10" style="clip-rule:nonzero">
     <path d="M12297.29 7187.01l0 2684.31 2345.61 1405.67 2362.54 -1363.33 25.4 -2718.18 -2371.01 -1414.14 -2362.54 1405.67z"/>
    </clipPath>
     <clipPath id="id11" style="clip-rule:nonzero">
      <path d="M13254.95 9393.51l1400.3 1694.24 1475.11 -1683.56 -2875.41 -10.68z"/>
     </clipPath>
     <clipPath id="id12" style="clip-rule:nonzero">
      <path d="M12297.29 7187.01l0 2684.31 2345.61 1405.67 2362.54 -1363.33 25.4 -2718.18 -2371.01 -1414.14 -2362.54 1405.67z"/>
     </clipPath>
     <clipPath id="id13" style="clip-rule:nonzero">
      <path d="M16873.26 9778.32l-742.91 -374.12 -1475.11 1683.55 2218.02 -1309.43z"/>
     </clipPath>
     <clipPath id="id14" style="clip-rule:nonzero">
      <path d="M12297.29 7187.01l0 2684.31 2345.61 1405.67 2362.54 -1363.33 25.4 -2718.18 -2371.01 -1414.14 -2362.54 1405.67z"/>
     </clipPath>
     <clipPath id="id15" style="clip-rule:nonzero">
      <path d="M13254.95 9393.51l1400.3 1694.24 -2231.39 -1288.05 831.09 -406.19z"/>
     </clipPath>
     <clipPath id="id16" style="clip-rule:nonzero">
      <path d="M12297.29 7187.01l0 2684.31 2345.61 1405.67 2362.54 -1363.33 25.4 -2718.18 -2371.01 -1414.14 -2362.54 1405.67z"/>
     </clipPath>
     <clipPath id="id17" style="clip-rule:nonzero">
      <path d="M12415.85 7228.94l839.1 2164.57 -831.09 406.19 -8.01 -2570.76z"/>
     </clipPath>
     <clipPath id="id18" style="clip-rule:nonzero">
      <path d="M12297.29 7187.01l0 2684.31 2345.61 1405.67 2362.54 -1363.33 25.4 -2718.18 -2371.01 -1414.14 -2362.54 1405.67z"/>
     </clipPath>
     <clipPath id="id19" style="clip-rule:nonzero">
      <path d="M14692.66 6913.61l-2276.81 315.33 839.11 2164.57 1437.7 -2479.9z"/>
     </clipPath>
     <clipPath id="id20" style="clip-rule:nonzero">
      <path d="M12297.29 7187.01l0 2684.31 2345.61 1405.67 2362.54 -1363.33 25.4 -2718.18 -2371.01 -1414.14 -2362.54 1405.67z"/>
     </clipPath>
     <clipPath id="id21" style="clip-rule:nonzero">
      <path d="M16905.33 7266.35l-2212.67 -352.75 1437.7 2490.6 774.97 -2137.85z"/>
     </clipPath>
     <clipPath id="id22" style="clip-rule:nonzero">
      <path d="M12297.29 7187.01l0 2684.31 2345.61 1405.67 2362.54 -1363.33 25.4 -2718.18 -2371.01 -1414.14 -2362.54 1405.67z"/>
     </clipPath>
     <clipPath id="id23" style="clip-rule:nonzero">
      <path d="M16905.33 7266.35l-32.07 2511.97 -742.9 -374.12 774.97 -2137.85z"/>
     </clipPath>
     <clipPath id="id24" style="clip-rule:nonzero">
      <path d="M12297.29 7187.01l0 2684.31 2345.61 1405.67 2362.54 -1363.33 25.4 -2718.18 -2371.01 -1414.14 -2362.54 1405.67z"/>
     </clipPath>
     <clipPath id="id25" style="clip-rule:nonzero">
      <path d="M12420.1 7228.94l2244.71 -1297.46 27.85 982.12 -2272.56 315.34z"/>
     </clipPath>
     <clipPath id="id26" style="clip-rule:nonzero">
      <path d="M12297.29 7187.01l0 2684.31 2345.61 1405.67 2362.54 -1363.33 25.4 -2718.18 -2371.01 -1414.14 -2362.54 1405.67z"/>
     </clipPath>
     <clipPath id="id27" style="clip-rule:nonzero">
      <path d="M16908.23 7268.17l-2243.41 -1336.69 27.83 982.12 2215.58 354.57z"/>
     </clipPath>
     <clipPath id="id28" style="clip-rule:nonzero">
      <path d="M12297.29 7187.01l0 2684.31 2345.61 1405.67 2362.54 -1363.33 25.4 -2718.18 -2371.01 -1414.14 -2362.54 1405.67z"/>
     </clipPath>
  <linearGradient id="id29" gradientUnits="userSpaceOnUse" x1="14613.35" y1="11824.46" x2="14632.93" y2="14663.9">
   <stop offset="0" style="stop-opacity:1; stop-color:#173966"/>
   <stop offset="1" style="stop-opacity:1; stop-color:#338AC2"/>
  </linearGradient>
  <linearGradient id="id30" gradientUnits="userSpaceOnUse" xlink:href="#id29" x1="14613.35" y1="11824.46" x2="14632.93" y2="14663.9">
  </linearGradient>
  <linearGradient id="id31" gradientUnits="userSpaceOnUse" xlink:href="#id29" x1="14613.36" y1="11824.46" x2="14632.94" y2="14663.9">
  </linearGradient>
  <linearGradient id="id32" gradientUnits="userSpaceOnUse" xlink:href="#id29" x1="14613.35" y1="11824.47" x2="14632.93" y2="14663.9">
  </linearGradient>
 </defs>
 <g id="Camada_x0020_1">
  <metadata id="CorelCorpID_0Corel-Layer"/>
  <rect class="fil0" width="29698.94" height="20999.25"/>
  <g id="_1848390057520">
   <path class="fil1" d="M11122.57 15798.81l152.59 0 0 126c0,32.7 -6.35,61.09 -19.04,84.93 -12.82,23.83 -30.79,42.28 -54.14,55.22 -23.24,13.05 -50.91,19.52 -82.89,19.52 -32.1,0 -60.01,-6.23 -83.97,-18.57 -23.83,-12.45 -42.16,-29.94 -55.1,-52.7 -12.81,-22.64 -19.28,-49.59 -19.28,-80.73l0 -207.69c0,-32.94 6.47,-61.57 19.28,-85.64 12.94,-24.08 31.03,-42.64 54.5,-55.82 23.36,-13.06 50.79,-19.64 82.41,-19.64 31.39,0 58.1,5.99 80.14,17.72 22.16,11.86 39.4,29.59 51.86,53.19 12.34,23.59 19.76,53.06 22.04,88.39l0 0 -95.82 0 0 0c-1.8,-22.39 -7.91,-38.92 -18.09,-49.46 -10.06,-10.55 -23.48,-15.82 -40.13,-15.82 -18.92,0 -34.01,6.11 -45.03,18.33 -11.14,12.1 -16.77,28.39 -16.77,48.75l0 207.69c0,17.85 5.75,31.98 17.24,42.28 11.5,10.42 27.08,15.69 46.72,15.69 19.4,0 34.85,-5.75 46.23,-17.01 11.5,-11.37 17.25,-27.07 17.25,-47.19l0 -39.29 -60.01 0 0 -88.15zm927.26 280.39l158.22 -510.24 61.08 0 158.58 510.24 -95.1 0 -94.03 -341.48 -94.03 341.48 -94.74 0zm88.04 -80.73l0 -86.96 203.85 0 0 86.96 -203.85 0zm1096.73 -118.94l91.99 -310.58 104.21 0 0 510.24 -82.53 0 0 -376.22 4.19 22.52 -85.52 280.04 -64.32 0 -85.88 -273.09 5.27 -29.47 0 376.22 -83.25 0 0 -510.24 104.93 0 90.91 310.58zm843.65 199.66l0.36 -510.24 91.63 0 0 510.24 -91.99 0zm36.89 0l0 -88.76 247.7 0 0 88.76 -247.7 0zm0 -208.77l0 -89.11 219.67 0 0 88.75 -219.67 0.36zm0 -212.72l0 -88.75 247.7 0 0 88.75 -247.7 0zm1260.6 421.49l0.36 -510.24 91.51 0 0 510.24 -91.87 0zm-217.63 0l0.36 -510.24 91.63 0 0 510.24 -91.99 0zm43.24 -208.41l0 -87.44 234.04 -0.36 0 87.44 -234.04 0.36zm1067.27 213.68c-32.34,0 -60.37,-6.23 -84.09,-18.81 -23.71,-12.45 -42.04,-30.3 -54.98,-53.54 -12.81,-23.11 -19.28,-50.3 -19.28,-81.69l0 -212.72c0,-31.74 6.47,-59.17 19.28,-82.28 12.94,-23 31.27,-40.73 54.98,-53.07 23.72,-12.45 51.75,-18.68 84.09,-18.68 32.46,0 60.61,6.23 84.32,18.68 23.72,12.34 42.05,30.07 54.98,53.07 12.82,23.11 19.29,50.54 19.29,82.28l0 212.72c0,31.39 -6.47,58.58 -19.29,81.69 -12.93,23.24 -31.26,41.09 -54.98,53.54 -23.71,12.58 -51.86,18.81 -84.32,18.81zm0 -91.63c19.88,0 35.57,-5.99 47.19,-17.85 11.5,-11.98 17.37,-28.27 17.37,-49.11l0 -204.21c0,-20.37 -5.75,-36.66 -17.25,-48.63 -11.5,-12.1 -27.19,-18.09 -47.31,-18.09 -19.77,0 -35.34,5.99 -46.96,18.09 -11.49,11.97 -17.36,28.26 -17.36,48.63l0 204.21c0,20.84 5.87,37.13 17.36,49.11 11.62,11.86 27.19,17.85 46.96,17.85zm934.56 91.63c-48.51,0 -86.24,-13.89 -113.19,-41.8 -27.07,-27.79 -40.61,-66.96 -40.61,-117.51l0 -356.21 91.63 0 0 358.61c0,20.84 5.39,37.01 16.17,48.51 10.78,11.38 26.12,17.13 46,17.13 19.88,0 35.33,-5.75 46.23,-17.13 11.02,-11.5 16.53,-27.67 16.53,-48.51l0 -358.61 91.99 0 0 356.21c0,50.55 -13.65,89.72 -40.96,117.51 -27.19,27.91 -65.16,41.8 -113.79,41.8zm922.94 0c-28.75,0 -54.02,-4.31 -75.82,-12.82 -21.68,-8.5 -39.65,-21.2 -53.9,-38.09 -14.13,-16.77 -24.2,-37.73 -30.31,-62.76l0 0 85.29 -37.61 0 0c6.83,20.6 17.01,36.17 30.54,46.71 13.54,10.54 30.07,15.81 49.47,15.81 20.12,0 35.82,-4.43 47.07,-13.41 11.14,-8.87 16.77,-21.2 16.77,-37.13l0 -22.88c0,-12.58 -3.71,-22.64 -11.02,-30.19 -7.42,-7.42 -17.24,-13.53 -29.46,-18.2 -12.34,-4.67 -25.63,-9.11 -39.89,-13.3 -15.69,-4.67 -31.5,-10.06 -47.55,-16.17 -15.93,-6.11 -30.78,-14.01 -44.2,-23.84 -13.42,-9.82 -24.2,-22.99 -32.46,-39.52 -8.15,-16.41 -12.22,-37.73 -12.22,-63.73l0 -13.29c0,-44.68 13.66,-79.18 40.97,-103.73 27.43,-24.44 66.12,-36.65 116.18,-36.65 38.09,0 69.48,9.1 93.91,27.43 24.44,18.2 41.21,45.51 50.31,81.69l0 0 -81.09 38.33 0 0c-6.47,-19.65 -15.57,-34.5 -27.31,-44.44 -11.74,-9.94 -25.28,-14.86 -40.73,-14.86 -19.64,0 -34.73,4.08 -45.27,12.22 -10.54,8.27 -15.82,19.65 -15.82,34.38l0 16.89c0,14.25 4.2,25.51 12.34,33.66 8.15,8.26 19.05,14.73 32.46,19.52 13.42,4.79 27.91,9.7 43.36,14.85 15.21,4.67 30.43,10.06 45.64,16.05 15.21,5.87 28.99,13.78 41.56,23.6 12.46,9.82 22.52,22.76 29.95,38.69 7.54,15.81 11.26,36.05 11.26,60.61l0 21.8c0,44.44 -14.02,78.93 -41.93,103.49 -28.02,24.55 -67.31,36.89 -118.1,36.89zm788.55 -5.27l0.36 -510.24 91.63 0 0 510.24 -91.99 0zm36.89 0l0 -88.76 247.7 0 0 88.76 -247.7 0zm0 -208.77l0 -89.11 219.67 0 0 88.75 -219.67 0.36zm0 -212.72l0 -88.75 247.7 0 0 88.75 -247.7 0z"/>
   <g>
    <path class="fil2" d="M10540.86 15698.33c69.45,0 125.75,56.3 125.75,125.75 0,69.45 -56.3,125.76 -125.75,125.76 -69.45,0 -125.76,-56.31 -125.76,-125.76 0,-69.45 56.31,-125.75 125.76,-125.75z"/>
    <path class="fil2" d="M19619.44 15698.33c69.45,0 125.75,56.3 125.75,125.75 0,69.45 -56.3,125.76 -125.75,125.76 -69.45,0 -125.75,-56.31 -125.75,-125.76 0,-69.45 56.3,-125.75 125.75,-125.75z"/>
   </g>
   <path class="fil3" d="M14985.18 14497.63c-71.17,132.07 -166.73,252.58 -289.37,357.92 -320.04,274.93 -731.2,368.47 -1144.33,368.47 -412.39,0 -822.45,-93.6 -1140.84,-369.54 -110.56,-95.81 -198.84,-204.03 -266.93,-321.94 -68.41,137.78 -167.36,260.64 -298.94,363.48 -285.58,223.21 -649.18,292.97 -1003.97,292.97l-1398.91 0c-206.71,0 -375.32,-168.6 -375.32,-375.32l0 -3391.38c0,-206.71 168.6,-375.32 375.32,-375.32l625.37 0 -1425.43 -4121.11c-120.03,-347.02 64.93,-727.57 411.95,-847.6l3257.98 -1126.88c347.02,-120.03 727.57,64.94 847.6,411.96l250.71 724.86 1057.86 -629.41c121.53,-72.3 262.71,-72.22 384.17,0.21l1932.43 1152.57c0.95,-52.85 3.37,-105.68 6.83,-158.17 10.86,-164.71 65.27,-327.49 137.36,-475.1l4.7 -9.63c8.73,-17.89 17.34,-32.57 28.66,-48.94l6.1 -8.81c43.5,-62.83 77.08,-124.64 127.28,-184.54 62.55,-74.65 130.14,-145.78 207.12,-205.73 156.35,-121.76 313.29,-210.23 505.24,-263.89 449.42,-125.6 898.56,-39.28 1270.81,241.63 232.84,175.72 414.86,441.57 497.24,721.2 20.44,69.35 35.01,137.22 44.32,208.83 1.35,10.42 2.16,19.33 2.68,29.82l6.82 137.69c0.54,11.04 0.62,20.46 0.23,31.5l-6.39 185.37c-0.81,23.79 -3.36,44.02 -8.44,67.29l-2.73 12.48c-10.61,48.44 -20.68,96.29 -34.69,143.93 -5.45,18.51 -12.01,35.56 -18.6,52.81l-1.16 12.73c-8.29,91.67 -44.59,169.14 -108.71,232.04l-41.63 71.72c-6.57,11.31 -12.64,20.67 -20.3,31.28l-4.12 5.7c-16.85,23.34 -33.64,45.53 -50.59,66.84 7.13,25.89 12.6,52.07 16.39,78.4 70.65,68 130.71,143.77 174.82,234.2l29.14 52.55c42.32,76.31 56.11,154.41 42.5,240.6l-4.37 27.66c-9.41,139.94 -26.62,236.58 -115.07,360.92 -96.63,135.83 -228,212.21 -373.45,243.82 2.95,31.66 7.98,72.25 14.71,105.95 19.23,35.26 31.68,71.92 38.71,113.44 11.02,23.49 25.99,50.54 37.64,69.23 27.5,43.66 62.39,83.25 96.82,121.58 36.88,41.05 99.76,85.24 142.31,124.33 116.81,107.29 202.04,230.85 232.98,389.12 30.03,153.61 2.06,310.09 -78.87,444 -21.35,35.33 -43.28,61.21 -67.63,92.2l-24.25 32.99c-1.93,2.62 -3.88,5.21 -5.84,7.77 17.13,26.85 33.41,54.38 48.83,82.74 16.96,31.19 30.3,65.93 46.93,96.09l22.3 37.66c39.59,66.87 56.64,135.87 51.99,211.18l29.64 165.18c8.62,48.06 8.29,90.53 -1.1,138.44l-4.47 22.88c-0.61,4.72 -1.14,9.45 -1.61,14.18 277.37,17.53 550.28,85.44 788.47,235.09 279.84,175.83 463.19,437.56 557.66,753.07 56,187.02 -39.53,384.37 -220.96,456.44l-479.97 190.71c94.85,40.21 185.99,88.5 272.42,145.49 149.75,98.77 269.69,230.39 357.45,386.79 100.51,179.11 137.05,382.97 137.05,586.49l0 144.89c0,402.72 -158.14,749.38 -483.96,989.82 -331.94,244.94 -752.66,318.52 -1156.73,318.52 -241.7,0 -486.47,-28.24 -716.76,-103.96 -215.86,-70.99 -412.38,-182.89 -573.9,-343.86 -70.89,-70.64 -131.71,-148.21 -183.03,-231.48 -1.39,2.2 -2.79,4.4 -4.19,6.58 -142.63,222.49 -348.28,381.69 -589.54,485.9 -263.17,113.69 -555.48,151.78 -840.26,151.78l-1184.86 0c-206.71,0 -375.32,-168.6 -375.32,-375.32l0 -316.04z"/>
   <path class="fil2" d="M9176.45 6432.96l3257.98 -1126.87c151.28,-52.33 317.88,28.64 370.21,179.92l401.34 1160.35 1453.85 -865.02 2371.01 1414.14 -2.11 226.12c18.21,-5.83 38.28,-12.07 58.11,-18.66 6.12,-114.26 74.91,-212.63 202,-246.37 -0.47,-0.79 -0.93,-1.55 -1.37,-2.29 -22.66,-38.26 -42.65,-76.67 -59.72,-117.8 -35.21,-84.78 -55.57,-152.27 -64.68,-243.06l-3.13 -31.03 1.72 -4.93c-4.46,-91.77 -1.74,-189.27 4.2,-279.37 7.52,-114.07 50.31,-233.11 100.11,-335.13l4.7 -9.62 6.1 -8.81c34.16,-49.3 68.83,-112.34 106.35,-157.11 44.64,-53.27 95.3,-108.03 150.06,-150.66 118.08,-91.97 229.8,-157.77 375.66,-198.54 336.71,-94.11 664.86,-30.68 943.71,179.75 168.6,127.25 303.74,325.48 363.32,527.69 16.25,55.13 25.38,99.11 32.14,151.14l6.83 137.69 -6.39 185.37 -2.73 12.48c-8.69,39.73 -16.62,79.16 -28.12,118.26 -6.93,23.57 -24.4,59.82 -28.39,81.52l-5.08 56.08 -29.87 25.55c-0.11,0.23 -0.23,0.45 -0.34,0.69l-2.18 4.5 -68.75 118.43 -4.12 5.7c-71.97,99.59 -127.46,156.88 -214.92,230.86 38.53,27 67.9,63.51 88.79,107.38 30.06,63.11 36.53,130.09 12.82,196.1 22.31,17.21 45.32,33.92 64.3,49.34 64.21,52.18 125.06,111.25 160.09,187.36l34.76 62.67 -7.09 44.83c-4.42,71.78 -1.33,119.93 -47.46,184.77 -80.87,113.68 -226.36,115.36 -350.33,92.42 -13.16,-2.43 -43.58,-8.56 -64.6,-10.11 -6.78,19.17 -12.2,48.38 -14.3,61.09 -17.59,105.88 -22.32,227.42 -13.71,334.24 4.48,55.29 23.01,194.66 43.97,246.08l14.91 20.92 4.86 31.98c8.75,37.7 63,138.37 85.05,173.36 40.2,63.83 84.91,116.44 135.22,172.42 95.23,105.99 256.34,182.21 286.14,334.62 12.23,62.59 1.16,123.42 -31.73,177.86 -15.31,25.31 -31.62,41 -48.25,63.28l-24.77 33.66 -151.58 56.92c-49.71,21.73 -97.59,70.7 -61.42,125.05 29.77,44.78 64.73,83.26 99.39,124.07 50.32,59.23 92,117.67 129.23,186.13 18.36,33.77 32.61,70.83 51.33,104.02l24.68 41.69 -4.25 31.81 39.41 219.61 -5.07 25.92c-7.4,37.72 -6.67,81.15 -12.44,120.53 -9.97,68.22 -30.98,131.21 -59.93,192.57 42.66,39.52 73.17,89.98 85.56,148.29 64.01,-5.02 130.8,-7.53 200.36,-7.53 301.18,0 549.32,60.51 742.54,182.3 193.21,121.01 325.82,302.52 397.81,542.94l-641.21 254.75c-51.16,-130.56 -123.14,-229.28 -215.94,-295.35 -92.83,-66.08 -199.85,-98.72 -322.03,-98.72 -155.33,0 -274.68,27.07 -358.03,81.21 -83.34,54.93 -125.02,130.56 -125.02,228.47l0 112.25c0,94.75 33.15,169.57 97.57,223.71 64.4,54.93 150.58,97.92 256.67,129.77 106.07,31.84 220.67,64.48 342.86,98.71 120.29,31.05 240.56,66.88 360.85,106.69 120.29,39.01 229.21,91.55 328.66,156.82 98.51,65.28 178.06,151.26 236.78,257.14 59.67,105.09 89.04,239.63 89.04,402.83l0 144.89c0,295.35 -110.82,524.63 -331.5,687.83 -221.63,163.19 -532.29,245.19 -933.88,245.19 -227.3,0 -427.15,-28.65 -599.54,-85.18 -171.42,-56.52 -313.49,-140.9 -426.19,-253.16 -111.78,-111.45 -191.33,-250.76 -239.63,-417.16l674.36 -249.97c53.98,136.93 134.5,240.42 241.53,310.48 107.01,70.06 237.72,105.09 391.16,105.09 159.12,0 283.18,-29.46 372.22,-89.17 88.08,-58.91 132.61,-140.9 132.61,-246.79l0 -152.05c0,-83.59 -29.36,-150.46 -87.15,-200.61 -58.72,-49.37 -136.38,-89.97 -232.99,-121.02 -97.56,-31.05 -202.67,-60.5 -315.39,-88.36 -124.09,-31.05 -249.09,-66.87 -376.02,-107.48 -125.97,-40.61 -243.41,-93.14 -349.49,-158.42 -106.08,-65.28 -191.31,-152.85 -256.67,-262.71 -64.4,-109.07 -96.61,-250.77 -96.61,-423.52l0 -88.37c0,-276.12 93.39,-493.74 280.11,-654.12 -38.15,-7.86 -76.32,-15.55 -114.51,-22.74 -382.75,-72 -765.5,-143.99 -1148.25,-215.98 -296.88,-55.84 -594.34,-109.03 -891.31,-164.55 -186.73,-34.92 -373.5,-70.05 -559.87,-106.9 -63.89,-12.64 -127.87,-25.4 -191.5,-39.25 -35.2,-7.67 -87.61,-17.46 -119.11,-34.03 -91.07,-47.88 -149.43,-135.5 -159.22,-231.99l-738.67 426.26 -824.34 -494 -2325.69 804.41c23.25,14.36 45.53,29.64 66.79,45.86 182.8,140.9 274.67,340.72 274.67,598.66l0 181.51c0,175.94 -60.62,320.82 -180.89,433.86 -120.29,113.85 -288.88,186.29 -507.66,217.34 234.88,26.27 416.74,100.31 546.49,222.91 129.76,121.8 194.16,281.01 194.16,476.85l0 233.26c0,259.52 -90.93,460.14 -272.78,602.64 -182.79,142.5 -440.41,213.36 -772.85,213.36l-1035.21 0 0 -580.36 946.18 0c129.77,0 230.17,-27.87 301.2,-82 71.03,-54.14 107.02,-130.57 107.02,-228.48l0 -230.87c0,-105.88 -35.99,-188.66 -108.92,-247.58 -71.99,-58.91 -173.32,-88.37 -304.97,-88.37l-940.51 0 0 -576.37 931.99 0c118.39,0 211.2,-27.07 276.55,-82.8 65.36,-54.94 98.51,-132.95 98.51,-234.05l0 -182.3c0,-88.37 -33.15,-156.83 -98.51,-206.19 -65.35,-48.57 -158.16,-73.25 -276.55,-73.25l-931.99 0 0 -578.76 788.61 0 -1597.67 -4619.12c-52.33,-151.29 28.64,-317.89 179.93,-370.22zm7844.71 1797.87l1.81 -193.59c6.34,1.27 12.54,2.63 18.38,4.08l12.77 14.33 7.21 1.22c-1.59,41.63 -19.85,110.37 -40.17,173.96zm-1238.25 6582.85l-2.84 -585.13 743.49 0c169.52,0 302.14,-38.22 396.84,-113.05 93.78,-75.64 140.18,-180.72 138.3,-313.67l0 -1369.29c1.89,-135.34 -44.52,-239.62 -138.3,-313.66 -94.7,-74.03 -227.31,-110.66 -396.84,-110.66l-740.65 0 -2.84 -585.93 768.12 0c399.69,0 708.44,86.78 927.24,258.73 217.83,172.75 326.75,415.57 326.75,727.63l0 1416.26c0,200.61 -47.35,374.96 -143,523.83 -94.72,148.07 -235.84,262.71 -422.41,343.92 -187.54,80.41 -417.7,121.01 -691.42,121.01l-762.43 0zm-422.42 0l0 -586.55 724.56 0 0 586.55 -724.56 0zm0 -1401.89l0 -1989.49 724.56 0 0 1989.49 -724.56 0zm-1809.02 1436.91c-383.6,0 -681.94,-92.35 -895.05,-277.83 -214.04,-184.69 -321.06,-445.01 -321.06,-780.97l0 -2367.6 724.53 0 0 2383.51c0,138.53 42.63,245.99 127.87,322.42 85.25,75.64 206.47,113.85 363.71,113.85 157.21,0 279.4,-38.21 365.59,-113.85 87.15,-76.43 130.71,-183.89 130.71,-322.42l0 -2383.51 727.39 0 0 2367.6c0,335.96 -107.98,596.28 -323.92,780.97 -214.99,185.48 -515.23,277.83 -899.77,277.83zm-4109.59 -35.02l0 -3391.38 724.56 0 0 3391.38 -724.56 0z"/>
   <g>
    <path class="fil2" d="M9176.44 6432.97l3257.98 -1126.88c151.29,-52.33 317.89,28.64 370.22,179.92l1649.56 4769.14c52.33,151.29 -28.64,317.89 -179.93,370.22l-3257.97 1126.87c-151.29,52.33 -317.89,-28.63 -370.22,-179.92l-1649.56 -4769.14c-52.33,-151.28 28.64,-317.88 179.92,-370.21z"/>
    <g style="clip-path:url(#id0)">
     <g>
      <polygon id="_1" class="fil4" points="12171.38,7175.06 12171.38,9949.21 13424.22,10637.89 14262.6,11140.38 14455.91,9705.9 13840.2,6110.34 "/>
     </g>
    </g>
    <path class="fil5" d="M9176.44 6432.97l3257.98 -1126.88c151.29,-52.33 317.89,28.64 370.22,179.92l1649.56 4769.14c52.33,151.29 -28.64,317.89 -179.93,370.22l-3257.97 1126.87c-151.29,52.33 -317.89,-28.63 -370.22,-179.92l-1649.56 -4769.14c-52.33,-151.28 28.64,-317.88 179.92,-370.21z"/>
    <path class="fil6" d="M9585.99 6678.84l2678.34 -926.39c124.37,-43.02 261.32,23.54 304.34,147.91l1443.98 4174.78c43.02,124.38 -23.54,261.32 -147.9,304.34l-2678.34 926.39c-124.38,43.02 -261.32,-23.54 -304.35,-147.91l-1443.98 -4174.77c-43.02,-124.39 23.54,-261.33 147.91,-304.35z"/>
    <g style="clip-path:url(#id1)">
     <g>
      <polygon id="_1_0" class="fil7" points="12862.95,6751.16 12171.38,7175.06 12171.38,9949.21 13424.22,10637.89 14262.6,11140.38 14455.91,9705.9 13855.67,6419.8 "/>
      <path class="fil8" d="M12542.42 5847.08l-2978.96 1013.94 1480.04 4308.89 115.36 322.39c0,0 -773.12,-139.68 -1355.03,-527.61 -581.91,-387.94 -3245.8,-4719.99 -1512.98,-5159.67 1732.82,-439.67 4375.31,-543.89 4251.58,42.06z"/>
     </g>
    </g>
    <path class="fil5" d="M9585.99 6678.84l2678.34 -926.39c124.37,-43.02 261.32,23.54 304.34,147.91l1443.98 4174.78c43.02,124.38 -23.54,261.32 -147.9,304.34l-2678.34 926.39c-124.38,43.02 -261.32,-23.54 -304.35,-147.91l-1443.98 -4174.77c-43.02,-124.39 23.54,-261.33 147.91,-304.35z"/>
    <path class="fil1" d="M11040.96 9154.38l31.02 -10.73 8.86 25.61c2.3,6.65 2.99,12.86 2.09,18.6 -0.92,5.75 -3.28,10.75 -7.12,15.02 -3.81,4.29 -8.97,7.55 -15.48,9.8 -6.52,2.26 -12.63,2.95 -18.37,2.13 -5.71,-0.86 -10.67,-3.12 -14.9,-6.83 -4.19,-3.71 -7.4,-8.73 -9.59,-15.06l-14.6 -42.21c-2.32,-6.7 -3.01,-12.97 -2.11,-18.76 0.94,-5.81 3.32,-10.85 7.16,-15.19 3.83,-4.28 8.94,-7.55 15.37,-9.78 6.38,-2.2 12.22,-2.86 17.53,-2.03 5.34,0.85 10.09,3.24 14.28,7.17 4.17,3.92 7.75,9.39 10.7,16.41l0 0 -19.48 6.74 0 0c-1.94,-4.43 -4.34,-7.36 -7.15,-8.79 -2.8,-1.43 -5.89,-1.56 -9.27,-0.39 -3.85,1.33 -6.49,3.63 -7.87,6.89 -1.41,3.24 -1.41,6.95 0.02,11.09l14.6 42.21c1.26,3.63 3.41,6.1 6.48,7.39 3.07,1.31 6.61,1.28 10.59,-0.1 3.95,-1.37 6.69,-3.61 8.21,-6.71 1.54,-3.11 1.6,-6.71 0.18,-10.8l-2.76 -7.98 -12.19 4.22 -6.2 -17.92zm208.17 -8.2l-3.71 -114.84 12.41 -4.29 68.1 92.56 -19.32 6.69 -43.12 -62.8 4.9 76.02 -19.26 6.66zm12.21 -22.59l-6.11 -17.68 41.44 -14.33 6.11 17.67 -41.44 14.34zm214.55 -101.28l-3.14 -69.6 21.18 -7.33 35.87 103.72 -16.77 5.8 -26.45 -76.47 2.43 4.28 2.31 62.94 -13.07 4.52 -36.66 -49.48 -1 -6.35 26.45 76.46 -16.92 5.86 -35.87 -103.72 21.32 -7.37 40.32 56.74zm185.49 -18.73l-35.79 -103.74 18.61 -6.44 35.88 103.72 -18.7 6.46zm7.5 -2.59l-6.24 -18.04 50.35 -17.42 6.24 18.04 -50.35 17.42zm-14.68 -42.43l-6.27 -18.12 44.66 -15.45 6.24 18.04 -44.63 15.53zm-14.95 -43.24l-6.24 -18.04 50.35 -17.42 6.24 18.04 -50.35 17.42zm285.84 -2.95l-35.8 -103.74 18.6 -6.43 35.87 103.71 -18.67 6.46zm-44.23 15.3l-35.8 -103.74 18.62 -6.44 35.87 103.71 -18.69 6.47zm-5.87 -45.4l-6.14 -17.78 47.55 -16.52 6.14 17.77 -47.55 16.53zm231.93 -31.6c-6.57,2.27 -12.7,2.97 -18.4,2.09 -5.7,-0.87 -10.69,-3.21 -14.95,-7.02 -4.22,-3.8 -7.45,-8.86 -9.66,-15.24l-14.96 -43.24c-2.23,-6.45 -2.83,-12.49 -1.86,-18.08 1.01,-5.59 3.5,-10.48 7.45,-14.65 3.95,-4.2 9.2,-7.44 15.77,-9.71 6.6,-2.28 12.76,-2.99 18.45,-2.13 5.69,0.84 10.67,3.15 14.91,6.92 4.23,3.79 7.48,8.91 9.71,15.37l14.95 43.23c2.21,6.38 2.8,12.36 1.82,17.96 -0.99,5.63 -3.47,10.55 -7.41,14.75 -3.94,4.22 -9.22,7.46 -15.82,9.75zm-6.43 -18.62c4.04,-1.4 6.8,-3.72 8.33,-6.95 1.49,-3.25 1.54,-6.96 0.08,-11.2l-14.36 -41.51c-1.43,-4.14 -3.74,-7.05 -6.93,-8.67 -3.18,-1.65 -6.79,-1.77 -10.88,-0.35 -4.02,1.39 -6.76,3.7 -8.27,6.98 -1.5,3.23 -1.54,6.96 -0.11,11.1l14.36 41.51c1.46,4.23 3.8,7.13 6.97,8.76 3.2,1.59 6.79,1.72 10.81,0.33zm196.37 -47.08c-9.85,3.4 -18.5,3.24 -25.94,-0.54 -7.46,-3.74 -12.97,-10.76 -16.52,-21.03l-25.04 -72.4 18.63 -6.44 25.21 72.89c1.46,4.23 3.7,7.14 6.7,8.72 2.99,1.56 6.5,1.64 10.55,0.24 4.03,-1.39 6.78,-3.64 8.19,-6.72 1.43,-3.11 1.42,-6.79 -0.05,-11.02l-25.21 -72.9 18.69 -6.46 25.05 72.4c3.55,10.27 3.53,19.2 -0.07,26.76 -3.56,7.59 -10.3,13.08 -20.19,16.5zm187.58 -64.89c-5.85,2.03 -11.28,2.93 -16.31,2.74 -5.01,-0.21 -9.56,-1.53 -13.63,-3.96 -4.06,-2.41 -7.58,-5.97 -10.58,-10.62l0 0 14.69 -13.64 0 0c2.84,3.7 6,6.15 9.49,7.34 3.49,1.19 7.23,1.1 11.17,-0.26 4.09,-1.41 6.96,-3.42 8.62,-6.04 1.64,-2.59 1.92,-5.49 0.8,-8.73l-1.61 -4.65c-0.88,-2.55 -2.34,-4.33 -4.36,-5.36 -2.03,-0.98 -4.46,-1.53 -7.27,-1.62 -2.83,-0.09 -5.85,-0.05 -9.04,0.1 -3.52,0.15 -7.11,0.16 -10.8,0.05 -3.67,-0.11 -7.24,-0.68 -10.66,-1.74 -3.42,-1.05 -6.53,-2.97 -9.38,-5.75 -2.81,-2.76 -5.14,-6.8 -6.96,-12.09l-0.94 -2.7c-3.14,-9.08 -2.79,-17.05 1.04,-23.96 3.86,-6.89 10.86,-12.1 21.04,-15.62 7.74,-2.68 14.76,-3.03 21.02,-1.03 6.24,1.98 11.57,6.36 15.97,13.07l0 0 -13.79 13.49 0 0c-2.7,-3.54 -5.59,-5.92 -8.69,-7.11 -3.08,-1.2 -6.17,-1.24 -9.31,-0.16 -4,1.39 -6.78,3.27 -8.34,5.67 -1.57,2.42 -1.84,5.1 -0.8,8.1l1.19 3.43c1,2.9 2.64,4.89 4.87,5.97 2.23,1.11 4.91,1.66 7.97,1.69 3.06,0.03 6.35,0.02 9.86,-0.03 3.42,-0.12 6.89,-0.09 10.4,0.05 3.5,0.13 6.86,0.77 10.11,1.88 3.22,1.12 6.17,3.04 8.8,5.76 2.64,2.68 4.82,6.53 6.55,11.52l1.53 4.43c3.13,9.04 2.71,17.03 -1.24,23.99 -3.97,6.96 -11.09,12.22 -21.41,15.79zm159.88 -56.5l-35.79 -103.74 18.62 -6.44 35.87 103.72 -18.7 6.46zm7.5 -2.59l-6.24 -18.04 50.35 -17.42 6.24 18.04 -50.35 17.42zm-14.68 -42.43l-6.26 -18.12 44.65 -15.45 6.24 18.05 -44.63 15.52zm-14.95 -43.24l-6.24 -18.04 50.35 -17.42 6.24 18.04 -50.35 17.42z"/>
    <g>
     <path class="fil1" d="M10732.83 9130.18l-40.8 -117.97 192.32 -66.52c26.38,-9.13 44.83,-21.85 55.46,-37.85 10.63,-16 12.57,-34.06 5.69,-53.97l-16.23 -46.93c-7.45,-21.52 -20.58,-35.82 -39.55,-42.67 -18.77,-6.91 -41.45,-5.78 -68.21,3.48l-191.17 66.13 -40.52 -117.16 189.44 -65.53c24.06,-8.33 41.03,-20.35 50.39,-36.28 9.43,-15.76 10.68,-33.95 3.57,-54.5l-12.82 -37.06c-6.21,-17.96 -17.76,-29.55 -34.52,-34.99 -16.7,-5.27 -37.3,-3.76 -61.36,4.56l-189.44 65.53 -40.7 -117.65 199.07 -68.86c67.77,-23.44 125.12,-27.15 172.31,-11.58 47.06,15.79 79.79,49.94 97.92,102.38l12.76 36.89c12.37,35.77 10.24,69.48 -6.26,100.92 -16.45,31.6 -45.63,58.18 -87.92,79.87 49.6,-11.17 91.77,-8.91 126.76,6.89 34.94,15.64 59.23,43.47 73,83.28l16.4 47.42c18.25,52.75 13.87,99.93 -13.08,141.67 -27.13,41.82 -74.52,74.33 -142.09,97.71l-210.42 72.78zm-73.93 25.57l-238.44 -689.36 147.28 -50.94 238.43 689.36 -147.27 50.94z"/>
     <g style="clip-path:url(#id2)">
      <g>
       <polygon id="_1_1" class="fil4" points="12862.95,6751.16 12171.38,7175.06 12171.38,9949.21 13424.22,10637.89 14262.6,11140.38 14455.91,9705.9 13855.67,6419.8 "/>
      </g>
     </g>
     <path class="fil9" d="M10732.83 9130.18l-40.8 -117.97 192.32 -66.52c26.38,-9.13 44.83,-21.85 55.46,-37.85 10.63,-16 12.57,-34.06 5.69,-53.97l-16.23 -46.93c-7.45,-21.52 -20.58,-35.82 -39.55,-42.67 -18.77,-6.91 -41.45,-5.78 -68.21,3.48l-191.17 66.13 -40.52 -117.16 189.44 -65.53c24.06,-8.33 41.03,-20.35 50.39,-36.28 9.43,-15.76 10.68,-33.95 3.57,-54.5l-12.82 -37.06c-6.21,-17.96 -17.76,-29.55 -34.52,-34.99 -16.7,-5.27 -37.3,-3.76 -61.36,4.56l-189.44 65.53 -40.7 -117.65 199.07 -68.86c67.77,-23.44 125.12,-27.15 172.31,-11.58 47.06,15.79 79.79,49.94 97.92,102.38l12.76 36.89c12.37,35.77 10.24,69.48 -6.26,100.92 -16.45,31.6 -45.63,58.18 -87.92,79.87 49.6,-11.17 91.77,-8.91 126.76,6.89 34.94,15.64 59.23,43.47 73,83.28l16.4 47.42c18.25,52.75 13.87,99.93 -13.08,141.67 -27.13,41.82 -74.52,74.33 -142.09,97.71l-210.42 72.78zm-73.93 25.57l-238.44 -689.36 147.28 -50.94 238.43 689.36 -147.27 50.94z"/>
     <path class="fil1" d="M11496.71 8873.94c-77.98,26.97 -145.1,29.18 -201.46,6.45 -56.5,-22.49 -96.56,-67.88 -120.18,-136.17l-166.45 -481.26 147.27 -50.94 167.57 484.49c9.74,28.16 25.96,47.01 48.66,56.55 22.65,9.38 49.98,8.62 81.94,-2.43 31.96,-11.05 54.11,-27.41 66.31,-48.85 12.34,-21.66 13.64,-46.57 3.9,-74.73l-167.57 -484.49 147.85 -51.14 166.45 481.25c23.62,68.3 19.98,128.8 -10.93,181.52 -30.66,52.82 -85.2,92.7 -163.36,119.74z"/>
     <g style="clip-path:url(#id3)">
      <g>
       <polygon id="_1_2" class="fil4" points="12862.95,6751.16 12171.38,7175.06 12171.38,9949.21 13424.22,10637.89 14262.6,11140.38 14455.91,9705.9 13855.67,6419.8 "/>
      </g>
     </g>
     <path class="fil9" d="M11496.71 8873.94c-77.98,26.97 -145.1,29.18 -201.46,6.45 -56.5,-22.49 -96.56,-67.88 -120.18,-136.17l-166.45 -481.26 147.27 -50.94 167.57 484.49c9.74,28.16 25.96,47.01 48.66,56.55 22.65,9.38 49.98,8.62 81.94,-2.43 31.96,-11.05 54.11,-27.41 66.31,-48.85 12.34,-21.66 13.64,-46.57 3.9,-74.73l-167.57 -484.49 147.85 -51.14 166.45 481.25c23.62,68.3 19.98,128.8 -10.93,181.52 -30.66,52.82 -85.2,92.7 -163.36,119.74z"/>
     <path class="fil1" d="M11947.83 8709.94l-41.72 -118.74 151.12 -52.28c34.46,-11.92 58.73,-29.01 72.72,-50.88 13.75,-21.97 15.79,-46.59 6.06,-73.48l-96.27 -278.34c-9.14,-27.64 -25.9,-45.57 -50.17,-54.03 -24.45,-8.39 -53.99,-6.51 -88.45,5.41l-150.54 52.07 -41.78 -118.9 156.13 -54.01c81.25,-28.1 150.1,-32.17 206.67,-12.6 56.43,19.8 95.64,61.5 117.58,124.94l99.58 287.88c14.1,40.78 16.73,79.55 7.76,116.53 -8.85,36.76 -29.47,69.99 -61.69,99.61 -32.47,29.53 -76.4,53.97 -132.04,73.21l-154.97 53.61zm-85.87 29.7l-41.24 -119.23 147.27 -50.94 41.24 119.23 -147.27 50.94zm-98.57 -284.96l-139.88 -404.4 147.28 -50.95 139.88 404.41 -147.28 50.94z"/>
     <g style="clip-path:url(#id4)">
      <g>
       <polygon id="_1_3" class="fil4" points="12862.95,6751.16 12171.38,7175.06 12171.38,9949.21 13424.22,10637.89 14262.6,11140.38 14455.91,9705.9 13855.67,6419.8 "/>
      </g>
     </g>
     <path class="fil9" d="M11947.83 8709.94l-41.72 -118.74 151.12 -52.28c34.46,-11.92 58.73,-29.01 72.72,-50.88 13.75,-21.97 15.79,-46.59 6.06,-73.48l-96.27 -278.34c-9.14,-27.64 -25.9,-45.57 -50.17,-54.03 -24.45,-8.39 -53.99,-6.51 -88.45,5.41l-150.54 52.07 -41.78 -118.9 156.13 -54.01c81.25,-28.1 150.1,-32.17 206.67,-12.6 56.43,19.8 95.64,61.5 117.58,124.94l99.58 287.88c14.1,40.78 16.73,79.55 7.76,116.53 -8.85,36.76 -29.47,69.99 -61.69,99.61 -32.47,29.53 -76.4,53.97 -132.04,73.21l-154.97 53.61zm-85.87 29.7l-41.24 -119.23 147.27 -50.94 41.24 119.23 -147.27 50.94zm-98.57 -284.96l-139.88 -404.4 147.28 -50.95 139.88 404.41 -147.28 50.94z"/>
     <path class="fil1" d="M12696.31 8459.03c-46.2,15.98 -88.84,24.2 -127.85,24.83 -38.83,0.57 -73.64,-6.6 -104.44,-21.49 -30.56,-14.8 -56.52,-37.52 -78.04,-67.95l0 0 119.5 -98.23 0 0c20.6,24.04 44.25,39.42 70.93,46.13 26.68,6.72 55.71,4.65 86.9,-6.14 32.35,-11.19 55.5,-25.9 69.4,-44.29 13.76,-18.17 17.04,-37.97 9.6,-59.49l-10.69 -30.91c-5.88,-16.99 -16.55,-28.52 -31.82,-34.66 -15.41,-5.9 -34.05,-8.69 -55.87,-8.21 -22.02,0.55 -45.45,1.95 -70.33,4.21 -27.4,2.41 -55.33,3.92 -83.99,4.59 -28.46,0.6 -56.02,-1.82 -82.18,-7.63 -26.15,-5.81 -49.63,-17.62 -70.64,-35.36 -20.76,-17.64 -37.27,-44.18 -49.42,-79.3l-6.21 -17.96c-20.88,-60.36 -15.05,-114.56 17.37,-162.91 32.67,-48.26 89.15,-86.28 169.61,-114.11 61.23,-21.18 115.92,-26.32 163.75,-15.15 47.79,11.01 87.5,38.59 119.04,82.4l0 0 -112.43 96.87 0 0c-19.58,-22.95 -41.15,-37.95 -64.66,-44.86 -23.52,-6.91 -47.57,-6.02 -72.4,2.57 -31.58,10.93 -53.93,24.82 -67.07,41.68 -13.08,17.03 -16.23,35.33 -9.35,55.24l7.89 22.81c6.66,19.26 18.66,32.14 35.56,38.62 16.96,6.64 37.5,9.32 61.3,8.33 23.8,-0.98 49.39,-2.41 76.64,-4.04 26.63,-2.15 53.6,-3.32 80.85,-3.68 27.19,-0.53 53.03,2.49 77.84,8.77 24.61,6.34 46.83,18.23 66.21,35.62 19.51,17.17 34.94,42.45 46.42,75.62l10.18 29.46c20.77,60.03 14.37,114.43 -19.02,163.11 -33.58,48.76 -90.96,87.27 -172.59,115.51z"/>
     <g style="clip-path:url(#id5)">
      <g>
       <polygon id="_1_4" class="fil4" points="12862.95,6751.16 12171.38,7175.06 12171.38,9949.21 13424.22,10637.89 14262.6,11140.38 14455.91,9705.9 13855.67,6419.8 "/>
      </g>
     </g>
     <path class="fil9" d="M12696.31 8459.03c-46.2,15.98 -88.84,24.2 -127.85,24.83 -38.83,0.57 -73.64,-6.6 -104.44,-21.49 -30.56,-14.8 -56.52,-37.52 -78.04,-67.95l0 0 119.5 -98.23 0 0c20.6,24.04 44.25,39.42 70.93,46.13 26.68,6.72 55.71,4.65 86.9,-6.14 32.35,-11.19 55.5,-25.9 69.4,-44.29 13.76,-18.17 17.04,-37.97 9.6,-59.49l-10.69 -30.91c-5.88,-16.99 -16.55,-28.52 -31.82,-34.66 -15.41,-5.9 -34.05,-8.69 -55.87,-8.21 -22.02,0.55 -45.45,1.95 -70.33,4.21 -27.4,2.41 -55.33,3.92 -83.99,4.59 -28.46,0.6 -56.02,-1.82 -82.18,-7.63 -26.15,-5.81 -49.63,-17.62 -70.64,-35.36 -20.76,-17.64 -37.27,-44.18 -49.42,-79.3l-6.21 -17.96c-20.88,-60.36 -15.05,-114.56 17.37,-162.91 32.67,-48.26 89.15,-86.28 169.61,-114.11 61.23,-21.18 115.92,-26.32 163.75,-15.15 47.79,11.01 87.5,38.59 119.04,82.4l0 0 -112.43 96.87 0 0c-19.58,-22.95 -41.15,-37.95 -64.66,-44.86 -23.52,-6.91 -47.57,-6.02 -72.4,2.57 -31.58,10.93 -53.93,24.82 -67.07,41.68 -13.08,17.03 -16.23,35.33 -9.35,55.24l7.89 22.81c6.66,19.26 18.66,32.14 35.56,38.62 16.96,6.64 37.5,9.32 61.3,8.33 23.8,-0.98 49.39,-2.41 76.64,-4.04 26.63,-2.15 53.6,-3.32 80.85,-3.68 27.19,-0.53 53.03,2.49 77.84,8.77 24.61,6.34 46.83,18.23 66.21,35.62 19.51,17.17 34.94,42.45 46.42,75.62l10.18 29.46c20.77,60.03 14.37,114.43 -19.02,163.11 -33.58,48.76 -90.96,87.27 -172.59,115.51z"/>
    </g>
    <g>
     <path class="fil2" d="M10915.62 9174.86c14.11,-4.89 29.52,2.6 34.4,16.72 4.88,14.11 -2.6,29.52 -16.72,34.4 -14.12,4.88 -29.52,-2.6 -34.4,-16.72 -4.89,-14.12 2.6,-29.52 16.72,-34.4z"/>
     <path class="fil2" d="M12761 8536.58c14.12,-4.89 29.52,2.6 34.4,16.72 4.89,14.11 -2.6,29.52 -16.72,34.4 -14.11,4.88 -29.52,-2.6 -34.4,-16.72 -4.88,-14.12 2.6,-29.52 16.72,-34.4z"/>
    </g>
   </g>
   <g>
    <path class="fil2" d="M19154.25 7093.75c-0.11,0.23 -0.23,0.45 -0.34,0.69l-2.18 4.5 -68.75 118.42 -4.12 5.71c-71.97,99.59 -127.46,156.88 -214.92,230.85 38.53,27.02 67.91,63.53 88.79,107.39 30.06,63.12 36.53,130.09 12.81,196.1 22.33,17.21 45.33,33.92 64.31,49.34 64.21,52.18 125.06,111.24 160.09,187.36l34.76 62.67 -7.09 44.83c-4.42,71.78 -1.33,119.94 -47.46,184.77 -80.88,113.68 -226.36,115.36 -350.33,92.42 -13.16,-2.43 -43.58,-8.56 -64.6,-10.11 -6.78,19.17 -12.19,48.38 -14.29,61.08 -17.6,105.89 -22.33,227.43 -13.72,334.24 4.48,55.31 23.01,194.68 43.98,246.09l14.9 20.92 4.86 31.98c8.75,37.7 63.01,138.37 85.05,173.37 40.2,63.81 84.92,116.43 135.21,172.41 95.24,105.99 256.35,182.21 286.15,334.62 12.23,62.59 1.16,123.42 -31.73,177.86 -15.31,25.31 -31.61,41 -48.26,63.28l-24.76 33.67 -151.58 56.92c-49.71,21.72 -97.59,70.68 -61.43,125.04 29.78,44.78 64.74,83.26 99.4,124.07 50.31,59.23 92,117.66 129.23,186.13 18.36,33.77 32.6,70.83 51.33,104.02l24.69 41.69 -4.26 31.8 39.42 219.62 -5.08 25.92c-7.4,37.72 -6.67,81.14 -12.44,120.52 -9.98,68.24 -30.98,131.22 -59.93,192.58 62.49,57.88 98.92,139.23 90.48,234.4 -12.85,145.2 -128.53,255.41 -273.27,266.52 -79.34,6.09 -231.68,-28.22 -312.34,-44.04 -98.71,-19.35 -197.24,-41.37 -295.98,-59.95 -382.76,-72 -765.49,-143.98 -1148.25,-215.98 -296.87,-55.85 -594.35,-109.03 -891.31,-164.55 -186.73,-34.92 -373.5,-70.05 -559.87,-106.9 -63.89,-12.64 -127.87,-25.4 -191.5,-39.26 -35.21,-7.66 -87.61,-17.46 -119.11,-34.02 -127.13,-66.84 -190.5,-211.11 -147.05,-348.85 27.93,-88.57 90.37,-149.1 167.69,-179.66 -4.81,-69.14 -1.09,-136.56 15.19,-205.23 8.86,-37.44 25.92,-79.05 31.71,-115.64l4.19 -26.49 13.64 -23.09c34.23,-57.96 70.93,-116.08 107.88,-172.66l11.13 -30.23 33.25 -24.39c27.37,-22.41 51.84,-52.54 81.13,-75.92 79.68,-63.58 142.93,-103.01 232.63,-150.9 28.98,-15.48 64.66,-32.44 90.81,-52.01 57.08,-42.72 32.58,-102.85 -12.42,-145.49 -15.02,-14.25 -32.79,-26.64 -48.38,-41.07 -15.27,-14.13 -26.66,-29.88 -40.66,-43.29l-42.9 -36.25 -5.51 -51.89c-11.71,-51.02 -22.22,-82.44 -12.37,-138.55 17.38,-99.06 90.99,-163.42 178.95,-202.82 68.19,-30.55 145.35,-48.96 215.59,-78.91 264.89,-112.96 446.57,-312.47 558.14,-576.37 24.29,-57.46 84.95,-228.7 87.9,-306.16l-7.21 -1.22 -12.77 -14.33c-23.82,-5.93 -53.56,-10.17 -74.72,-14.64 -55.23,-11.67 -114.82,-27.09 -160.84,-61.07 -60.82,-44.91 -100.12,-107.4 -108.17,-183.54 -9.48,-89.76 17.38,-124.23 54.26,-194.62l20.88 -39.87 36.44 -18.48c57.72,-53.17 122.25,-74.8 196.51,-99.95 23.33,-7.9 52.46,-16.68 81.12,-26.2 6.12,-114.26 74.91,-212.62 202,-246.37 -0.48,-0.78 -0.93,-1.55 -1.38,-2.29 -22.65,-38.26 -42.64,-76.67 -59.71,-117.8 -35.2,-84.78 -55.57,-152.27 -64.68,-243.06l-3.13 -31.03 1.72 -4.93c-4.46,-91.77 -1.74,-189.28 4.2,-279.37 7.53,-114.07 50.32,-233.11 100.11,-335.13l4.7 -9.63 6.1 -8.81c34.16,-49.29 68.84,-112.34 106.35,-157.09 44.64,-53.28 95.29,-108.04 150.05,-150.68 118.1,-91.96 229.81,-157.77 375.68,-198.53 336.7,-94.11 664.85,-30.68 943.7,179.75 168.6,127.25 303.74,325.48 363.32,527.68 16.25,55.14 25.38,99.12 32.15,151.15l6.82 137.69 -6.39 185.36 -2.74 12.48c-8.69,39.74 -16.61,79.17 -28.11,118.27 -6.93,23.56 -24.41,59.82 -28.39,81.52l-5.08 56.08 -29.87 25.55z"/>
    <path class="fil6" d="M19116.24 6549.17l-8.03 233.09c-8.02,36.65 -14.89,72.05 -25.65,108.63 -10.46,35.53 -30.32,73.07 -33.45,107.58 -1.26,1.08 -2.57,1.4 -3.37,3.69l-6.3 7.83c-0.79,1.19 -1.94,2.9 -2.78,4.26 -0.24,0.4 -8.57,17.07 -9.3,18.59l-62.57 107.79c-79.24,109.64 -117.63,144.75 -215.38,225.59 -24.52,20.27 -39.97,19.56 -48.77,63.37 -6.22,30.91 -15.56,71.83 -13.34,100.23l8.65 5.77c36.41,16.62 94.2,11.67 129.71,86.24 34.5,72.45 -3.83,112.54 -36.86,160.84 5.03,8.48 3.74,7.79 13.77,18.54 67.3,72.15 214.92,148.59 261.38,255.94l14.16 25.54c-7.98,50.46 35.16,207.29 -232.68,157.72 -138.07,-25.54 -210.66,-30.4 -243.35,166.3 -19.53,117.54 -24.16,256.86 -15.14,368.63 5.77,71.49 34.95,267.77 65.1,310.07 8.23,53.81 81.56,188.95 104.87,225.97 46.01,73.04 89.27,124.31 149.61,191.47 88.51,98.5 235.59,180.04 252.69,267.54 12.86,65.76 -32.78,100.27 -55.2,130.76l-115.44 43.33c-150.24,63.26 -205.63,214.16 -126.18,333.64 73.62,110.68 143.85,155.45 222.17,299.49 9.13,16.8 42.95,90.05 53.69,108.19l-0.7 5.27 38.63 215.28c-15.67,79.98 5.42,155.04 -77.81,312.62 -14.32,27.11 -36.48,57.86 -46.29,82.04 209.87,51.48 165.07,293.15 -3.71,306.1 -70.94,5.45 -470.53,-82.97 -571.52,-101.97 -382.76,-72 -765.51,-143.99 -1148.27,-215.99 -132.99,-25.01 -1670.11,-303.54 -1722.3,-330.98 -148.83,-78.26 -97.39,-312.16 112,-284.23 0.18,-25.1 -9.61,-63.64 -13.05,-93.2 -20.92,-179.8 29.1,-243.16 42.11,-325.39 40.37,-68.36 113.23,-180.56 113.23,-180.56l2.03 -5.52c18.73,-13.75 66.22,-63.89 84.73,-78.67 81.61,-65.12 115.97,-85.95 211.14,-136.78 37.28,-19.91 78.39,-40.69 108.84,-63.48 126.16,-94.41 112.82,-253.47 0.08,-360.33 -16.15,-15.31 -31.84,-25.76 -49.63,-42.22 -19.38,-17.94 -28.4,-33.11 -45.15,-47.26 -4.3,-40.46 -61.97,-128.13 84.62,-193.79 38.16,-17.09 135.08,-44.54 213.27,-77.89 292.55,-124.75 503.97,-346.83 632.57,-651.02 37.53,-88.77 114.38,-306.79 95.62,-407.37 -6.87,-36.8 -31.53,-78.6 -72.41,-85.45 -23.54,-26.45 -182.66,-32.61 -236.89,-72.64 -27.43,-20.25 -47.77,-46.98 -51.81,-85.11 -5.47,-51.76 19.58,-77.5 38.98,-114.53 49.25,-24.99 5.37,-33.09 174.31,-90.31 41.49,-14.06 162.87,-53.05 189.38,-71.07 -33.79,-94.62 -4.48,-176.87 88.21,-199.66 34,-8.37 48.46,-0.09 73.36,1.96 34.57,2.83 30.66,4.34 49.18,-99.21 9.71,-54.26 -44.04,-93.31 -93.27,-211.92 -42.47,-102.32 -48.93,-146.42 -54.63,-203.17l0.68 -1.95c0,0 -8.21,-127.25 2.52,-290.06 6.86,-104.01 53.41,-215.59 86.15,-282.66 26.63,-38.44 84.89,-130.59 98.54,-146.87 39.8,-47.49 86.33,-97.06 128.66,-130.02 92.08,-71.72 187.14,-134.94 327.08,-174.04 294.42,-82.28 577.19,-27.46 821.04,156.55 147.11,111.02 263.03,285.24 313.09,455.11 42.88,145.5 22.27,162.79 38.99,180.55l-3.6 3.18z"/>
    <g style="clip-path:url(#id6)">
     <g>
      <polygon id="_1_5" class="fil7" points="16714.51,6736.79 17255.5,7096.45 17209,10083.33 15328.22,11222.39 14474.53,9025.2 16190.64,6266.25 "/>
     </g>
    </g>
    <path class="fil5" d="M19116.24 6549.17l-8.03 233.09c-8.02,36.65 -14.89,72.05 -25.65,108.63 -10.46,35.53 -30.32,73.07 -33.45,107.58 -1.26,1.08 -2.57,1.4 -3.37,3.69l-6.3 7.83c-0.79,1.19 -1.94,2.9 -2.78,4.26 -0.24,0.4 -8.57,17.07 -9.3,18.59l-62.57 107.79c-79.24,109.64 -117.63,144.75 -215.38,225.59 -24.52,20.27 -39.97,19.56 -48.77,63.37 -6.22,30.91 -15.56,71.83 -13.34,100.23l8.65 5.77c36.41,16.62 94.2,11.67 129.71,86.24 34.5,72.45 -3.83,112.54 -36.86,160.84 5.03,8.48 3.74,7.79 13.77,18.54 67.3,72.15 214.92,148.59 261.38,255.94l14.16 25.54c-7.98,50.46 35.16,207.29 -232.68,157.72 -138.07,-25.54 -210.66,-30.4 -243.35,166.3 -19.53,117.54 -24.16,256.86 -15.14,368.63 5.77,71.49 34.95,267.77 65.1,310.07 8.23,53.81 81.56,188.95 104.87,225.97 46.01,73.04 89.27,124.31 149.61,191.47 88.51,98.5 235.59,180.04 252.69,267.54 12.86,65.76 -32.78,100.27 -55.2,130.76l-115.44 43.33c-150.24,63.26 -205.63,214.16 -126.18,333.64 73.62,110.68 143.85,155.45 222.17,299.49 9.13,16.8 42.95,90.05 53.69,108.19l-0.7 5.27 38.63 215.28c-15.67,79.98 5.42,155.04 -77.81,312.62 -14.32,27.11 -36.48,57.86 -46.29,82.04 209.87,51.48 165.07,293.15 -3.71,306.1 -70.94,5.45 -470.53,-82.97 -571.52,-101.97 -382.76,-72 -765.51,-143.99 -1148.27,-215.99 -132.99,-25.01 -1670.11,-303.54 -1722.3,-330.98 -148.83,-78.26 -97.39,-312.16 112,-284.23 0.18,-25.1 -9.61,-63.64 -13.05,-93.2 -20.92,-179.8 29.1,-243.16 42.11,-325.39 40.37,-68.36 113.23,-180.56 113.23,-180.56l2.03 -5.52c18.73,-13.75 66.22,-63.89 84.73,-78.67 81.61,-65.12 115.97,-85.95 211.14,-136.78 37.28,-19.91 78.39,-40.69 108.84,-63.48 126.16,-94.41 112.82,-253.47 0.08,-360.33 -16.15,-15.31 -31.84,-25.76 -49.63,-42.22 -19.38,-17.94 -28.4,-33.11 -45.15,-47.26 -4.3,-40.46 -61.97,-128.13 84.62,-193.79 38.16,-17.09 135.08,-44.54 213.27,-77.89 292.55,-124.75 503.97,-346.83 632.57,-651.02 37.53,-88.77 114.38,-306.79 95.62,-407.37 -6.87,-36.8 -31.53,-78.6 -72.41,-85.45 -23.54,-26.45 -182.66,-32.61 -236.89,-72.64 -27.43,-20.25 -47.77,-46.98 -51.81,-85.11 -5.47,-51.76 19.58,-77.5 38.98,-114.53 49.25,-24.99 5.37,-33.09 174.31,-90.31 41.49,-14.06 162.87,-53.05 189.38,-71.07 -33.79,-94.62 -4.48,-176.87 88.21,-199.66 34,-8.37 48.46,-0.09 73.36,1.96 34.57,2.83 30.66,4.34 49.18,-99.21 9.71,-54.26 -44.04,-93.31 -93.27,-211.92 -42.47,-102.32 -48.93,-146.42 -54.63,-203.17l0.68 -1.95c0,0 -8.21,-127.25 2.52,-290.06 6.86,-104.01 53.41,-215.59 86.15,-282.66 26.63,-38.44 84.89,-130.59 98.54,-146.87 39.8,-47.49 86.33,-97.06 128.66,-130.02 92.08,-71.72 187.14,-134.94 327.08,-174.04 294.42,-82.28 577.19,-27.46 821.04,156.55 147.11,111.02 263.03,285.24 313.09,455.11 42.88,145.5 22.27,162.79 38.99,180.55l-3.6 3.18z"/>
    <path class="fil8" d="M17539.42 6815.13c27.43,71.65 54.87,110.16 110.86,163.41 41.54,39.5 139.14,94.17 210.54,98.65 -50.45,-82.15 -108.43,-101.51 -161.32,-295.25 -33.55,-122.89 -28.87,-277.09 21.15,-413.26 81.79,-222.58 298.48,-413.81 526.61,-432.27l-9.25 -5.69c-47.26,-19.42 -174.34,-0.78 -218.33,9.62 -66.48,15.72 -147.99,49.17 -191.07,78.46 -105.07,71.49 -201.77,159.67 -267.32,316.13 -65.28,155.79 -73.65,344.92 -21.86,480.2z"/>
    <path class="fil8" d="M17357.62 7701.29c-26.8,-11.46 -47.48,-20.85 -71.63,-38.73 -20.88,-15.47 -24.33,-18.2 -31.51,-42.57 -0.53,-1.83 -1.76,-7.42 -2.31,-9.22 -5.1,-16.84 4.52,0.73 -5.04,-14.08 -59.12,39.84 -198.6,60.72 -213.67,135.76 63.82,46.13 312.64,80.69 415.42,100.5 408.26,78.68 793.33,164.73 1202.55,230.32 -59.62,-67.05 -614.25,-174.6 -742.51,-204.48 -156.39,-36.43 -405.28,-95.06 -551.29,-157.49z"/>
    <g style="clip-path:url(#id7)">
     <g>
      <polygon id="_1_6" class="fil10" points="16714.51,6736.79 17255.5,7096.45 17209,10083.33 15328.22,11222.39 14474.53,9025.2 16190.64,6266.25 "/>
     </g>
    </g>
    <path class="fil5" d="M17357.62 7701.29c-26.8,-11.46 -47.48,-20.85 -71.63,-38.73 -20.88,-15.47 -24.33,-18.2 -31.51,-42.57 -0.53,-1.83 -1.76,-7.42 -2.31,-9.22 -5.1,-16.84 4.52,0.73 -5.04,-14.08 -59.12,39.84 -198.6,60.72 -213.67,135.76 63.82,46.13 312.64,80.69 415.42,100.5 408.26,78.68 793.33,164.73 1202.55,230.32 -59.62,-67.05 -614.25,-174.6 -742.51,-204.48 -156.39,-36.43 -405.28,-95.06 -551.29,-157.49z"/>
    <path class="fil8" d="M17354.08 7982.25c-74.62,336.53 -140.92,548.76 -316.02,810.91 -103.34,154.7 -246.56,290.94 -395.6,376.27 -33.24,19.03 -133.48,69.84 -146.19,114.73 -18.55,65.49 113.35,87.22 171.68,100.82 200.08,46.66 542.08,103.69 752.78,143.32 166.41,31.31 332.83,62.61 499.24,93.91 164.48,30.95 342,71.23 506.11,94.39 -98.22,-124.4 -765.38,-289.83 -978.62,-330.46 -102.42,-19.5 -265.94,-48.82 -341.32,-105.06 -98.46,-73.44 -21.33,-187.74 25.49,-286.97 89.61,-189.91 293.05,-764.75 241.04,-976.96l-18.61 -34.9z"/>
    <g style="clip-path:url(#id8)">
     <g>
      <polygon id="_1_7" class="fil10" points="16714.51,6736.79 17255.5,7096.45 17209,10083.33 15328.22,11222.39 14474.53,9025.2 16190.64,6266.25 "/>
     </g>
    </g>
    <path class="fil5" d="M17354.08 7982.25c-74.62,336.53 -140.92,548.76 -316.02,810.91 -103.34,154.7 -246.56,290.94 -395.6,376.27 -33.24,19.03 -133.48,69.84 -146.19,114.73 -18.55,65.49 113.35,87.22 171.68,100.82 200.08,46.66 542.08,103.69 752.78,143.32 166.41,31.31 332.83,62.61 499.24,93.91 164.48,30.95 342,71.23 506.11,94.39 -98.22,-124.4 -765.38,-289.83 -978.62,-330.46 -102.42,-19.5 -265.94,-48.82 -341.32,-105.06 -98.46,-73.44 -21.33,-187.74 25.49,-286.97 89.61,-189.91 293.05,-764.75 241.04,-976.96l-18.61 -34.9z"/>
    <path class="fil8" d="M16395.61 9887.08c-122.09,87.91 -364.93,221.78 -454.92,412.74 -62.77,133.16 -38.84,257.67 34.47,330.55 80.17,79.7 221.42,102.25 348.72,126.2 280.79,52.82 562.28,104.2 842.75,158.44 271.52,52.54 561.39,118.69 834.66,162.11 -75.32,-59.05 -477.01,-178.4 -598.34,-210.98 -217.35,-58.36 -436.57,-111.37 -655.22,-163.1 -220.2,-52.11 -449.01,-83.5 -517.1,-263.46 -76.75,-202.88 143.92,-488.01 164.98,-552.49z"/>
    <g style="clip-path:url(#id9)">
     <g>
      <polygon id="_1_8" class="fil10" points="16714.51,6736.79 17255.5,7096.45 17209,10083.33 15328.22,11222.39 14474.53,9025.2 16190.64,6266.25 "/>
     </g>
    </g>
    <path class="fil5" d="M16395.61 9887.08c-122.09,87.91 -364.93,221.78 -454.92,412.74 -62.77,133.16 -38.84,257.67 34.47,330.55 80.17,79.7 221.42,102.25 348.72,126.2 280.79,52.82 562.28,104.2 842.75,158.44 271.52,52.54 561.39,118.69 834.66,162.11 -75.32,-59.05 -477.01,-178.4 -598.34,-210.98 -217.35,-58.36 -436.57,-111.37 -655.22,-163.1 -220.2,-52.11 -449.01,-83.5 -517.1,-263.46 -76.75,-202.88 143.92,-488.01 164.98,-552.49z"/>
   </g>
   <polygon class="fil1" points="12297.29,7187.01 12297.29,9871.33 14642.9,11277 17005.43,9913.67 17030.83,7195.48 14659.83,5781.34 "/>
   <g style="clip-path:url(#id10)">
    <g>
     <polygon id="_1_9" class="fil11 str0" points="13254.95,9393.51 14692.65,6913.61 16130.35,9404.19 "/>
     <polygon class="fil12" points="13254.95,9393.51 14655.25,11087.75 16130.35,9404.19 "/>
    </g>
    <g style="clip-path:url(#id11)">
     <g>
      <polygon id="_1_10" class="fil8" points="15890.34,9554.62 13569.61,9551.42 14799.02,11033.3 14655.24,11087.74 13274.93,9417.69 13556.45,9394.64 16060.08,9429.68 "/>
     </g>
    </g>
    <g style="clip-path:url(#id12)">
     <polygon class="fil9 str0" points="13254.95,9393.51 14655.25,11087.75 16130.35,9404.19 "/>
     <polygon class="fil13" points="16873.26,9778.32 16130.34,9404.2 14655.24,11087.75 "/>
    </g>
    <g style="clip-path:url(#id13)">
     <g>
      <polygon id="_1_11" class="fil6" points="16341.39,9288.75 16370.24,9400.38 14873.41,10998.06 14807.95,10867.12 16276.49,9224.99 "/>
      <g>
       <path class="fil1" d="M16226.27 10289.78l-417.29 -401.51 31.23 -57.82 330.6 318.09 -0.43 -61.49 80.13 77.1 4.87 71.73 -29.11 53.9zm-501.38 -257.09c14.47,-26.79 35.47,-38.1 62.89,-34.03 27.43,4.08 59.06,23.24 94.81,57.64l27.33 26.29c20.08,19.33 37.87,39.32 53.5,59.99 15.67,20.6 30.9,42.84 45.97,66.77l139.97 222.88 -34.37 63.66 -170.25 -270.2 19.16 -6.52c14.06,27.44 16.35,49.66 7.11,66.76 -12.55,23.24 -31.72,32.28 -57.56,27.2 -25.93,-5.17 -56.1,-24.3 -90.48,-57.38l-30.76 -29.6c-35.75,-34.4 -59.57,-68.58 -71.39,-102.38 -11.81,-33.8 -10.43,-64.21 4.08,-91.08zm72 69.28c-4.78,8.85 -5.18,18.7 -1.35,29.52 3.97,10.84 12.11,22.23 24.55,34.21l29 27.89c13.22,12.72 24.58,20.09 34.03,22.17 9.49,1.99 16.65,-1.35 21.43,-10.21 4.58,-8.47 4.61,-18.45 0.17,-30.08 -4.57,-11.65 -13.35,-23.78 -26.58,-36.51l-28.99 -27.89c-12.45,-11.98 -23.16,-18.6 -32,-19.86 -8.89,-1.19 -15.68,2.28 -20.26,10.76z"/>
      </g>
     </g>
    </g>
    <g style="clip-path:url(#id14)">
     <polygon class="fil9 str0" points="16873.26,9778.32 16130.34,9404.2 14655.24,11087.75 "/>
     <polygon class="fil12" points="13254.95,9393.51 14655.25,11087.75 12423.86,9799.7 "/>
    </g>
    <g style="clip-path:url(#id15)">
     <g>
      <g>
       <path id="_1_12" class="fil1" d="M13251.24 10257.95l374.95 -164.45 56.52 73.02 -297.06 130.29 59.16 42.02 -71.99 31.57 -68.91 -44.4 -52.67 -68.04zm226.37 -363.11c27.15,35.07 39.14,65.64 35.92,91.64 -3.25,26.12 -20.26,45.88 -50.98,59.35l-186.15 81.65c-30.99,13.59 -62.28,14.89 -94.13,3.9 -31.69,-10.93 -61.04,-33.77 -87.89,-68.46 -26.99,-34.88 -38.99,-65.47 -36.16,-91.66 2.91,-26.11 19.93,-45.99 51.09,-59.66l186.16 -81.65c30.89,-13.55 62.27,-14.89 93.88,-4.05 31.62,10.84 61.11,33.86 88.26,68.94zm-65.49 28.72c-9.24,-11.95 -19.84,-19.08 -31.75,-21.54 -11.92,-2.45 -24.27,-0.74 -37.39,5.02l-168.11 73.73c-13.2,5.79 -21.36,13.07 -24.32,22.05 -2.95,8.98 0.16,19.39 9.41,31.34 8.95,11.56 19.38,18.64 31.21,21.13 11.9,2.58 24.42,0.93 37.62,-4.86l168.11 -73.73c13.12,-5.75 21.11,-13.1 24.23,-22.02 3.04,-9.01 0.09,-19.37 -9.01,-31.12z"/>
      </g>
      <polygon class="fil8" points="12608.59,9923.87 13406,9525.17 13283.21,9344.79 12423.85,9799.7 "/>
     </g>
    </g>
    <g style="clip-path:url(#id16)">
     <polygon class="fil9 str0" points="13254.95,9393.51 14655.25,11087.75 12423.86,9799.7 "/>
     <polygon class="fil14" points="12415.85,7228.94 13254.95,9393.51 12423.86,9799.7 "/>
    </g>
    <g style="clip-path:url(#id17)">
     <g>
      <g>
       <path id="_1_13" class="fil1" d="M12477.65 9109.8l416.5 -176 31.57 74.7 -329.98 139.45 44.04 42.57 -79.98 33.8 -52.73 -44.89 -29.42 -69.62zm380.01 -262.36l-67.85 28.68 -214.96 -42.95c-19.36,-3 -36.6,-4.24 -51.77,-3.35 -15.23,0.79 -27.9,3.26 -37.97,7.52l-3.23 1.36c-10.65,4.5 -17.47,10.72 -20.63,18.52 -3.12,7.88 -2.39,17.25 2.19,28.1 4.71,11.15 12.07,18.19 21.9,21.28 9.89,3.2 22.17,2.28 36.91,-2.92l7.73 -3.26 32.22 76.26 -7.72 3.26c-38.42,14.63 -71.54,16.41 -99.48,5.4 -28.02,-10.97 -49.26,-33.69 -63.81,-68.11 -15.24,-36.07 -17.95,-67.31 -8.28,-93.52 9.72,-26.35 31.66,-46.68 65.88,-61.14l2.83 -1.2c17.02,-7.19 36.51,-11.51 58.73,-12.94 22.07,-1.5 45.91,-0.16 71.47,3.9l162.89 30.72 -52.55 -124.36 72.74 -30.75 92.76 219.49z"/>
      </g>
      <polygon class="fil7" points="13046.54,9057.45 12488.01,9351.68 12423.62,9723.19 12617.68,9725.69 13064,9458.89 13270.96,9336.72 "/>
     </g>
    </g>
    <g style="clip-path:url(#id18)">
     <polygon class="fil9 str0" points="12415.85,7228.94 13254.95,9393.51 12423.86,9799.7 "/>
     <polygon class="fil14" points="14692.66,6913.61 12415.85,7228.94 13254.96,9393.51 "/>
    </g>
    <g style="clip-path:url(#id19)">
     <g>
      <polygon id="_1_14" class="fil7" points="14357.69,7022.3 13112.08,9024.99 13283.4,9344.45 13677.23,8593.13 14549.96,7110.35 14649.73,6919.55 "/>
     </g>
    </g>
    <g style="clip-path:url(#id20)">
     <polygon class="fil9 str0" points="14692.66,6913.61 12415.85,7228.94 13254.96,9393.51 "/>
     <polygon class="fil13" points="16905.33,7266.35 14692.66,6913.6 16130.35,9404.2 "/>
    </g>
    <g style="clip-path:url(#id21)">
     <g>
      <polygon id="_1_15" class="fil6" points="14934.22,6952.27 16199.04,9214.75 16122.18,9491.09 15896.39,9078.36 14660.77,6879.77 "/>
     </g>
    </g>
    <g style="clip-path:url(#id22)">
     <polygon class="fil9 str0" points="16905.33,7266.35 14692.66,6913.6 16130.35,9404.2 "/>
     <polygon class="fil13" points="16905.33,7266.35 16873.26,9778.32 16130.35,9404.2 "/>
    </g>
    <g style="clip-path:url(#id23)">
     <g>
      <polygon id="_1_16" class="fil6" points="16286.1,9543.33 16983.91,7167.5 16702.71,7276.02 16107.52,9430.25 "/>
      <g>
       <path class="fil1" d="M16434.58 8891.74c11.45,-35.79 30.43,-60.25 56.82,-73.42 26.4,-13.17 58.08,-13.95 94.98,-2.14l28.2 9.02c20.73,6.64 39.33,15.38 55.94,26.15 16.64,10.68 33.01,23.27 49.36,37.65l151.98 134.12 -27.21 85.03 -184.78 -162.24 17.64 -18.53c15.69,18.51 19.77,39.2 12.45,62.05 -9.93,31.03 -27.36,52.09 -52.34,63.26 -25.08,11.15 -55.36,11.04 -90.84,-0.32l-31.74 -10.16c-36.9,-11.81 -62.45,-30.9 -76.56,-57.15 -14.1,-26.25 -15.39,-57.42 -3.9,-93.31zm74.3 23.78c-3.78,11.83 -3.32,21.9 1.24,30.27 4.7,8.3 13.4,14.54 26.24,18.65l29.93 9.58c13.64,4.36 25.05,4.56 34.21,0.7 9.19,-3.98 15.7,-11.81 19.49,-23.64 3.62,-11.32 2.8,-21.28 -2.41,-30.07 -5.34,-8.74 -14.72,-15.31 -28.37,-19.68l-29.92 -9.57c-12.84,-4.11 -23.58,-3.98 -32.09,0.32 -8.54,4.39 -14.69,12.12 -18.32,23.44z"/>
      </g>
     </g>
    </g>
    <g style="clip-path:url(#id24)">
     <polygon class="fil9 str0" points="16905.33,7266.35 16873.26,9778.32 16130.35,9404.2 "/>
     <polygon class="fil14" points="12420.1,7228.94 14664.81,5931.48 14692.66,6913.6 "/>
    </g>
    <g style="clip-path:url(#id25)">
     <g>
      <polygon id="_1_17" class="fil7" points="14476.49,6824.45 14557.2,5714.31 14917.08,5757.92 14853.82,6985.84 14500.49,6998.93 "/>
      <polygon class="fil6" points="12765.94,7012.61 14483.97,6734.21 14708.93,6941.78 12327.9,7264.05 "/>
     </g>
    </g>
    <g style="clip-path:url(#id26)">
     <polygon class="fil9 str0" points="12420.1,7228.94 14664.81,5931.48 14692.66,6913.6 "/>
     <polygon class="fil12" points="16908.23,7268.17 14664.82,5931.48 14692.65,6913.6 "/>
    </g>
    <g style="clip-path:url(#id27)">
     <g>
      <polygon id="_1_18" class="fil7" points="14692.66,6913.6 14804.5,6777.76 16817.07,7131.87 16968.87,7300 "/>
      <polygon class="fil8" points="14713.97,6906.88 14804.5,6777.76 14802.7,5780.81 14630.55,5798.78 14615.65,6294.52 14671.93,6949.34 "/>
     </g>
    </g>
    <g style="clip-path:url(#id28)">
     <polygon class="fil9 str0" points="16908.23,7268.17 14664.82,5931.48 14692.65,6913.6 "/>
     <g>
      <path class="fil1" d="M16090.3 7637.3l-388.65 231.08 -41.45 -69.7 307.91 -183.08 -49.42 -36.19 74.63 -44.37 58.35 37.29 38.63 64.97zm-281.76 275.23l64.58 -38.02 323.79 -57.31 45.3 76.18 -318.62 58.55 92.19 154.61 -67.88 40.36 -139.36 -234.37zm23.09 175.08l221.6 -131.77 41.13 68.53 -221.88 131.94 -40.85 -68.7z"/>
     </g>
     <g>
      <path class="fil1" d="M14613.29 10315.54c-25.47,0 -47.55,-4.56 -66.13,-13.69 -18.47,-9.13 -32.8,-22.07 -42.88,-38.85 -10.09,-16.77 -15.08,-36.83 -15.08,-60.08l0 -39.49c0,-19.42 5.42,-37.46 16.35,-53.91 10.83,-16.45 25.69,-29.09 44.59,-37.79 -16.57,-7.22 -29.73,-17.52 -39.49,-30.89 -9.77,-13.38 -14.66,-28.02 -14.66,-43.74l0 -37.68c0,-32.47 10.62,-58.16 31.64,-77.05 21.01,-18.9 49.57,-28.35 85.66,-28.35 36.09,0 64.64,9.45 85.66,28.35 21.01,18.89 31.53,44.58 31.53,77.05l0 37.68c0,15.93 -4.89,30.58 -14.87,43.85 -9.97,13.26 -23.46,23.56 -40.44,30.78 19.32,8.7 34.5,21.34 45.54,37.79 11.15,16.45 16.66,34.49 16.66,53.91l0 39.49c0,23.25 -5.09,43.31 -15.28,60.08 -10.09,16.78 -24.42,29.72 -42.88,38.85 -18.48,9.13 -40.44,13.69 -65.92,13.69zm0 -78.33c13.27,0 23.88,-3.71 31.84,-11.25 7.96,-7.43 12,-17.51 12,-30.15l0 -39.8c0,-12.21 -3.93,-21.97 -11.79,-29.09 -7.95,-7.11 -18.57,-10.72 -32.05,-10.72 -13.27,0 -23.88,3.61 -31.84,10.72 -8.07,7.12 -12,16.98 -12,29.41l0 40.12c0,12.41 3.93,22.29 11.78,29.72 7.85,7.33 18.58,11.04 32.06,11.04zm0 -199.01c11.57,0 20.8,-3.72 27.49,-11.05 6.79,-7.42 10.08,-17.4 10.08,-30.04l0 -28.01c0,-11.58 -3.29,-20.81 -10.08,-27.5 -6.69,-6.69 -15.92,-10.08 -27.49,-10.08 -11.47,0 -20.6,3.39 -27.49,10.19 -7.01,6.89 -10.51,16.13 -10.51,27.7l0 28.35c0,12.62 3.5,22.5 10.3,29.71 6.9,7.12 16.13,10.73 27.7,10.73z"/>
     </g>
     <g>
      <path class="fil1" d="M13525.08 7991.85l-63.79 -36.83 -95.39 -197.36c-9.29,-17.25 -18.69,-31.75 -28.55,-43.32 -9.82,-11.67 -19.43,-20.28 -28.9,-25.75l-3.03 -1.75c-10.02,-5.78 -19.09,-7.48 -27.22,-5.29 -8.17,2.26 -15.2,8.49 -21.09,18.7 -6.05,10.48 -7.23,20.59 -3.77,30.3 3.41,9.81 11.55,19.05 24.59,27.68l7.26 4.19 -41.39 71.7 -7.26 -4.19c-34.84,-21.82 -56.23,-47.17 -64.3,-76.09 -8.15,-28.97 -2.84,-59.62 15.84,-91.98 19.58,-33.91 42.87,-54.91 69.6,-63.01 26.88,-8.14 56.34,-2.9 88.51,15.68l2.66 1.54c16,9.23 31.2,22.18 45.74,39.03 14.5,16.71 27.82,36.53 40,59.37l73.74 148.46 67.5 -116.93 68.4 39.49 -119.15 206.35z"/>
     </g>
     <g>
      <path class="fil1" d="M14119.47 6490.57l-335.91 333.28 -59.77 0 266.12 -264.03 -59.36 17.67 64.5 -64 68.72 -22.92 55.7 0zm-177.18 336.72c-18.77,0 -31.66,-3.36 -38.57,-10.09 -6.83,-6.73 -7.77,-16.27 -2.75,-28.63 5.02,-12.36 16.26,-27.15 33.52,-44.29l29.34 -29.1c14.43,-14.32 31.82,-27.62 52.11,-39.75 20.2,-12.12 40.53,-21.43 60.93,-27.84 -6.85,-5.32 -8.89,-12.92 -6.16,-22.78 2.74,-9.85 10.02,-20.65 21.68,-32.22l28 -27.78c24.13,-23.94 51.04,-42.87 80.57,-56.8 29.52,-13.93 57.58,-20.89 84.19,-20.89 26.6,0 40.63,6.96 42.08,20.89 1.45,13.93 -9.88,32.86 -34.01,56.8l-28 27.78c-11.83,11.73 -26.3,22.53 -43.51,32.3 -17.21,9.78 -34.8,17.38 -52.68,22.7 7.77,6.41 9.58,15.72 5.49,27.84 -4.01,12.13 -13.34,25.43 -27.77,39.75l-29.34 29.1c-17.27,17.14 -35.93,31.93 -55.89,44.29 -19.9,12.36 -40.08,21.9 -60.47,28.63 -20.4,6.73 -39.98,10.09 -58.76,10.09zm58.19 -57.73c9.78,0 20.37,-2.74 31.83,-8.3 11.39,-5.47 21.86,-12.91 31.24,-22.22l29.57 -29.33c9.07,-9 13.42,-16.2 12.92,-21.44 -0.58,-5.25 -5.73,-7.9 -15.66,-7.9 -9.79,0 -20.28,2.65 -31.44,7.9 -11.23,5.24 -21.46,12.52 -30.68,21.67l-29.81 29.57c-9.22,9.15 -13.66,16.43 -13.39,21.91 0.35,5.4 5.49,8.14 15.42,8.14zm147.84 -146.68c8.53,0 18.1,-2.75 28.47,-8.15 10.53,-5.47 20.37,-12.83 29.75,-22.13l20.81 -20.66c8.61,-8.53 13.03,-15.33 13,-20.27 0.03,-4.92 -4.25,-7.42 -12.78,-7.42 -8.45,0 -17.7,2.5 -27.83,7.5 -10.29,5.09 -19.73,11.9 -28.33,20.43l-21.05 20.88c-9.38,9.31 -14.14,16.59 -14.49,21.91 -0.2,5.24 3.92,7.91 12.45,7.91z"/>
     </g>
     <g>
      <path class="fil1" d="M15431.5 6772.77l-79.48 -55.24 -241.48 -226.72 65.33 0 240.15 223.9 132.46 -0.16 84 58.22 -200.97 0zm193.66 51.31l-274.21 -190.02 58.58 -0.24 274.54 190.26 -58.91 0z"/>
     </g>
     <circle class="fil2" cx="16413.01" cy="9082.15" r="34.85"/>
     <polygon class="fil7" points="14672.44,7305.36 14687.81,7059.37 16033.12,9359.67 13362.91,9328.81 13542.36,9203.74 15747.39,9203.74 "/>
     <polygon class="fil8" points="14687.81,7059.37 13362.91,9328.81 13542.36,9203.74 14672.44,7305.36 "/>
     <g>
      <path class="fil15" d="M14066.37 8895.4l0 -68.91 112.35 0c15.41,0 27.33,-3.31 35.77,-9.74 8.43,-6.43 12.7,-15.5 12.7,-27.13l0 -27.41c0,-12.57 -4.27,-22.4 -12.93,-29.4 -8.55,-6.99 -20.58,-10.49 -36.21,-10.49l-111.68 0 0 -68.44 110.67 0c14.05,0 25.08,-3.21 32.84,-9.83 7.76,-6.53 11.69,-15.79 11.69,-27.79l0 -21.65c0,-10.49 -3.93,-18.62 -11.69,-24.48 -7.76,-5.77 -18.79,-8.7 -32.84,-8.7l-110.67 0 0 -68.72 116.29 0c39.59,0 70.18,8.41 91.99,25.05 21.71,16.73 32.62,40.46 32.62,71.08l0 21.56c0,20.89 -7.2,38.09 -21.48,51.51 -14.29,13.52 -34.3,22.12 -60.28,25.81 27.89,3.12 49.48,11.91 64.89,26.47 15.41,14.46 23.05,33.37 23.05,56.62l0 27.7c0,30.81 -10.79,54.64 -32.39,71.56 -21.7,16.92 -52.29,25.33 -91.76,25.33l-122.93 0zm-43.18 0l0 -402.68 86.03 0 0 402.68 -86.03 0z"/>
      <path class="fil15" d="M14511.14 8899.56c-45.55,0 -80.97,-10.97 -106.28,-32.99 -25.41,-21.93 -38.12,-52.84 -38.12,-92.73l0 -281.12 86.03 0 0 283.01c0,16.44 5.06,29.21 15.19,38.28 10.12,8.98 24.51,13.52 43.18,13.52 18.67,0 33.18,-4.54 43.41,-13.52 10.35,-9.07 15.52,-21.84 15.52,-38.28l0 -283.01 86.37 0 0 281.12c0,39.89 -12.82,70.8 -38.46,92.73 -25.53,22.02 -61.18,32.99 -106.84,32.99z"/>
      <path class="fil15" d="M14776.09 8895.4l-0.33 -69.48 88.28 0c20.13,0 35.88,-4.54 47.12,-13.42 11.14,-8.98 16.65,-21.46 16.42,-37.25l0 -162.58c0.23,-16.07 -5.28,-28.45 -16.42,-37.24 -11.24,-8.79 -26.99,-13.14 -47.12,-13.14l-87.95 0 -0.33 -69.57 91.2 0c47.46,0 84.13,10.3 110.1,30.72 25.87,20.51 38.8,49.34 38.8,86.4l0 168.15c0,23.83 -5.62,44.53 -16.98,62.2 -11.24,17.59 -28,31.2 -50.16,40.84 -22.26,9.55 -49.59,14.37 -82.09,14.37l-90.54 0zm-50.15 0l0 -69.65 86.03 0 0 69.65 -86.03 0zm0 -166.45l0 -236.22 86.03 0 0 236.22 -86.03 0z"/>
      <path class="fil15" d="M15211.88 8899.56c-26.99,0 -50.72,-3.4 -71.19,-10.11 -20.36,-6.72 -37.23,-16.74 -50.61,-30.07 -13.27,-13.23 -22.72,-29.77 -28.45,-49.53l0 0 80.07 -29.68 0 0c6.41,16.26 15.97,28.55 28.68,36.87 12.7,8.31 28.23,12.47 46.44,12.47 18.9,0 33.63,-3.49 44.2,-10.58 10.46,-7 15.75,-16.73 15.75,-29.31l0 -18.05c0,-9.93 -3.49,-17.87 -10.35,-23.82 -6.97,-5.87 -16.19,-10.69 -27.67,-14.37 -11.58,-3.69 -24.06,-7.19 -37.45,-10.49 -14.73,-3.69 -29.57,-7.94 -44.64,-12.77 -14.96,-4.82 -28.91,-11.06 -41.5,-18.81 -12.6,-7.75 -22.72,-18.15 -30.48,-31.19 -7.65,-12.95 -11.47,-29.78 -11.47,-50.29l0 -10.49c0,-35.26 12.82,-62.49 38.46,-81.87 25.76,-19.28 62.08,-28.92 109.09,-28.92 35.76,0 65.23,7.18 88.17,21.65 22.94,14.36 38.69,35.92 47.24,64.46l0 0 -76.14 30.25 0 0c-6.08,-15.5 -14.62,-27.22 -25.64,-35.07 -11.02,-7.84 -23.73,-11.72 -38.24,-11.72 -18.44,0 -32.62,3.21 -42.51,9.64 -9.9,6.53 -14.85,15.51 -14.85,27.13l0 13.33c0,11.25 3.94,20.14 11.59,26.56 7.64,6.53 17.88,11.63 30.48,15.41 12.59,3.78 26.2,7.66 40.71,11.72 14.28,3.69 28.56,7.94 42.84,12.67 14.29,4.63 27.22,10.87 39.03,18.62 11.7,7.75 21.14,17.96 28.11,30.54 7.09,12.47 10.58,28.45 10.58,47.83l0 17.2c0,35.07 -13.16,62.3 -39.37,81.67 -26.31,19.38 -63.2,29.12 -110.88,29.12z"/>
     </g>
    </g>
   </g>
   <polygon class="fil9" points="12297.29,7187.01 12297.29,9871.33 14642.9,11277 17005.43,9913.67 17030.83,7195.48 14659.83,5781.34 "/>
   <g>
    <path class="fil15" d="M9753.87 14886.08l0 -580.36 946.18 0c129.77,0 230.17,-27.87 301.2,-82 71.03,-54.14 107.02,-130.57 107.02,-228.48l0 -230.87c0,-105.88 -35.99,-188.66 -108.92,-247.58 -71.99,-58.91 -173.32,-88.37 -304.97,-88.37l-940.51 0 0 -576.37 931.99 0c118.39,0 211.2,-27.07 276.55,-82.8 65.36,-54.94 98.51,-132.95 98.51,-234.05l0 -182.3c0,-88.37 -33.15,-156.83 -98.51,-206.19 -65.35,-48.57 -158.16,-73.25 -276.55,-73.25l-931.99 0 0 -578.76 979.34 0c333.38,0 591.01,70.86 774.74,210.97 182.8,140.9 274.67,340.72 274.67,598.66l0 181.51c0,175.94 -60.62,320.82 -180.89,433.86 -120.29,113.85 -288.88,186.29 -507.66,217.34 234.88,26.27 416.74,100.31 546.49,222.91 129.76,121.8 194.16,281.01 194.16,476.85l0 233.26c0,259.52 -90.93,460.14 -272.78,602.64 -182.79,142.5 -440.41,213.36 -772.85,213.36l-1035.21 0zm-363.7 0l0 -3391.38 724.56 0 0 3391.38 -724.56 0z"/>
    <path class="fil15" d="M13499.77 14921.1c-383.6,0 -681.94,-92.35 -895.05,-277.83 -214.04,-184.69 -321.06,-445.01 -321.06,-780.97l0 -2367.6 724.53 0 0 2383.51c0,138.53 42.63,245.99 127.87,322.42 85.25,75.64 206.47,113.85 363.71,113.85 157.21,0 279.4,-38.21 365.59,-113.85 87.15,-76.43 130.71,-183.89 130.71,-322.42l0 -2383.51 727.39 0 0 2367.6c0,335.96 -107.98,596.28 -323.92,780.97 -214.99,185.48 -515.23,277.83 -899.77,277.83z"/>
    <path class="fil15" d="M15731.21 14886.08l-2.84 -585.13 743.49 0c169.52,0 302.14,-38.22 396.84,-113.05 93.78,-75.64 140.18,-180.72 138.3,-313.67l0 -1369.29c1.89,-135.34 -44.52,-239.62 -138.3,-313.66 -94.7,-74.03 -227.31,-110.66 -396.84,-110.66l-740.65 0 -2.84 -585.93 768.12 0c399.69,0 708.44,86.78 927.24,258.73 217.83,172.75 326.75,415.57 326.75,727.63l0 1416.26c0,200.61 -47.35,374.96 -143,523.83 -94.72,148.07 -235.84,262.71 -422.41,343.92 -187.54,80.41 -417.7,121.01 -691.42,121.01l-762.43 0zm-422.42 0l0 -586.55 724.56 0 0 586.55 -724.56 0zm0 -1401.89l0 -1989.49 724.56 0 0 1989.49 -724.56 0z"/>
    <path class="fil15" d="M19401.33 14921.1c-227.3,0 -427.15,-28.65 -599.54,-85.18 -171.42,-56.52 -313.49,-140.9 -426.19,-253.16 -111.78,-111.45 -191.33,-250.76 -239.63,-417.16l0 0 674.36 -249.97 0 0c53.98,136.93 134.5,240.42 241.53,310.48 107.01,70.06 237.72,105.09 391.16,105.09 159.12,0 283.18,-29.46 372.22,-89.17 88.08,-58.91 132.61,-140.9 132.61,-246.79l0 -152.05c0,-83.59 -29.36,-150.46 -87.15,-200.61 -58.72,-49.37 -136.38,-89.97 -232.99,-121.02 -97.56,-31.05 -202.67,-60.5 -315.39,-88.36 -124.09,-31.05 -249.09,-66.87 -376.02,-107.48 -125.97,-40.61 -243.41,-93.14 -349.49,-158.42 -106.08,-65.28 -191.31,-152.85 -256.67,-262.71 -64.4,-109.07 -96.61,-250.77 -96.61,-423.52l0 -88.37c0,-296.94 107.98,-526.22 323.91,-689.42 216.9,-162.4 522.82,-243.61 918.73,-243.61 301.18,0 549.32,60.51 742.54,182.3 193.21,121.01 325.82,302.52 397.81,542.94l0 0 -641.21 254.75 0 0c-51.16,-130.56 -123.14,-229.28 -215.94,-295.35 -92.83,-66.08 -199.85,-98.72 -322.03,-98.72 -155.33,0 -274.68,27.07 -358.03,81.21 -83.34,54.93 -125.02,130.56 -125.02,228.47l0 112.25c0,94.75 33.15,169.57 97.57,223.71 64.4,54.93 150.58,97.92 256.67,129.77 106.07,31.84 220.67,64.48 342.86,98.71 120.29,31.05 240.56,66.88 360.85,106.69 120.29,39.01 229.21,91.55 328.66,156.82 98.51,65.28 178.06,151.26 236.78,257.14 59.67,105.09 89.04,239.63 89.04,402.83l0 144.89c0,295.35 -110.82,524.63 -331.5,687.83 -221.63,163.19 -532.29,245.19 -933.88,245.19z"/>
   </g>
   <g>
    <path class="fil16" d="M9805.58 14813.67l0 -580.36 946.18 0c129.77,0 230.17,-27.87 301.2,-82 71.03,-54.14 107.02,-130.57 107.02,-228.48l0 -230.87c0,-105.88 -35.99,-188.66 -108.92,-247.58 -71.99,-58.91 -173.32,-88.37 -304.97,-88.37l-940.51 0 0 -576.37 931.99 0c118.39,0 211.2,-27.07 276.55,-82.8 65.36,-54.94 98.51,-132.95 98.51,-234.05l0 -182.3c0,-88.37 -33.15,-156.83 -98.51,-206.19 -65.35,-48.57 -158.16,-73.25 -276.55,-73.25l-931.99 0 0 -578.76 979.34 0c333.38,0 591.01,70.86 774.74,210.97 182.8,140.9 274.67,340.72 274.67,598.66l0 181.51c0,175.94 -60.62,320.82 -180.89,433.86 -120.29,113.85 -288.88,186.29 -507.66,217.34 234.88,26.27 416.74,100.31 546.49,222.91 129.76,121.8 194.16,281.01 194.16,476.85l0 233.26c0,259.52 -90.93,460.14 -272.78,602.64 -182.79,142.5 -440.41,213.36 -772.85,213.36l-1035.21 0zm-363.7 0l0 -3391.38 724.56 0 0 3391.38 -724.56 0z"/>
    <path class="fil17" d="M13551.48 14848.69c-383.6,0 -681.94,-92.35 -895.05,-277.83 -214.04,-184.69 -321.06,-445.01 -321.06,-780.97l0 -2367.6 724.53 0 0 2383.51c0,138.53 42.63,245.99 127.87,322.42 85.25,75.64 206.47,113.85 363.71,113.85 157.21,0 279.4,-38.21 365.59,-113.85 87.15,-76.43 130.71,-183.89 130.71,-322.42l0 -2383.51 727.39 0 0 2367.6c0,335.96 -107.98,596.28 -323.92,780.97 -214.99,185.48 -515.23,277.83 -899.77,277.83z"/>
    <path class="fil18" d="M15782.92 14813.67l-2.84 -585.13 743.49 0c169.52,0 302.14,-38.22 396.84,-113.05 93.78,-75.64 140.18,-180.72 138.3,-313.67l0 -1369.29c1.89,-135.34 -44.52,-239.62 -138.3,-313.66 -94.7,-74.03 -227.31,-110.66 -396.84,-110.66l-740.65 0 -2.84 -585.93 768.12 0c399.69,0 708.44,86.78 927.24,258.73 217.83,172.75 326.75,415.57 326.75,727.63l0 1416.26c0,200.61 -47.35,374.96 -143,523.83 -94.72,148.07 -235.84,262.71 -422.41,343.92 -187.54,80.41 -417.7,121.01 -691.42,121.01l-762.43 0zm-422.42 0l0 -586.55 724.56 0 0 586.55 -724.56 0zm0 -1401.89l0 -1989.49 724.56 0 0 1989.49 -724.56 0z"/>
    <path class="fil19" d="M19453.04 14848.69c-227.3,0 -427.15,-28.65 -599.54,-85.18 -171.42,-56.52 -313.49,-140.9 -426.19,-253.16 -111.78,-111.45 -191.33,-250.76 -239.63,-417.16l0 0 674.36 -249.97 0 0c53.98,136.93 134.5,240.42 241.53,310.48 107.01,70.06 237.72,105.09 391.16,105.09 159.12,0 283.18,-29.46 372.22,-89.17 88.08,-58.91 132.61,-140.9 132.61,-246.79l0 -152.05c0,-83.59 -29.36,-150.46 -87.15,-200.61 -58.72,-49.37 -136.38,-89.97 -232.99,-121.02 -97.56,-31.05 -202.67,-60.5 -315.39,-88.36 -124.09,-31.05 -249.09,-66.87 -376.02,-107.48 -125.97,-40.61 -243.41,-93.14 -349.49,-158.42 -106.08,-65.28 -191.31,-152.85 -256.67,-262.71 -64.4,-109.07 -96.61,-250.77 -96.61,-423.52l0 -88.37c0,-296.94 107.98,-526.22 323.91,-689.42 216.9,-162.4 522.82,-243.61 918.73,-243.61 301.18,0 549.32,60.51 742.54,182.3 193.21,121.01 325.82,302.52 397.81,542.94l0 0 -641.21 254.75 0 0c-51.16,-130.56 -123.14,-229.28 -215.94,-295.35 -92.83,-66.08 -199.85,-98.72 -322.03,-98.72 -155.33,0 -274.68,27.07 -358.03,81.21 -83.34,54.93 -125.02,130.56 -125.02,228.47l0 112.25c0,94.75 33.15,169.57 97.57,223.71 64.4,54.93 150.58,97.92 256.67,129.77 106.07,31.84 220.67,64.48 342.86,98.71 120.29,31.05 240.56,66.88 360.85,106.69 120.29,39.01 229.21,91.55 328.66,156.82 98.51,65.28 178.06,151.26 236.78,257.14 59.67,105.09 89.04,239.63 89.04,402.83l0 144.89c0,295.35 -110.82,524.63 -331.5,687.83 -221.63,163.19 -532.29,245.19 -933.88,245.19z"/>
   </g>
  </g>
 </g>
</svg>
