<?xml version="1.0" encoding="UTF-8"?>
<!DOCTYPE svg PUBLIC "-//W3C//DTD SVG 1.1//EN" "http://www.w3.org/Graphics/SVG/1.1/DTD/svg11.dtd">
<!-- Creator: CorelDRAW -->
<svg xmlns="http://www.w3.org/2000/svg" xml:space="preserve" width="148.5mm" height="105mm" version="1.1" style="shape-rendering:geometricPrecision; text-rendering:geometricPrecision; image-rendering:optimizeQuality; fill-rule:evenodd; clip-rule:evenodd"
viewBox="0 0 7424.74 5249.81"
 xmlns:xlink="http://www.w3.org/1999/xlink"
 xmlns:xodm="http://www.corel.com/coreldraw/odm/2003">
 <defs>
  <style type="text/css">
   <![CDATA[
    .fil4 {fill:none}
    .fil5 {fill:none;fill-rule:nonzero}
    .fil0 {fill:#173966}
    .fil7 {fill:#173966}
    .fil9 {fill:#1F54A1}
    .fil10 {fill:#296FB2}
    .fil11 {fill:#338AC2}
    .fil12 {fill:#3DA5D3}
    .fil13 {fill:#47C0E3}
    .fil8 {fill:#CCCCCC}
    .fil3 {fill:#CCCCCC}
    .fil2 {fill:#EEEEEE}
    .fil6 {fill:white}
    .fil1 {fill:#EEEEEE;fill-rule:nonzero}
    .fil15 {fill:white;fill-rule:nonzero}
    .fil14 {fill:white;fill-rule:nonzero}
   ]]>
  </style>
    <clipPath id="id0">
     <path d="M2074.18 1321.99l940.8 -325.4c43.69,-15.11 91.79,8.27 106.91,51.95l476.33 1377.17c15.11,43.69 -8.27,91.8 -51.96,106.91l-940.79 325.4c-43.69,15.11 -91.8,-8.27 -106.91,-51.96l-476.34 -1377.17c-15.11,-43.68 8.27,-91.79 51.96,-106.9zm118.26 71l773.42 -267.51c35.91,-12.42 75.46,6.79 87.88,42.71l416.97 1205.53c12.42,35.91 -6.79,75.46 -42.71,87.88l-773.41 267.51c-35.92,12.42 -75.46,-6.79 -87.89,-42.71l-416.97 -1205.53c-12.42,-35.92 6.79,-75.46 42.71,-87.89z"/>
    </clipPath>
     <clipPath id="id1" style="clip-rule:nonzero">
      <path d="M2523.61 2100.86l-11.78 -34.07 55.54 -19.21c7.61,-2.63 12.94,-6.31 16.01,-10.92 3.07,-4.62 3.63,-9.84 1.64,-15.58l-4.68 -13.55c-2.15,-6.21 -5.94,-10.34 -11.42,-12.32 -5.42,-1.99 -11.97,-1.67 -19.69,1l-55.21 19.09 -11.7 -33.83 54.7 -18.92c6.95,-2.4 11.85,-5.87 14.55,-10.47 2.72,-4.55 3.08,-9.8 1.03,-15.74l-3.7 -10.7c-1.79,-5.18 -5.12,-8.53 -9.96,-10.1 -4.82,-1.52 -10.77,-1.08 -17.72,1.32l-54.71 18.92 -11.75 -33.97 57.49 -19.88c19.56,-6.77 36.13,-7.84 49.76,-3.34 13.59,4.55 23.04,14.42 28.27,29.56l3.68 10.65c3.57,10.33 2.95,20.06 -1.81,29.14 -4.75,9.12 -13.17,16.8 -25.38,23.06 14.32,-3.22 26.5,-2.57 36.6,1.99 10.09,4.51 17.1,12.55 21.07,24.05l4.74 13.69c5.26,15.23 4,28.86 -3.78,40.91 -7.83,12.07 -21.52,21.46 -41.03,28.21l-60.77 21.02zm-21.34 7.38l-68.85 -199.06 42.53 -14.71 68.85 199.06 -42.53 14.71z"/>
     </clipPath>
     <clipPath id="id2" style="clip-rule:nonzero">
      <path d="M2744.2 2026.86c-22.52,7.79 -41.9,8.42 -58.18,1.86 -16.31,-6.49 -27.88,-19.6 -34.7,-39.32l-48.06 -138.97 42.53 -14.71 48.39 139.91c2.81,8.13 7.49,13.57 14.05,16.33 6.54,2.71 14.43,2.49 23.66,-0.7 9.23,-3.19 15.62,-7.91 19.15,-14.1 3.56,-6.25 3.94,-13.44 1.12,-21.57l-48.39 -139.91 42.69 -14.77 48.07 138.97c6.82,19.72 5.77,37.19 -3.15,52.42 -8.85,15.25 -24.6,26.77 -47.17,34.57z"/>
     </clipPath>
     <clipPath id="id3" style="clip-rule:nonzero">
      <path d="M2874.46 1979.5l-12.04 -34.29 43.64 -15.09c9.95,-3.44 16.96,-8.37 21,-14.69 3.97,-6.34 4.56,-13.45 1.75,-21.22l-27.8 -80.38c-2.64,-7.98 -7.48,-13.16 -14.48,-15.6 -7.06,-2.42 -15.59,-1.88 -25.54,1.56l-43.47 15.04 -12.06 -34.34 45.08 -15.59c23.46,-8.11 43.35,-9.29 59.68,-3.63 16.29,5.71 27.61,17.75 33.95,36.07l28.75 83.13c4.07,11.77 4.83,22.97 2.24,33.65 -2.55,10.61 -8.51,20.21 -17.81,28.76 -9.37,8.52 -22.06,15.58 -38.13,21.14l-44.75 15.48zm-24.79 8.57l-11.91 -34.43 42.53 -14.71 11.91 34.43 -42.53 14.71zm-28.46 -82.29l-40.39 -116.78 42.53 -14.71 40.39 116.78 -42.53 14.71z"/>
     </clipPath>
     <clipPath id="id4" style="clip-rule:nonzero">
      <path d="M3090.6 1907.04c-13.34,4.61 -25.65,6.99 -36.92,7.17 -11.21,0.16 -21.26,-1.91 -30.16,-6.21 -8.82,-4.27 -16.32,-10.83 -22.53,-19.62l0 0 34.51 -28.36 0 0c5.95,6.94 12.77,11.38 20.48,13.32 7.7,1.94 16.09,1.34 25.09,-1.77 9.34,-3.23 16.02,-7.48 20.04,-12.79 3.97,-5.24 4.92,-10.96 2.77,-17.17l-3.08 -8.92c-1.7,-4.91 -4.78,-8.24 -9.19,-10.01 -4.45,-1.7 -9.83,-2.51 -16.13,-2.37 -6.35,0.15 -13.12,0.56 -20.3,1.21 -7.91,0.69 -15.98,1.13 -24.25,1.32 -8.21,0.17 -16.18,-0.52 -23.73,-2.2 -7.55,-1.67 -14.33,-5.08 -20.4,-10.21 -5.99,-5.09 -10.76,-12.75 -14.27,-22.89l-1.79 -5.19c-6.03,-17.43 -4.34,-33.08 5.01,-47.04 9.43,-13.93 25.74,-24.91 48.98,-32.95 17.68,-6.11 33.47,-7.6 47.29,-4.37 13.79,3.18 25.26,11.14 34.37,23.79l0 0 -32.46 27.97 0 0c-5.65,-6.62 -11.88,-10.96 -18.67,-12.95 -6.79,-1.99 -13.73,-1.74 -20.91,0.74 -9.11,3.15 -15.57,7.16 -19.36,12.03 -3.77,4.92 -4.69,10.2 -2.7,15.95l2.28 6.59c1.92,5.56 5.38,9.28 10.27,11.15 4.89,1.92 10.82,2.69 17.7,2.4 6.87,-0.28 14.26,-0.69 22.13,-1.16 7.69,-0.62 15.47,-0.96 23.34,-1.06 7.85,-0.15 15.31,0.72 22.47,2.53 7.11,1.83 13.52,5.26 19.12,10.28 5.63,4.95 10.09,12.26 13.4,21.84l2.94 8.5c5.99,17.33 4.14,33.04 -5.49,47.1 -9.69,14.08 -26.26,25.2 -49.84,33.35z"/>
     </clipPath>
    <clipPath id="id5">
     <path d="M4436.63 1688.23c-7.74,-3.31 -13.71,-6.02 -20.68,-11.18 -6.03,-4.46 -7.02,-5.25 -9.09,-12.29 -0.15,-0.53 -0.51,-2.14 -0.67,-2.66 -1.47,-4.86 1.3,0.21 -1.45,-4.06 -17.07,11.5 -57.35,17.53 -61.7,39.2 18.43,13.32 90.28,23.3 119.96,29.02 117.89,22.72 229.09,47.57 347.25,66.51 -17.21,-19.36 -177.37,-50.42 -214.41,-59.05 -45.16,-10.52 -117.03,-27.45 -159.19,-45.48z"/>
    </clipPath>
    <clipPath id="id6">
     <path d="M4435.6 1769.37c-21.54,97.18 -40.69,158.46 -91.25,234.16 -29.84,44.67 -71.2,84.01 -114.24,108.66 -9.6,5.49 -38.54,20.16 -42.21,33.12 -5.36,18.91 32.73,25.19 49.57,29.12 57.78,13.47 156.53,29.94 217.38,41.38 48.06,9.04 96.11,18.08 144.17,27.12 47.49,8.93 98.76,20.56 146.14,27.25 -28.36,-35.92 -221.02,-83.69 -282.59,-95.43 -29.57,-5.63 -76.79,-14.09 -98.56,-30.33 -28.43,-21.21 -6.16,-54.21 7.36,-82.87 25.87,-54.84 84.62,-220.83 69.6,-282.11l-5.37 -10.07z"/>
    </clipPath>
    <clipPath id="id7">
     <path d="M4158.83 2319.42c-35.25,25.38 -105.38,64.04 -131.37,119.18 -18.12,38.45 -11.21,74.41 9.95,95.46 23.15,23.01 63.94,29.52 100.7,36.44 81.08,15.25 162.36,30.09 243.36,45.75 78.41,15.17 162.11,34.27 241.02,46.81 -21.75,-17.05 -137.75,-51.52 -172.78,-60.93 -62.76,-16.85 -126.07,-32.16 -189.2,-47.1 -63.59,-15.04 -129.66,-24.11 -149.32,-76.08 -22.16,-58.59 41.56,-140.92 47.64,-159.54z"/>
    </clipPath>
    <clipPath id="id8" style="clip-rule:nonzero">
     <path d="M2975.37 1539.73l0 775.14 677.34 405.91 682.22 -393.69 7.34 -784.92 -684.67 -408.36 -682.22 405.91z"/>
    </clipPath>
    <clipPath id="id9">
     <path d="M3058.92 2295.35l188.11 -92.24 317.24 384.71 -505.35 -292.46z"/>
    </clipPath>
    <clipPath id="id10">
     <path d="M4087.34 2206.8l164.96 82.33 -491.35 288.82 326.39 -371.15z"/>
    </clipPath>
    <clipPath id="id11">
     <path d="M4108.98 2169.14l166.88 84.02 6.97 -563.14 -173.85 479.13z"/>
    </clipPath>
    <clipPath id="id12">
     <path d="M3708.39 1490.47l369.28 637.45 198.25 -547.43 -567.53 -90.03z"/>
    </clipPath>
    <clipPath id="id13">
     <path d="M3688.1 1442.11l510.02 80.98 -516.8 -309.42 6.78 228.44z"/>
    </clipPath>
    <clipPath id="id14">
     <path d="M3638.19 1214.76l6.82 227.54 -528.29 71.78 521.47 -299.31z"/>
    </clipPath>
    <clipPath id="id15">
     <path d="M3038 1568.73l590.2 -80.7 -372.94 639.55 -217.27 -558.85z"/>
    </clipPath>
    <clipPath id="id16">
     <path d="M3223.98 2163.68l-192.64 -494.61 0.37 589.82 192.27 -95.21z"/>
    </clipPath>
    <clipPath id="id17">
     <path d="M3283.09 2158.21l771.06 8.91 -388.48 -664.25 -382.58 655.34z"/>
    </clipPath>
 </defs>
 <g id="Camada_x0020_1">
  <metadata id="CorelCorpID_0Corel-Layer"/>
  <polygon class="fil0" points="-0,0 7424.74,0 7424.74,5249.81 -0,5249.81 "/>
  <g id="_1848388545664">
   <path class="fil1" d="M2636.16 4175.34l44.06 0 0 36.38c0,9.44 -1.83,17.63 -5.5,24.52 -3.7,6.88 -8.89,12.21 -15.63,15.94 -6.71,3.77 -14.7,5.63 -23.93,5.63 -9.27,0 -17.32,-1.79 -24.24,-5.36 -6.88,-3.59 -12.17,-8.64 -15.91,-15.21 -3.7,-6.54 -5.56,-14.32 -5.56,-23.31l0 -59.97c0,-9.51 1.86,-17.78 5.56,-24.73 3.73,-6.95 8.96,-12.31 15.74,-16.12 6.74,-3.77 14.66,-5.67 23.79,-5.67 9.06,0 16.77,1.73 23.14,5.12 6.39,3.42 11.37,8.54 14.97,15.35 3.56,6.81 5.7,15.32 6.36,25.52l0 0 -27.67 0 0 0c-0.52,-6.47 -2.28,-11.24 -5.22,-14.28 -2.9,-3.04 -6.78,-4.56 -11.58,-4.56 -5.46,0 -9.82,1.76 -13,5.29 -3.21,3.49 -4.84,8.2 -4.84,14.08l0 59.97c0,5.15 1.66,9.23 4.98,12.21 3.32,3.01 7.81,4.53 13.48,4.53 5.6,0 10.06,-1.66 13.35,-4.91 3.32,-3.28 4.98,-7.81 4.98,-13.62l0 -11.34 -17.33 0 0 -25.45zm267.75 80.96l45.69 -147.33 17.64 0 45.79 147.33 -27.46 0 -27.15 -98.6 -27.15 98.6 -27.36 0zm25.42 -23.31l0 -25.11 58.87 0 0 25.11 -58.87 0zm316.69 -34.34l26.56 -89.68 30.09 0 0 147.33 -23.83 0 0 -108.63 1.21 6.5 -24.69 80.86 -18.57 0 -24.8 -78.86 1.52 -8.5 0 108.63 -24.03 0 0 -147.33 30.29 0 26.25 89.68zm243.6 57.65l0.1 -147.33 26.46 0 0 147.33 -26.56 0zm10.65 0l0 -25.63 71.52 0 0 25.63 -71.52 0zm0 -60.28l0 -25.73 63.43 0 0 25.62 -63.43 0.1zm0 -61.42l0 -25.63 71.52 0 0 25.63 -71.52 0zm364 121.71l0.1 -147.33 26.42 0 0 147.33 -26.52 0zm-62.84 0l0.1 -147.33 26.46 0 0 147.33 -26.56 0zm12.48 -60.18l0 -25.25 67.58 -0.1 0 25.25 -67.58 0.1zm308.17 61.7c-9.34,0 -17.43,-1.79 -24.28,-5.43 -6.85,-3.59 -12.14,-8.75 -15.87,-15.46 -3.7,-6.67 -5.57,-14.52 -5.57,-23.58l0 -61.43c0,-9.16 1.87,-17.08 5.57,-23.76 3.73,-6.64 9.02,-11.76 15.87,-15.32 6.85,-3.6 14.94,-5.39 24.28,-5.39 9.37,0 17.5,1.79 24.35,5.39 6.85,3.56 12.14,8.68 15.87,15.32 3.7,6.67 5.57,14.59 5.57,23.76l0 61.43c0,9.06 -1.87,16.91 -5.57,23.58 -3.73,6.71 -9.02,11.86 -15.87,15.46 -6.85,3.63 -14.97,5.43 -24.35,5.43zm0 -26.45c5.74,0 10.27,-1.73 13.63,-5.15 3.32,-3.46 5.01,-8.16 5.01,-14.18l0 -58.97c0,-5.88 -1.66,-10.58 -4.98,-14.04 -3.32,-3.49 -7.85,-5.22 -13.66,-5.22 -5.7,0 -10.2,1.73 -13.55,5.22 -3.32,3.46 -5.02,8.16 -5.02,14.04l0 58.97c0,6.01 1.69,10.72 5.02,14.18 3.35,3.42 7.85,5.15 13.55,5.15zm269.86 26.45c-14.01,0 -24.9,-4.01 -32.68,-12.07 -7.81,-8.02 -11.72,-19.33 -11.72,-33.93l0 -102.86 26.46 0 0 103.55c0,6.01 1.55,10.68 4.67,14 3.11,3.28 7.54,4.94 13.28,4.94 5.74,0 10.2,-1.66 13.35,-4.94 3.18,-3.32 4.77,-7.99 4.77,-14l0 -103.55 26.56 0 0 102.86c0,14.59 -3.94,25.9 -11.83,33.93 -7.85,8.06 -18.81,12.07 -32.85,12.07zm266.5 0c-8.3,0 -15.6,-1.24 -21.89,-3.7 -6.26,-2.45 -11.45,-6.12 -15.56,-11 -4.08,-4.84 -6.98,-10.89 -8.75,-18.12l0 0 24.62 -10.86 0 0c1.97,5.95 4.91,10.44 8.82,13.49 3.91,3.04 8.68,4.56 14.28,4.56 5.81,0 10.34,-1.28 13.59,-3.87 3.22,-2.56 4.84,-6.12 4.84,-10.72l0 -6.61c0,-3.63 -1.07,-6.53 -3.18,-8.71 -2.14,-2.14 -4.98,-3.91 -8.51,-5.25 -3.56,-1.35 -7.4,-2.63 -11.52,-3.84 -4.53,-1.35 -9.09,-2.9 -13.73,-4.67 -4.6,-1.76 -8.89,-4.04 -12.76,-6.88 -3.87,-2.83 -6.99,-6.64 -9.37,-11.41 -2.35,-4.74 -3.52,-10.89 -3.52,-18.4l0 -3.84c0,-12.9 3.94,-22.86 11.82,-29.95 7.92,-7.06 19.09,-10.58 33.55,-10.58 11,0 20.06,2.63 27.11,7.92 7.05,5.25 11.9,13.14 14.53,23.58l0 0 -23.41 11.07 0 0c-1.87,-5.67 -4.5,-9.96 -7.89,-12.83 -3.39,-2.87 -7.29,-4.29 -11.76,-4.29 -5.67,0 -10.03,1.17 -13.07,3.53 -3.04,2.38 -4.56,5.67 -4.56,9.92l0 4.87c0,4.11 1.21,7.37 3.56,9.72 2.35,2.38 5.5,4.25 9.37,5.63 3.87,1.38 8.05,2.8 12.52,4.29 4.39,1.35 8.78,2.9 13.17,4.63 4.39,1.69 8.37,3.98 12,6.81 3.59,2.83 6.5,6.57 8.64,11.17 2.18,4.56 3.25,10.41 3.25,17.5l0 6.29c0,12.83 -4.04,22.79 -12.1,29.88 -8.09,7.09 -19.43,10.65 -34.1,10.65zm227.69 -1.52l0.1 -147.33 26.46 0 0 147.33 -26.56 0zm10.65 0l0 -25.63 71.52 0 0 25.63 -71.52 0zm0 -60.28l0 -25.73 63.43 0 0 25.62 -63.43 0.1zm0 -61.42l0 -25.63 71.52 0 0 25.63 -71.52 0z"/>
   <g>
    <path class="fil2" d="M2468.18 4146.32c20.05,0 36.31,16.26 36.31,36.31 0,20.05 -16.26,36.31 -36.31,36.31 -20.05,0 -36.31,-16.26 -36.31,-36.31 0,-20.05 16.25,-36.31 36.31,-36.31z"/>
    <path class="fil2" d="M5089.76 4146.32c20.05,0 36.31,16.26 36.31,36.31 0,20.05 -16.26,36.31 -36.31,36.31 -20.05,0 -36.31,-16.26 -36.31,-36.31 0,-20.05 16.26,-36.31 36.31,-36.31z"/>
   </g>
   <path class="fil2" d="M2074.18 1321.99l940.8 -325.4c43.69,-15.11 91.79,8.27 106.91,51.95l476.33 1377.17c15.11,43.69 -8.27,91.8 -51.96,106.91l-940.79 325.4c-43.69,15.11 -91.8,-8.27 -106.91,-51.96l-476.34 -1377.17c-15.11,-43.68 8.27,-91.79 51.96,-106.9zm118.26 71l773.42 -267.51c35.91,-12.42 75.46,6.79 87.88,42.71l416.97 1205.53c12.42,35.91 -6.79,75.46 -42.71,87.88l-773.41 267.51c-35.92,12.42 -75.46,-6.79 -87.89,-42.71l-416.97 -1205.53c-12.42,-35.92 6.79,-75.46 42.71,-87.89z"/>
   <g style="clip-path:url(#id0)">
    <g>
     <polygon id="_1" class="fil3" points="2939.02,1536.28 2939.02,2337.36 3300.79,2536.22 3542.89,2681.33 3598.71,2267.1 3420.91,1228.82 "/>
    </g>
   </g>
   <path class="fil4" d="M2074.18 1321.99l940.8 -325.4c43.69,-15.11 91.79,8.27 106.91,51.95l476.33 1377.17c15.11,43.69 -8.27,91.8 -51.96,106.91l-940.79 325.4c-43.69,15.11 -91.8,-8.27 -106.91,-51.96l-476.34 -1377.17c-15.11,-43.68 8.27,-91.79 51.96,-106.9zm118.26 71l773.42 -267.51c35.91,-12.42 75.46,6.79 87.88,42.71l416.97 1205.53c12.42,35.91 -6.79,75.46 -42.71,87.88l-773.41 267.51c-35.92,12.42 -75.46,-6.79 -87.89,-42.71l-416.97 -1205.53c-12.42,-35.92 6.79,-75.46 42.71,-87.89z"/>
   <path class="fil1" d="M2612.59 2107.84l8.95 -3.1 2.56 7.39c0.66,1.92 0.86,3.71 0.6,5.36 -0.26,1.66 -0.95,3.11 -2.06,4.34 -1.09,1.23 -2.59,2.17 -4.46,2.82 -1.88,0.65 -3.64,0.85 -5.3,0.61 -1.65,-0.24 -3.08,-0.9 -4.3,-1.97 -1.21,-1.07 -2.13,-2.51 -2.77,-4.34l-4.21 -12.19c-0.67,-1.93 -0.87,-3.74 -0.61,-5.41 0.27,-1.67 0.95,-3.13 2.06,-4.38 1.11,-1.24 2.58,-2.18 4.44,-2.82 1.84,-0.64 3.53,-0.83 5.06,-0.58 1.54,0.24 2.91,0.93 4.12,2.06 1.2,1.13 2.24,2.71 3.09,4.74l0 0 -5.62 1.94 0 0c-0.55,-1.28 -1.25,-2.12 -2.06,-2.53 -0.8,-0.41 -1.7,-0.45 -2.68,-0.11 -1.11,0.38 -1.87,1.05 -2.27,1.99 -0.4,0.93 -0.4,2.01 0,3.2l4.22 12.19c0.36,1.04 0.98,1.76 1.87,2.13 0.88,0.37 1.9,0.37 3.06,-0.02 1.13,-0.39 1.92,-1.05 2.36,-1.93 0.44,-0.9 0.46,-1.94 0.05,-3.12l-0.79 -2.3 -3.52 1.21 -1.79 -5.17zm60.1 -2.36l-1.07 -33.16 3.58 -1.23 19.66 26.72 -5.58 1.93 -12.45 -18.13 1.41 21.95 -5.55 1.92zm3.52 -6.53l-1.76 -5.09 11.96 -4.14 1.76 5.1 -11.96 4.13zm61.93 -29.23l-0.9 -20.09 6.11 -2.11 10.36 29.94 -4.84 1.67 -7.63 -22.07 0.7 1.23 0.67 18.17 -3.78 1.3 -10.57 -14.28 -0.29 -1.84 7.64 22.08 -4.89 1.69 -10.35 -29.94 6.15 -2.13 11.64 16.38zm53.55 -5.4l-10.33 -29.95 5.37 -1.86 10.35 29.94 -5.39 1.86zm2.16 -0.74l-1.8 -5.21 14.53 -5.02 1.8 5.2 -14.53 5.03zm-4.24 -12.25l-1.8 -5.22 12.89 -4.46 1.8 5.21 -12.88 4.47zm-4.31 -12.48l-1.8 -5.2 14.53 -5.03 1.8 5.21 -14.53 5.02zm82.52 -0.84l-10.34 -29.95 5.37 -1.86 10.35 29.94 -5.39 1.86zm-12.77 4.41l-10.34 -29.95 5.37 -1.86 10.36 29.94 -5.39 1.86zm-1.69 -13.1l-1.77 -5.13 13.73 -4.77 1.77 5.13 -13.73 4.77zm66.95 -9.12c-1.89,0.65 -3.66,0.86 -5.31,0.6 -1.64,-0.25 -3.08,-0.92 -4.31,-2.02 -1.22,-1.09 -2.15,-2.56 -2.79,-4.4l-4.31 -12.48c-0.64,-1.86 -0.82,-3.6 -0.54,-5.22 0.29,-1.61 1.01,-3.02 2.15,-4.23 1.14,-1.21 2.65,-2.14 4.55,-2.8 1.91,-0.66 3.68,-0.87 5.33,-0.62 1.64,0.24 3.07,0.91 4.3,2 1.22,1.09 2.16,2.57 2.8,4.44l4.31 12.48c0.63,1.84 0.81,3.57 0.52,5.18 -0.28,1.63 -1,3.04 -2.13,4.26 -1.14,1.21 -2.66,2.15 -4.57,2.81zm-1.85 -5.37c1.16,-0.4 1.96,-1.08 2.41,-2.01 0.42,-0.93 0.44,-2.01 0.02,-3.23l-4.14 -11.98c-0.41,-1.19 -1.08,-2.03 -2,-2.5 -0.92,-0.47 -1.96,-0.51 -3.14,-0.1 -1.16,0.4 -1.95,1.07 -2.39,2.02 -0.42,0.93 -0.44,2.01 -0.02,3.2l4.14 11.98c0.42,1.22 1.09,2.06 2.01,2.53 0.92,0.45 1.96,0.49 3.12,0.09zm56.69 -13.59c-2.85,0.98 -5.34,0.93 -7.49,-0.15 -2.15,-1.08 -3.74,-3.1 -4.76,-6.07l-7.23 -20.9 5.38 -1.86 7.27 21.04c0.42,1.22 1.06,2.06 1.93,2.52 0.86,0.45 1.88,0.47 3.05,0.07 1.16,-0.4 1.95,-1.05 2.36,-1.94 0.41,-0.9 0.41,-1.95 -0.01,-3.18l-7.28 -21.04 5.4 -1.86 7.23 20.9c1.02,2.96 1.02,5.54 -0.01,7.72 -1.03,2.19 -2.98,3.77 -5.83,4.76zm54.14 -18.73c-1.68,0.58 -3.25,0.84 -4.7,0.78 -1.44,-0.05 -2.76,-0.43 -3.94,-1.14 -1.16,-0.69 -2.18,-1.72 -3.05,-3.06l0 0 4.24 -3.93 0 0c0.82,1.07 1.73,1.77 2.74,2.12 1.01,0.34 2.09,0.31 3.22,-0.08 1.18,-0.41 2.01,-0.98 2.49,-1.74 0.48,-0.74 0.55,-1.58 0.23,-2.52l-0.46 -1.34c-0.25,-0.73 -0.68,-1.25 -1.26,-1.54 -0.59,-0.28 -1.29,-0.44 -2.1,-0.47 -0.82,-0.02 -1.69,-0.01 -2.61,0.03 -1.01,0.04 -2.05,0.04 -3.11,0.01 -1.06,-0.03 -2.09,-0.2 -3.08,-0.5 -0.98,-0.3 -1.88,-0.85 -2.7,-1.65 -0.81,-0.8 -1.48,-1.97 -2.01,-3.49l-0.27 -0.78c-0.91,-2.62 -0.8,-4.92 0.3,-6.91 1.11,-1.99 3.13,-3.49 6.07,-4.51 2.23,-0.77 4.26,-0.87 6.06,-0.3 1.8,0.58 3.34,1.84 4.61,3.77l0 0 -3.98 3.89 0 0c-0.78,-1.02 -1.61,-1.7 -2.5,-2.05 -0.89,-0.34 -1.78,-0.35 -2.69,-0.04 -1.15,0.39 -1.96,0.94 -2.41,1.63 -0.44,0.7 -0.52,1.47 -0.22,2.34l0.34 0.99c0.29,0.84 0.76,1.41 1.41,1.72 0.64,0.32 1.42,0.48 2.3,0.48 0.88,0.01 1.83,0 2.85,-0 0.98,-0.03 1.99,-0.02 3,0.01 1.01,0.03 1.98,0.22 2.92,0.54 0.93,0.32 1.78,0.88 2.54,1.66 0.76,0.77 1.39,1.88 1.89,3.32l0.44 1.28c0.9,2.61 0.77,4.91 -0.36,6.92 -1.14,2.01 -3.2,3.53 -6.18,4.56zm46.16 -16.31l-10.33 -29.95 5.37 -1.86 10.35 29.94 -5.39 1.86zm2.16 -0.74l-1.8 -5.21 14.53 -5.02 1.8 5.2 -14.53 5.03zm-4.24 -12.25l-1.8 -5.22 12.89 -4.46 1.8 5.2 -12.88 4.48zm-4.31 -12.48l-1.8 -5.2 14.53 -5.03 1.8 5.21 -14.53 5.02z"/>
   <g>
    <path class="fil1" d="M2523.61 2100.86l-11.78 -34.07 55.54 -19.21c7.61,-2.63 12.94,-6.31 16.01,-10.92 3.07,-4.62 3.63,-9.84 1.64,-15.58l-4.68 -13.55c-2.15,-6.21 -5.94,-10.34 -11.42,-12.32 -5.42,-1.99 -11.97,-1.67 -19.69,1l-55.21 19.09 -11.7 -33.83 54.7 -18.92c6.95,-2.4 11.85,-5.87 14.55,-10.47 2.72,-4.55 3.08,-9.8 1.03,-15.74l-3.7 -10.7c-1.79,-5.18 -5.12,-8.53 -9.96,-10.1 -4.82,-1.52 -10.77,-1.08 -17.72,1.32l-54.71 18.92 -11.75 -33.97 57.49 -19.88c19.56,-6.77 36.13,-7.84 49.76,-3.34 13.59,4.55 23.04,14.42 28.27,29.56l3.68 10.65c3.57,10.33 2.95,20.06 -1.81,29.14 -4.75,9.12 -13.17,16.8 -25.38,23.06 14.32,-3.22 26.5,-2.57 36.6,1.99 10.09,4.51 17.1,12.55 21.07,24.05l4.74 13.69c5.26,15.23 4,28.86 -3.78,40.91 -7.83,12.07 -21.52,21.46 -41.03,28.21l-60.77 21.02zm-21.34 7.38l-68.85 -199.06 42.53 -14.71 68.85 199.06 -42.53 14.71z"/>
    <g style="clip-path:url(#id1)">
     <g>
      <polygon id="_1_0" class="fil3" points="3138.72,1413.87 2939.02,1536.28 2939.02,2337.36 3300.79,2536.22 3542.89,2681.33 3598.71,2267.1 3425.38,1318.18 "/>
     </g>
    </g>
    <path class="fil5" d="M2523.61 2100.86l-11.78 -34.07 55.54 -19.21c7.61,-2.63 12.94,-6.31 16.01,-10.92 3.07,-4.62 3.63,-9.84 1.64,-15.58l-4.68 -13.55c-2.15,-6.21 -5.94,-10.34 -11.42,-12.32 -5.42,-1.99 -11.97,-1.67 -19.69,1l-55.21 19.09 -11.7 -33.83 54.7 -18.92c6.95,-2.4 11.85,-5.87 14.55,-10.47 2.72,-4.55 3.08,-9.8 1.03,-15.74l-3.7 -10.7c-1.79,-5.18 -5.12,-8.53 -9.96,-10.1 -4.82,-1.52 -10.77,-1.08 -17.72,1.32l-54.71 18.92 -11.75 -33.97 57.49 -19.88c19.56,-6.77 36.13,-7.84 49.76,-3.34 13.59,4.55 23.04,14.42 28.27,29.56l3.68 10.65c3.57,10.33 2.95,20.06 -1.81,29.14 -4.75,9.12 -13.17,16.8 -25.38,23.06 14.32,-3.22 26.5,-2.57 36.6,1.99 10.09,4.51 17.1,12.55 21.07,24.05l4.74 13.69c5.26,15.23 4,28.86 -3.78,40.91 -7.83,12.07 -21.52,21.46 -41.03,28.21l-60.77 21.02zm-21.34 7.38l-68.85 -199.06 42.53 -14.71 68.85 199.06 -42.53 14.71z"/>
    <path class="fil1" d="M2744.2 2026.86c-22.52,7.79 -41.9,8.42 -58.18,1.86 -16.31,-6.49 -27.88,-19.6 -34.7,-39.32l-48.06 -138.97 42.53 -14.71 48.39 139.91c2.81,8.13 7.49,13.57 14.05,16.33 6.54,2.71 14.43,2.49 23.66,-0.7 9.23,-3.19 15.62,-7.91 19.15,-14.1 3.56,-6.25 3.94,-13.44 1.12,-21.57l-48.39 -139.91 42.69 -14.77 48.07 138.97c6.82,19.72 5.77,37.19 -3.15,52.42 -8.85,15.25 -24.6,26.77 -47.17,34.57z"/>
    <g style="clip-path:url(#id2)">
     <g>
      <polygon id="_1_1" class="fil3" points="3138.72,1413.87 2939.02,1536.28 2939.02,2337.36 3300.79,2536.22 3542.89,2681.33 3598.71,2267.1 3425.38,1318.18 "/>
     </g>
    </g>
    <path class="fil5" d="M2744.2 2026.86c-22.52,7.79 -41.9,8.42 -58.18,1.86 -16.31,-6.49 -27.88,-19.6 -34.7,-39.32l-48.06 -138.97 42.53 -14.71 48.39 139.91c2.81,8.13 7.49,13.57 14.05,16.33 6.54,2.71 14.43,2.49 23.66,-0.7 9.23,-3.19 15.62,-7.91 19.15,-14.1 3.56,-6.25 3.94,-13.44 1.12,-21.57l-48.39 -139.91 42.69 -14.77 48.07 138.97c6.82,19.72 5.77,37.19 -3.15,52.42 -8.85,15.25 -24.6,26.77 -47.17,34.57z"/>
    <path class="fil1" d="M2874.46 1979.5l-12.04 -34.29 43.64 -15.09c9.95,-3.44 16.96,-8.37 21,-14.69 3.97,-6.34 4.56,-13.45 1.75,-21.22l-27.8 -80.38c-2.64,-7.98 -7.48,-13.16 -14.48,-15.6 -7.06,-2.42 -15.59,-1.88 -25.54,1.56l-43.47 15.04 -12.06 -34.34 45.08 -15.59c23.46,-8.11 43.35,-9.29 59.68,-3.63 16.29,5.71 27.61,17.75 33.95,36.07l28.75 83.13c4.07,11.77 4.83,22.97 2.24,33.65 -2.55,10.61 -8.51,20.21 -17.81,28.76 -9.37,8.52 -22.06,15.58 -38.13,21.14l-44.75 15.48zm-24.79 8.57l-11.91 -34.43 42.53 -14.71 11.91 34.43 -42.53 14.71zm-28.46 -82.29l-40.39 -116.78 42.53 -14.71 40.39 116.78 -42.53 14.71z"/>
    <g style="clip-path:url(#id3)">
     <g>
      <polygon id="_1_2" class="fil3" points="3138.72,1413.87 2939.02,1536.28 2939.02,2337.36 3300.79,2536.22 3542.89,2681.33 3598.71,2267.1 3425.38,1318.18 "/>
     </g>
    </g>
    <path class="fil5" d="M2874.46 1979.5l-12.04 -34.29 43.64 -15.09c9.95,-3.44 16.96,-8.37 21,-14.69 3.97,-6.34 4.56,-13.45 1.75,-21.22l-27.8 -80.38c-2.64,-7.98 -7.48,-13.16 -14.48,-15.6 -7.06,-2.42 -15.59,-1.88 -25.54,1.56l-43.47 15.04 -12.06 -34.34 45.08 -15.59c23.46,-8.11 43.35,-9.29 59.68,-3.63 16.29,5.71 27.61,17.75 33.95,36.07l28.75 83.13c4.07,11.77 4.83,22.97 2.24,33.65 -2.55,10.61 -8.51,20.21 -17.81,28.76 -9.37,8.52 -22.06,15.58 -38.13,21.14l-44.75 15.48zm-24.79 8.57l-11.91 -34.43 42.53 -14.71 11.91 34.43 -42.53 14.71zm-28.46 -82.29l-40.39 -116.78 42.53 -14.71 40.39 116.78 -42.53 14.71z"/>
    <path class="fil1" d="M3090.6 1907.04c-13.34,4.61 -25.65,6.99 -36.92,7.17 -11.21,0.16 -21.26,-1.91 -30.16,-6.21 -8.82,-4.27 -16.32,-10.83 -22.53,-19.62l0 0 34.51 -28.36 0 0c5.95,6.94 12.77,11.38 20.48,13.32 7.7,1.94 16.09,1.34 25.09,-1.77 9.34,-3.23 16.02,-7.48 20.04,-12.79 3.97,-5.24 4.92,-10.96 2.77,-17.17l-3.08 -8.92c-1.7,-4.91 -4.78,-8.24 -9.19,-10.01 -4.45,-1.7 -9.83,-2.51 -16.13,-2.37 -6.35,0.15 -13.12,0.56 -20.3,1.21 -7.91,0.69 -15.98,1.13 -24.25,1.32 -8.21,0.17 -16.18,-0.52 -23.73,-2.2 -7.55,-1.67 -14.33,-5.08 -20.4,-10.21 -5.99,-5.09 -10.76,-12.75 -14.27,-22.89l-1.79 -5.19c-6.03,-17.43 -4.34,-33.08 5.01,-47.04 9.43,-13.93 25.74,-24.91 48.98,-32.95 17.68,-6.11 33.47,-7.6 47.29,-4.37 13.79,3.18 25.26,11.14 34.37,23.79l0 0 -32.46 27.97 0 0c-5.65,-6.62 -11.88,-10.96 -18.67,-12.95 -6.79,-1.99 -13.73,-1.74 -20.91,0.74 -9.11,3.15 -15.57,7.16 -19.36,12.03 -3.77,4.92 -4.69,10.2 -2.7,15.95l2.28 6.59c1.92,5.56 5.38,9.28 10.27,11.15 4.89,1.92 10.82,2.69 17.7,2.4 6.87,-0.28 14.26,-0.69 22.13,-1.16 7.69,-0.62 15.47,-0.96 23.34,-1.06 7.85,-0.15 15.31,0.72 22.47,2.53 7.11,1.83 13.52,5.26 19.12,10.28 5.63,4.95 10.09,12.26 13.4,21.84l2.94 8.5c5.99,17.33 4.14,33.04 -5.49,47.1 -9.69,14.08 -26.26,25.2 -49.84,33.35z"/>
    <g style="clip-path:url(#id4)">
     <g>
      <polygon id="_1_3" class="fil3" points="3138.72,1413.87 2939.02,1536.28 2939.02,2337.36 3300.79,2536.22 3542.89,2681.33 3598.71,2267.1 3425.38,1318.18 "/>
     </g>
    </g>
    <path class="fil5" d="M3090.6 1907.04c-13.34,4.61 -25.65,6.99 -36.92,7.17 -11.21,0.16 -21.26,-1.91 -30.16,-6.21 -8.82,-4.27 -16.32,-10.83 -22.53,-19.62l0 0 34.51 -28.36 0 0c5.95,6.94 12.77,11.38 20.48,13.32 7.7,1.94 16.09,1.34 25.09,-1.77 9.34,-3.23 16.02,-7.48 20.04,-12.79 3.97,-5.24 4.92,-10.96 2.77,-17.17l-3.08 -8.92c-1.7,-4.91 -4.78,-8.24 -9.19,-10.01 -4.45,-1.7 -9.83,-2.51 -16.13,-2.37 -6.35,0.15 -13.12,0.56 -20.3,1.21 -7.91,0.69 -15.98,1.13 -24.25,1.32 -8.21,0.17 -16.18,-0.52 -23.73,-2.2 -7.55,-1.67 -14.33,-5.08 -20.4,-10.21 -5.99,-5.09 -10.76,-12.75 -14.27,-22.89l-1.79 -5.19c-6.03,-17.43 -4.34,-33.08 5.01,-47.04 9.43,-13.93 25.74,-24.91 48.98,-32.95 17.68,-6.11 33.47,-7.6 47.29,-4.37 13.79,3.18 25.26,11.14 34.37,23.79l0 0 -32.46 27.97 0 0c-5.65,-6.62 -11.88,-10.96 -18.67,-12.95 -6.79,-1.99 -13.73,-1.74 -20.91,0.74 -9.11,3.15 -15.57,7.16 -19.36,12.03 -3.77,4.92 -4.69,10.2 -2.7,15.95l2.28 6.59c1.92,5.56 5.38,9.28 10.27,11.15 4.89,1.92 10.82,2.69 17.7,2.4 6.87,-0.28 14.26,-0.69 22.13,-1.16 7.69,-0.62 15.47,-0.96 23.34,-1.06 7.85,-0.15 15.31,0.72 22.47,2.53 7.11,1.83 13.52,5.26 19.12,10.28 5.63,4.95 10.09,12.26 13.4,21.84l2.94 8.5c5.99,17.33 4.14,33.04 -5.49,47.1 -9.69,14.08 -26.26,25.2 -49.84,33.35z"/>
   </g>
   <g>
    <path class="fil6" d="M2576.39 2113.75c4.08,-1.41 8.52,0.75 9.93,4.82 1.41,4.07 -0.75,8.52 -4.82,9.93 -4.08,1.41 -8.52,-0.75 -9.93,-4.83 -1.41,-4.07 0.75,-8.52 4.82,-9.93z"/>
    <path class="fil6" d="M3109.28 1929.44c4.08,-1.41 8.52,0.75 9.93,4.83 1.41,4.07 -0.75,8.52 -4.82,9.93 -4.08,1.41 -8.52,-0.75 -9.93,-4.83 -1.41,-4.07 0.75,-8.52 4.82,-9.93z"/>
   </g>
   <path class="fil2" d="M4955.43 1512.8c-0.03,0.06 -0.07,0.13 -0.1,0.2l-0.63 1.3 -19.85 34.19 -1.19 1.65c-20.78,28.75 -36.81,45.3 -62.06,66.66 11.12,7.8 19.61,18.34 25.63,31.01 8.68,18.22 10.55,37.56 3.7,56.63 6.44,4.97 13.09,9.79 18.57,14.25 18.54,15.06 36.11,32.12 46.23,54.1l10.03 18.09 -2.04 12.94c-1.27,20.73 -0.38,34.63 -13.7,53.36 -23.35,32.82 -65.37,33.31 -101.16,26.69 -3.8,-0.7 -12.58,-2.47 -18.65,-2.92 -1.96,5.53 -3.52,13.97 -4.13,17.63 -5.08,30.58 -6.44,65.67 -3.96,96.52 1.29,15.97 6.64,56.22 12.7,71.06l4.3 6.04 1.4 9.23c2.53,10.89 18.19,39.96 24.56,50.06 11.61,18.43 24.52,33.62 39.04,49.79 27.5,30.61 74.03,52.62 82.63,96.63 3.53,18.07 0.33,35.64 -9.16,51.36 -4.42,7.31 -9.13,11.84 -13.93,18.27l-7.15 9.72 -43.77 16.43c-14.35,6.27 -28.18,20.41 -17.73,36.11 8.59,12.93 18.69,24.04 28.7,35.82 14.53,17.1 26.56,33.98 37.32,53.75 5.3,9.75 9.41,20.45 14.82,30.03l7.13 12.04 -1.23 9.18 11.38 63.42 -1.46 7.48c-2.13,10.89 -1.92,23.43 -3.59,34.8 -2.88,19.7 -8.94,37.89 -17.3,55.61 18.04,16.72 28.56,40.21 26.12,67.69 -3.71,41.93 -37.11,73.75 -78.91,76.96 -22.91,1.76 -66.9,-8.14 -90.19,-12.71 -28.5,-5.59 -56.96,-11.94 -85.47,-17.31 -110.53,-20.79 -221.05,-41.58 -331.58,-62.37 -85.73,-16.12 -171.62,-31.48 -257.38,-47.51 -53.92,-10.08 -107.86,-20.23 -161.67,-30.87 -18.45,-3.65 -36.92,-7.33 -55.3,-11.33 -10.16,-2.21 -25.3,-5.04 -34.39,-9.82 -36.71,-19.3 -55.01,-60.96 -42.47,-100.74 8.07,-25.57 26.1,-43.05 48.43,-51.88 -1.39,-19.96 -0.31,-39.43 4.38,-59.26 2.56,-10.81 7.48,-22.82 9.15,-33.39l1.21 -7.65 3.93 -6.67c9.88,-16.73 20.48,-33.51 31.15,-49.86l3.21 -8.73 9.6 -7.04c7.9,-6.47 14.97,-15.17 23.42,-21.92 23.01,-18.36 41.27,-29.74 67.18,-43.58 8.37,-4.47 18.67,-9.36 26.22,-15.02 16.48,-12.33 9.4,-29.7 -3.59,-42.01 -4.33,-4.11 -9.46,-7.69 -13.97,-11.86 -4.41,-4.08 -7.7,-8.63 -11.74,-12.5l-12.38 -10.47 -1.59 -14.98c-3.38,-14.73 -6.41,-23.8 -3.57,-40 5.02,-28.61 26.27,-47.19 51.67,-58.57 19.69,-8.82 41.97,-14.13 62.26,-22.78 76.49,-32.62 128.96,-90.23 161.17,-166.43 7.01,-16.59 24.53,-66.04 25.38,-88.41l-2.08 -0.35 -3.68 -4.14c-6.88,-1.71 -15.47,-2.93 -21.57,-4.22 -15.95,-3.37 -33.15,-7.82 -46.45,-17.63 -17.56,-12.97 -28.91,-31.01 -31.23,-53 -2.74,-25.91 5.01,-35.87 15.66,-56.2l6.03 -11.51 10.52 -5.33c16.66,-15.35 35.3,-21.6 56.75,-28.86 6.73,-2.28 15.15,-4.81 23.42,-7.56 1.76,-32.99 21.63,-61.4 58.33,-71.14 -0.13,-0.22 -0.27,-0.44 -0.39,-0.66 -6.54,-11.05 -12.31,-22.14 -17.24,-34.01 -10.16,-24.48 -16.04,-43.97 -18.68,-70.19l-0.9 -8.96 0.49 -1.42c-1.28,-26.5 -0.5,-54.66 1.21,-80.68 2.17,-32.93 14.53,-67.31 28.9,-96.77l1.36 -2.78 1.76 -2.54c9.86,-14.23 19.88,-32.44 30.71,-45.36 12.89,-15.38 27.52,-31.19 43.33,-43.51 34.1,-26.56 66.36,-45.56 108.48,-57.33 97.23,-27.17 191.98,-8.86 272.51,51.91 48.69,36.74 87.71,93.99 104.92,152.37 4.69,15.92 7.33,28.62 9.28,43.65l1.97 39.76 -1.84 53.53 -0.79 3.6c-2.5,11.47 -4.79,22.86 -8.11,34.15 -2,6.8 -7.05,17.27 -8.2,23.54l-1.46 16.19 -8.62 7.37z"/>
   <path class="fil7" d="M4944.46 1355.54l-2.32 67.31c-2.32,10.58 -4.3,20.8 -7.41,31.37 -3.02,10.26 -8.75,21.1 -9.65,31.06 -0.36,0.31 -0.74,0.4 -0.97,1.06l-1.82 2.26c-0.23,0.34 -0.56,0.84 -0.8,1.23 -0.07,0.11 -2.47,4.93 -2.68,5.37l-18.07 31.12c-22.88,31.66 -33.97,41.8 -62.2,65.14 -7.08,5.85 -11.54,5.65 -14.08,18.3 -1.79,8.93 -4.49,20.74 -3.85,28.94l2.5 1.66c10.51,4.8 27.2,3.37 37.45,24.9 9.96,20.92 -1.1,32.49 -10.64,46.45 1.45,2.44 1.08,2.24 3.97,5.35 19.43,20.83 62.06,42.91 75.48,73.91l4.09 7.37c-2.3,14.57 10.15,59.86 -67.19,45.55 -39.87,-7.38 -60.83,-8.78 -70.27,48.02 -5.64,33.94 -6.98,74.18 -4.37,106.45 1.67,20.64 10.09,77.32 18.8,89.54 2.37,15.53 23.55,54.56 30.28,65.25 13.28,21.09 25.77,35.89 43.2,55.29 25.55,28.44 68.03,51.99 72.97,77.26 3.71,18.99 -9.46,28.95 -15.94,37.76l-33.33 12.51c-43.38,18.27 -59.38,61.84 -36.43,96.35 21.25,31.96 41.54,44.89 64.15,86.48 2.64,4.85 12.4,26 15.5,31.24l-0.2 1.52 11.15 62.17c-4.52,23.09 1.56,44.77 -22.47,90.28 -4.13,7.83 -10.53,16.7 -13.36,23.69 60.6,14.86 47.66,84.65 -1.07,88.39 -20.48,1.57 -135.87,-23.96 -165.03,-29.44 -110.53,-20.79 -221.05,-41.58 -331.58,-62.37 -38.4,-7.22 -482.27,-87.65 -497.34,-95.58 -42.98,-22.6 -28.12,-90.14 32.34,-82.08 0.05,-7.25 -2.77,-18.37 -3.77,-26.91 -6.04,-51.92 8.4,-70.22 12.16,-93.96 11.66,-19.74 32.7,-52.14 32.7,-52.14l0.58 -1.59c5.41,-3.97 19.12,-18.45 24.46,-22.71 23.57,-18.8 33.49,-24.82 60.97,-39.49 10.76,-5.75 22.63,-11.75 31.43,-18.33 36.43,-27.26 32.58,-73.19 0.02,-104.05 -4.66,-4.42 -9.19,-7.44 -14.33,-12.19 -5.59,-5.18 -8.2,-9.56 -13.03,-13.64 -1.24,-11.68 -17.89,-37 24.43,-55.96 11.02,-4.93 39,-12.86 61.58,-22.49 84.48,-36.02 145.53,-100.15 182.67,-187.99 10.83,-25.63 33.02,-88.59 27.61,-117.63 -1.98,-10.63 -9.1,-22.7 -20.91,-24.67 -6.8,-7.64 -52.75,-9.42 -68.41,-20.98 -7.92,-5.84 -13.79,-13.56 -14.96,-24.57 -1.58,-14.94 5.65,-22.38 11.25,-33.07 14.22,-7.22 1.55,-9.55 50.34,-26.08 11.98,-4.06 47.03,-15.32 54.68,-20.52 -9.75,-27.32 -1.29,-51.07 25.47,-57.65 9.82,-2.41 13.99,-0.02 21.18,0.56 9.98,0.81 8.85,1.25 14.2,-28.64 2.8,-15.67 -12.72,-26.95 -26.93,-61.2 -12.26,-29.54 -14.13,-42.28 -15.77,-58.67l0.2 -0.56c0,0 -2.37,-36.75 0.72,-83.76 1.98,-30.03 15.42,-62.25 24.87,-81.62 7.69,-11.1 24.52,-37.71 28.46,-42.41 11.49,-13.71 24.92,-28.03 37.15,-37.55 26.59,-20.7 54.04,-38.96 94.45,-50.25 85.02,-23.76 166.67,-7.93 237.09,45.2 42.48,32.06 75.96,82.37 90.41,131.42 12.38,42.02 6.43,47.01 11.25,52.14l-1.03 0.92z"/>
   <path class="fil2" d="M4489.12 1432.34c7.92,20.69 15.84,31.81 32.01,47.19 11.99,11.4 40.18,27.19 60.8,28.48 -14.57,-23.72 -31.31,-29.31 -46.59,-85.26 -9.69,-35.48 -8.33,-80.02 6.11,-119.34 23.62,-64.27 86.19,-119.5 152.06,-124.83l-2.67 -1.64c-13.64,-5.61 -50.34,-0.23 -63.05,2.77 -19.19,4.54 -42.73,14.19 -55.17,22.65 -30.34,20.64 -58.26,46.11 -77.19,91.29 -18.85,44.98 -21.27,99.6 -6.31,138.66z"/>
   <path class="fil2" d="M4436.63 1688.23c-7.74,-3.31 -13.71,-6.02 -20.68,-11.18 -6.03,-4.46 -7.02,-5.25 -9.09,-12.29 -0.15,-0.53 -0.51,-2.14 -0.67,-2.66 -1.47,-4.86 1.3,0.21 -1.45,-4.06 -17.07,11.5 -57.35,17.53 -61.7,39.2 18.43,13.32 90.28,23.3 119.96,29.02 117.89,22.72 229.09,47.57 347.25,66.51 -17.21,-19.36 -177.37,-50.42 -214.41,-59.05 -45.16,-10.52 -117.03,-27.45 -159.19,-45.48z"/>
   <g style="clip-path:url(#id5)">
    <g>
     <polygon id="_1_4" class="fil8" points="4250.92,1409.72 4407.14,1513.58 4393.71,2376.09 3850.61,2705.01 3604.09,2070.54 4099.64,1273.84 "/>
    </g>
   </g>
   <path class="fil4" d="M4436.63 1688.23c-7.74,-3.31 -13.71,-6.02 -20.68,-11.18 -6.03,-4.46 -7.02,-5.25 -9.09,-12.29 -0.15,-0.53 -0.51,-2.14 -0.67,-2.66 -1.47,-4.86 1.3,0.21 -1.45,-4.06 -17.07,11.5 -57.35,17.53 -61.7,39.2 18.43,13.32 90.28,23.3 119.96,29.02 117.89,22.72 229.09,47.57 347.25,66.51 -17.21,-19.36 -177.37,-50.42 -214.41,-59.05 -45.16,-10.52 -117.03,-27.45 -159.19,-45.48z"/>
   <path class="fil2" d="M4435.6 1769.37c-21.54,97.18 -40.69,158.46 -91.25,234.16 -29.84,44.67 -71.2,84.01 -114.24,108.66 -9.6,5.49 -38.54,20.16 -42.21,33.12 -5.36,18.91 32.73,25.19 49.57,29.12 57.78,13.47 156.53,29.94 217.38,41.38 48.06,9.04 96.11,18.08 144.17,27.12 47.49,8.93 98.76,20.56 146.14,27.25 -28.36,-35.92 -221.02,-83.69 -282.59,-95.43 -29.57,-5.63 -76.79,-14.09 -98.56,-30.33 -28.43,-21.21 -6.16,-54.21 7.36,-82.87 25.87,-54.84 84.62,-220.83 69.6,-282.11l-5.37 -10.07z"/>
   <g style="clip-path:url(#id6)">
    <g>
     <polygon id="_1_5" class="fil8" points="4250.92,1409.72 4407.14,1513.58 4393.71,2376.09 3850.61,2705.01 3604.09,2070.54 4099.64,1273.84 "/>
    </g>
   </g>
   <path class="fil4" d="M4435.6 1769.37c-21.54,97.18 -40.69,158.46 -91.25,234.16 -29.84,44.67 -71.2,84.01 -114.24,108.66 -9.6,5.49 -38.54,20.16 -42.21,33.12 -5.36,18.91 32.73,25.19 49.57,29.12 57.78,13.47 156.53,29.94 217.38,41.38 48.06,9.04 96.11,18.08 144.17,27.12 47.49,8.93 98.76,20.56 146.14,27.25 -28.36,-35.92 -221.02,-83.69 -282.59,-95.43 -29.57,-5.63 -76.79,-14.09 -98.56,-30.33 -28.43,-21.21 -6.16,-54.21 7.36,-82.87 25.87,-54.84 84.62,-220.83 69.6,-282.11l-5.37 -10.07z"/>
   <path class="fil2" d="M4158.83 2319.42c-35.25,25.38 -105.38,64.04 -131.37,119.18 -18.12,38.45 -11.21,74.41 9.95,95.46 23.15,23.01 63.94,29.52 100.7,36.44 81.08,15.25 162.36,30.09 243.36,45.75 78.41,15.17 162.11,34.27 241.02,46.81 -21.75,-17.05 -137.75,-51.52 -172.78,-60.93 -62.76,-16.85 -126.07,-32.16 -189.2,-47.1 -63.59,-15.04 -129.66,-24.11 -149.32,-76.08 -22.16,-58.59 41.56,-140.92 47.64,-159.54z"/>
   <g style="clip-path:url(#id7)">
    <g>
     <polygon id="_1_6" class="fil8" points="4250.92,1409.72 4407.14,1513.58 4393.71,2376.09 3850.61,2705.01 3604.09,2070.54 4099.64,1273.84 "/>
    </g>
   </g>
   <path class="fil4" d="M4158.83 2319.42c-35.25,25.38 -105.38,64.04 -131.37,119.18 -18.12,38.45 -11.21,74.41 9.95,95.46 23.15,23.01 63.94,29.52 100.7,36.44 81.08,15.25 162.36,30.09 243.36,45.75 78.41,15.17 162.11,34.27 241.02,46.81 -21.75,-17.05 -137.75,-51.52 -172.78,-60.93 -62.76,-16.85 -126.07,-32.16 -189.2,-47.1 -63.59,-15.04 -129.66,-24.11 -149.32,-76.08 -22.16,-58.59 41.56,-140.92 47.64,-159.54z"/>
   <polygon class="fil1" points="2975.37,1539.73 2975.37,2314.87 3652.71,2720.78 4334.93,2327.09 4342.27,1542.17 3657.59,1133.82 "/>
   <g style="clip-path:url(#id8)">
    <g>
     <rect class="fil9" x="628.2" y="-73.47" width="287.88" height="287.88"/>
     <path class="fil10" d="M1174.56 -73.47c95.96,0 191.92,0 287.88,0 0,95.96 0,191.92 0,287.88 -95.96,0 -191.92,0 -287.88,0 0,-95.96 0,-191.92 0,-287.88z"/>
     <path class="fil11" d="M1720.93 -73.47c95.96,0 191.92,0 287.88,0 0,95.96 0,191.92 0,287.88 -95.96,0 -191.92,0 -287.88,0 0,-95.96 0,-191.92 0,-287.88z"/>
     <path class="fil12" d="M2267.3 -73.47c95.96,0 191.92,0 287.88,0 0,95.96 0,191.92 0,287.88 -95.96,0 -191.92,0 -287.88,0 0,-95.96 0,-191.92 0,-287.88z"/>
     <rect class="fil13" x="2813.67" y="-73.47" width="287.88" height="287.88"/>
    </g>
   </g>
   <polygon class="fil5" points="2975.37,1539.73 2975.37,2314.87 3652.71,2720.78 4334.93,2327.09 4342.27,1542.17 3657.59,1133.82 "/>
   <g>
    <path class="fil1" d="M2255.85 3890.86l0 -167.59 273.23 0c37.47,0 66.46,-8.04 86.97,-23.68 20.51,-15.63 30.9,-37.7 30.9,-65.98l0 -66.67c0,-30.57 -10.39,-54.48 -31.45,-71.49 -20.79,-17.01 -50.05,-25.52 -88.07,-25.52l-271.59 0 0 -166.43 269.13 0c34.18,0 60.99,-7.81 79.86,-23.91 18.87,-15.86 28.44,-38.39 28.44,-67.59l0 -52.64c0,-25.52 -9.57,-45.29 -28.44,-59.54 -18.87,-14.02 -45.67,-21.15 -79.86,-21.15l-269.13 0 0 -167.12 282.8 0c96.27,0 170.66,20.46 223.72,60.92 52.79,40.69 79.32,98.39 79.32,172.87l0 52.42c0,50.8 -17.5,92.64 -52.24,125.29 -34.73,32.87 -83.42,53.79 -146.59,62.76 67.83,7.58 120.34,28.97 157.81,64.37 37.47,35.17 56.07,81.15 56.07,137.7l0 67.36c0,74.94 -26.26,132.88 -78.77,174.02 -52.78,41.15 -127.18,61.61 -223.17,61.61l-298.93 0zm-105.02 0l0 -979.32 209.23 0 0 979.32 -209.23 0z"/>
    <path class="fil1" d="M3337.54 3900.98c-110.77,0 -196.92,-26.67 -258.46,-80.23 -61.81,-53.33 -92.72,-128.51 -92.72,-225.52l0 -683.68 209.23 0 0 688.28c0,40 12.3,71.04 36.92,93.11 24.62,21.84 59.62,32.87 105.03,32.87 45.4,0 80.68,-11.03 105.57,-32.87 25.16,-22.07 37.74,-53.1 37.74,-93.11l0 -688.28 210.05 0 0 683.68c0,97.01 -31.18,172.18 -93.54,225.52 -62.09,53.56 -148.78,80.23 -259.83,80.23z"/>
    <path class="fil1" d="M3981.9 3890.86l-0.81 -168.97 214.69 0c48.95,0 87.25,-11.03 114.6,-32.64 27.08,-21.84 40.48,-52.18 39.93,-90.57l0 -395.41c0.54,-39.08 -12.85,-69.2 -39.93,-90.58 -27.35,-21.37 -65.64,-31.95 -114.6,-31.95l-213.88 0 -0.81 -169.19 221.81 0c115.41,0 204.57,25.06 267.76,74.71 62.9,49.89 94.35,120 94.35,210.12l0 408.97c0,57.93 -13.67,108.28 -41.29,151.26 -27.35,42.76 -68.1,75.86 -121.98,99.31 -54.15,23.22 -120.62,34.94 -199.66,34.94l-220.17 0zm-121.98 0l0 -169.38 209.23 0 0 169.38 -209.23 0zm0 -404.82l0 -574.49 209.23 0 0 574.49 -209.23 0z"/>
    <path class="fil1" d="M5041.71 3900.98c-65.64,0 -123.35,-8.27 -173.12,-24.6 -49.5,-16.32 -90.53,-40.69 -123.07,-73.1 -32.28,-32.18 -55.25,-72.42 -69.2,-120.46l0 0 194.73 -72.18 0 0c15.58,39.54 38.83,69.42 69.74,89.65 30.9,20.23 68.65,30.34 112.95,30.34 45.95,0 81.78,-8.5 107.49,-25.74 25.43,-17.01 38.29,-40.69 38.29,-71.27l0 -43.91c0,-24.13 -8.47,-43.45 -25.16,-57.93 -16.96,-14.25 -39.38,-25.98 -67.28,-34.94 -28.17,-8.97 -58.53,-17.47 -91.08,-25.52 -35.83,-8.96 -71.93,-19.31 -108.58,-31.03 -36.37,-11.72 -70.29,-26.89 -100.92,-45.75 -30.63,-18.85 -55.25,-44.14 -74.12,-75.86 -18.6,-31.49 -27.9,-72.41 -27.9,-122.3l0 -25.52c0,-85.75 31.18,-151.95 93.54,-199.08 62.63,-46.89 150.97,-70.34 265.3,-70.34 86.97,0 158.62,17.47 214.42,52.64 55.79,34.94 94.08,87.36 114.87,156.78l0 0 -185.16 73.57 0 0c-14.77,-37.7 -35.55,-66.21 -62.36,-85.29 -26.8,-19.08 -57.71,-28.5 -92.99,-28.5 -44.85,0 -79.32,7.81 -103.38,23.45 -24.07,15.86 -36.1,37.7 -36.1,65.98l0 32.41c0,27.35 9.57,48.96 28.17,64.6 18.59,15.86 43.48,28.27 74.12,37.47 30.63,9.19 63.72,18.62 99.01,28.5 34.73,8.96 69.47,19.31 104.2,30.8 34.73,11.26 66.19,26.44 94.91,45.29 28.44,18.85 51.42,43.68 68.37,74.25 17.23,30.34 25.71,69.2 25.71,116.32l0 41.84c0,85.29 -32,151.49 -95.73,198.62 -64,47.13 -153.7,70.81 -269.67,70.81z"/>
   </g>
   <polygon class="fil7" points="3297.95,2198.64 4034.8,2201.37 3656.78,2632.8 "/>
   <polygon class="fil7" points="3058.92,2295.35 3247.03,2203.11 3564.27,2587.82 "/>
   <g style="clip-path:url(#id9)">
    <g>
     <g>
      <path id="_1_7" class="fil14" d="M3250.84 2426.51l108.27 -47.49 16.32 21.08 -85.78 37.62 17.08 12.13 -20.79 9.12 -19.89 -12.82 -15.21 -19.65zm65.37 -104.86c7.84,10.13 11.3,18.96 10.37,26.46 -0.93,7.54 -5.85,13.25 -14.72,17.14l-53.75 23.57c-8.95,3.92 -17.98,4.3 -27.18,1.13 -9.15,-3.16 -17.63,-9.75 -25.38,-19.77 -7.79,-10.07 -11.26,-18.9 -10.44,-26.47 0.84,-7.54 5.75,-13.28 14.75,-17.22l53.76 -23.58c8.92,-3.91 17.98,-4.3 27.11,-1.17 9.13,3.13 17.64,9.78 25.48,19.9zm-18.91 8.29c-2.67,-3.45 -5.73,-5.51 -9.17,-6.22 -3.44,-0.7 -7.01,-0.21 -10.79,1.45l-48.55 21.29c-3.81,1.67 -6.16,3.77 -7.02,6.37 -0.85,2.59 0.04,5.6 2.71,9.05 2.58,3.33 5.59,5.38 9.01,6.1 3.44,0.74 7.05,0.27 10.86,-1.4l48.55 -21.29c3.78,-1.66 6.09,-3.78 6.99,-6.35 0.87,-2.6 0.02,-5.59 -2.6,-8.99z"/>
     </g>
    </g>
   </g>
   <polygon class="fil4" points="3058.92,2295.35 3247.03,2203.11 3564.27,2587.82 "/>
   <polygon class="fil7" points="4087.34,2206.8 4252.3,2289.13 3760.95,2577.95 "/>
   <g style="clip-path:url(#id10)">
    <g>
     <g>
      <path id="_1_8" class="fil14" d="M4109.93 2435.7l-120.5 -115.94 9.02 -16.69 95.47 91.85 -0.12 -17.75 23.13 22.26 1.41 20.71 -8.4 15.56zm-144.78 -74.24c4.18,-7.73 10.24,-11 18.16,-9.82 7.92,1.17 17.05,6.71 27.38,16.64l7.89 7.59c5.8,5.58 10.93,11.35 15.45,17.32 4.52,5.95 8.92,12.37 13.27,19.28l40.42 64.36 -9.92 18.38 -49.16 -78.02 5.53 -1.88c4.06,7.92 4.72,14.34 2.05,19.27 -3.62,6.71 -9.16,9.32 -16.62,7.85 -7.49,-1.49 -16.2,-7.01 -26.13,-16.57l-8.88 -8.54c-10.32,-9.93 -17.2,-19.8 -20.61,-29.56 -3.41,-9.76 -3.01,-18.54 1.17,-26.3zm20.79 20c-1.38,2.55 -1.5,5.4 -0.39,8.52 1.15,3.13 3.5,6.42 7.09,9.87l8.37 8.06c3.82,3.67 7.09,5.79 9.82,6.4 2.74,0.57 4.81,-0.39 6.19,-2.95 1.32,-2.44 1.33,-5.32 0.05,-8.68 -1.32,-3.36 -3.85,-6.86 -7.67,-10.54l-8.37 -8.06c-3.59,-3.45 -6.68,-5.36 -9.24,-5.73 -2.56,-0.34 -4.52,0.66 -5.84,3.1z"/>
     </g>
    </g>
   </g>
   <polygon class="fil4" points="4087.34,2206.8 4252.3,2289.13 3760.95,2577.95 "/>
   <polygon class="fil7" points="4108.98,2169.14 4275.86,2253.15 4282.83,1690.01 "/>
   <g style="clip-path:url(#id11)">
    <g>
     <g>
      <path id="_1_9" class="fil14" d="M4170.09 2032c3.3,-10.33 8.78,-17.4 16.41,-21.2 7.62,-3.8 16.77,-4.03 27.42,-0.62l8.14 2.6c5.98,1.91 11.35,4.44 16.15,7.55 4.8,3.08 9.53,6.72 14.25,10.87l43.89 38.73 -7.86 24.55 -53.36 -46.85 5.09 -5.35c4.53,5.34 5.7,11.32 3.59,17.91 -2.87,8.96 -7.9,15.04 -15.11,18.27 -7.24,3.22 -15.98,3.18 -26.23,-0.09l-9.17 -2.93c-10.65,-3.41 -18.03,-8.92 -22.1,-16.5 -4.07,-7.58 -4.44,-16.58 -1.12,-26.94zm21.45 6.87c-1.09,3.41 -0.96,6.32 0.35,8.74 1.36,2.39 3.87,4.19 7.58,5.38l8.64 2.76c3.94,1.26 7.23,1.32 9.88,0.2 2.65,-1.14 4.53,-3.41 5.63,-6.82 1.04,-3.26 0.81,-6.14 -0.69,-8.68 -1.54,-2.52 -4.25,-4.42 -8.19,-5.68l-8.64 -2.76c-3.7,-1.18 -6.81,-1.15 -9.26,0.09 -2.46,1.26 -4.24,3.5 -5.29,6.77z"/>
     </g>
     <circle class="fil6" cx="4163.85" cy="2086.98" r="10.06"/>
    </g>
   </g>
   <polygon class="fil4" points="4108.98,2169.14 4275.86,2253.15 4282.83,1690.01 "/>
   <polygon class="fil7" points="3708.39,1490.47 4077.67,2127.92 4275.92,1580.5 "/>
   <g style="clip-path:url(#id12)">
    <g>
     <g>
      <path id="_1_10" class="fil14" d="M4070.66 1669.76l-112.23 66.73 -11.97 -20.13 88.92 -52.87 -14.27 -10.45 21.55 -12.81 16.85 10.77 11.15 18.76zm-81.36 79.48l18.65 -10.98 93.5 -16.54 13.08 21.99 -92 16.91 26.62 44.65 -19.6 11.65 -40.24 -67.68zm6.67 50.56l63.99 -38.05 11.87 19.79 -64.07 38.1 -11.79 -19.84z"/>
     </g>
    </g>
   </g>
   <polygon class="fil4" points="3708.39,1490.47 4077.67,2127.92 4275.92,1580.5 "/>
   <polygon class="fil7" points="3688.1,1442.11 4198.13,1523.09 3681.32,1213.67 "/>
   <g style="clip-path:url(#id13)">
    <g>
     <g>
      <path id="_1_11" class="fil14" d="M3880.43 1420.11l-22.95 -15.95 -69.73 -65.47 18.86 0 69.35 64.65 38.24 -0.04 24.26 16.81 -58.04 0zm55.93 14.82l-79.19 -54.88 16.91 -0.06 79.28 54.94 -17.01 0z"/>
     </g>
    </g>
   </g>
   <polygon class="fil4" points="3688.1,1442.11 4198.13,1523.09 3681.32,1213.67 "/>
   <polygon class="fil7" points="3638.19,1214.76 3645.01,1442.29 3116.72,1514.07 "/>
   <g style="clip-path:url(#id14)">
    <g>
     <g>
      <path id="_1_12" class="fil14" d="M3501.56 1338.62l-97 96.24 -17.26 0 76.85 -76.24 -17.14 5.1 18.62 -18.48 19.84 -6.62 16.08 0zm-51.16 97.23c-5.42,0 -9.14,-0.97 -11.14,-2.91 -1.97,-1.94 -2.24,-4.7 -0.79,-8.26 1.45,-3.57 4.69,-7.84 9.68,-12.79l8.47 -8.4c4.17,-4.13 9.19,-7.97 15.05,-11.47 5.83,-3.5 11.7,-6.19 17.59,-8.04 -1.97,-1.53 -2.56,-3.72 -1.77,-6.57 0.79,-2.84 2.89,-5.96 6.26,-9.3l8.08 -8.02c6.97,-6.91 14.74,-12.38 23.26,-16.4 8.52,-4.02 16.63,-6.03 24.31,-6.03 7.68,0 11.73,2.01 12.15,6.03 0.42,4.02 -2.85,9.49 -9.82,16.4l-8.08 8.02c-3.42,3.39 -7.59,6.5 -12.56,9.33 -4.97,2.82 -10.05,5.01 -15.21,6.55 2.24,1.85 2.76,4.54 1.59,8.04 -1.16,3.5 -3.85,7.34 -8.02,11.47l-8.47 8.4c-4.98,4.95 -10.37,9.22 -16.14,12.79 -5.74,3.56 -11.57,6.32 -17.46,8.26 -5.89,1.94 -11.54,2.91 -16.96,2.91zm16.8 -16.67c2.82,0 5.88,-0.79 9.19,-2.39 3.29,-1.58 6.31,-3.73 9.02,-6.42l8.53 -8.47c2.62,-2.6 3.87,-4.67 3.73,-6.19 -0.16,-1.51 -1.65,-2.28 -4.52,-2.28 -2.82,0 -5.85,0.76 -9.08,2.28 -3.24,1.51 -6.19,3.61 -8.86,6.26l-8.6 8.53c-2.66,2.64 -3.94,4.74 -3.87,6.33 0.1,1.55 1.58,2.35 4.45,2.35zm42.69 -42.36c2.46,0 5.22,-0.79 8.22,-2.35 3.04,-1.58 5.88,-3.71 8.59,-6.39l6.01 -5.96c2.48,-2.46 3.76,-4.43 3.75,-5.85 0,-1.42 -1.23,-2.14 -3.69,-2.14 -2.44,0 -5.11,0.72 -8.04,2.16 -2.97,1.47 -5.69,3.43 -8.17,5.9l-6.08 6.03c-2.71,2.69 -4.08,4.79 -4.18,6.32 -0.06,1.51 1.13,2.28 3.59,2.28z"/>
     </g>
    </g>
   </g>
   <polygon class="fil4" points="3638.19,1214.76 3645.01,1442.29 3116.72,1514.07 "/>
   <polygon class="fil7" points="3038,1568.73 3628.21,1488.03 3255.27,2127.58 "/>
   <g style="clip-path:url(#id15)">
    <g>
     <g>
      <path id="_1_13" class="fil14" d="M3329.92 1772.14l-18.42 -10.63 -27.54 -56.99c-2.68,-4.98 -5.39,-9.16 -8.24,-12.51 -2.83,-3.37 -5.61,-5.85 -8.34,-7.43l-0.88 -0.5c-2.89,-1.67 -5.51,-2.16 -7.85,-1.53 -2.36,0.65 -4.39,2.45 -6.09,5.4 -1.74,3.03 -2.08,5.94 -1.08,8.75 0.98,2.83 3.33,5.5 7.1,7.99l2.09 1.21 -11.95 20.7 -2.09 -1.21c-10.06,-6.3 -16.23,-13.62 -18.56,-21.97 -2.35,-8.36 -0.82,-17.21 4.57,-26.55 5.65,-9.79 12.37,-15.86 20.1,-18.2 7.76,-2.35 16.26,-0.83 25.55,4.53l0.77 0.44c4.62,2.66 9,6.4 13.2,11.27 4.19,4.82 8.03,10.54 11.55,17.14l21.29 42.87 19.49 -33.76 19.75 11.4 -34.41 59.59z"/>
     </g>
    </g>
   </g>
   <polygon class="fil4" points="3038,1568.73 3628.21,1488.03 3255.27,2127.58 "/>
   <polygon class="fil7" points="3223.98,2163.68 3031.34,1669.07 3031.71,2258.89 "/>
   <g style="clip-path:url(#id16)">
    <g>
     <g>
      <path id="_1_14" class="fil14" d="M3027.46 2094.97l120.27 -50.82 9.11 21.57 -95.29 40.27 12.72 12.29 -23.09 9.76 -15.23 -12.96 -8.49 -20.1zm109.74 -75.76l-19.59 8.28 -62.07 -12.4c-5.59,-0.87 -10.57,-1.22 -14.95,-0.97 -4.4,0.23 -8.05,0.94 -10.96,2.17l-0.93 0.39c-3.08,1.3 -5.04,3.09 -5.96,5.34 -0.9,2.28 -0.69,4.98 0.63,8.11 1.36,3.22 3.48,5.25 6.32,6.14 2.85,0.92 6.4,0.66 10.65,-0.84l2.23 -0.94 9.31 22.02 -2.23 0.94c-11.09,4.22 -20.66,4.74 -28.72,1.56 -8.09,-3.17 -14.23,-9.73 -18.43,-19.66 -4.4,-10.42 -5.18,-19.44 -2.39,-27.01 2.8,-7.61 9.14,-13.48 19.02,-17.65l0.81 -0.34c4.91,-2.07 10.54,-3.32 16.96,-3.74 6.37,-0.43 13.25,-0.04 20.64,1.13l47.04 8.87 -15.18 -35.91 21.01 -8.87 26.78 63.38z"/>
     </g>
    </g>
   </g>
   <polygon class="fil4" points="3223.98,2163.68 3031.34,1669.07 3031.71,2258.89 "/>
   <polygon class="fil7" points="3283.09,2158.21 4054.16,2167.12 3665.67,1502.87 "/>
   <g style="clip-path:url(#id17)">
    <g>
     <g>
      <path id="_1_15" class="fil15" d="M3486.23 2033.05l0 -19.89 32.44 0c4.44,0 7.89,-0.95 10.32,-2.81 2.43,-1.85 3.67,-4.47 3.67,-7.83l0 -7.91c0,-3.63 -1.23,-6.47 -3.73,-8.49 -2.47,-2.02 -5.94,-3.03 -10.45,-3.03l-32.25 0 0 -19.76 31.95 0c4.06,0 7.24,-0.93 9.48,-2.84 2.24,-1.88 3.37,-4.56 3.37,-8.02l0 -6.25c0,-3.03 -1.13,-5.38 -3.37,-7.07 -2.24,-1.66 -5.42,-2.51 -9.48,-2.51l-31.95 0 0 -19.84 33.58 0c11.43,0 20.26,2.43 26.56,7.23 6.26,4.83 9.41,11.68 9.41,20.53l0 6.22c0,6.03 -2.07,11 -6.2,14.87 -4.12,3.9 -9.9,6.38 -17.4,7.45 8.05,0.9 14.28,3.44 18.73,7.64 4.45,4.17 6.66,9.63 6.66,16.35l0 8c0,8.89 -3.12,15.77 -9.35,20.66 -6.26,4.89 -15.1,7.31 -26.5,7.31l-35.49 0zm-12.47 0l0 -116.28 24.84 0 0 116.28 -24.84 0z"/>
      <path class="fil15" d="M3614.66 2034.26c-13.15,0 -23.38,-3.17 -30.69,-9.53 -7.34,-6.33 -11.01,-15.25 -11.01,-26.77l0 -81.18 24.84 0 0 81.72c0,4.75 1.46,8.43 4.38,11.05 2.92,2.59 7.08,3.9 12.47,3.9 5.39,0 9.58,-1.31 12.53,-3.9 2.99,-2.62 4.48,-6.3 4.48,-11.05l0 -81.72 24.94 0 0 81.18c0,11.52 -3.7,20.44 -11.11,26.77 -7.37,6.36 -17.66,9.53 -30.85,9.53z"/>
      <path class="fil15" d="M3691.17 2033.05l-0.09 -20.06 25.49 0c5.81,0 10.36,-1.31 13.6,-3.87 3.21,-2.59 4.8,-6.2 4.74,-10.75l0 -46.95c0.06,-4.64 -1.52,-8.22 -4.74,-10.75 -3.24,-2.54 -7.79,-3.79 -13.6,-3.79l-25.4 0 -0.09 -20.09 26.33 0c13.7,0 24.29,2.97 31.79,8.87 7.47,5.92 11.2,14.25 11.2,24.95l0 48.56c0,6.88 -1.62,12.85 -4.9,17.96 -3.24,5.08 -8.08,9.01 -14.48,11.79 -6.43,2.75 -14.32,4.14 -23.7,4.14l-26.14 0zm-14.48 0l0 -20.11 24.84 0 0 20.11 -24.84 0zm0 -48.06l0 -68.21 24.84 0 0 68.21 -24.84 0z"/>
      <path class="fil15" d="M3817.01 2034.26c-7.79,0 -14.64,-0.98 -20.56,-2.92 -5.87,-1.94 -10.74,-4.83 -14.61,-8.68 -3.83,-3.82 -6.56,-8.59 -8.22,-14.3l0 0 23.12 -8.57 0 0c1.85,4.69 4.61,8.24 8.28,10.64 3.67,2.4 8.15,3.6 13.41,3.6 5.45,0 9.71,-1.01 12.76,-3.05 3.02,-2.02 4.55,-4.83 4.55,-8.46l0 -5.21c0,-2.86 -1.01,-5.16 -2.99,-6.88 -2.01,-1.69 -4.67,-3.08 -7.99,-4.15 -3.34,-1.06 -6.95,-2.07 -10.81,-3.03 -4.25,-1.06 -8.54,-2.29 -12.89,-3.68 -4.32,-1.39 -8.34,-3.19 -11.98,-5.43 -3.63,-2.24 -6.56,-5.24 -8.8,-9.01 -2.21,-3.74 -3.31,-8.6 -3.31,-14.52l0 -3.03c0,-10.18 3.7,-18.04 11.11,-23.64 7.43,-5.57 17.92,-8.35 31.5,-8.35 10.32,0 18.83,2.07 25.46,6.25 6.62,4.14 11.17,10.37 13.64,18.61l0 0 -21.98 8.73 0 0c-1.75,-4.47 -4.22,-7.86 -7.4,-10.13 -3.18,-2.26 -6.85,-3.38 -11.04,-3.38 -5.33,0 -9.42,0.92 -12.28,2.78 -2.85,1.88 -4.28,4.48 -4.28,7.83l0 3.85c0,3.25 1.13,5.81 3.34,7.67 2.21,1.88 5.16,3.36 8.8,4.45 3.64,1.09 7.57,2.21 11.76,3.38 4.12,1.06 8.24,2.29 12.37,3.65 4.12,1.34 7.86,3.14 11.27,5.38 3.37,2.24 6.1,5.18 8.12,8.81 2.04,3.6 3.05,8.22 3.05,13.81l0 4.96c0,10.13 -3.8,17.99 -11.36,23.58 -7.6,5.59 -18.25,8.41 -32.02,8.41z"/>
     </g>
    </g>
   </g>
   <polygon class="fil4" points="3283.09,2158.21 4054.16,2167.12 3665.67,1502.87 "/>
   <path class="fil14" d="M3644.15 2443.14c-7.35,0 -13.73,-1.31 -19.09,-3.95 -5.33,-2.63 -9.47,-6.37 -12.38,-11.21 -2.91,-4.84 -4.35,-10.64 -4.35,-17.34l0 -11.4c0,-5.61 1.56,-10.82 4.72,-15.57 3.12,-4.75 7.42,-8.4 12.87,-10.91 -4.78,-2.08 -8.58,-5.05 -11.4,-8.92 -2.82,-3.85 -4.23,-8.08 -4.23,-12.62l0 -10.88c0,-9.38 3.07,-16.79 9.13,-22.25 6.07,-5.45 14.31,-8.18 24.73,-8.18 10.42,0 18.66,2.73 24.73,8.18 6.06,5.45 9.1,12.87 9.1,22.25l0 10.88c0,4.59 -1.41,8.82 -4.29,12.65 -2.88,3.83 -6.77,6.8 -11.67,8.88 5.57,2.51 9.96,6.16 13.15,10.91 3.21,4.75 4.8,9.96 4.8,15.57l0 11.4c0,6.7 -1.46,12.5 -4.41,17.34 -2.91,4.84 -7.05,8.58 -12.38,11.21 -5.33,2.64 -11.67,3.95 -19.03,3.95zm0 -22.62c3.83,0 6.89,-1.07 9.19,-3.25 2.29,-2.14 3.46,-5.05 3.46,-8.7l0 -11.49c0,-3.52 -1.13,-6.34 -3.4,-8.39 -2.3,-2.06 -5.36,-3.1 -9.25,-3.1 -3.83,0 -6.89,1.04 -9.19,3.1 -2.33,2.05 -3.46,4.9 -3.46,8.49l0 11.58c0,3.59 1.13,6.43 3.4,8.58 2.27,2.12 5.37,3.19 9.26,3.19zm0 -57.47c3.34,0 6,-1.07 7.94,-3.18 1.96,-2.14 2.91,-5.02 2.91,-8.67l0 -8.09c0,-3.34 -0.95,-6.01 -2.91,-7.93 -1.93,-1.93 -4.6,-2.91 -7.94,-2.91 -3.31,0 -5.94,0.98 -7.94,2.94 -2.02,1.99 -3.03,4.66 -3.03,8l0 8.18c0,3.65 1.01,6.5 2.97,8.58 1.99,2.05 4.65,3.09 8,3.09z"/>
  </g>
 </g>
</svg>
