<?xml version="1.0" encoding="UTF-8"?>
<!DOCTYPE svg PUBLIC "-//W3C//DTD SVG 1.1//EN" "http://www.w3.org/Graphics/SVG/1.1/DTD/svg11.dtd">
<!-- Creator: CorelDRAW -->
<svg xmlns="http://www.w3.org/2000/svg" xml:space="preserve" width="67.792mm" height="65.319mm" version="1.1" style="shape-rendering:geometricPrecision; text-rendering:geometricPrecision; image-rendering:optimizeQuality; fill-rule:evenodd; clip-rule:evenodd"
viewBox="0 0 5695.05 5487.3"
 xmlns:xlink="http://www.w3.org/1999/xlink"
 xmlns:xodm="http://www.corel.com/coreldraw/odm/2003">
 <defs>
  <style type="text/css">
   <![CDATA[
    .fil3 {fill:none}
    .fil6 {fill:none;fill-rule:nonzero}
    .fil16 {fill:#1A1A1A}
    .fil10 {fill:#1F54A1}
    .fil11 {fill:#296FB2}
    .fil5 {fill:#333333}
    .fil12 {fill:#338AC2}
    .fil1 {fill:#383838}
    .fil13 {fill:#3DA5D3}
    .fil14 {fill:#47C0E3}
    .fil2 {fill:gray}
    .fil9 {fill:gray}
    .fil8 {fill:#EEEEEE}
    .fil7 {fill:white}
    .fil15 {fill:#1A1A1A;fill-rule:nonzero}
    .fil4 {fill:#333333;fill-rule:nonzero}
    .fil0 {fill:#383838;fill-rule:nonzero}
   ]]>
  </style>
   <clipPath id="id0">
    <path d="M95.03 554.48l1580.73 -546.75c73.41,-25.39 154.24,13.89 179.63,87.3l800.35 2313.92c25.39,73.41 -13.89,154.24 -87.3,179.63l-1580.73 546.75c-73.41,25.39 -154.24,-13.89 -179.63,-87.3l-800.35 -2313.92c-25.39,-73.41 13.89,-154.24 87.3,-179.63zm198.7 119.29l1299.5 -449.47c60.34,-20.88 126.79,11.42 147.66,71.77l700.61 2025.55c20.87,60.34 -11.43,126.78 -71.77,147.66l-1299.5 449.47c-60.34,20.87 -126.79,-11.43 -147.67,-71.77l-700.6 -2025.55c-20.87,-60.35 11.43,-126.79 71.77,-147.67z"/>
   </clipPath>
    <clipPath id="id1" style="clip-rule:nonzero">
     <path d="M850.17 1863.13l-19.8 -57.23 93.32 -32.28c12.79,-4.43 21.75,-10.6 26.91,-18.36 5.16,-7.76 6.1,-16.52 2.76,-26.19l-7.88 -22.77c-3.61,-10.44 -9.98,-17.38 -19.19,-20.7 -9.11,-3.35 -20.1,-2.81 -33.09,1.69l-92.75 32.08 -19.67 -56.85 91.92 -31.79c11.68,-4.04 19.9,-9.87 24.45,-17.6 4.57,-7.64 5.18,-16.47 1.73,-26.45l-6.22 -17.98c-3.02,-8.71 -8.62,-14.34 -16.75,-16.98 -8.1,-2.55 -18.1,-1.82 -29.77,2.21l-91.91 31.8 -19.74 -57.08 96.58 -33.4c32.88,-11.37 60.7,-13.17 83.6,-5.63 22.83,7.66 38.71,24.24 47.51,49.67l6.19 17.9c6.01,17.36 4.97,33.71 -3.03,48.96 -7.98,15.33 -22.14,28.23 -42.66,38.75 24.06,-5.42 44.52,-4.32 61.5,3.34 16.95,7.59 28.74,21.09 35.42,40.41l7.96 23c8.85,25.6 6.73,48.48 -6.34,68.74 -13.17,20.29 -36.16,36.06 -68.95,47.41l-102.09 35.31zm-35.87 12.41l-115.69 -334.47 71.46 -24.72 115.69 334.47 -71.46 24.72z"/>
    </clipPath>
    <clipPath id="id2" style="clip-rule:nonzero">
     <path d="M1220.79 1738.81c-37.83,13.09 -70.41,14.16 -97.75,3.13 -27.41,-10.91 -46.84,-32.94 -58.3,-66.07l-80.76 -233.5 71.46 -24.72 81.3 235.07c4.73,13.66 12.6,22.81 23.61,27.44 10.99,4.55 24.24,4.18 39.75,-1.18 15.5,-5.36 26.25,-13.3 32.17,-23.7 5.98,-10.51 6.61,-22.59 1.89,-36.26l-81.31 -235.06 71.74 -24.82 80.76 233.5c11.46,33.13 9.69,62.49 -5.31,88.07 -14.88,25.62 -41.34,44.98 -79.26,58.09z"/>
    </clipPath>
    <clipPath id="id3" style="clip-rule:nonzero">
     <path d="M1439.66 1659.24l-20.24 -57.61 73.33 -25.36c16.72,-5.78 28.49,-14.07 35.27,-24.68 6.67,-10.66 7.66,-22.61 2.94,-35.65l-46.71 -135.05c-4.43,-13.41 -12.56,-22.11 -24.34,-26.21 -11.86,-4.07 -26.19,-3.16 -42.91,2.62l-73.04 25.26 -20.27 -57.69 75.76 -26.2c39.42,-13.63 72.83,-15.61 100.27,-6.11 27.38,9.6 46.4,29.83 57.05,60.61l48.3 139.68c6.85,19.78 8.12,38.59 3.77,56.54 -4.29,17.83 -14.3,33.96 -29.93,48.33 -15.75,14.32 -37.06,26.18 -64.06,35.52l-75.2 26.01zm-41.66 14.41l-20 -57.85 71.46 -24.72 20.01 57.85 -71.47 24.72zm-47.82 -138.26l-67.87 -196.21 71.47 -24.72 67.86 196.21 -71.46 24.72z"/>
    </clipPath>
    <clipPath id="id4" style="clip-rule:nonzero">
     <path d="M1802.82 1537.49c-22.41,7.75 -43.1,11.74 -62.03,12.06 -18.83,0.27 -35.73,-3.21 -50.67,-10.43 -14.82,-7.17 -27.42,-18.2 -37.86,-32.96l0 0 57.98 -47.66 0 0c10,11.66 21.46,19.12 34.41,22.38 12.95,3.26 27.03,2.26 42.16,-2.97 15.69,-5.44 26.92,-12.57 33.67,-21.5 6.68,-8.81 8.27,-18.41 4.65,-28.86l-5.18 -15c-2.85,-8.25 -8.03,-13.84 -15.44,-16.82 -7.47,-2.86 -16.52,-4.22 -27.1,-3.98 -10.69,0.26 -22.05,0.94 -34.12,2.04 -13.29,1.17 -26.84,1.9 -40.74,2.23 -13.81,0.29 -27.18,-0.88 -39.88,-3.7 -12.69,-2.81 -24.08,-8.54 -34.28,-17.15 -10.07,-8.55 -18.08,-21.43 -23.98,-38.47l-3.01 -8.72c-10.13,-29.29 -7.31,-55.58 8.43,-79.04 15.85,-23.41 43.25,-41.86 82.29,-55.36 29.71,-10.27 56.24,-12.77 79.45,-7.35 23.18,5.34 42.45,18.72 57.76,39.98l0 0 -54.55 46.99 0 0c-9.49,-11.13 -19.96,-18.41 -31.37,-21.77 -11.41,-3.34 -23.08,-2.92 -35.12,1.25 -15.32,5.3 -26.17,12.04 -32.54,20.22 -6.34,8.27 -7.87,17.15 -4.54,26.8l3.83 11.07c3.23,9.34 9.06,15.59 17.26,18.73 8.22,3.22 18.19,4.52 29.74,4.04 11.54,-0.48 23.97,-1.17 37.18,-1.96 12.92,-1.04 26.01,-1.61 39.22,-1.79 13.2,-0.25 25.73,1.21 37.77,4.26 11.94,3.07 22.72,8.84 32.12,17.28 9.47,8.33 16.95,20.6 22.51,36.69l4.95 14.29c10.07,29.13 6.96,55.52 -9.23,79.14 -16.29,23.65 -44.13,42.34 -83.74,56.03z"/>
    </clipPath>
   <clipPath id="id5">
    <path d="M4064.43 1169.85c-13,-5.56 -23.03,-10.11 -34.75,-18.79 -10.13,-7.5 -11.8,-8.83 -15.29,-20.65 -0.25,-0.89 -0.86,-3.6 -1.12,-4.48 -2.48,-8.17 2.19,0.35 -2.44,-6.83 -28.68,19.33 -96.36,29.46 -103.67,65.86 30.97,22.39 151.69,39.16 201.55,48.77 198.09,38.17 384.92,79.92 583.47,111.75 -28.92,-32.53 -298.03,-84.71 -360.26,-99.21 -75.88,-17.68 -196.64,-46.12 -267.48,-76.41z"/>
   </clipPath>
   <clipPath id="id6">
    <path d="M4062.71 1306.16c-36.2,163.29 -68.37,266.26 -153.32,393.45 -50.14,75.06 -119.63,141.16 -191.94,182.56 -16.13,9.23 -64.76,33.89 -70.93,55.66 -9.01,31.78 54.99,42.31 83.29,48.92 97.08,22.64 263.01,50.31 365.24,69.54 80.75,15.19 161.49,30.38 242.23,45.57 79.81,15.01 165.94,34.55 245.56,45.79 -47.66,-60.36 -371.36,-140.63 -474.81,-160.34 -49.69,-9.46 -129.04,-23.69 -165.61,-50.98 -47.77,-35.63 -10.34,-91.09 12.37,-139.23 43.47,-92.15 142.18,-371.05 116.95,-474.01l-9.03 -16.94z"/>
   </clipPath>
   <clipPath id="id7">
    <path d="M3597.68 2230.37c-59.23,42.65 -177.05,107.61 -220.72,200.25 -30.45,64.61 -18.84,125.02 16.73,160.38 38.9,38.67 107.43,49.61 169.19,61.22 136.24,25.63 272.81,50.56 408.89,76.88 131.74,25.49 272.38,57.58 404.97,78.65 -36.54,-28.65 -231.44,-86.55 -290.31,-102.36 -105.46,-28.32 -211.82,-54.03 -317.9,-79.14 -106.84,-25.29 -217.86,-40.51 -250.89,-127.83 -37.24,-98.44 69.83,-236.78 80.04,-268.06z"/>
   </clipPath>
   <clipPath id="id8" style="clip-rule:nonzero">
    <path d="M1609.23 920.33l0 1302.4 1138.06 682.02 1146.27 -661.48 12.32 -1318.83 -1150.38 -686.12 -1146.28 682.02z"/>
   </clipPath>
   <clipPath id="id9">
    <path d="M1749.59 2189.94l316.08 -154.99 533.02 646.4 -849.1 -491.4z"/>
   </clipPath>
   <clipPath id="id10">
    <path d="M3477.56 2041.14l277.17 138.34 -825.58 485.27 548.41 -623.61z"/>
   </clipPath>
   <clipPath id="id11">
    <path d="M3513.91 1977.87l280.41 141.17 11.71 -946.2 -292.12 805.04z"/>
   </clipPath>
   <clipPath id="id12">
    <path d="M2840.84 837.56l620.47 1071.06 333.1 -919.79 -953.57 -151.26z"/>
   </clipPath>
   <clipPath id="id13">
    <path d="M2806.75 756.3l856.95 136.07 -868.34 -519.89 11.39 383.82z"/>
   </clipPath>
   <clipPath id="id14">
    <path d="M2722.89 374.3l11.46 382.31 -887.63 120.6 876.17 -502.91z"/>
   </clipPath>
   <clipPath id="id15">
    <path d="M1714.45 969.05l991.67 -135.59 -626.61 1074.58 -365.06 -938.99z"/>
   </clipPath>
   <clipPath id="id16">
    <path d="M2026.93 1968.69l-323.68 -831.05 0.62 991.02 323.06 -159.97z"/>
   </clipPath>
   <clipPath id="id17">
    <path d="M2126.25 1959.5l1295.55 14.97 -652.73 -1116.08 -642.82 1101.11z"/>
   </clipPath>
 </defs>
 <g id="Camada_x0020_1">
  <metadata id="CorelCorpID_0Corel-Layer"/>
  <path class="fil0" d="M1039.28 5348.7l74.04 0 0 61.13c0,15.87 -3.08,29.64 -9.24,41.21 -6.22,11.56 -14.94,20.51 -26.27,26.79 -11.27,6.33 -24.7,9.47 -40.21,9.47 -15.58,0 -29.12,-3.02 -40.74,-9.01 -11.57,-6.04 -20.46,-14.52 -26.74,-25.57 -6.22,-10.98 -9.35,-24.06 -9.35,-39.16l0 -100.77c0,-15.99 3.13,-29.87 9.35,-41.56 6.28,-11.68 15.05,-20.68 26.45,-27.08 11.33,-6.33 24.64,-9.53 39.98,-9.53 15.23,0 28.18,2.91 38.88,8.6 10.75,5.75 19.12,14.36 25.17,25.81 5.98,11.44 9.59,25.74 10.69,42.89l0 0 -46.49 0 0 0c-0.87,-10.87 -3.83,-18.88 -8.77,-24 -4.88,-5.12 -11.39,-7.67 -19.47,-7.67 -9.18,0 -16.5,2.97 -21.85,8.89 -5.4,5.87 -8.13,13.78 -8.13,23.66l0 100.77c0,8.66 2.79,15.52 8.37,20.51 5.58,5.06 13.13,7.61 22.67,7.61 9.42,0 16.91,-2.79 22.43,-8.25 5.58,-5.52 8.37,-13.14 8.37,-22.9l0 -19.06 -29.11 0 0 -42.77zm449.9 136.04l76.77 -247.56 29.64 0 76.94 247.56 -46.14 0 -45.62 -165.68 -45.62 165.68 -45.97 0zm42.72 -39.17l0 -42.19 98.9 0 0 42.19 -98.9 0zm532.14 -57.7l44.63 -150.68 50.56 0 0 247.56 -40.04 0 0 -182.53 2.03 10.92 -41.49 135.87 -31.21 0 -41.67 -132.51 2.56 -14.29 0 182.53 -40.39 0 0 -247.56 50.91 0 44.1 150.68zm409.35 96.88l0.18 -247.56 44.46 0 0 247.56 -44.63 0zm17.9 0l0 -43.06 120.17 0 0 43.06 -120.17 0zm0 -101.29l0 -43.24 106.58 0 0 43.06 -106.58 0.18zm0 -103.21l0 -43.06 120.17 0 0 43.06 -120.17 0zm611.64 204.5l0.17 -247.56 44.4 0 0 247.56 -44.57 0zm-105.6 0l0.18 -247.56 44.46 0 0 247.56 -44.63 0zm20.98 -101.12l0 -42.42 113.56 -0.17 0 42.42 -113.56 0.17zm517.85 103.67c-15.69,0 -29.29,-3.02 -40.8,-9.12 -11.5,-6.04 -20.4,-14.7 -26.67,-25.98 -6.22,-11.22 -9.36,-24.4 -9.36,-39.63l0 -103.21c0,-15.4 3.14,-28.71 9.36,-39.92 6.28,-11.16 15.17,-19.76 26.67,-25.74 11.51,-6.05 25.11,-9.07 40.8,-9.07 15.74,0 29.4,3.02 40.91,9.07 11.5,5.98 20.4,14.58 26.67,25.74 6.22,11.22 9.36,24.52 9.36,39.92l0 103.21c0,15.23 -3.14,28.42 -9.36,39.63 -6.28,11.27 -15.17,19.94 -26.67,25.98 -11.51,6.11 -25.17,9.12 -40.91,9.12zm0 -44.46c9.64,0 17.26,-2.91 22.89,-8.65 5.58,-5.81 8.43,-13.72 8.43,-23.83l0 -99.08c0,-9.88 -2.79,-17.78 -8.37,-23.6 -5.58,-5.86 -13.19,-8.77 -22.95,-8.77 -9.59,0 -17.15,2.91 -22.78,8.77 -5.58,5.81 -8.43,13.72 -8.43,23.6l0 99.08c0,10.11 2.85,18.02 8.43,23.83 5.64,5.75 13.19,8.65 22.78,8.65zm453.46 44.46c-23.54,0 -41.84,-6.74 -54.92,-20.28 -13.13,-13.48 -19.7,-32.49 -19.7,-57.01l0 -172.83 44.46 0 0 173.99c0,10.11 2.62,17.96 7.85,23.54 5.23,5.52 12.67,8.31 22.32,8.31 9.64,0 17.14,-2.79 22.43,-8.31 5.34,-5.58 8.01,-13.42 8.01,-23.54l0 -173.99 44.63 0 0 172.83c0,24.52 -6.62,43.52 -19.88,57.01 -13.19,13.54 -31.61,20.28 -55.2,20.28zm447.81 0c-13.95,0 -26.21,-2.09 -36.79,-6.22 -10.52,-4.12 -19.24,-10.28 -26.15,-18.48 -6.86,-8.13 -11.74,-18.31 -14.7,-30.44l0 0 41.38 -18.25 0 0c3.31,10 8.25,17.55 14.82,22.67 6.56,5.12 14.58,7.67 24,7.67 9.76,0 17.37,-2.15 22.83,-6.5 5.4,-4.3 8.14,-10.29 8.14,-18.02l0 -11.1c0,-6.1 -1.81,-10.99 -5.35,-14.64 -3.6,-3.6 -8.37,-6.57 -14.3,-8.84 -5.98,-2.27 -12.43,-4.42 -19.35,-6.45 -7.61,-2.27 -15.28,-4.88 -23.07,-7.85 -7.73,-2.96 -14.94,-6.8 -21.45,-11.56 -6.51,-4.76 -11.74,-11.16 -15.75,-19.18 -3.95,-7.96 -5.92,-18.31 -5.92,-30.91l0 -6.45c0,-21.67 6.62,-38.42 19.87,-50.33 13.32,-11.85 32.08,-17.78 56.38,-17.78 18.47,0 33.7,4.42 45.56,13.32 11.85,8.83 19.99,22.08 24.4,39.63l0 0 -39.34 18.6 0 0c-3.13,-9.53 -7.55,-16.73 -13.25,-21.56 -5.7,-4.83 -12.27,-7.21 -19.76,-7.21 -9.53,0 -16.85,1.97 -21.97,5.92 -5.12,4.02 -7.67,9.53 -7.67,16.68l0 8.19c0,6.91 2.03,12.38 5.99,16.33 3.95,4.01 9.23,7.15 15.74,9.48 6.51,2.32 13.54,4.7 21.04,7.2 7.38,2.27 14.76,4.88 22.14,7.79 7.38,2.85 14.06,6.69 20.16,11.45 6.05,4.76 10.93,11.04 14.53,18.78 3.66,7.67 5.46,17.49 5.46,29.4l0 10.58c0,21.56 -6.8,38.3 -20.34,50.21 -13.6,11.91 -32.66,17.89 -57.3,17.89zm382.61 -2.55l0.18 -247.56 44.46 0 0 247.56 -44.63 0zm17.9 0l0 -43.06 120.17 0 0 43.06 -120.17 0zm0 -101.29l0 -43.24 106.58 0 0 43.06 -106.58 0.18zm0 -103.21l0 -43.06 120.17 0 0 43.06 -120.17 0z"/>
  <g id="_1848390499984">
   <path class="fil1" d="M757.03 5299.95c33.7,0 61.01,27.31 61.01,61.01 0,33.7 -27.31,61.01 -61.01,61.01 -33.7,0 -61.01,-27.32 -61.01,-61.01 0,-33.7 27.32,-61.01 61.01,-61.01z"/>
   <path class="fil1" d="M5161.84 5299.95c33.7,0 61.01,27.31 61.01,61.01 0,33.7 -27.31,61.01 -61.01,61.01 -33.7,0 -61.01,-27.32 -61.01,-61.01 0,-33.7 27.32,-61.01 61.01,-61.01z"/>
  </g>
  <path class="fil1" d="M95.03 554.48l1580.73 -546.75c73.41,-25.39 154.24,13.89 179.63,87.3l800.35 2313.92c25.39,73.41 -13.89,154.24 -87.3,179.63l-1580.73 546.75c-73.41,25.39 -154.24,-13.89 -179.63,-87.3l-800.35 -2313.92c-25.39,-73.41 13.89,-154.24 87.3,-179.63zm198.7 119.29l1299.5 -449.47c60.34,-20.88 126.79,11.42 147.66,71.77l700.61 2025.55c20.87,60.34 -11.43,126.78 -71.77,147.66l-1299.5 449.47c-60.34,20.87 -126.79,-11.43 -147.67,-71.77l-700.6 -2025.55c-20.87,-60.35 11.43,-126.79 71.77,-147.67z"/>
  <g style="clip-path:url(#id0)">
   <g id="_1848390500752">
    <polygon id="_1" class="fil2" points="1548.13,914.53 1548.13,2260.51 2156,2594.65 2562.77,2838.46 2656.56,2142.46 2357.82,397.94 "/>
   </g>
  </g>
  <path class="fil3" d="M95.03 554.48l1580.73 -546.75c73.41,-25.39 154.24,13.89 179.63,87.3l800.35 2313.92c25.39,73.41 -13.89,154.24 -87.3,179.63l-1580.73 546.75c-73.41,25.39 -154.24,-13.89 -179.63,-87.3l-800.35 -2313.92c-25.39,-73.41 13.89,-154.24 87.3,-179.63zm198.7 119.29l1299.5 -449.47c60.34,-20.88 126.79,11.42 147.66,71.77l700.61 2025.55c20.87,60.34 -11.43,126.78 -71.77,147.66l-1299.5 449.47c-60.34,20.87 -126.79,-11.43 -147.67,-71.77l-700.6 -2025.55c-20.87,-60.35 11.43,-126.79 71.77,-147.67z"/>
  <path class="fil4" d="M999.66 1874.87l15.05 -5.2 4.3 12.42c1.12,3.23 1.45,6.24 1.02,9.02 -0.45,2.79 -1.6,5.22 -3.45,7.29 -1.85,2.08 -4.36,3.66 -7.52,4.75 -3.16,1.09 -6.12,1.43 -8.9,1.03 -2.78,-0.42 -5.17,-1.51 -7.23,-3.32 -2.03,-1.8 -3.59,-4.23 -4.65,-7.3l-7.09 -20.48c-1.12,-3.25 -1.46,-6.29 -1.02,-9.11 0.46,-2.81 1.6,-5.26 3.48,-7.36 1.86,-2.08 4.33,-3.67 7.45,-4.75 3.09,-1.08 5.93,-1.39 8.51,-0.99 2.59,0.42 4.89,1.58 6.93,3.48 2.02,1.91 3.75,4.56 5.18,7.96l0 0 -9.45 3.28 0 0c-0.94,-2.16 -2.11,-3.58 -3.47,-4.27 -1.35,-0.7 -2.86,-0.76 -4.5,-0.18 -1.86,0.64 -3.14,1.76 -3.81,3.34 -0.69,1.57 -0.69,3.36 0.01,5.38l7.08 20.48c0.6,1.76 1.65,2.96 3.14,3.58 1.49,0.63 3.2,0.63 5.14,-0.04 1.92,-0.66 3.24,-1.76 3.98,-3.27 0.74,-1.5 0.77,-3.25 0.09,-5.23l-1.34 -3.88 -5.92 2.05 -3.01 -8.69zm101.02 -3.97l-1.8 -55.71 6.02 -2.08 33.03 44.9 -9.38 3.24 -20.92 -30.46 2.38 36.87 -9.34 3.23zm5.92 -10.96l-2.97 -8.58 20.1 -6.96 2.97 8.58 -20.1 6.96zm104.11 -49.14l-1.53 -33.75 10.28 -3.55 17.41 50.3 -8.14 2.82 -12.84 -37.11 1.18 2.08 1.11 30.53 -6.33 2.19 -17.78 -24 -0.49 -3.08 12.83 37.1 -8.21 2.84 -17.4 -50.3 10.35 -3.59 19.56 27.52zm90.01 -9.09l-17.37 -50.32 9.05 -3.13 17.4 50.31 -9.07 3.13zm3.64 -1.25l-3.03 -8.75 24.43 -8.45 3.03 8.75 -24.43 8.45zm-7.12 -20.59l-3.04 -8.79 21.67 -7.49 3.03 8.75 -21.66 7.53zm-7.26 -20.98l-3.02 -8.75 24.43 -8.45 3.02 8.75 -24.43 8.45zm138.7 -1.44l-17.36 -50.32 9.01 -3.12 17.41 50.3 -9.06 3.13zm-21.46 7.43l-17.37 -50.32 9.05 -3.13 17.4 50.31 -9.07 3.14zm-2.85 -22.03l-2.98 -8.63 23.07 -8.01 2.98 8.63 -23.07 8.01zm112.55 -15.34c-3.18,1.1 -6.17,1.44 -8.93,1.02 -2.76,-0.42 -5.18,-1.55 -7.24,-3.4 -2.06,-1.84 -3.62,-4.3 -4.7,-7.4l-7.25 -20.98c-1.08,-3.13 -1.39,-6.06 -0.91,-8.77 0.49,-2.71 1.7,-5.08 3.6,-7.11 1.92,-2.04 4.47,-3.6 7.66,-4.71 3.2,-1.1 6.18,-1.45 8.95,-1.03 2.76,0.41 5.17,1.54 7.23,3.36 2.05,1.84 3.63,4.33 4.7,7.46l7.26 20.97c1.07,3.1 1.36,6.01 0.89,8.72 -0.49,2.74 -1.68,5.12 -3.6,7.16 -1.92,2.04 -4.48,3.61 -7.68,4.72zm-3.13 -9.03c1.97,-0.68 3.31,-1.81 4.05,-3.37 0.72,-1.57 0.75,-3.38 0.04,-5.44l-6.97 -20.15c-0.69,-2.01 -1.81,-3.41 -3.36,-4.2 -1.54,-0.8 -3.29,-0.86 -5.28,-0.17 -1.96,0.67 -3.28,1.79 -4.02,3.38 -0.72,1.58 -0.75,3.39 -0.06,5.39l6.97 20.14c0.71,2.06 1.84,3.46 3.39,4.25 1.55,0.77 3.28,0.83 5.23,0.16zm95.3 -22.85c-4.79,1.65 -8.98,1.58 -12.59,-0.26 -3.61,-1.81 -6.28,-5.21 -8.01,-10.2l-12.15 -35.12 9.03 -3.13 12.23 35.37c0.71,2.04 1.8,3.45 3.25,4.23 1.44,0.76 3.16,0.8 5.12,0.12 1.97,-0.67 3.29,-1.77 3.97,-3.26 0.7,-1.51 0.68,-3.3 -0.03,-5.34l-12.23 -35.37 9.07 -3.13 12.16 35.12c1.72,4.98 1.71,9.31 -0.04,12.98 -1.73,3.68 -4.99,6.34 -9.79,8zm91.01 -31.48c-2.83,0.98 -5.47,1.42 -7.91,1.32 -2.43,-0.09 -4.64,-0.73 -6.62,-1.92 -1.97,-1.17 -3.67,-2.89 -5.12,-5.15l0 0 7.12 -6.62 0 0c1.38,1.8 2.91,2.99 4.61,3.56 1.69,0.58 3.49,0.54 5.41,-0.13 1.98,-0.69 3.39,-1.66 4.18,-2.93 0.8,-1.25 0.93,-2.66 0.39,-4.23l-0.78 -2.25c-0.43,-1.24 -1.13,-2.11 -2.12,-2.6 -0.98,-0.48 -2.16,-0.75 -3.52,-0.79 -1.38,-0.04 -2.84,-0.03 -4.39,0.05 -1.71,0.08 -3.45,0.08 -5.24,0.03 -1.78,-0.06 -3.51,-0.33 -5.17,-0.84 -1.66,-0.51 -3.17,-1.44 -4.54,-2.79 -1.36,-1.34 -2.5,-3.3 -3.39,-5.86l-0.45 -1.31c-1.53,-4.41 -1.35,-8.28 0.5,-11.64 1.87,-3.34 5.27,-5.86 10.21,-7.57 3.76,-1.3 7.17,-1.48 10.2,-0.5 3.03,0.96 5.61,3.07 7.75,6.33l0 0 -6.69 6.54 0 0c-1.31,-1.72 -2.71,-2.87 -4.21,-3.45 -1.5,-0.58 -3,-0.6 -4.53,-0.08 -1.93,0.67 -3.28,1.59 -4.04,2.76 -0.76,1.17 -0.89,2.48 -0.39,3.93l0.58 1.65c0.49,1.41 1.29,2.38 2.37,2.91 1.08,0.53 2.38,0.8 3.86,0.81 1.48,0.01 3.07,0 4.78,-0.02 1.65,-0.06 3.34,-0.05 5.05,0.03 1.71,0.06 3.33,0.36 4.9,0.91 1.57,0.54 3.01,1.48 4.28,2.79 1.29,1.3 2.34,3.17 3.18,5.59l0.75 2.15c1.51,4.38 1.31,8.26 -0.6,11.64 -1.93,3.38 -5.38,5.93 -10.39,7.66zm77.6 -27.42l-17.37 -50.32 9.04 -3.13 17.41 50.31 -9.07 3.13zm3.63 -1.25l-3.02 -8.75 24.43 -8.45 3.02 8.75 -24.43 8.45zm-7.12 -20.59l-3.04 -8.79 21.67 -7.49 3.03 8.75 -21.66 7.53zm-7.26 -20.98l-3.02 -8.75 24.43 -8.45 3.02 8.75 -24.43 8.45z"/>
  <g id="_1848390435376">
   <path class="fil4" d="M850.17 1863.13l-19.8 -57.23 93.32 -32.28c12.79,-4.43 21.75,-10.6 26.91,-18.36 5.16,-7.76 6.1,-16.52 2.76,-26.19l-7.88 -22.77c-3.61,-10.44 -9.98,-17.38 -19.19,-20.7 -9.11,-3.35 -20.1,-2.81 -33.09,1.69l-92.75 32.08 -19.67 -56.85 91.92 -31.79c11.68,-4.04 19.9,-9.87 24.45,-17.6 4.57,-7.64 5.18,-16.47 1.73,-26.45l-6.22 -17.98c-3.02,-8.71 -8.62,-14.34 -16.75,-16.98 -8.1,-2.55 -18.1,-1.82 -29.77,2.21l-91.91 31.8 -19.74 -57.08 96.58 -33.4c32.88,-11.37 60.7,-13.17 83.6,-5.63 22.83,7.66 38.71,24.24 47.51,49.67l6.19 17.9c6.01,17.36 4.97,33.71 -3.03,48.96 -7.98,15.33 -22.14,28.23 -42.66,38.75 24.06,-5.42 44.52,-4.32 61.5,3.34 16.95,7.59 28.74,21.09 35.42,40.41l7.96 23c8.85,25.6 6.73,48.48 -6.34,68.74 -13.17,20.29 -36.16,36.06 -68.95,47.41l-102.09 35.31zm-35.87 12.41l-115.69 -334.47 71.46 -24.72 115.69 334.47 -71.46 24.72z"/>
   <g style="clip-path:url(#id1)">
    <g>
     <polygon id="_1_0" class="fil5" points="1883.67,708.86 1548.13,914.53 1548.13,2260.51 2156,2594.65 2562.77,2838.46 2656.56,2142.46 2365.33,548.08 "/>
    </g>
   </g>
   <path class="fil6" d="M850.17 1863.13l-19.8 -57.23 93.32 -32.28c12.79,-4.43 21.75,-10.6 26.91,-18.36 5.16,-7.76 6.1,-16.52 2.76,-26.19l-7.88 -22.77c-3.61,-10.44 -9.98,-17.38 -19.19,-20.7 -9.11,-3.35 -20.1,-2.81 -33.09,1.69l-92.75 32.08 -19.67 -56.85 91.92 -31.79c11.68,-4.04 19.9,-9.87 24.45,-17.6 4.57,-7.64 5.18,-16.47 1.73,-26.45l-6.22 -17.98c-3.02,-8.71 -8.62,-14.34 -16.75,-16.98 -8.1,-2.55 -18.1,-1.82 -29.77,2.21l-91.91 31.8 -19.74 -57.08 96.58 -33.4c32.88,-11.37 60.7,-13.17 83.6,-5.63 22.83,7.66 38.71,24.24 47.51,49.67l6.19 17.9c6.01,17.36 4.97,33.71 -3.03,48.96 -7.98,15.33 -22.14,28.23 -42.66,38.75 24.06,-5.42 44.52,-4.32 61.5,3.34 16.95,7.59 28.74,21.09 35.42,40.41l7.96 23c8.85,25.6 6.73,48.48 -6.34,68.74 -13.17,20.29 -36.16,36.06 -68.95,47.41l-102.09 35.31zm-35.87 12.41l-115.69 -334.47 71.46 -24.72 115.69 334.47 -71.46 24.72z"/>
   <path class="fil4" d="M1220.79 1738.81c-37.83,13.09 -70.41,14.16 -97.75,3.13 -27.41,-10.91 -46.84,-32.94 -58.3,-66.07l-80.76 -233.5 71.46 -24.72 81.3 235.07c4.73,13.66 12.6,22.81 23.61,27.44 10.99,4.55 24.24,4.18 39.75,-1.18 15.5,-5.36 26.25,-13.3 32.17,-23.7 5.98,-10.51 6.61,-22.59 1.89,-36.26l-81.31 -235.06 71.74 -24.82 80.76 233.5c11.46,33.13 9.69,62.49 -5.31,88.07 -14.88,25.62 -41.34,44.98 -79.26,58.09z"/>
   <g style="clip-path:url(#id2)">
    <g>
     <polygon id="_1_1" class="fil5" points="1883.67,708.86 1548.13,914.53 1548.13,2260.51 2156,2594.65 2562.77,2838.46 2656.56,2142.46 2365.33,548.08 "/>
    </g>
   </g>
   <path class="fil6" d="M1220.79 1738.81c-37.83,13.09 -70.41,14.16 -97.75,3.13 -27.41,-10.91 -46.84,-32.94 -58.3,-66.07l-80.76 -233.5 71.46 -24.72 81.3 235.07c4.73,13.66 12.6,22.81 23.61,27.44 10.99,4.55 24.24,4.18 39.75,-1.18 15.5,-5.36 26.25,-13.3 32.17,-23.7 5.98,-10.51 6.61,-22.59 1.89,-36.26l-81.31 -235.06 71.74 -24.82 80.76 233.5c11.46,33.13 9.69,62.49 -5.31,88.07 -14.88,25.62 -41.34,44.98 -79.26,58.09z"/>
   <path class="fil4" d="M1439.66 1659.24l-20.24 -57.61 73.33 -25.36c16.72,-5.78 28.49,-14.07 35.27,-24.68 6.67,-10.66 7.66,-22.61 2.94,-35.65l-46.71 -135.05c-4.43,-13.41 -12.56,-22.11 -24.34,-26.21 -11.86,-4.07 -26.19,-3.16 -42.91,2.62l-73.04 25.26 -20.27 -57.69 75.76 -26.2c39.42,-13.63 72.83,-15.61 100.27,-6.11 27.38,9.6 46.4,29.83 57.05,60.61l48.3 139.68c6.85,19.78 8.12,38.59 3.77,56.54 -4.29,17.83 -14.3,33.96 -29.93,48.33 -15.75,14.32 -37.06,26.18 -64.06,35.52l-75.2 26.01zm-41.66 14.41l-20 -57.85 71.46 -24.72 20.01 57.85 -71.47 24.72zm-47.82 -138.26l-67.87 -196.21 71.47 -24.72 67.86 196.21 -71.46 24.72z"/>
   <g style="clip-path:url(#id3)">
    <g>
     <polygon id="_1_2" class="fil5" points="1883.67,708.86 1548.13,914.53 1548.13,2260.51 2156,2594.65 2562.77,2838.46 2656.56,2142.46 2365.33,548.08 "/>
    </g>
   </g>
   <path class="fil6" d="M1439.66 1659.24l-20.24 -57.61 73.33 -25.36c16.72,-5.78 28.49,-14.07 35.27,-24.68 6.67,-10.66 7.66,-22.61 2.94,-35.65l-46.71 -135.05c-4.43,-13.41 -12.56,-22.11 -24.34,-26.21 -11.86,-4.07 -26.19,-3.16 -42.91,2.62l-73.04 25.26 -20.27 -57.69 75.76 -26.2c39.42,-13.63 72.83,-15.61 100.27,-6.11 27.38,9.6 46.4,29.83 57.05,60.61l48.3 139.68c6.85,19.78 8.12,38.59 3.77,56.54 -4.29,17.83 -14.3,33.96 -29.93,48.33 -15.75,14.32 -37.06,26.18 -64.06,35.52l-75.2 26.01zm-41.66 14.41l-20 -57.85 71.46 -24.72 20.01 57.85 -71.47 24.72zm-47.82 -138.26l-67.87 -196.21 71.47 -24.72 67.86 196.21 -71.46 24.72z"/>
   <path class="fil4" d="M1802.82 1537.49c-22.41,7.75 -43.1,11.74 -62.03,12.06 -18.83,0.27 -35.73,-3.21 -50.67,-10.43 -14.82,-7.17 -27.42,-18.2 -37.86,-32.96l0 0 57.98 -47.66 0 0c10,11.66 21.46,19.12 34.41,22.38 12.95,3.26 27.03,2.26 42.16,-2.97 15.69,-5.44 26.92,-12.57 33.67,-21.5 6.68,-8.81 8.27,-18.41 4.65,-28.86l-5.18 -15c-2.85,-8.25 -8.03,-13.84 -15.44,-16.82 -7.47,-2.86 -16.52,-4.22 -27.1,-3.98 -10.69,0.26 -22.05,0.94 -34.12,2.04 -13.29,1.17 -26.84,1.9 -40.74,2.23 -13.81,0.29 -27.18,-0.88 -39.88,-3.7 -12.69,-2.81 -24.08,-8.54 -34.28,-17.15 -10.07,-8.55 -18.08,-21.43 -23.98,-38.47l-3.01 -8.72c-10.13,-29.29 -7.31,-55.58 8.43,-79.04 15.85,-23.41 43.25,-41.86 82.29,-55.36 29.71,-10.27 56.24,-12.77 79.45,-7.35 23.18,5.34 42.45,18.72 57.76,39.98l0 0 -54.55 46.99 0 0c-9.49,-11.13 -19.96,-18.41 -31.37,-21.77 -11.41,-3.34 -23.08,-2.92 -35.12,1.25 -15.32,5.3 -26.17,12.04 -32.54,20.22 -6.34,8.27 -7.87,17.15 -4.54,26.8l3.83 11.07c3.23,9.34 9.06,15.59 17.26,18.73 8.22,3.22 18.19,4.52 29.74,4.04 11.54,-0.48 23.97,-1.17 37.18,-1.96 12.92,-1.04 26.01,-1.61 39.22,-1.79 13.2,-0.25 25.73,1.21 37.77,4.26 11.94,3.07 22.72,8.84 32.12,17.28 9.47,8.33 16.95,20.6 22.51,36.69l4.95 14.29c10.07,29.13 6.96,55.52 -9.23,79.14 -16.29,23.65 -44.13,42.34 -83.74,56.03z"/>
   <g style="clip-path:url(#id4)">
    <g>
     <polygon id="_1_3" class="fil5" points="1883.67,708.86 1548.13,914.53 1548.13,2260.51 2156,2594.65 2562.77,2838.46 2656.56,2142.46 2365.33,548.08 "/>
    </g>
   </g>
   <path class="fil6" d="M1802.82 1537.49c-22.41,7.75 -43.1,11.74 -62.03,12.06 -18.83,0.27 -35.73,-3.21 -50.67,-10.43 -14.82,-7.17 -27.42,-18.2 -37.86,-32.96l0 0 57.98 -47.66 0 0c10,11.66 21.46,19.12 34.41,22.38 12.95,3.26 27.03,2.26 42.16,-2.97 15.69,-5.44 26.92,-12.57 33.67,-21.5 6.68,-8.81 8.27,-18.41 4.65,-28.86l-5.18 -15c-2.85,-8.25 -8.03,-13.84 -15.44,-16.82 -7.47,-2.86 -16.52,-4.22 -27.1,-3.98 -10.69,0.26 -22.05,0.94 -34.12,2.04 -13.29,1.17 -26.84,1.9 -40.74,2.23 -13.81,0.29 -27.18,-0.88 -39.88,-3.7 -12.69,-2.81 -24.08,-8.54 -34.28,-17.15 -10.07,-8.55 -18.08,-21.43 -23.98,-38.47l-3.01 -8.72c-10.13,-29.29 -7.31,-55.58 8.43,-79.04 15.85,-23.41 43.25,-41.86 82.29,-55.36 29.71,-10.27 56.24,-12.77 79.45,-7.35 23.18,5.34 42.45,18.72 57.76,39.98l0 0 -54.55 46.99 0 0c-9.49,-11.13 -19.96,-18.41 -31.37,-21.77 -11.41,-3.34 -23.08,-2.92 -35.12,1.25 -15.32,5.3 -26.17,12.04 -32.54,20.22 -6.34,8.27 -7.87,17.15 -4.54,26.8l3.83 11.07c3.23,9.34 9.06,15.59 17.26,18.73 8.22,3.22 18.19,4.52 29.74,4.04 11.54,-0.48 23.97,-1.17 37.18,-1.96 12.92,-1.04 26.01,-1.61 39.22,-1.79 13.2,-0.25 25.73,1.21 37.77,4.26 11.94,3.07 22.72,8.84 32.12,17.28 9.47,8.33 16.95,20.6 22.51,36.69l4.95 14.29c10.07,29.13 6.96,55.52 -9.23,79.14 -16.29,23.65 -44.13,42.34 -83.74,56.03z"/>
  </g>
  <g id="_1848390436384">
   <path class="fil7" d="M938.85 1884.8c6.85,-2.37 14.32,1.27 16.69,8.12 2.37,6.85 -1.27,14.32 -8.12,16.69 -6.85,2.37 -14.32,-1.26 -16.69,-8.12 -2.37,-6.85 1.27,-14.32 8.12,-16.69z"/>
   <path class="fil7" d="M1834.21 1575.12c6.85,-2.37 14.32,1.26 16.69,8.12 2.37,6.85 -1.27,14.32 -8.12,16.69 -6.85,2.37 -14.32,-1.27 -16.69,-8.12 -2.37,-6.85 1.26,-14.32 8.12,-16.69z"/>
  </g>
  <path class="fil1" d="M4936.13 875.07c-0.05,0.11 -0.11,0.23 -0.16,0.34l-1.06 2.18 -33.36 57.45 -1.99 2.77c-34.92,48.31 -61.85,76.12 -104.29,112.01 18.7,13.11 32.95,30.82 43.08,52.1 14.58,30.62 17.73,63.11 6.22,95.15 10.83,8.35 21.98,16.46 31.19,23.94 31.16,25.31 60.68,53.97 77.68,90.9l16.86 30.4 -3.44 21.75c-2.15,34.83 -0.65,58.19 -23.03,89.65 -39.24,55.15 -109.83,55.97 -169.97,44.83 -6.38,-1.18 -21.14,-4.15 -31.34,-4.9 -3.29,9.3 -5.91,23.47 -6.94,29.63 -8.54,51.38 -10.84,110.34 -6.65,162.17 2.17,26.83 11.16,94.46 21.34,119.4l7.23 10.15 2.35 15.52c4.24,18.29 30.57,67.14 41.26,84.12 19.51,30.97 41.2,56.5 65.6,83.65 46.2,51.43 124.38,88.41 138.83,162.35 5.94,30.37 0.57,59.88 -15.39,86.3 -7.43,12.27 -15.34,19.89 -23.41,30.7l-12.01 16.34 -73.55 27.61c-24.12,10.54 -47.35,34.29 -29.81,60.67 14.45,21.72 31.41,40.39 48.23,60.19 24.41,28.74 44.63,57.08 62.69,90.31 8.91,16.39 15.82,34.37 24.91,50.47l11.97 20.22 -2.06 15.43 19.12 106.56 -2.46 12.58c-3.59,18.3 -3.23,39.37 -6.03,58.48 -4.85,33.1 -15.04,63.66 -29.08,93.43 30.32,28.08 47.99,67.55 43.9,113.73 -6.24,70.46 -62.36,123.93 -132.59,129.31 -38.49,2.96 -112.41,-13.69 -151.54,-21.36 -47.89,-9.39 -95.7,-20.08 -143.6,-29.08 -185.71,-34.94 -371.41,-69.87 -557.12,-104.8 -144.04,-27.09 -288.36,-52.89 -432.45,-79.84 -90.6,-16.94 -181.22,-33.98 -271.65,-51.87 -31,-6.13 -62.04,-12.32 -92.91,-19.04 -17.08,-3.71 -42.51,-8.47 -57.79,-16.5 -61.68,-32.44 -92.43,-102.44 -71.36,-169.26 13.56,-42.98 43.85,-72.35 81.37,-87.17 -2.34,-33.54 -0.53,-66.26 7.37,-99.57 4.3,-18.16 12.58,-38.35 15.38,-56.11l2.04 -12.84 6.61 -11.21c16.61,-28.12 34.42,-56.32 52.35,-83.77l5.39 -14.67 16.14 -11.84c13.27,-10.87 25.15,-25.49 39.36,-36.83 38.66,-30.85 69.35,-49.98 112.87,-73.22 14.06,-7.51 31.37,-15.74 44.06,-25.24 27.69,-20.72 15.8,-49.9 -6.03,-70.59 -7.28,-6.91 -15.9,-12.92 -23.47,-19.92 -7.41,-6.86 -12.94,-14.5 -19.72,-21.01l-20.81 -17.58 -2.68 -25.18c-5.68,-24.76 -10.78,-40 -6,-67.22 8.43,-48.06 44.15,-79.29 86.82,-98.41 33.09,-14.82 70.52,-23.75 104.61,-38.28 128.52,-54.81 216.67,-151.61 270.8,-279.64 11.79,-27.88 41.21,-110.97 42.65,-148.55l-3.5 -0.59 -6.19 -6.96c-11.56,-2.87 -25.99,-4.93 -36.25,-7.1 -26.8,-5.66 -55.71,-13.15 -78.04,-29.63 -29.51,-21.79 -48.57,-52.11 -52.48,-89.06 -4.6,-43.54 8.43,-60.28 26.32,-94.42l10.13 -19.35 17.68 -8.96c28,-25.8 59.31,-36.29 95.35,-48.5 11.32,-3.83 25.45,-8.09 39.36,-12.71 2.97,-55.44 36.34,-103.16 98,-119.53 -0.23,-0.38 -0.45,-0.75 -0.66,-1.11 -11,-18.57 -20.69,-37.2 -28.97,-57.15 -17.08,-41.14 -26.96,-73.88 -31.39,-117.93l-1.51 -15.06 0.83 -2.39c-2.16,-44.53 -0.84,-91.84 2.04,-135.55 3.65,-55.34 24.41,-113.1 48.56,-162.6l2.29 -4.67 2.96 -4.28c16.57,-23.92 33.4,-54.5 51.6,-76.22 21.66,-25.85 46.24,-52.41 72.81,-73.1 57.29,-44.62 111.5,-76.56 182.27,-96.33 163.36,-45.66 322.57,-14.89 457.87,87.22 81.81,61.74 147.37,157.92 176.28,256.02 7.88,26.76 12.31,48.09 15.59,73.34l3.31 66.8 -3.1 89.94 -1.33 6.06c-4.22,19.28 -8.06,38.41 -13.63,57.38 -3.37,11.43 -11.85,29.02 -13.78,39.55l-2.47 27.21 -14.49 12.39z"/>
  <path class="fil8" d="M4917.69 610.85l-3.89 113.09c-3.9,17.78 -7.22,34.96 -12.45,52.71 -5.07,17.24 -14.71,35.45 -16.23,52.19 -0.61,0.52 -1.24,0.68 -1.63,1.79l-3.06 3.8c-0.39,0.58 -0.94,1.41 -1.35,2.07 -0.12,0.19 -4.16,8.28 -4.51,9.02l-30.36 52.29c-38.44,53.19 -57.07,70.23 -104.5,109.45 -11.9,9.84 -19.39,9.49 -23.66,30.75 -3.02,15 -7.54,34.85 -6.47,48.63l4.19 2.8c17.67,8.06 45.71,5.66 62.94,41.84 16.73,35.15 -1.86,54.6 -17.89,78.03 2.44,4.12 1.81,3.78 6.68,9 32.65,35.01 104.28,72.1 126.82,124.18l6.87 12.39c-3.87,24.48 17.06,100.57 -112.89,76.53 -67,-12.4 -102.21,-14.75 -118.07,80.68 -9.48,57.02 -11.73,124.63 -7.35,178.86 2.8,34.68 16.96,129.92 31.59,150.43 3.99,26.11 39.57,91.68 50.88,109.64 22.32,35.44 43.31,60.32 72.59,92.9 42.94,47.78 114.3,87.35 122.6,129.81 6.23,31.91 -15.91,48.65 -26.78,63.43l-56.01 21.03c-72.9,30.69 -99.77,103.91 -61.22,161.87 35.71,53.7 69.79,75.42 107.79,145.32 4.44,8.15 20.83,43.68 26.05,52.49l-0.34 2.55 18.75 104.46c-7.6,38.8 2.62,75.22 -37.75,151.68 -6.95,13.16 -17.7,28.08 -22.46,39.81 101.83,24.98 80.09,142.22 -1.8,148.51 -34.42,2.65 -228.3,-40.26 -277.29,-49.47 -185.71,-34.93 -371.42,-69.86 -557.13,-104.79 -64.52,-12.14 -810.31,-147.28 -835.63,-160.59 -72.22,-37.97 -47.25,-151.46 54.34,-137.91 0.08,-12.18 -4.66,-30.88 -6.33,-45.22 -10.15,-87.23 14.12,-117.98 20.43,-157.87 19.59,-33.17 54.94,-87.61 54.94,-87.61l0.98 -2.68c9.09,-6.67 32.12,-31 41.1,-38.16 39.6,-31.6 56.27,-41.7 102.45,-66.37 18.09,-9.66 38.03,-19.74 52.81,-30.8 61.21,-45.81 54.74,-122.98 0.03,-174.83 -7.83,-7.43 -15.45,-12.5 -24.08,-20.48 -9.4,-8.7 -13.78,-16.06 -21.9,-22.93 -2.09,-19.63 -30.07,-62.17 41.05,-94.03 18.52,-8.29 65.53,-21.61 103.47,-37.79 141.95,-60.53 244.52,-168.28 306.92,-315.87 18.2,-43.07 55.49,-148.84 46.39,-197.64 -3.34,-17.86 -15.3,-38.14 -35.13,-41.46 -11.43,-12.84 -88.63,-15.83 -114.94,-35.25 -13.31,-9.82 -23.18,-22.79 -25.14,-41.29 -2.65,-25.11 9.5,-37.6 18.91,-55.56 23.9,-12.13 2.6,-16.05 84.58,-43.82 20.13,-6.82 79.02,-25.74 91.88,-34.49 -16.39,-45.9 -2.17,-85.81 42.8,-96.87 16.5,-4.06 23.51,-0.04 35.59,0.95 16.77,1.37 14.87,2.11 23.86,-48.13 4.71,-26.33 -21.37,-45.28 -45.25,-102.83 -20.6,-49.64 -23.74,-71.05 -26.5,-98.58l0.34 -0.94c0,0 -3.99,-61.75 1.22,-140.74 3.33,-50.46 25.92,-104.6 41.79,-137.14 12.93,-18.65 41.19,-63.36 47.82,-71.26 19.3,-23.04 41.88,-47.09 62.42,-63.09 44.68,-34.79 90.8,-65.47 158.69,-84.44 142.86,-39.93 280.05,-13.33 398.36,75.95 71.37,53.87 127.62,138.4 151.9,220.81 20.81,70.6 10.8,78.99 18.92,87.6l-1.75 1.55z"/>
  <path class="fil1" d="M4152.64 739.89c13.32,34.77 26.62,53.45 53.79,79.29 20.15,19.16 67.5,45.68 102.14,47.86 -24.47,-39.86 -52.61,-49.25 -78.27,-143.25 -16.28,-59.62 -14,-134.45 10.27,-200.51 39.68,-107.99 144.81,-200.77 255.5,-209.73l-4.49 -2.76c-22.93,-9.43 -84.59,-0.38 -105.93,4.66 -32.25,7.63 -71.81,23.86 -92.71,38.06 -50.98,34.69 -97.89,77.47 -129.69,153.39 -31.68,75.58 -35.74,167.34 -10.61,232.98z"/>
  <path class="fil1" d="M4064.43 1169.85c-13,-5.56 -23.03,-10.11 -34.75,-18.79 -10.13,-7.5 -11.8,-8.83 -15.29,-20.65 -0.25,-0.89 -0.86,-3.6 -1.12,-4.48 -2.48,-8.17 2.19,0.35 -2.44,-6.83 -28.68,19.33 -96.36,29.46 -103.67,65.86 30.97,22.39 151.69,39.16 201.55,48.77 198.09,38.17 384.92,79.92 583.47,111.75 -28.92,-32.53 -298.03,-84.71 -360.26,-99.21 -75.88,-17.68 -196.64,-46.12 -267.48,-76.41z"/>
  <g style="clip-path:url(#id5)">
   <g id="_1848390438832">
    <polygon id="_1_4" class="fil2" points="3752.4,701.88 4014.89,876.39 3992.32,2325.58 3079.8,2878.25 2665.6,1812.2 3498.23,473.58 "/>
   </g>
  </g>
  <path class="fil3" d="M4064.43 1169.85c-13,-5.56 -23.03,-10.11 -34.75,-18.79 -10.13,-7.5 -11.8,-8.83 -15.29,-20.65 -0.25,-0.89 -0.86,-3.6 -1.12,-4.48 -2.48,-8.17 2.19,0.35 -2.44,-6.83 -28.68,19.33 -96.36,29.46 -103.67,65.86 30.97,22.39 151.69,39.16 201.55,48.77 198.09,38.17 384.92,79.92 583.47,111.75 -28.92,-32.53 -298.03,-84.71 -360.26,-99.21 -75.88,-17.68 -196.64,-46.12 -267.48,-76.41z"/>
  <path class="fil1" d="M4062.71 1306.16c-36.2,163.29 -68.37,266.26 -153.32,393.45 -50.14,75.06 -119.63,141.16 -191.94,182.56 -16.13,9.23 -64.76,33.89 -70.93,55.66 -9.01,31.78 54.99,42.31 83.29,48.92 97.08,22.64 263.01,50.31 365.24,69.54 80.75,15.19 161.49,30.38 242.23,45.57 79.81,15.01 165.94,34.55 245.56,45.79 -47.66,-60.36 -371.36,-140.63 -474.81,-160.34 -49.69,-9.46 -129.04,-23.69 -165.61,-50.98 -47.77,-35.63 -10.34,-91.09 12.37,-139.23 43.47,-92.15 142.18,-371.05 116.95,-474.01l-9.03 -16.94z"/>
  <g style="clip-path:url(#id6)">
   <g id="_1848390439792">
    <polygon id="_1_5" class="fil9" points="3752.4,701.88 4014.89,876.39 3992.32,2325.58 3079.8,2878.25 2665.6,1812.2 3498.23,473.58 "/>
   </g>
  </g>
  <path class="fil3" d="M4062.71 1306.16c-36.2,163.29 -68.37,266.26 -153.32,393.45 -50.14,75.06 -119.63,141.16 -191.94,182.56 -16.13,9.23 -64.76,33.89 -70.93,55.66 -9.01,31.78 54.99,42.31 83.29,48.92 97.08,22.64 263.01,50.31 365.24,69.54 80.75,15.19 161.49,30.38 242.23,45.57 79.81,15.01 165.94,34.55 245.56,45.79 -47.66,-60.36 -371.36,-140.63 -474.81,-160.34 -49.69,-9.46 -129.04,-23.69 -165.61,-50.98 -47.77,-35.63 -10.34,-91.09 12.37,-139.23 43.47,-92.15 142.18,-371.05 116.95,-474.01l-9.03 -16.94z"/>
  <path class="fil1" d="M3597.68 2230.37c-59.23,42.65 -177.05,107.61 -220.72,200.25 -30.45,64.61 -18.84,125.02 16.73,160.38 38.9,38.67 107.43,49.61 169.19,61.22 136.24,25.63 272.81,50.56 408.89,76.88 131.74,25.49 272.38,57.58 404.97,78.65 -36.54,-28.65 -231.44,-86.55 -290.31,-102.36 -105.46,-28.32 -211.82,-54.03 -317.9,-79.14 -106.84,-25.29 -217.86,-40.51 -250.89,-127.83 -37.24,-98.44 69.83,-236.78 80.04,-268.06z"/>
  <g style="clip-path:url(#id7)">
   <g id="_1848390440512">
    <polygon id="_1_6" class="fil2" points="3752.4,701.88 4014.89,876.39 3992.32,2325.58 3079.8,2878.25 2665.6,1812.2 3498.23,473.58 "/>
   </g>
  </g>
  <path class="fil3" d="M3597.68 2230.37c-59.23,42.65 -177.05,107.61 -220.72,200.25 -30.45,64.61 -18.84,125.02 16.73,160.38 38.9,38.67 107.43,49.61 169.19,61.22 136.24,25.63 272.81,50.56 408.89,76.88 131.74,25.49 272.38,57.58 404.97,78.65 -36.54,-28.65 -231.44,-86.55 -290.31,-102.36 -105.46,-28.32 -211.82,-54.03 -317.9,-79.14 -106.84,-25.29 -217.86,-40.51 -250.89,-127.83 -37.24,-98.44 69.83,-236.78 80.04,-268.06z"/>
  <polygon class="fil0" points="1609.23,920.33 1609.23,2222.73 2747.29,2904.74 3893.55,2243.27 3905.88,924.44 2755.5,238.31 "/>
  <g style="clip-path:url(#id8)">
   <g id="_1848390443296">
    <rect class="fil10" x="-2334.54" y="-1790.19" width="483.7" height="483.7"/>
    <path class="fil11" d="M-1416.52 -1790.19c161.24,0 322.47,0 483.7,0 0,161.24 0,322.47 0,483.7 -161.23,0 -322.46,0 -483.7,0 0,-161.23 0,-322.46 0,-483.7z"/>
    <path class="fil12" d="M-498.51 -1790.19c161.24,0 322.47,0 483.71,0 0,161.24 0,322.47 0,483.7 -161.24,0 -322.47,0 -483.71,0 0,-161.23 0,-322.46 0,-483.7z"/>
    <path class="fil13" d="M419.5 -1790.19c161.24,0 322.47,0 483.71,0 0,161.24 0,322.47 0,483.7 -161.24,0 -322.47,0 -483.71,0 0,-161.23 0,-322.46 0,-483.7z"/>
    <rect class="fil14" x="1337.52" y="-1790.19" width="483.7" height="483.7"/>
   </g>
  </g>
  <polygon class="fil6" points="1609.23,920.33 1609.23,2222.73 2747.29,2904.74 3893.55,2243.27 3905.88,924.44 2755.5,238.31 "/>
  <g id="_1848390441376">
   <path class="fil0" d="M400.28 4870.72l0 -281.59 459.07 0c62.96,0 111.67,-13.52 146.14,-39.78 34.46,-26.27 51.93,-63.35 51.93,-110.86l0 -112.02c0,-51.37 -17.47,-91.54 -52.85,-120.13 -34.92,-28.58 -84.09,-42.87 -147.97,-42.87l-456.31 0 0 -279.65 452.18 0c57.44,0 102.47,-13.13 134.19,-40.16 31.71,-26.66 47.79,-64.51 47.79,-113.56l0 -88.45c0,-42.88 -16.08,-76.09 -47.79,-100.04 -31.71,-23.56 -76.74,-35.54 -134.19,-35.54l-452.18 0 0 -280.8 475.16 0c161.76,0 286.75,34.38 375.9,102.35 88.69,68.37 133.26,165.32 133.26,290.46l0 88.07c0,85.36 -29.41,155.66 -87.76,210.51 -58.37,55.24 -140.17,90.38 -246.32,105.45 113.96,12.75 202.2,48.67 265.15,108.16 62.96,59.09 94.21,136.34 94.21,231.37l0 113.18c0,125.92 -44.11,223.25 -132.35,292.39 -88.7,69.15 -213.68,103.52 -374.98,103.52l-502.27 0zm-176.47 0l0 -1645.45 351.55 0 0 1645.45 -351.55 0z"/>
   <path class="fil0" d="M2217.74 4887.72c-186.12,0 -330.87,-44.81 -434.27,-134.81 -103.85,-89.61 -155.78,-215.92 -155.78,-378.92l0 -1148.72 351.54 0 0 1156.45c0,67.21 20.68,119.35 62.03,156.43 41.37,36.69 100.18,55.24 176.47,55.24 76.27,0 135.55,-18.54 177.37,-55.24 42.28,-37.08 63.42,-89.22 63.42,-156.43l0 -1156.45 352.92 0 0 1148.72c0,163 -52.39,289.31 -157.16,378.92 -104.31,90 -249.99,134.81 -436.55,134.81z"/>
   <path class="fil0" d="M3300.4 4870.72l-1.37 -283.9 360.73 0c82.25,0 146.59,-18.55 192.55,-54.85 45.5,-36.7 68.01,-87.69 67.1,-152.19l0 -664.37c0.92,-65.66 -21.6,-116.26 -67.1,-152.18 -45.95,-35.92 -110.29,-53.69 -192.55,-53.69l-359.36 0 -1.37 -284.28 372.67 0c193.92,0 343.73,42.1 449.89,125.52 105.7,83.82 158.54,201.63 158.54,353.04l0 687.15c0,97.34 -22.98,181.93 -69.38,254.16 -45.96,71.85 -114.43,127.46 -204.95,166.86 -90.99,39.01 -202.66,58.71 -335.47,58.71l-369.93 0zm-204.95 0l0 -284.58 351.55 0 0 284.58 -351.55 0zm0 -680.18l0 -965.27 351.55 0 0 965.27 -351.55 0z"/>
   <path class="fil0" d="M5081.1 4887.72c-110.29,0 -207.25,-13.9 -290.88,-41.33 -83.18,-27.42 -152.1,-68.37 -206.79,-122.83 -54.23,-54.08 -92.83,-121.67 -116.26,-202.4l0 0 327.18 -121.28 0 0c26.19,66.43 65.26,116.64 117.19,150.63 51.92,34 115.34,50.99 189.78,50.99 77.2,0 137.4,-14.29 180.6,-43.26 42.73,-28.58 64.33,-68.37 64.33,-119.74l0 -73.78c0,-40.56 -14.25,-73 -42.28,-97.34 -28.49,-23.95 -66.16,-43.65 -113.04,-58.71 -47.34,-15.06 -98.34,-29.35 -153.03,-42.87 -60.2,-15.06 -120.85,-32.44 -182.43,-52.15 -61.12,-19.7 -118.11,-45.19 -169.57,-76.86 -51.47,-31.67 -92.83,-74.16 -124.53,-127.46 -31.25,-52.92 -46.88,-121.68 -46.88,-205.49l0 -42.88c0,-144.06 52.39,-255.32 157.16,-334.49 105.24,-78.8 253.66,-118.2 445.75,-118.2 146.13,0 266.52,29.36 360.28,88.46 93.74,58.7 158.08,146.77 193.01,263.42l0 0 -311.11 123.6 0 0c-24.82,-63.34 -59.75,-111.24 -104.77,-143.3 -45.04,-32.06 -96.97,-47.9 -156.25,-47.9 -75.36,0 -133.27,13.14 -173.71,39.41 -40.43,26.65 -60.65,63.34 -60.65,110.85l0 54.46c0,45.97 16.09,82.28 47.34,108.55 31.24,26.65 73.06,47.51 124.53,62.96 51.46,15.45 107.07,31.28 166.35,47.89 58.36,15.06 116.71,32.44 175.08,51.77 58.36,18.92 111.21,44.41 159.45,76.09 47.79,31.67 86.39,73.39 114.89,124.76 28.95,50.99 43.2,116.27 43.2,195.45l0 70.3c0,143.3 -53.76,254.54 -160.84,333.73 -107.53,79.18 -258.26,118.96 -453.1,118.96z"/>
  </g>
  <polygon class="fil8" points="2151.21,2027.43 3389.27,2032.03 2754.13,2756.9 "/>
  <polygon class="fil8" points="1749.59,2189.94 2065.66,2034.94 2598.68,2681.34 "/>
  <g style="clip-path:url(#id9)">
   <g id="_1848390446416">
    <g>
     <path id="_1_7" class="fil15" d="M2072.07 2410.31l181.92 -79.79 27.42 35.43 -144.13 63.21 28.71 20.39 -34.94 15.32 -33.43 -21.55 -25.56 -33.01zm109.83 -176.18c13.17,17.02 18.99,31.86 17.42,44.47 -1.57,12.68 -9.82,22.26 -24.72,28.8l-90.33 39.61c-15.03,6.59 -30.22,7.22 -45.67,1.9 -15.37,-5.31 -29.61,-16.39 -42.64,-33.23 -13.1,-16.92 -18.92,-31.75 -17.54,-44.47 1.4,-12.67 9.67,-22.31 24.78,-28.95l90.33 -39.61c14.99,-6.58 30.21,-7.22 45.55,-1.97 15.34,5.26 29.65,16.43 42.82,33.44zm-31.77 13.94c-4.49,-5.8 -9.63,-9.26 -15.41,-10.45 -5.78,-1.18 -11.77,-0.35 -18.14,2.44l-81.57 35.77c-6.4,2.81 -10.36,6.34 -11.79,10.7 -1.43,4.35 0.08,9.41 4.56,15.2 4.34,5.61 9.4,9.05 15.15,10.26 5.77,1.25 11.85,0.45 18.25,-2.36l81.57 -35.77c6.37,-2.79 10.24,-6.35 11.75,-10.69 1.48,-4.37 0.05,-9.39 -4.37,-15.1z"/>
    </g>
   </g>
  </g>
  <polygon class="fil3" points="1749.59,2189.94 2065.66,2034.94 2598.68,2681.34 "/>
  <polygon class="fil8" points="3477.56,2041.14 3754.72,2179.49 2929.15,2664.76 "/>
  <g style="clip-path:url(#id10)">
   <g id="_1848390445072">
    <g>
     <path id="_1_8" class="fil15" d="M3515.52 2425.75l-202.47 -194.81 15.15 -28.06 160.4 154.34 -0.21 -29.83 38.87 37.4 2.37 34.8 -14.12 26.15zm-243.27 -124.73c7.02,-13 17.21,-18.49 30.51,-16.52 13.31,1.98 28.66,11.28 46,27.97l13.26 12.76c9.74,9.38 18.37,19.07 25.96,29.1 7.6,10 15,20.79 22.3,32.39l67.91 108.14 -16.68 30.88 -82.6 -131.09 9.29 -3.16c6.82,13.31 7.93,24.08 3.45,32.38 -6.09,11.27 -15.39,15.67 -27.92,13.2 -12.58,-2.51 -27.22,-11.79 -43.9,-27.84l-14.92 -14.36c-17.35,-16.69 -28.91,-33.28 -34.64,-49.67 -5.74,-16.4 -5.07,-31.15 1.97,-44.19zm34.94 33.61c-2.32,4.29 -2.52,9.07 -0.66,14.32 1.93,5.26 5.88,10.79 11.92,16.59l14.06 13.53c6.42,6.17 11.92,9.74 16.51,10.75 4.61,0.97 8.08,-0.66 10.4,-4.95 2.23,-4.11 2.24,-8.96 0.08,-14.59 -2.22,-5.65 -6.48,-11.54 -12.9,-17.72l-14.07 -13.53c-6.03,-5.8 -11.23,-9.02 -15.52,-9.64 -4.31,-0.58 -7.6,1.11 -9.82,5.23z"/>
    </g>
   </g>
  </g>
  <polygon class="fil3" points="3477.56,2041.14 3754.72,2179.49 2929.15,2664.76 "/>
  <polygon class="fil8" points="3513.91,1977.87 3794.32,2119.03 3806.03,1172.83 "/>
  <g style="clip-path:url(#id11)">
   <g id="_1848390445504">
    <g>
     <path id="_1_9" class="fil15" d="M3616.59 1747.44c5.55,-17.36 14.76,-29.23 27.57,-35.62 12.8,-6.39 28.18,-6.77 46.08,-1.04l13.68 4.38c10.06,3.22 19.09,7.46 27.14,12.69 8.07,5.18 16.01,11.29 23.95,18.26l73.74 65.08 -13.21 41.25 -89.65 -78.72 8.56 -8.99c7.61,8.98 9.59,19.02 6.04,30.1 -4.82,15.06 -13.28,25.28 -25.4,30.7 -12.16,5.4 -26.86,5.35 -44.07,-0.16l-15.41 -4.92c-17.89,-5.73 -30.29,-15 -37.14,-27.73 -6.85,-12.74 -7.47,-27.86 -1.89,-45.27zm36.05 11.54c-1.84,5.73 -1.61,10.62 0.6,14.68 2.29,4.02 6.5,7.05 12.74,9.05l14.52 4.65c6.62,2.12 12.16,2.21 16.6,0.34 4.46,-1.92 7.62,-5.73 9.46,-11.47 1.76,-5.49 1.36,-10.32 -1.17,-14.59 -2.6,-4.23 -7.14,-7.43 -13.77,-9.54l-14.52 -4.65c-6.22,-2 -11.44,-1.93 -15.57,0.16 -4.14,2.13 -7.13,5.88 -8.89,11.37z"/>
    </g>
    <circle class="fil16" cx="3606.12" cy="1839.83" r="16.91"/>
   </g>
  </g>
  <polygon class="fil3" points="3513.91,1977.87 3794.32,2119.03 3806.03,1172.83 "/>
  <polygon class="fil8" points="2840.84,837.56 3461.31,1908.62 3794.41,988.83 "/>
  <g style="clip-path:url(#id12)">
   <g id="_1848390449104">
    <g>
     <path id="_1_10" class="fil15" d="M3449.54 1138.8l-188.56 112.13 -20.11 -33.82 149.4 -88.83 -23.98 -17.56 36.21 -21.53 28.31 18.1 18.74 31.52zm-136.71 133.54l31.33 -18.45 157.09 -27.8 21.98 36.95 -154.58 28.41 44.73 75.02 -32.93 19.57 -67.62 -113.71zm11.21 84.95l107.52 -63.93 19.95 33.25 -107.66 64.01 -19.82 -33.33z"/>
    </g>
   </g>
  </g>
  <polygon class="fil3" points="2840.84,837.56 3461.31,1908.62 3794.41,988.83 "/>
  <polygon class="fil8" points="2806.75,756.3 3663.7,892.37 2795.36,372.48 "/>
  <g style="clip-path:url(#id13)">
   <g id="_1848390449968">
    <g>
     <path id="_1_11" class="fil15" d="M3129.9 719.34l-38.56 -26.8 -117.17 -110 31.7 0 116.53 108.63 64.26 -0.08 40.76 28.24 -97.52 0zm93.97 24.9l-133.05 -92.21 28.42 -0.11 133.21 92.32 -28.58 0z"/>
    </g>
   </g>
  </g>
  <polygon class="fil3" points="2806.75,756.3 3663.7,892.37 2795.36,372.48 "/>
  <polygon class="fil8" points="2722.89,374.3 2734.35,756.62 1846.72,877.22 "/>
  <g style="clip-path:url(#id14)">
   <g id="_1848390449920">
    <g>
     <path id="_1_12" class="fil15" d="M2493.32 582.43l-162.97 161.7 -29 0 129.11 -128.1 -28.8 8.58 31.29 -31.05 33.34 -11.12 27.03 0zm-85.97 163.37c-9.11,0 -15.37,-1.63 -18.72,-4.9 -3.31,-3.26 -3.77,-7.9 -1.34,-13.89 2.44,-6 7.89,-13.17 16.26,-21.49l14.24 -14.12c7,-6.95 15.43,-13.4 25.28,-19.28 9.8,-5.89 19.67,-10.4 29.56,-13.52 -3.33,-2.58 -4.32,-6.26 -2.99,-11.05 1.33,-4.78 4.86,-10.01 10.53,-15.63l13.58 -13.47c11.71,-11.62 24.77,-20.8 39.09,-27.56 14.32,-6.75 27.94,-10.13 40.85,-10.13 12.9,0 19.71,3.38 20.41,10.13 0.71,6.76 -4.8,15.94 -16.5,27.56l-13.58 13.47c-5.74,5.7 -12.76,10.93 -21.11,15.68 -8.35,4.75 -16.89,8.43 -25.56,11.01 3.77,3.12 4.65,7.63 2.67,13.52 -1.95,5.88 -6.48,12.33 -13.47,19.28l-14.24 14.12c-8.38,8.32 -17.43,15.49 -27.12,21.49 -9.65,5.99 -19.44,10.63 -29.34,13.89 -9.9,3.27 -19.4,4.9 -28.5,4.9zm28.23 -28.01c4.75,0 9.88,-1.34 15.45,-4.02 5.52,-2.66 10.6,-6.27 15.15,-10.79l14.34 -14.23c4.4,-4.37 6.52,-7.85 6.27,-10.4 -0.28,-2.55 -2.77,-3.83 -7.59,-3.83 -4.75,0 -9.84,1.29 -15.26,3.83 -5.44,2.55 -10.41,6.07 -14.89,10.52l-14.46 14.34c-4.48,4.44 -6.63,7.97 -6.49,10.64 0.17,2.61 2.65,3.95 7.48,3.95zm71.73 -71.17c4.14,0 8.78,-1.34 13.81,-3.95 5.11,-2.66 9.89,-6.23 14.43,-10.74l10.1 -10.02c4.18,-4.14 6.33,-7.43 6.31,-9.83 0.02,-2.39 -2.07,-3.6 -6.2,-3.6 -4.1,0 -8.59,1.21 -13.51,3.64 -4.99,2.47 -9.57,5.77 -13.74,9.91l-10.22 10.13c-4.55,4.52 -6.86,8.05 -7.03,10.63 -0.1,2.55 1.9,3.84 6.04,3.84z"/>
    </g>
   </g>
  </g>
  <polygon class="fil3" points="2722.89,374.3 2734.35,756.62 1846.72,877.22 "/>
  <polygon class="fil8" points="1714.45,969.05 2706.11,833.47 2079.5,1908.04 "/>
  <g style="clip-path:url(#id15)">
   <g id="_1848390450784">
    <g>
     <path id="_1_13" class="fil15" d="M2204.93 1310.83l-30.96 -17.87 -46.28 -95.76c-4.5,-8.37 -9.06,-15.4 -13.84,-21.02 -4.76,-5.66 -9.43,-9.84 -14.02,-12.49l-1.48 -0.85c-4.86,-2.81 -9.26,-3.63 -13.2,-2.57 -3.97,1.1 -7.38,4.12 -10.23,9.07 -2.94,5.09 -3.51,9.99 -1.83,14.7 1.65,4.76 5.6,9.25 11.93,13.43l3.52 2.03 -20.08 34.79 -3.53 -2.03c-16.89,-10.59 -27.28,-22.88 -31.19,-36.92 -3.96,-14.05 -1.38,-28.92 7.69,-44.62 9.5,-16.45 20.8,-26.64 33.77,-30.57 13.04,-3.95 27.33,-1.4 42.94,7.61l1.29 0.75c7.76,4.48 15.14,10.75 22.19,18.94 7.03,8.11 13.49,17.72 19.4,28.8l35.78 72.04 32.75 -56.73 33.18 19.16 -57.81 100.12z"/>
    </g>
   </g>
  </g>
  <polygon class="fil3" points="1714.45,969.05 2706.11,833.47 2079.5,1908.04 "/>
  <polygon class="fil8" points="2026.93,1968.69 1703.25,1137.64 1703.87,2128.66 "/>
  <g style="clip-path:url(#id16)">
   <g id="_1848390450928">
    <g>
     <path id="_1_14" class="fil15" d="M1696.74 1853.24l202.07 -85.39 15.32 36.24 -160.1 67.66 21.36 20.66 -38.8 16.4 -25.58 -21.78 -14.27 -33.78zm184.37 -127.29l-32.92 13.91 -104.3 -20.84c-9.39,-1.45 -17.75,-2.05 -25.12,-1.62 -7.38,0.38 -13.53,1.58 -18.42,3.65l-1.56 0.66c-5.17,2.18 -8.48,5.2 -10.01,8.98 -1.51,3.82 -1.16,8.37 1.07,13.63 2.29,5.41 5.86,8.82 10.63,10.32 4.8,1.55 10.75,1.11 17.91,-1.41l3.75 -1.59 15.63 37.01 -3.75 1.58c-18.64,7.1 -34.71,7.96 -48.26,2.62 -13.6,-5.33 -23.91,-16.35 -30.96,-33.05 -7.4,-17.5 -8.71,-32.65 -4.02,-45.37 4.71,-12.79 15.37,-22.65 31.96,-29.66l1.38 -0.58c8.25,-3.49 17.71,-5.59 28.49,-6.28 10.71,-0.72 22.27,-0.08 34.68,1.89l79.03 14.91 -25.5 -60.34 35.29 -14.91 45 106.5z"/>
    </g>
   </g>
  </g>
  <polygon class="fil3" points="2026.93,1968.69 1703.25,1137.64 1703.87,2128.66 "/>
  <polygon class="fil8" points="2126.25,1959.5 3421.8,1974.47 2769.07,858.4 "/>
  <g style="clip-path:url(#id17)">
   <g id="_1848390451936">
    <g>
     <path id="_1_15" class="fil15" d="M2467.56 1749.22l0 -33.44 54.51 0c7.48,0 13.26,-1.6 17.35,-4.72 4.09,-3.12 6.17,-7.52 6.17,-13.16l0 -13.3c0,-6.1 -2.07,-10.87 -6.28,-14.26 -4.14,-3.39 -9.98,-5.09 -17.57,-5.09l-54.18 0 0 -33.2 53.69 0c6.82,0 12.17,-1.56 15.94,-4.77 3.76,-3.17 5.67,-7.66 5.67,-13.48l0 -10.5c0,-5.09 -1.91,-9.04 -5.67,-11.88 -3.76,-2.8 -9.11,-4.22 -15.94,-4.22l-53.69 0 0 -33.34 56.42 0c19.2,0 34.05,4.07 44.63,12.15 10.53,8.12 15.83,19.63 15.83,34.49l0 10.45c0,10.14 -3.49,18.49 -10.43,25 -6.93,6.55 -16.64,10.73 -29.24,12.52 13.53,1.51 24.01,5.78 31.48,12.84 7.48,7.01 11.19,16.19 11.19,27.47l0 13.44c0,14.94 -5.24,26.5 -15.72,34.71 -10.53,8.21 -25.37,12.29 -44.52,12.29l-59.64 0zm-20.95 0l0 -195.37 41.74 0 0 195.37 -41.74 0z"/>
     <path class="fil15" d="M2683.36 1751.24c-22.09,0 -39.28,-5.33 -51.56,-16.01 -12.32,-10.64 -18.49,-25.64 -18.49,-44.99l0 -136.39 41.74 0 0 137.31c0,7.98 2.46,14.17 7.37,18.57 4.91,4.36 11.9,6.56 20.95,6.56 9.06,0 16.1,-2.2 21.06,-6.56 5.02,-4.4 7.54,-10.59 7.54,-18.57l0 -137.31 41.9 0 0 136.39c0,19.35 -6.22,34.35 -18.66,44.99 -12.39,10.69 -29.69,16.01 -51.84,16.01z"/>
     <path class="fil15" d="M2811.91 1749.22l-0.17 -33.7 42.84 0c9.76,0 17.41,-2.2 22.86,-6.51 5.4,-4.36 8.07,-10.42 7.96,-18.07l0 -78.89c0.11,-7.8 -2.56,-13.8 -7.96,-18.07 -5.45,-4.26 -13.1,-6.37 -22.86,-6.37l-42.67 0 -0.17 -33.75 44.26 0c23.02,0 40.81,5 53.41,14.9 12.55,9.95 18.83,23.94 18.83,41.92l0 81.59c0,11.56 -2.73,21.6 -8.24,30.18 -5.45,8.54 -13.58,15.14 -24.33,19.82 -10.81,4.63 -24.07,6.96 -39.84,6.96l-43.92 0zm-24.34 0l0 -33.79 41.74 0 0 33.79 -41.74 0zm0 -80.76l0 -114.61 41.74 0 0 114.61 -41.74 0z"/>
     <path class="fil15" d="M3023.34 1751.24c-13.1,0 -24.61,-1.65 -34.54,-4.91 -9.88,-3.25 -18.06,-8.12 -24.56,-14.58 -6.44,-6.42 -11.02,-14.44 -13.81,-24.03l0 0 38.85 -14.41 0 0c3.11,7.89 7.75,13.85 13.91,17.89 6.17,4.03 13.7,6.05 22.54,6.05 9.17,0 16.31,-1.7 21.44,-5.13 5.07,-3.39 7.64,-8.12 7.64,-14.22l0 -8.75c0,-4.82 -1.7,-8.67 -5.02,-11.56 -3.39,-2.85 -7.85,-5.18 -13.42,-6.97 -5.62,-1.79 -11.68,-3.49 -18.17,-5.09 -7.15,-1.79 -14.35,-3.86 -21.66,-6.19 -7.26,-2.34 -14.02,-5.37 -20.14,-9.12 -6.11,-3.76 -11.02,-8.81 -14.79,-15.14 -3.71,-6.28 -5.57,-14.45 -5.57,-24.4l0 -5.09c0,-17.11 6.22,-30.32 18.67,-39.72 12.49,-9.36 30.12,-14.04 52.92,-14.04 17.35,0 31.65,3.49 42.78,10.51 11.13,6.96 18.77,17.42 22.92,31.28l0 0 -36.94 14.68 0 0c-2.95,-7.53 -7.09,-13.21 -12.44,-17.02 -5.34,-3.81 -11.51,-5.69 -18.55,-5.69 -8.95,0 -15.83,1.56 -20.62,4.68 -4.81,3.17 -7.21,7.53 -7.21,13.16l0 6.47c0,5.46 1.92,9.77 5.62,12.89 3.71,3.17 8.68,5.64 14.79,7.48 6.12,1.83 12.72,3.71 19.76,5.69 6.92,1.79 13.85,3.85 20.78,6.14 6.93,2.25 13.21,5.28 18.94,9.04 5.68,3.76 10.26,8.71 13.64,14.81 3.44,6.06 5.12,13.8 5.12,23.21l0 8.34c0,17.02 -6.38,30.23 -19.09,39.63 -12.77,9.4 -30.66,14.13 -53.8,14.13z"/>
    </g>
   </g>
  </g>
  <polygon class="fil3" points="2126.25,1959.5 3421.8,1974.47 2769.07,858.4 "/>
  <path class="fil15" d="M2732.92 2438.26c-12.36,0 -23.08,-2.21 -32.09,-6.65 -8.96,-4.43 -15.91,-10.71 -20.8,-18.85 -4.89,-8.13 -7.32,-17.87 -7.32,-29.14l0 -19.16c0,-9.43 2.63,-18.18 7.93,-26.15 5.26,-7.99 12.47,-14.12 21.63,-18.34 -8.03,-3.5 -14.42,-8.49 -19.16,-14.99 -4.73,-6.49 -7.11,-13.59 -7.11,-21.22l0 -18.28c0,-15.76 5.16,-28.23 15.35,-37.38 10.2,-9.17 24.05,-13.75 41.57,-13.75 17.5,0 31.35,4.58 41.56,13.75 10.19,9.16 15.3,21.62 15.3,37.38l0 18.28c0,7.73 -2.38,14.84 -7.22,21.27 -4.84,6.44 -11.38,11.43 -19.62,14.94 9.37,4.22 16.73,10.35 22.09,18.34 5.41,7.97 8.08,16.73 8.08,26.15l0 19.16c0,11.27 -2.47,21.01 -7.41,29.14 -4.89,8.14 -11.85,14.42 -20.81,18.85 -8.96,4.44 -19.62,6.65 -31.97,6.65zm0 -38.01c6.43,0 11.58,-1.81 15.45,-5.46 3.86,-3.6 5.81,-8.49 5.81,-14.63l0 -19.31c0,-5.92 -1.9,-10.66 -5.71,-14.1 -3.86,-3.45 -9.01,-5.21 -15.55,-5.21 -6.44,0 -11.59,1.76 -15.46,5.21 -3.91,3.44 -5.82,8.23 -5.82,14.26l0 19.46c0,6.02 1.91,10.81 5.72,14.42 3.81,3.55 9.01,5.36 15.56,5.36zm0 -96.56c5.61,0 10.09,-1.81 13.33,-5.36 3.29,-3.6 4.89,-8.44 4.89,-14.58l0 -13.59c0,-5.61 -1.6,-10.1 -4.89,-13.33 -3.24,-3.25 -7.72,-4.9 -13.33,-4.9 -5.57,0 -10,1.65 -13.35,4.94 -3.39,3.35 -5.09,7.83 -5.09,13.44l0 13.75c0,6.12 1.7,10.92 4.99,14.42 3.35,3.44 7.83,5.2 13.45,5.2z"/>
 </g>
</svg>
