<?xml version="1.0" encoding="UTF-8"?>
<!DOCTYPE svg PUBLIC "-//W3C//DTD SVG 1.1//EN" "http://www.w3.org/Graphics/SVG/1.1/DTD/svg11.dtd">
<!-- Creator: CorelDRAW -->
<svg xmlns="http://www.w3.org/2000/svg" xml:space="preserve" width="131.876mm" height="127.065mm" version="1.1" style="shape-rendering:geometricPrecision; text-rendering:geometricPrecision; image-rendering:optimizeQuality; fill-rule:evenodd; clip-rule:evenodd"
viewBox="0 0 13186.52 12705.5"
 xmlns:xlink="http://www.w3.org/1999/xlink"
 xmlns:xodm="http://www.corel.com/coreldraw/odm/2003">
 <defs>
  <style type="text/css">
   <![CDATA[
    .fil3 {fill:none}
    .fil4 {fill:none;fill-rule:nonzero}
    .fil6 {fill:#CCCCCC}
    .fil2 {fill:#CCCCCC}
    .fil1 {fill:#EEEEEE}
    .fil5 {fill:white}
    .fil0 {fill:#EEEEEE;fill-rule:nonzero}
   ]]>
  </style>
    <clipPath id="id0">
     <path d="M220.01 1283.83l3660.08 -1265.94c169.97,-58.79 357.13,32.16 415.91,202.12l487.22 1408.61 -363.66 180.52 -0.02 0 -388.64 -1123.61c-48.3,-139.73 -202.15,-214.51 -341.88,-166.18l-3008.9 1040.73c-139.74,48.32 -214.51,202.18 -166.2,341.92l1622.21 4690.01c48.33,139.74 202.2,214.51 341.9,166.18l2655.32 -918.42 454.92 278 -3301.34 1141.88c-169.97,58.8 -357.12,-32.18 -415.91,-202.14l-1853.14 -5357.76c-58.78,-169.95 32.16,-357.1 202.12,-415.91zm5935.43 4314.29c45.11,164.31 -45.19,339.12 -208.42,395.57l-13.61 4.71 222.03 -400.28z"/>
    </clipPath>
     <clipPath id="id1" style="clip-rule:nonzero">
      <path d="M1968.48 4313.96l-45.83 -132.51 216.04 -74.73c29.67,-10.27 50.37,-24.55 62.31,-42.54 11.94,-17.97 14.14,-38.26 6.4,-60.62l-18.23 -52.73c-8.36,-24.16 -23.11,-40.23 -44.41,-47.93 -21.12,-7.79 -46.59,-6.5 -76.63,3.91l-214.76 74.28 -45.56 -131.61 212.85 -73.6c27.04,-9.38 46.07,-22.9 56.61,-40.78 10.6,-17.7 12,-38.12 3.99,-61.23l-14.4 -41.63c-6.96,-20.18 -19.92,-33.21 -38.79,-39.3 -18.75,-5.93 -41.9,-4.24 -68.91,5.1l-212.81 73.64 -45.74 -132.18 223.63 -77.35c76.13,-26.34 140.56,-30.52 193.6,-13.01 52.85,17.72 89.63,56.1 110.02,114.99l14.31 41.44c13.89,40.21 11.52,78.07 -7.02,113.4 -18.5,35.5 -51.26,65.35 -98.77,89.7 55.71,-12.52 103.09,-10.01 142.38,7.75 39.26,17.58 66.54,48.84 82.01,93.54l18.44 53.28c20.48,59.25 15.58,112.27 -14.71,159.15 -30.48,47 -83.69,83.52 -159.62,109.79l-236.41 81.75zm-83.04 28.73l-267.88 -774.44 165.46 -57.21 267.88 774.44 -165.46 57.21z"/>
     </clipPath>
     <clipPath id="id2" style="clip-rule:nonzero">
      <path d="M2826.66 4026.09c-87.61,30.33 -163.03,32.78 -226.34,7.28 -63.48,-25.29 -108.46,-76.29 -135.01,-152.99l-187.01 -540.7 165.47 -57.21 188.24 544.28c10.97,31.65 29.18,52.81 54.68,63.54 25.47,10.54 56.16,9.69 92.04,-2.74 35.93,-12.41 60.79,-30.78 74.52,-54.86 13.85,-24.36 15.31,-52.35 4.34,-83.95l-188.24 -544.31 166.12 -57.45 186.99 540.66c26.55,76.71 22.45,144.7 -12.29,203.92 -34.44,59.34 -95.7,104.13 -183.51,134.51z"/>
     </clipPath>
     <clipPath id="id3" style="clip-rule:nonzero">
      <path d="M3333.44 3841.84l-46.86 -133.4 169.78 -58.74c38.73,-13.39 65.97,-32.57 81.69,-57.14 15.45,-24.68 17.72,-52.35 6.81,-82.57l-108.15 -312.68c-10.27,-31.07 -29.1,-51.2 -56.36,-60.7 -27.46,-9.43 -60.67,-7.31 -99.37,6.07l-169.12 58.52 -46.94 -133.59 175.4 -60.68c91.27,-31.55 168.63,-36.14 232.19,-14.16 63.39,22.25 107.43,69.11 132.1,140.38l111.84 323.4c15.84,45.81 18.79,89.35 8.72,130.91 -9.92,41.28 -33.09,78.61 -69.3,111.9 -36.48,33.17 -85.82,60.63 -148.32,82.24l-174.12 60.22zm-96.47 33.36l-46.32 -133.92 165.46 -57.25 46.33 133.96 -165.47 57.21zm-110.72 -320.12l-157.13 -454.31 165.46 -57.25 157.15 454.33 -165.48 57.23z"/>
     </clipPath>
     <clipPath id="id4" style="clip-rule:nonzero">
      <path d="M3816.96 3213.17c-16.6,-7.2 -32.06,-16.9 -46.52,-29.1 -23.34,-19.8 -41.88,-49.62 -55.53,-89.08l-6.99 -20.18c-23.44,-67.8 -16.92,-128.71 19.51,-183.04 21.81,-32.21 53.07,-60.34 93.8,-84.43l-4.28 405.83z"/>
     </clipPath>
    <clipPath id="id5">
     <path d="M9410.93 2708.7c-30.11,-12.88 -53.34,-23.42 -80.46,-43.51 -23.46,-17.38 -27.33,-20.45 -35.4,-47.83 -0.6,-2.06 -1.98,-8.33 -2.6,-10.36 -5.73,-18.91 5.08,0.82 -5.66,-15.81 -66.41,44.75 -223.11,68.2 -240.04,152.5 71.69,51.83 351.22,90.65 466.68,112.91 458.65,88.38 891.25,185.07 1350.97,258.74 -66.97,-75.32 -690.07,-196.15 -834.15,-229.72 -175.71,-40.93 -455.29,-106.78 -619.34,-176.93z"/>
    </clipPath>
    <clipPath id="id6">
     <path d="M9406.96 3024.32c-83.81,378.08 -158.33,616.5 -355.04,911.01 -46.4,69.44 -99.94,135.56 -158.2,196.07l-4.52 521.34c201.26,38.65 431.25,78.09 592.65,108.46 186.93,35.19 373.89,70.31 560.87,105.5 184.77,34.78 384.2,80 568.54,106.05 -110.33,-139.76 -859.83,-325.61 -1099.38,-371.25 -115.05,-21.92 -298.76,-54.86 -383.44,-118.03 -110.6,-82.53 -23.97,-210.91 28.63,-322.38 100.68,-213.35 329.21,-859.15 270.79,-1097.55l-20.9 -39.22z"/>
    </clipPath>
    <clipPath id="id7">
     <path d="M7779.56 5772.21c-6.91,91.96 23.32,172.46 78.29,227.09 90.06,89.51 248.74,114.86 391.75,141.78 315.46,59.32 631.69,117.02 946.78,177.99 305.02,59 630.67,133.36 937.66,182.13 -84.59,-66.35 -535.89,-200.43 -672.19,-237.02 -244.17,-65.56 -490.47,-125.13 -736.08,-183.25 -247.38,-58.54 -504.43,-93.8 -580.91,-295.98 -25.45,-67.26 -21.77,-142.6 -3.37,-217.21l-361.93 204.47z"/>
    </clipPath>
 </defs>
 <g id="Camada_x0020_1">
  <metadata id="CorelCorpID_0Corel-Layer"/>
  <path class="fil0" d="M2406.34 12384.59l171.42 0 0 141.55c0,36.74 -7.13,68.62 -21.4,95.39 -14.39,26.78 -34.58,47.5 -60.82,62.04 -26.1,14.66 -57.19,21.93 -93.1,21.93 -36.07,0 -67.41,-7 -94.32,-20.86 -26.78,-13.99 -47.37,-33.64 -61.9,-59.2 -14.4,-25.44 -21.66,-55.71 -21.66,-90.69l0 -233.31c0,-37 7.26,-69.15 21.66,-96.2 14.53,-27.05 34.85,-47.9 61.23,-62.71 26.23,-14.66 57.05,-22.06 92.56,-22.06 35.26,0 65.26,6.72 90.02,19.91 24.89,13.32 44.27,33.24 58.26,59.75 13.86,26.51 22.2,59.61 24.76,99.29l0 0 -107.64 0 0 0c-2.02,-25.16 -8.88,-43.73 -20.32,-55.57 -11.3,-11.84 -26.37,-17.76 -45.08,-17.76 -21.26,0 -38.21,6.86 -50.59,20.59 -12.52,13.59 -18.84,31.89 -18.84,54.76l0 233.31c0,20.05 6.46,35.93 19.38,47.5 12.91,11.71 30.41,17.63 52.48,17.63 21.79,0 39.15,-6.46 51.94,-19.11 12.91,-12.78 19.37,-30.41 19.37,-53.02l0 -44.13 -67.4 0 0 -99.03zm1041.68 314.98l177.75 -573.18 68.61 0 178.15 573.18 -106.83 0 -105.62 -383.61 -105.62 383.61 -106.43 0zm98.89 -90.68l0 -97.69 229.01 0 0 97.69 -229.01 0zm1232.07 -133.61l103.33 -348.89 117.06 0 0 573.18 -92.7 0 0 -422.63 4.71 25.3 -96.07 314.57 -72.25 0 -96.47 -306.78 5.92 -33.1 0 422.63 -93.51 0 0 -573.18 117.87 0 102.12 348.89zm947.76 224.29l0.4 -573.18 102.93 0 0 573.18 -103.33 0zm41.44 0l0 -99.7 278.25 0 0 99.7 -278.25 0zm0 -234.52l0 -100.1 246.77 0 0 99.7 -246.77 0.4zm0 -238.96l0 -99.7 278.25 0 0 99.7 -278.25 0zm1416.13 473.48l0.41 -573.18 102.79 0 0 573.18 -103.2 0zm-244.47 0l0.4 -573.18 102.93 0 0 573.18 -103.33 0zm48.57 -234.12l0 -98.22 262.92 -0.4 0 98.22 -262.92 0.4zm1198.96 240.04c-36.33,0 -67.81,-7 -94.45,-21.13 -26.65,-13.99 -47.23,-34.04 -61.77,-60.14 -14.39,-25.97 -21.66,-56.52 -21.66,-91.77l0 -238.96c0,-35.66 7.27,-66.46 21.66,-92.43 14.54,-25.84 35.12,-45.75 61.77,-59.61 26.64,-14 58.13,-20.99 94.45,-20.99 36.47,0 68.08,6.99 94.72,20.99 26.64,13.86 47.23,33.77 61.76,59.61 14.4,25.97 21.67,56.78 21.67,92.43l0 238.96c0,35.26 -7.27,65.8 -21.67,91.77 -14.53,26.1 -35.12,46.15 -61.76,60.14 -26.64,14.13 -58.26,21.13 -94.72,21.13zm0 -102.93c22.34,0 39.96,-6.73 53.02,-20.05 12.91,-13.45 19.51,-31.76 19.51,-55.17l0 -229.41c0,-22.87 -6.46,-41.17 -19.38,-54.63 -12.92,-13.59 -30.54,-20.32 -53.15,-20.32 -22.2,0 -39.7,6.73 -52.75,20.32 -12.92,13.46 -19.51,31.76 -19.51,54.63l0 229.41c0,23.41 6.59,41.72 19.51,55.17 13.05,13.32 30.55,20.05 52.75,20.05zm1049.88 102.93c-54.49,0 -96.87,-15.61 -127.15,-46.96 -30.41,-31.22 -45.61,-75.21 -45.61,-132l0 -400.15 102.93 0 0 402.84c0,23.42 6.05,41.58 18.16,54.5 12.11,12.79 29.34,19.24 51.67,19.24 22.34,0 39.7,-6.45 51.95,-19.24 12.38,-12.92 18.57,-31.08 18.57,-54.5l0 -402.84 103.33 0 0 400.15c0,56.79 -15.34,100.78 -46.02,132 -30.55,31.35 -73.19,46.96 -127.83,46.96zm1036.84 0c-32.3,0 -60.69,-4.84 -85.17,-14.4 -24.35,-9.55 -44.54,-23.81 -60.55,-42.79 -15.88,-18.84 -27.18,-42.38 -34.04,-70.5l0 0 95.79 -42.25 0 0c7.67,23.14 19.11,40.64 34.32,52.48 15.2,11.84 33.77,17.76 55.57,17.76 22.61,0 40.23,-4.98 52.88,-15.07 12.52,-9.96 18.84,-23.82 18.84,-41.71l0 -25.71c0,-14.12 -4.17,-25.43 -12.38,-33.91 -8.34,-8.34 -19.37,-15.2 -33.1,-20.45 -13.86,-5.25 -28.8,-10.23 -44.81,-14.94 -17.63,-5.24 -35.39,-11.3 -53.42,-18.16 -17.9,-6.86 -34.58,-15.74 -49.65,-26.78 -15.07,-11.03 -27.18,-25.83 -36.47,-44.4 -9.15,-18.44 -13.73,-42.39 -13.73,-71.58l0 -14.94c0,-50.19 15.35,-88.93 46.03,-116.52 30.81,-27.45 74.26,-41.17 130.51,-41.17 42.79,0 78.04,10.22 105.49,30.81 27.45,20.45 46.29,51.13 56.51,91.76l0 0 -91.09 43.06 0 0c-7.26,-22.07 -17.49,-38.75 -30.68,-49.92 -13.18,-11.17 -28.39,-16.69 -45.75,-16.69 -22.07,0 -39.02,4.58 -50.86,13.73 -11.84,9.28 -17.76,22.07 -17.76,38.62l0 18.97c0,16.01 4.71,28.66 13.86,37.81 9.15,9.29 21.39,16.55 36.46,21.94 15.07,5.38 31.36,10.9 48.71,16.68 17.09,5.25 34.18,11.31 51.27,18.03 17.09,6.6 32.57,15.48 46.69,26.51 14,11.04 25.3,25.57 33.65,43.47 8.47,17.76 12.64,40.5 12.64,68.07l0 24.49c0,49.93 -15.74,88.67 -47.09,116.26 -31.49,27.58 -75.62,41.44 -132.67,41.44zm885.87 -5.92l0.4 -573.18 102.93 0 0 573.18 -103.33 0zm41.44 0l0 -99.7 278.25 0 0 99.7 -278.25 0zm0 -234.52l0 -100.1 246.77 0 0 99.7 -246.77 0.4zm0 -238.96l0 -99.7 278.25 0 0 99.7 -278.25 0z"/>
  <g id="_1848395293520">
   <path class="fil1" d="M1752.83 12271.7c78.01,0 141.27,63.24 141.27,141.27 0,78.01 -63.25,141.27 -141.27,141.27 -78.02,0 -141.27,-63.25 -141.27,-141.27 0,-78.02 63.24,-141.27 141.27,-141.27z"/>
   <path class="fil1" d="M11951.91 12271.7c78.02,0 141.28,63.24 141.28,141.27 0,78.01 -63.25,141.27 -141.28,141.27 -78.01,0 -141.27,-63.25 -141.27,-141.27 0,-78.02 63.25,-141.27 141.27,-141.27z"/>
  </g>
  <g id="_1848395241584">
   <path class="fil0" d="M926.81 11277.85l0 -651.99 1062.96 0c145.77,0 258.57,-31.31 338.36,-92.11 79.79,-60.83 120.23,-146.68 120.23,-256.69l0 -259.36c0,-118.94 -40.44,-211.95 -122.36,-278.15 -80.86,-66.17 -194.71,-99.27 -342.61,-99.27l-1056.58 0 0 -647.5 1047.01 0c133,0 237.27,-30.42 310.69,-93.02 73.42,-61.72 110.66,-149.35 110.66,-262.94l0 -204.8c0,-99.27 -37.24,-176.2 -110.66,-231.64 -73.41,-54.56 -177.69,-82.28 -310.69,-82.28l-1047.01 0 0 -650.19 1100.2 0c374.53,0 663.95,79.59 870.36,237 205.36,158.3 308.58,382.78 308.58,672.56l0 203.91c0,197.65 -68.1,360.42 -203.22,487.41 -135.14,127.9 -324.53,209.28 -570.32,244.16 263.88,29.52 468.18,112.7 613.94,250.43 145.77,136.83 218.13,315.7 218.13,535.72l0 262.05c0,291.55 -102.15,516.93 -306.45,677.02 -205.36,160.1 -494.77,239.69 -868.24,239.69l-1162.98 0zm-408.6 0l0 -3809.95 814 0 0 3809.95 -814 0z"/>
   <path class="fil0" d="M5135.03 11317.2c-430.95,0 -766.11,-103.74 -1005.52,-312.13 -240.46,-207.49 -360.69,-499.94 -360.69,-877.36l0 -2659.81 813.97 0 0 2677.7c0,155.62 47.89,276.35 143.64,362.2 95.77,84.97 231.96,127.9 408.61,127.9 176.62,0 313.88,-42.93 410.71,-127.9 97.89,-85.85 146.84,-206.58 146.84,-362.2l0 -2677.7 817.16 0 0 2659.81c0,377.42 -121.3,669.87 -363.89,877.36 -241.54,208.38 -578.83,312.13 -1010.82,312.13z"/>
   <path class="fil0" d="M7641.87 11277.85l-3.18 -657.35 835.24 0c190.45,0 339.43,-42.94 445.82,-127 105.34,-84.97 157.48,-203.02 155.37,-352.37l0 -1538.3c2.11,-152.04 -50.03,-269.2 -155.37,-352.37 -106.39,-83.17 -255.37,-124.31 -445.82,-124.31l-832.06 0 -3.18 -658.25 862.91 0c449.02,0 795.9,97.48 1041.69,290.66 244.72,194.08 367.08,466.85 367.08,817.44l0 1591.05c0,225.37 -53.2,421.24 -160.66,588.48 -106.41,166.36 -264.95,295.14 -474.55,386.37 -210.68,90.32 -469.24,135.94 -776.75,135.94l-856.54 0zm-474.55 0l0 -658.94 813.99 0 0 658.94 -813.99 0zm0 -1574.91l0 -2235.03 813.99 0 0 2235.03 -813.99 0z"/>
   <path class="fil0" d="M11764.96 11317.2c-255.35,0 -479.86,-32.19 -673.53,-95.69 -192.58,-63.49 -352.18,-158.31 -478.8,-284.41 -125.56,-125.2 -214.94,-281.72 -269.21,-468.64l0 0 757.6 -280.82 0 0c60.64,153.82 151.09,270.09 271.33,348.79 120.22,78.7 267.07,118.05 439.44,118.05 178.77,0 318.14,-33.09 418.17,-100.16 98.94,-66.18 148.96,-158.3 148.96,-277.26l0 -170.82c0,-93.9 -32.98,-169.04 -97.89,-225.37 -65.96,-55.46 -153.21,-101.07 -261.75,-135.95 -109.6,-34.88 -227.69,-67.96 -354.32,-99.26 -139.39,-34.89 -279.83,-75.12 -422.42,-120.75 -141.51,-45.61 -273.46,-104.63 -392.62,-177.98 -119.18,-73.33 -214.93,-171.72 -288.36,-295.14 -72.34,-122.52 -108.53,-281.72 -108.53,-475.79l0 -99.27c0,-333.59 121.3,-591.17 363.89,-774.51 243.67,-182.45 587.34,-273.68 1032.12,-273.68 338.35,0 617.12,67.97 834.19,204.81 217.06,135.93 366.02,339.85 446.89,609.94l0 0 -720.34 286.2 0 0c-57.47,-146.68 -138.33,-257.58 -242.6,-331.8 -104.28,-74.23 -224.51,-110.91 -361.77,-110.91 -174.51,0 -308.58,30.42 -402.21,91.23 -93.62,61.72 -140.45,146.67 -140.45,256.68l0 126.1c0,106.43 37.24,190.49 109.6,251.32 72.34,61.71 169.18,110 288.36,145.78 119.15,35.77 247.91,72.44 385.18,110.89 135.12,34.89 270.25,75.13 405.38,119.85 135.13,43.83 257.5,102.85 369.22,176.19 110.66,73.33 200.04,169.94 266.01,288.88 67.02,118.06 100.02,269.21 100.02,452.54l0 162.78c0,331.8 -124.49,589.38 -372.42,772.72 -248.97,183.35 -597.97,275.46 -1049.14,275.46z"/>
  </g>
  <g id="_1848395241296">
   <path class="fil1" d="M220.01 1283.83l3660.08 -1265.94c169.97,-58.79 357.13,32.16 415.91,202.12l487.22 1408.61 -363.66 180.52 -0.02 0 -388.64 -1123.61c-48.3,-139.73 -202.15,-214.51 -341.88,-166.18l-3008.9 1040.73c-139.74,48.32 -214.51,202.18 -166.2,341.92l1622.21 4690.01c48.33,139.74 202.2,214.51 341.9,166.18l2655.32 -918.42 454.92 278 -3301.34 1141.88c-169.97,58.8 -357.12,-32.18 -415.91,-202.14l-1853.14 -5357.76c-58.78,-169.95 32.16,-357.1 202.12,-415.91zm5935.43 4314.29c45.11,164.31 -45.19,339.12 -208.42,395.57l-13.61 4.71 222.03 -400.28z"/>
   <g style="clip-path:url(#id0)">
    <g>
     <polygon id="_1" class="fil2" points="3584.58,2117.53 3584.58,5234.07 4992.06,6007.75 5933.92,6572.27 6151.09,4960.74 5459.38,921.4 "/>
    </g>
   </g>
   <path class="fil3" d="M220.01 1283.83l3660.08 -1265.94c169.97,-58.79 357.13,32.16 415.91,202.12l487.22 1408.61 -363.66 180.52 -0.02 0 -388.64 -1123.61c-48.3,-139.73 -202.15,-214.51 -341.88,-166.18l-3008.9 1040.73c-139.74,48.32 -214.51,202.18 -166.2,341.92l1622.21 4690.01c48.33,139.74 202.2,214.51 341.9,166.18l2655.32 -918.42 454.92 278 -3301.34 1141.88c-169.97,58.8 -357.12,-32.18 -415.91,-202.14l-1853.14 -5357.76c-58.78,-169.95 32.16,-357.1 202.12,-415.91zm5935.43 4314.29c45.11,164.31 -45.19,339.12 -208.42,395.57l-13.61 4.71 222.03 -400.28z"/>
   <path class="fil1" d="M2314.64 4341.16l34.85 -12.06 9.96 28.77c2.56,7.47 3.36,14.43 2.35,20.87 -1.03,6.46 -3.7,12.1 -8.02,16.91 -4.26,4.8 -10.07,8.46 -17.37,10.99 -7.33,2.53 -14.18,3.33 -20.64,2.39 -6.42,-0.95 -11.98,-3.5 -16.73,-7.68 -4.72,-4.16 -8.3,-9.79 -10.77,-16.91l-16.4 -47.42c-2.61,-7.53 -3.39,-14.55 -2.38,-21.07 1.07,-6.52 3.72,-12.2 8.04,-17.04 4.32,-4.83 10.06,-8.5 17.27,-10.99 7.16,-2.49 13.74,-3.23 19.69,-2.28 6.01,0.94 11.34,3.62 16.03,8.04 4.69,4.39 8.71,10.54 12.02,18.44l-21.88 7.56c-2.16,-4.98 -4.87,-8.26 -8.02,-9.86 -3.13,-1.61 -6.61,-1.77 -10.43,-0.45 -4.31,1.5 -7.27,4.09 -8.83,7.75 -1.57,3.63 -1.57,7.82 0.02,12.45l16.42 47.42c1.4,4.07 3.83,6.85 7.28,8.29 3.44,1.46 7.41,1.46 11.9,-0.1 4.42,-1.53 7.49,-4.08 9.2,-7.53 1.73,-3.52 1.79,-7.56 0.2,-12.15l-3.1 -8.95 -13.69 4.73 -6.97 -20.12zm233.81 -9.2l-4.18 -129 13.95 -4.81 76.49 103.97 -21.71 7.51 -48.43 -70.55 5.48 85.39 -21.61 7.49zm13.71 -25.41l-6.86 -19.82 46.55 -16.11 6.87 19.85 -46.56 16.08zm240.95 -113.73l-3.52 -78.17 23.79 -8.23 40.3 116.5 -18.85 6.51 -29.7 -85.87 2.72 4.8 2.61 70.68 -14.71 5.08 -41.14 -55.56 -1.15 -7.15 29.73 85.89 -19.03 6.58 -40.28 -116.5 23.94 -8.29 45.29 63.72zm208.34 -21.03l-40.21 -116.51 20.91 -7.24 40.29 116.5 -20.99 7.25zm8.42 -2.89l-7 -20.27 56.55 -19.56 7 20.26 -56.55 19.57zm-16.49 -47.68l-7.03 -20.33 50.15 -17.35 7.01 20.27 -50.13 17.41zm-16.79 -48.58l-7 -20.25 56.54 -19.57 7.01 20.27 -56.55 19.55zm321.04 -3.29l-40.23 -116.51 20.91 -7.24 40.29 116.5 -20.97 7.25zm-49.68 17.18l-40.23 -116.51 20.91 -7.24 40.31 116.5 -20.99 7.25zm-6.6 -50.99l-6.9 -19.95 53.41 -18.58 6.91 19.96 -53.42 18.57zm260.48 -35.5c-7.38,2.55 -14.26,3.35 -20.66,2.36 -6.4,-0.98 -12,-3.58 -16.79,-7.88 -4.75,-4.26 -8.36,-9.96 -10.85,-17.12l-16.79 -48.57c-2.51,-7.24 -3.21,-14.03 -2.1,-20.31 1.12,-6.29 3.93,-11.77 8.36,-16.46 4.44,-4.73 10.33,-8.35 17.7,-10.89 7.43,-2.57 14.34,-3.39 20.76,-2.42 6.38,0.96 11.96,3.54 16.73,7.79 4.77,4.26 8.4,10.01 10.91,17.27l16.79 48.55c2.47,7.16 3.15,13.89 2.04,20.18 -1.11,6.34 -3.89,11.84 -8.3,16.57 -4.44,4.73 -10.37,8.37 -17.8,10.93zm-7.22 -20.89c4.53,-1.57 7.65,-4.2 9.38,-7.82 1.65,-3.64 1.71,-7.82 0.07,-12.59l-16.12 -46.6c-1.62,-4.65 -4.2,-7.92 -7.78,-9.75 -3.58,-1.85 -7.65,-1.98 -12.24,-0.41 -4.51,1.56 -7.59,4.16 -9.3,7.86 -1.65,3.64 -1.71,7.82 -0.1,12.47l16.13 46.61c1.64,4.76 4.26,8.01 7.82,9.86 3.6,1.77 7.63,1.93 12.14,0.37zm220.56 -52.89c-11.09,3.83 -20.8,3.64 -29.16,-0.6 -8.37,-4.21 -14.55,-12.09 -18.54,-23.62l-28.13 -81.32 20.93 -7.24 28.31 81.87c1.65,4.76 4.14,8.01 7.5,9.8 3.37,1.75 7.34,1.85 11.87,0.27 4.53,-1.55 7.61,-4.08 9.2,-7.56 1.62,-3.5 1.6,-7.61 -0.06,-12.38l-28.32 -81.86 21.01 -7.26 28.13 81.32c3.99,11.54 3.97,21.56 -0.06,30.06 -4.01,8.52 -11.59,14.69 -22.68,18.52z"/>
   <g>
    <path class="fil0" d="M1968.48 4313.96l-45.83 -132.51 216.04 -74.73c29.67,-10.27 50.37,-24.55 62.31,-42.54 11.94,-17.97 14.14,-38.26 6.4,-60.62l-18.23 -52.73c-8.36,-24.16 -23.11,-40.23 -44.41,-47.93 -21.12,-7.79 -46.59,-6.5 -76.63,3.91l-214.76 74.28 -45.56 -131.61 212.85 -73.6c27.04,-9.38 46.07,-22.9 56.61,-40.78 10.6,-17.7 12,-38.12 3.99,-61.23l-14.4 -41.63c-6.96,-20.18 -19.92,-33.21 -38.79,-39.3 -18.75,-5.93 -41.9,-4.24 -68.91,5.1l-212.81 73.64 -45.74 -132.18 223.63 -77.35c76.13,-26.34 140.56,-30.52 193.6,-13.01 52.85,17.72 89.63,56.1 110.02,114.99l14.31 41.44c13.89,40.21 11.52,78.07 -7.02,113.4 -18.5,35.5 -51.26,65.35 -98.77,89.7 55.71,-12.52 103.09,-10.01 142.38,7.75 39.26,17.58 66.54,48.84 82.01,93.54l18.44 53.28c20.48,59.25 15.58,112.27 -14.71,159.15 -30.48,47 -83.69,83.52 -159.62,109.79l-236.41 81.75zm-83.04 28.73l-267.88 -774.44 165.46 -57.21 267.88 774.44 -165.46 57.21z"/>
    <g style="clip-path:url(#id1)">
     <g>
      <polygon id="_1_0" class="fil2" points="-33163.49,9985.11 -33940.43,10461.34 -33940.43,13577.89 -32532.95,14351.57 -31591.08,14916.07 -31373.92,13304.54 -32048.25,9612.86 "/>
     </g>
    </g>
    <path class="fil4" d="M1968.48 4313.96l-45.83 -132.51 216.04 -74.73c29.67,-10.27 50.37,-24.55 62.31,-42.54 11.94,-17.97 14.14,-38.26 6.4,-60.62l-18.23 -52.73c-8.36,-24.16 -23.11,-40.23 -44.41,-47.93 -21.12,-7.79 -46.59,-6.5 -76.63,3.91l-214.76 74.28 -45.56 -131.61 212.85 -73.6c27.04,-9.38 46.07,-22.9 56.61,-40.78 10.6,-17.7 12,-38.12 3.99,-61.23l-14.4 -41.63c-6.96,-20.18 -19.92,-33.21 -38.79,-39.3 -18.75,-5.93 -41.9,-4.24 -68.91,5.1l-212.81 73.64 -45.74 -132.18 223.63 -77.35c76.13,-26.34 140.56,-30.52 193.6,-13.01 52.85,17.72 89.63,56.1 110.02,114.99l14.31 41.44c13.89,40.21 11.52,78.07 -7.02,113.4 -18.5,35.5 -51.26,65.35 -98.77,89.7 55.71,-12.52 103.09,-10.01 142.38,7.75 39.26,17.58 66.54,48.84 82.01,93.54l18.44 53.28c20.48,59.25 15.58,112.27 -14.71,159.15 -30.48,47 -83.69,83.52 -159.62,109.79l-236.41 81.75zm-83.04 28.73l-267.88 -774.44 165.46 -57.21 267.88 774.44 -165.46 57.21z"/>
    <path class="fil0" d="M2826.66 4026.09c-87.61,30.33 -163.03,32.78 -226.34,7.28 -63.48,-25.29 -108.46,-76.29 -135.01,-152.99l-187.01 -540.7 165.47 -57.21 188.24 544.28c10.97,31.65 29.18,52.81 54.68,63.54 25.47,10.54 56.16,9.69 92.04,-2.74 35.93,-12.41 60.79,-30.78 74.52,-54.86 13.85,-24.36 15.31,-52.35 4.34,-83.95l-188.24 -544.31 166.12 -57.45 186.99 540.66c26.55,76.71 22.45,144.7 -12.29,203.92 -34.44,59.34 -95.7,104.13 -183.51,134.51z"/>
    <g style="clip-path:url(#id2)">
     <g>
      <polygon id="_1_1" class="fil2" points="-33163.49,9985.11 -33940.43,10461.34 -33940.43,13577.89 -32532.95,14351.57 -31591.08,14916.07 -31373.92,13304.54 -32048.25,9612.86 "/>
     </g>
    </g>
    <path class="fil4" d="M2826.66 4026.09c-87.61,30.33 -163.03,32.78 -226.34,7.28 -63.48,-25.29 -108.46,-76.29 -135.01,-152.99l-187.01 -540.7 165.47 -57.21 188.24 544.28c10.97,31.65 29.18,52.81 54.68,63.54 25.47,10.54 56.16,9.69 92.04,-2.74 35.93,-12.41 60.79,-30.78 74.52,-54.86 13.85,-24.36 15.31,-52.35 4.34,-83.95l-188.24 -544.31 166.12 -57.45 186.99 540.66c26.55,76.71 22.45,144.7 -12.29,203.92 -34.44,59.34 -95.7,104.13 -183.51,134.51z"/>
    <path class="fil0" d="M3333.44 3841.84l-46.86 -133.4 169.78 -58.74c38.73,-13.39 65.97,-32.57 81.69,-57.14 15.45,-24.68 17.72,-52.35 6.81,-82.57l-108.15 -312.68c-10.27,-31.07 -29.1,-51.2 -56.36,-60.7 -27.46,-9.43 -60.67,-7.31 -99.37,6.07l-169.12 58.52 -46.94 -133.59 175.4 -60.68c91.27,-31.55 168.63,-36.14 232.19,-14.16 63.39,22.25 107.43,69.11 132.1,140.38l111.84 323.4c15.84,45.81 18.79,89.35 8.72,130.91 -9.92,41.28 -33.09,78.61 -69.3,111.9 -36.48,33.17 -85.82,60.63 -148.32,82.24l-174.12 60.22zm-96.47 33.36l-46.32 -133.92 165.46 -57.25 46.33 133.96 -165.47 57.21zm-110.72 -320.12l-157.13 -454.31 165.46 -57.25 157.15 454.33 -165.48 57.23z"/>
    <g style="clip-path:url(#id3)">
     <g>
      <polygon id="_1_2" class="fil2" points="-33163.49,9985.11 -33940.43,10461.34 -33940.43,13577.89 -32532.95,14351.57 -31591.08,14916.07 -31373.92,13304.54 -32048.25,9612.86 "/>
     </g>
    </g>
    <path class="fil4" d="M3333.44 3841.84l-46.86 -133.4 169.78 -58.74c38.73,-13.39 65.97,-32.57 81.69,-57.14 15.45,-24.68 17.72,-52.35 6.81,-82.57l-108.15 -312.68c-10.27,-31.07 -29.1,-51.2 -56.36,-60.7 -27.46,-9.43 -60.67,-7.31 -99.37,6.07l-169.12 58.52 -46.94 -133.59 175.4 -60.68c91.27,-31.55 168.63,-36.14 232.19,-14.16 63.39,22.25 107.43,69.11 132.1,140.38l111.84 323.4c15.84,45.81 18.79,89.35 8.72,130.91 -9.92,41.28 -33.09,78.61 -69.3,111.9 -36.48,33.17 -85.82,60.63 -148.32,82.24l-174.12 60.22zm-96.47 33.36l-46.32 -133.92 165.46 -57.25 46.33 133.96 -165.47 57.21zm-110.72 -320.12l-157.13 -454.31 165.46 -57.25 157.15 454.33 -165.48 57.23z"/>
    <path class="fil0" d="M3816.96 3213.17c-16.6,-7.2 -32.06,-16.9 -46.52,-29.1 -23.34,-19.8 -41.88,-49.62 -55.53,-89.08l-6.99 -20.18c-23.44,-67.8 -16.92,-128.71 19.51,-183.04 21.81,-32.21 53.07,-60.34 93.8,-84.43l-4.28 405.83z"/>
    <g style="clip-path:url(#id4)">
     <g>
      <polygon id="_1_3" class="fil2" points="-33163.49,9985.11 -33940.43,10461.34 -33940.43,13577.89 -32532.95,14351.57 -31591.08,14916.07 -31373.92,13304.54 -32048.25,9612.86 "/>
     </g>
    </g>
    <path class="fil4" d="M3816.96 3213.17c-16.6,-7.2 -32.06,-16.9 -46.52,-29.1 -23.34,-19.8 -41.88,-49.62 -55.53,-89.08l-6.99 -20.18c-23.44,-67.8 -16.92,-128.71 19.51,-183.04 21.81,-32.21 53.07,-60.34 93.8,-84.43l-4.28 405.83z"/>
   </g>
   <g>
    <path class="fil5" d="M2173.84 4364.14c15.86,-5.48 33.17,2.93 38.65,18.79 5.49,15.86 -2.92,33.17 -18.78,38.65 -15.86,5.49 -33.17,-2.92 -38.65,-18.78 -5.49,-15.86 2.92,-33.17 18.78,-38.66z"/>
    <path class="fil5" d="M4246.99 3647.08c15.86,-5.48 33.17,2.93 38.65,18.79 5.49,15.86 -2.92,33.16 -18.78,38.65 -15.86,5.48 -33.17,-2.93 -38.66,-18.79 -5.48,-15.86 2.93,-33.16 18.79,-38.65z"/>
   </g>
   <path class="fil1" d="M11429.31 2026.19c-0.14,0.26 -0.27,0.49 -0.41,0.76l-2.41 5.06 -77.26 133.03 -4.61 6.42c-80.85,111.86 -143.18,176.27 -241.47,259.34 43.31,30.35 76.31,71.37 99.75,120.64 33.79,70.9 41.06,146.14 14.41,220.31 25.06,19.33 50.91,38.12 72.22,55.42 72.14,58.63 140.5,124.99 179.87,210.48l39.05 70.43 -7.96 50.34c-4.98,80.64 -1.5,134.76 -53.32,207.56 -90.86,127.72 -254.29,129.61 -393.56,103.83 -14.79,-2.7 -48.97,-9.62 -72.57,-11.36 -7.63,21.56 -13.7,54.38 -16.07,68.62 -19.76,118.95 -25.08,255.52 -15.41,375.51 5.04,62.14 25.88,218.69 49.41,276.45l16.73 23.52 5.49 35.91c9.82,42.37 70.78,155.44 95.5,194.76 45.19,71.68 95.43,130.81 151.92,193.71 107,119.05 287.98,204.69 321.47,375.9 13.73,70.33 1.3,138.65 -35.64,199.82 -17.21,28.44 -35.54,46.07 -54.23,71.09l-27.84 37.82 -170.28 63.93c-55.83,24.4 -109.61,79.42 -69.01,140.46 33.46,50.33 72.72,93.56 111.67,139.39 56.53,66.54 103.34,132.2 145.19,209.12 20.62,37.92 36.63,79.55 57.65,116.85l27.74 46.84 -4.78 35.71 44.29 246.75 -5.7 29.1c-8.32,42.39 -7.49,91.14 -13.98,135.4 -11.23,76.65 -34.8,147.4 -67.32,216.34 70.2,65.02 111.13,156.45 101.63,263.35 -14.43,163.14 -144.39,286.91 -307,299.4 -89.11,6.85 -260.27,-31.71 -350.89,-49.47 -110.87,-21.75 -221.58,-46.45 -332.5,-67.34 -429.99,-80.89 -859.96,-161.74 -1289.96,-242.63 -333.51,-62.76 -667.71,-122.49 -1001.34,-184.87 -209.78,-39.24 -419.59,-78.7 -628.94,-120.1 -71.77,-14.2 -143.67,-28.53 -215.17,-44.12 -39.55,-8.59 -98.4,-19.62 -133.81,-38.22 -142.81,-75.08 -214,-237.15 -165.18,-391.89 2.51,-7.96 5.27,-15.7 8.26,-23.27l337.79 -190.83c0.92,13.37 2.18,27.35 3.9,42.04 3.85,33.21 14.84,76.5 14.66,104.7 -235.22,-31.39 -293.06,231.38 -125.83,319.31 58.65,30.84 1785.47,343.75 1934.86,371.84 430.02,80.87 860,161.76 1290,242.63 113.46,21.34 562.37,120.68 642.08,114.57 189.58,-14.57 239.93,-286.05 4.16,-343.86 11.01,-27.19 35.91,-61.72 52,-92.17 93.48,-177.04 69.78,-261.36 87.41,-351.2l-43.42 -241.88 0.8 -5.91c-12.04,-20.39 -50.06,-102.66 -60.31,-121.53 -87.99,-161.82 -166.91,-212.1 -249.62,-336.45 -89.26,-134.22 -27.04,-303.76 141.78,-374.81l129.67 -48.67c25.19,-34.26 76.46,-73.02 62.01,-146.92 -19.2,-98.29 -184.46,-189.9 -283.87,-300.57 -67.81,-75.45 -116.38,-133.03 -168.09,-215.11 -26.2,-41.57 -108.55,-193.4 -117.81,-253.84 -33.85,-47.52 -66.62,-268.04 -73.12,-348.35 -10.13,-125.56 -4.94,-282.09 17.01,-414.13 36.72,-220.98 118.3,-215.5 273.37,-186.83 300.92,55.67 252.46,-120.5 261.41,-177.17l-15.92 -28.71c-52.17,-120.6 -218.04,-206.5 -293.64,-287.52 -11.26,-12.08 -9.8,-11.32 -15.46,-20.85 37.13,-54.26 80.15,-99.3 41.41,-180.69 -39.9,-83.77 -104.8,-78.21 -145.71,-96.89l-9.73 -6.47c-2.51,-31.93 8,-77.88 14.98,-112.61 9.9,-49.21 27.26,-48.43 54.82,-71.18 109.82,-90.82 152.95,-130.27 241.96,-253.44l70.29 -121.08c0.82,-1.71 10.17,-20.45 10.45,-20.89 0.93,-1.52 2.21,-3.47 3.09,-4.79l7.08 -8.79c0.91,-2.55 2.39,-2.94 3.79,-4.15 3.54,-38.77 25.86,-80.93 37.59,-120.85 12.08,-41.1 19.82,-80.85 28.83,-122.06l9 -261.83 4.07 -3.56c-18.79,-19.96 4.34,-39.39 -43.83,-202.86 -56.22,-190.83 -186.43,-386.56 -351.72,-511.26 -273.95,-206.75 -591.59,-268.31 -922.39,-175.9 -157.19,43.94 -263.99,114.97 -367.44,195.52 -47.54,37.04 -99.8,92.72 -144.54,146.08 -15.31,18.31 -80.76,121.81 -110.68,164.99 -36.78,75.35 -89.1,200.72 -96.77,317.54 -12.06,182.93 -2.86,325.85 -2.86,325.85l-0.74 2.21c6.38,63.74 13.66,113.31 61.36,228.25 55.32,133.26 115.7,177.11 104.76,238.06 -20.77,116.34 -16.4,114.63 -55.24,111.46 -27.96,-2.3 -44.2,-11.62 -82.4,-2.22 -104.12,25.64 -137.03,118.03 -99.08,224.31 -29.78,20.25 -166.16,64.03 -212.76,79.85 -118.65,40.17 -143.84,58.8 -159.6,73.97l1.58 -183.96c33.71,-14.9 69.38,-26.94 107.29,-39.78 26.2,-8.87 58.9,-18.74 91.11,-29.44 6.88,-128.36 84.16,-238.84 226.94,-276.77 -0.55,-0.88 -1.06,-1.75 -1.56,-2.57 -25.45,-42.99 -47.91,-86.13 -67.08,-132.35 -39.53,-95.23 -62.39,-171.06 -72.63,-273.06l-3.54 -34.86 1.92 -5.52c-5,-103.09 -1.94,-212.64 4.75,-313.88 8.46,-128.12 56.51,-261.87 112.47,-376.46l5.27 -10.83 6.85 -9.91c38.36,-55.38 77.31,-126.22 119.47,-176.48 50.17,-59.84 107.06,-121.38 168.59,-169.29 132.66,-103.31 258.16,-177.25 422.06,-223.05 378.21,-105.7 746.89,-34.43 1060.16,201.94 189.4,142.97 341.22,365.67 408.15,592.82 18.25,61.94 28.5,111.36 36.11,169.81l7.68 154.68 -7.19 208.25 -3.08 14c-9.76,44.67 -18.67,88.93 -31.59,132.88 -7.76,26.45 -27.39,67.2 -31.86,91.57l-5.72 63 -33.56 28.71zm-2531.14 1588.73c30.04,-51.49 57.06,-105.79 81.15,-162.81 27.29,-64.55 95.43,-256.95 98.73,-343.94l-8.07 -1.38 -14.36 -16.12c-26.76,-6.66 -60.18,-11.4 -83.93,-16.42 -22.58,-4.77 -45.81,-10.1 -68.69,-16.79l1.46 -167.58c72.9,34.96 222.56,43.19 246.58,70.16 45.93,7.7 73.64,54.66 81.34,95.99 21.07,112.97 -65.25,357.93 -107.43,457.61 -60.24,142.54 -136.68,269 -229.17,378.2l2.39 -276.94z"/>
   <path class="fil1" d="M9615.17 1713.16c30.82,80.49 61.65,123.76 124.54,183.59 46.66,44.38 156.31,105.79 236.53,110.82 -56.68,-92.28 -121.81,-114.03 -181.25,-331.68 -37.69,-138.05 -32.43,-311.3 23.77,-464.25 91.88,-250.06 335.31,-464.89 591.6,-485.64l-10.39 -6.38c-53.09,-21.82 -195.86,-0.88 -245.27,10.81 -74.68,17.66 -166.28,55.23 -214.67,88.13 -118.03,80.3 -226.66,179.38 -300.31,355.15 -73.33,175.02 -82.74,387.48 -24.56,539.46z"/>
   <path class="fil1" d="M9410.93 2708.7c-30.11,-12.88 -53.34,-23.42 -80.46,-43.51 -23.46,-17.38 -27.33,-20.45 -35.4,-47.83 -0.6,-2.06 -1.98,-8.33 -2.6,-10.36 -5.73,-18.91 5.08,0.82 -5.66,-15.81 -66.41,44.75 -223.11,68.2 -240.04,152.5 71.69,51.83 351.22,90.65 466.68,112.91 458.65,88.38 891.25,185.07 1350.97,258.74 -66.97,-75.32 -690.07,-196.15 -834.15,-229.72 -175.71,-40.93 -455.29,-106.78 -619.34,-176.93z"/>
   <g style="clip-path:url(#id5)">
    <g>
     <polygon id="_1_4" class="fil6" points="8688.46,1625.17 9296.21,2029.22 9243.97,5384.75 7131.06,6664.4 6172.01,4196.02 8099.93,1096.55 "/>
    </g>
   </g>
   <path class="fil3" d="M9410.93 2708.7c-30.11,-12.88 -53.34,-23.42 -80.46,-43.51 -23.46,-17.38 -27.33,-20.45 -35.4,-47.83 -0.6,-2.06 -1.98,-8.33 -2.6,-10.36 -5.73,-18.91 5.08,0.82 -5.66,-15.81 -66.41,44.75 -223.11,68.2 -240.04,152.5 71.69,51.83 351.22,90.65 466.68,112.91 458.65,88.38 891.25,185.07 1350.97,258.74 -66.97,-75.32 -690.07,-196.15 -834.15,-229.72 -175.71,-40.93 -455.29,-106.78 -619.34,-176.93z"/>
   <path class="fil1" d="M9406.96 3024.32c-83.81,378.08 -158.33,616.5 -355.04,911.01 -46.4,69.44 -99.94,135.56 -158.2,196.07l-4.52 521.34c201.26,38.65 431.25,78.09 592.65,108.46 186.93,35.19 373.89,70.31 560.87,105.5 184.77,34.78 384.2,80 568.54,106.05 -110.33,-139.76 -859.83,-325.61 -1099.38,-371.25 -115.05,-21.92 -298.76,-54.86 -383.44,-118.03 -110.6,-82.53 -23.97,-210.91 28.63,-322.38 100.68,-213.35 329.21,-859.15 270.79,-1097.55l-20.9 -39.22z"/>
   <g style="clip-path:url(#id6)">
    <g>
     <polygon id="_1_5" class="fil6" points="8688.46,1625.17 9296.21,2029.22 9243.97,5384.75 7131.06,6664.4 6172.01,4196.02 8099.93,1096.55 "/>
    </g>
   </g>
   <path class="fil3" d="M9406.96 3024.32c-83.81,378.08 -158.33,616.5 -355.04,911.01 -46.4,69.44 -99.94,135.56 -158.2,196.07l-4.52 521.34c201.26,38.65 431.25,78.09 592.65,108.46 186.93,35.19 373.89,70.31 560.87,105.5 184.77,34.78 384.2,80 568.54,106.05 -110.33,-139.76 -859.83,-325.61 -1099.38,-371.25 -115.05,-21.92 -298.76,-54.86 -383.44,-118.03 -110.6,-82.53 -23.97,-210.91 28.63,-322.38 100.68,-213.35 329.21,-859.15 270.79,-1097.55l-20.9 -39.22z"/>
   <path class="fil1" d="M7779.56 5772.21c-6.91,91.96 23.32,172.46 78.29,227.09 90.06,89.51 248.74,114.86 391.75,141.78 315.46,59.32 631.69,117.02 946.78,177.99 305.02,59 630.67,133.36 937.66,182.13 -84.59,-66.35 -535.89,-200.43 -672.19,-237.02 -244.17,-65.56 -490.47,-125.13 -736.08,-183.25 -247.38,-58.54 -504.43,-93.8 -580.91,-295.98 -25.45,-67.26 -21.77,-142.6 -3.37,-217.21l-361.93 204.47z"/>
   <g style="clip-path:url(#id7)">
    <g>
     <polygon id="_1_6" class="fil6" points="8688.46,1625.17 9296.21,2029.22 9243.97,5384.75 7131.06,6664.4 6172.01,4196.02 8099.93,1096.55 "/>
    </g>
   </g>
   <path class="fil3" d="M7779.56 5772.21c-6.91,91.96 23.32,172.46 78.29,227.09 90.06,89.51 248.74,114.86 391.75,141.78 315.46,59.32 631.69,117.02 946.78,177.99 305.02,59 630.67,133.36 937.66,182.13 -84.59,-66.35 -535.89,-200.43 -672.19,-237.02 -244.17,-65.56 -490.47,-125.13 -736.08,-183.25 -247.38,-58.54 -504.43,-93.8 -580.91,-295.98 -25.45,-67.26 -21.77,-142.6 -3.37,-217.21l-361.93 204.47z"/>
   <g>
    <path class="fil1" d="M6380.16 551.8l2663.67 1588.67 -28.54 3053.68 -2654.13 1531.61 -2635.13 -1579.16 0 -3015.63 2654.13 -1579.16zm-1399.2 4142.59l2866.68 10.66 -1470.65 1678.41 -1396.03 -1689.07zm-929.92 376.27l731.84 -358.86 1234.19 1496.65 -1966.03 -1137.79zm4000.99 -344.51l641.76 320.31 -1911.57 1123.65 1269.81 -1443.97zm84.18 -146.53l649.27 326.88 27.12 -2190.9 -676.39 1864.01zm-1558.45 -2640.29l1436.68 2479.95 771.25 -2129.71 -2207.92 -350.24zm-78.91 -188.14l1984.2 315.03 -2010.58 -1203.77 26.38 888.74zm-194.18 -884.54l26.51 885.24 -2055.26 279.24 2028.75 -1164.48zm-2334.99 1377.12l2296.15 -313.95 -1450.9 2488.11 -845.24 -2174.17zm723.53 2314.59l-749.46 -1924.23 1.44 2294.67 748.02 -370.44zm229.98 -21.28l2999.76 34.67 -1511.36 -2584.2 -1488.4 2549.54z"/>
    <path class="fil1" d="M4982.52 5609.73l-107.98 -62.51 344.39 -151.06 63.5 82.01 -299.92 131.55zm69.51 -436.75c30.51,39.41 43.97,73.75 40.35,102.95 -3.62,29.34 -22.74,51.55 -57.25,66.66l-209.14 91.73c-34.82,15.29 -69.96,16.73 -105.76,4.38 -35.59,-12.26 -68.56,-37.94 -98.71,-76.87 -30.33,-39.24 -43.81,-73.58 -40.64,-103 3.27,-29.33 22.39,-51.66 57.41,-67.02l209.14 -91.71c34.68,-15.21 69.94,-16.73 105.44,-4.55 35.52,12.17 68.66,38.05 99.16,77.43zm-73.56 32.29c-10.39,-13.44 -22.29,-21.46 -35.67,-24.22 -13.39,-2.74 -27.28,-0.84 -42.02,5.66l-188.85 82.8c-14.84,6.52 -23.99,14.69 -27.33,24.79 -3.29,10.09 0.21,21.78 10.6,35.19 10.04,13.01 21.77,20.97 35.05,23.75 13.39,2.92 27.41,1.05 42.25,-5.47l188.85 -82.8c14.77,-6.48 23.76,-14.72 27.26,-24.76 3.38,-10.12 0.08,-21.75 -10.14,-34.94z"/>
    <path class="fil1" d="M8090.07 5401.35l-12.76 7.49 -0.14 -19.9 12.9 12.41zm-44.28 26.02l-63.7 37.45 -310.93 -299.2 8.87 -16.42 35.15 -39.98 330.61 318.14zm-154.62 90.88l-42.99 25.27 -3.02 -6.19 -21.51 7.36 6.09 9.66 -101.17 59.49c-13.24,-9.57 -27.15,-21.36 -41.74,-35.38l-34.55 -33.27c-40.15,-38.63 -66.89,-77.02 -80.2,-115.01 -13.26,-37.98 -11.71,-72.15 4.6,-102.32 16.26,-30.09 39.85,-42.79 70.64,-38.24 30.81,4.61 66.34,26.1 106.51,64.75l30.7 29.55c22.55,21.71 42.54,44.17 60.13,67.39 15.81,20.8 31.24,43.11 46.51,66.93zm-233.61 -112.59c-5.37,9.96 -5.82,21.03 -1.5,33.21 4.46,12.16 13.58,24.96 27.57,38.4l32.58 31.36c14.88,14.28 27.62,22.56 38.23,24.9 10.68,2.26 18.71,-1.54 24.08,-11.46 5.15,-9.53 5.17,-20.75 0.19,-33.81 -5.13,-13.09 -14.99,-26.73 -29.86,-41l-32.58 -31.34c-13.97,-13.46 -25.99,-20.92 -35.95,-22.34 -9.96,-1.32 -17.58,2.59 -22.76,12.08z"/>
    <path class="fil1" d="M8793.58 4253.13l1.5 -121.34 -100.6 -88.77c-18.38,-16.15 -36.77,-30.33 -55.46,-42.3 -18.66,-12.11 -39.57,-21.94 -62.82,-29.41l-31.69 -10.09c-41.48,-13.27 -77.06,-12.4 -106.71,2.39 -29.65,14.78 -50.97,42.27 -63.82,82.47 -12.91,40.33 -11.47,75.33 4.38,104.82 15.84,29.47 44.55,50.95 85.99,64.19l35.66 11.41c39.88,12.79 73.89,12.88 102.08,0.39 28.05,-12.56 47.64,-36.22 58.79,-71.09 8.22,-25.67 3.63,-48.9 -13.99,-69.69l-19.82 20.82 166.52 146.2zm-336.13 -180.34c-4.26,13.3 -3.74,24.61 1.4,34.02 5.27,9.32 15.05,16.34 29.47,20.93l33.63 10.78c15.29,4.9 28.15,5.12 38.42,0.78 10.33,-4.46 17.67,-13.25 21.91,-26.58 4.06,-12.7 3.13,-23.86 -2.73,-33.75 -5.97,-9.82 -16.51,-17.19 -31.84,-22.11l-33.64 -10.76c-14.41,-4.61 -26.49,-4.48 -36.04,0.37 -9.61,4.92 -16.5,13.62 -20.58,26.32z"/>
    <path class="fil1" d="M8349.74 4220.84c21.63,0 39.15,17.53 39.15,39.15 0,21.63 -17.52,39.16 -39.15,39.16 -21.63,0 -39.16,-17.53 -39.16,-39.16 0,-21.62 17.53,-39.15 39.16,-39.15z"/>
    <path class="fil0" d="M7987.18 2636.81l-436.61 259.61 -46.57 -78.3 345.91 -205.67 -55.53 -40.65 83.84 -49.86 65.55 41.9 43.39 72.97zm-316.53 309.21l72.54 -42.72 363.75 -64.38 50.89 85.58 -357.93 65.77 103.56 173.7 -76.25 45.35 -156.56 -263.3zm25.95 196.68l248.95 -148.03 46.2 76.99 -249.26 148.21 -45.89 -77.17z"/>
    <path class="fil0" d="M7247.07 1665.58l-89.27 -62.06 -271.29 -254.7 73.38 0 269.8 251.54 148.81 -0.18 94.36 65.39 -225.79 0zm217.58 57.66l-308.06 -213.48 65.8 -0.26 308.44 213.74 -66.18 0z"/>
    <path class="fil0" d="M5773.11 1348.56l-377.36 374.41 -67.14 0 298.97 -296.63 -66.69 19.86 72.46 -71.89 77.19 -25.75 62.58 0zm-199.04 378.27c-21.1,0 -35.57,-3.78 -43.33,-11.34 -7.68,-7.56 -8.73,-18.28 -3.09,-32.17 5.65,-13.88 18.26,-30.5 37.66,-49.74l32.96 -32.7c16.21,-16.09 35.75,-31.03 58.54,-44.65 22.69,-13.63 45.54,-24.09 68.44,-31.29 -7.69,-5.98 -9.99,-14.51 -6.92,-25.58 3.08,-11.08 11.26,-23.21 24.37,-36.21l31.45 -31.21c27.11,-26.89 57.33,-48.16 90.5,-63.8 33.17,-15.65 64.69,-23.47 94.58,-23.47 29.88,0 45.64,7.82 47.28,23.47 1.63,15.65 -11.11,36.92 -38.22,63.8l-31.45 31.21c-13.28,13.18 -29.56,25.31 -48.89,36.29 -19.33,10.99 -39.09,19.52 -59.18,25.5 8.74,7.2 10.76,17.66 6.17,31.29 -4.5,13.62 -14.99,28.56 -31.2,44.65l-32.96 32.7c-19.4,19.24 -40.36,35.86 -62.8,49.74 -22.34,13.89 -45.02,24.61 -67.92,32.17 -22.91,7.56 -44.92,11.34 -66,11.34zm65.36 -64.85c10.99,0 22.88,-3.08 35.77,-9.32 12.79,-6.15 24.55,-14.51 35.09,-24.97l33.22 -32.95c10.18,-10.11 15.08,-18.2 14.51,-24.09 -0.65,-5.89 -6.43,-8.88 -17.59,-8.88 -10.99,0 -22.79,2.99 -35.32,8.88 -12.61,5.89 -24.11,14.07 -34.47,24.35l-33.49 33.22c-10.36,10.29 -15.35,18.46 -15.04,24.61 0.39,6.07 6.16,9.15 17.32,9.15zm166.1 -164.8c9.58,0 20.33,-3.08 31.98,-9.14 11.83,-6.16 22.88,-14.42 33.42,-24.87l23.39 -23.21c9.66,-9.58 14.64,-17.23 14.59,-22.77 0.05,-5.53 -4.77,-8.34 -14.35,-8.34 -9.49,0 -19.88,2.81 -31.26,8.43 -11.56,5.71 -22.17,13.36 -31.83,22.94l-23.65 23.47c-10.55,10.46 -15.88,18.63 -16.28,24.61 -0.22,5.89 4.41,8.88 13.99,8.88z"/>
    <path class="fil0" d="M5105.36 3035.15l-71.66 -41.38 -107.16 -221.72c-10.43,-19.38 -20.99,-35.67 -32.07,-48.68 -11.02,-13.11 -21.82,-22.79 -32.45,-28.93l-3.41 -1.97c-11.26,-6.49 -21.46,-8.39 -30.58,-5.94 -9.18,2.55 -17.08,9.55 -23.7,21.01 -6.8,11.77 -8.12,23.13 -4.23,34.05 3.82,11.02 12.97,21.4 27.62,31.09l8.16 4.71 -46.51 80.55 -8.16 -4.71c-39.13,-24.52 -63.16,-53 -72.22,-85.48 -9.16,-32.55 -3.19,-66.97 17.8,-103.32 22,-38.11 48.15,-61.7 78.18,-70.78 30.2,-9.15 63.28,-3.26 99.43,17.61l2.99 1.73c17.97,10.37 35.05,24.91 51.38,43.85 16.29,18.76 31.25,41.03 44.94,66.69l82.83 166.79 75.83 -131.36 76.83 44.36 -133.85 231.84z"/>
    <path class="fil1" d="M3944.54 3887.3l0.06 94.91c9.9,-3.12 21.61,-4.98 35.09,-5.7 17.06,-0.98 36.44,0.4 58.16,3.79l241.51 48.26 76.21 -32.23 -104.2 -246.61 -81.71 34.59 59.04 139.68 -182.99 -34.51c-28.73,-4.55 -55.52,-6.07 -80.29,-4.37 -7.22,0.44 -14.16,1.18 -20.87,2.19zm0.12 177.13l0.05 94.77c21.38,0.33 44.78,-4.32 70.28,-14.03l8.65 -3.65 -36.2 -85.69 -8.67 3.68c-13.1,4.61 -24.46,6.23 -34.12,4.92zm0.13 219.8l0.04 45.02 16.91 40.01 59.23 50.44 89.84 -37.95 -49.47 -47.82 370.69 -156.68 -35.46 -83.89 -451.78 190.87z"/>
    <g>
     <path class="fil0" d="M5713.48 4050.2l0 -77.41 126.21 0c17.31,0 30.7,-3.71 40.18,-10.94 9.47,-7.22 14.27,-17.41 14.27,-30.48l0 -30.79c0,-14.13 -4.8,-25.17 -14.53,-33.03 -9.6,-7.86 -23.12,-11.79 -40.68,-11.79l-125.45 0 0 -76.88 124.31 0c15.8,0 28.18,-3.61 36.9,-11.04 8.71,-7.33 13.14,-17.74 13.14,-31.23l0 -24.32c0,-11.79 -4.43,-20.92 -13.14,-27.5 -8.72,-6.48 -21.1,-9.77 -36.9,-9.77l-124.31 0 0 -77.2 130.63 0c44.47,0 78.83,9.45 103.34,28.14 24.39,18.8 36.64,45.46 36.64,79.85l0 24.22c0,23.47 -8.08,42.8 -24.13,57.88 -16.05,15.18 -38.54,24.85 -67.71,28.99 31.33,3.51 55.59,13.38 72.89,29.74 17.31,16.25 25.9,37.49 25.9,63.6l0 31.12c0,34.62 -12.13,61.38 -36.39,80.38 -24.38,19.01 -58.75,28.46 -103.09,28.46l-138.08 0zm-48.52 0l0 -452.37 96.64 0 0 452.37 -96.64 0z"/>
     <path class="fil0" d="M6213.14 4054.88c-51.17,0 -90.96,-12.32 -119.39,-37.07 -28.55,-24.64 -42.83,-59.36 -42.83,-104.17l0 -315.81 96.65 0 0 317.93c0,18.48 5.68,32.82 17.05,43.01 11.38,10.09 27.55,15.19 48.52,15.19 20.98,0 37.27,-5.1 48.77,-15.19 11.63,-10.19 17.44,-24.53 17.44,-43.01l0 -317.93 97.02 0 0 315.81c0,44.82 -14.4,79.53 -43.21,104.17 -28.68,24.75 -68.72,37.07 -120.02,37.07z"/>
     <path class="fil0" d="M6510.79 4050.2l-0.38 -78.04 99.17 0c22.62,0 40.31,-5.1 52.94,-15.08 12.51,-10.09 18.7,-24.11 18.45,-41.85l0 -182.65c0.25,-18.06 -5.94,-31.97 -18.45,-41.85 -12.63,-9.87 -30.32,-14.76 -52.94,-14.76l-98.79 0 -0.38 -78.15 102.46 0c53.32,0 94.5,11.58 123.68,34.51 29.06,23.05 43.59,55.44 43.59,97.06l0 188.91c0,26.76 -6.31,50.02 -19.07,69.87 -12.64,19.76 -31.46,35.05 -56.35,45.88 -25.02,10.73 -55.73,16.14 -92.23,16.14l-101.7 0zm-56.35 0l0 -78.23 96.65 0 0 78.23 -96.65 0zm0 -187l0 -265.38 96.65 0 0 265.38 -96.65 0z"/>
     <path class="fil0" d="M7000.35 4054.88c-30.32,0 -56.98,-3.83 -79.97,-11.37 -22.87,-7.54 -41.82,-18.8 -56.86,-33.77 -14.91,-14.87 -25.52,-33.45 -31.96,-55.65l0 0 89.95 -33.34 0 0c7.2,18.26 17.94,32.07 32.22,41.41 14.27,9.35 31.71,14.02 52.18,14.02 21.23,0 37.78,-3.93 49.65,-11.89 11.75,-7.86 17.69,-18.8 17.69,-32.93l0 -20.28c0,-11.15 -3.91,-20.07 -11.62,-26.76 -7.83,-6.59 -18.2,-12 -31.08,-16.15 -13.02,-4.14 -27.04,-8.07 -42.08,-11.78 -16.55,-4.14 -33.23,-8.92 -50.16,-14.34 -16.8,-5.42 -32.47,-12.42 -46.62,-21.13 -14.15,-8.71 -25.52,-20.39 -34.24,-35.05 -8.59,-14.55 -12.89,-33.45 -12.89,-56.5l0 -11.79c0,-39.61 14.41,-70.19 43.21,-91.96 28.94,-21.66 69.74,-32.49 122.55,-32.49 40.18,0 73.27,8.07 99.05,24.32 25.77,16.14 43.46,40.35 53.07,72.41l0 0 -85.53 33.99 0 0c-6.83,-17.42 -16.43,-30.59 -28.81,-39.4 -12.38,-8.82 -26.66,-13.17 -42.96,-13.17 -20.72,0 -36.64,3.61 -47.76,10.83 -11.12,7.33 -16.68,17.42 -16.68,30.48l0 14.98c0,12.63 4.43,22.62 13.02,29.84 8.59,7.33 20.09,13.06 34.24,17.31 14.15,4.25 29.44,8.6 45.74,13.17 16.04,4.14 32.09,8.92 48.13,14.23 16.05,5.2 30.58,12.21 43.85,20.92 13.14,8.71 23.75,20.18 31.58,34.3 7.96,14.02 11.88,31.97 11.88,53.74l0 19.33c0,39.4 -14.78,69.98 -44.22,91.75 -29.57,21.77 -71,32.71 -124.57,32.71z"/>
    </g>
    <path class="fil0" d="M6327.88 5645.62c-28.62,0 -53.42,-5.13 -74.28,-15.39 -20.75,-10.25 -36.85,-24.8 -48.17,-43.64 -11.33,-18.84 -16.94,-41.38 -16.94,-67.48l0 -44.36c0,-21.82 6.08,-42.09 18.36,-60.57 12.17,-18.49 28.86,-32.68 50.09,-42.46 -18.6,-8.1 -33.39,-19.67 -44.36,-34.69 -10.97,-15.03 -16.46,-31.49 -16.46,-49.13l0 -42.34c0,-36.48 11.93,-65.33 35.54,-86.55 23.61,-21.24 55.69,-31.85 96.22,-31.85 40.54,0 72.61,10.61 96.22,31.85 23.61,21.22 35.41,50.08 35.41,86.55l0 42.34c0,17.88 -5.48,34.34 -16.69,49.25 -11.21,14.9 -26.35,26.47 -45.43,34.57 21.7,9.78 38.75,23.97 51.16,42.46 12.52,18.48 18.72,38.75 18.72,60.57l0 44.36c0,26.11 -5.73,48.65 -17.17,67.48 -11.34,18.84 -27.43,33.39 -48.18,43.64 -20.75,10.26 -45.43,15.39 -74.04,15.39zm0 -88c14.91,0 26.83,-4.17 35.77,-12.63 8.94,-8.35 13.48,-19.67 13.48,-33.87l0 -44.72c0,-13.71 -4.42,-24.68 -13.24,-32.67 -8.94,-7.99 -20.87,-12.04 -36.01,-12.04 -14.9,0 -26.83,4.05 -35.78,12.04 -9.06,7.99 -13.47,19.08 -13.47,33.03l0 45.08c0,13.95 4.41,25.04 13.24,33.38 8.83,8.23 20.86,12.4 36.01,12.4zm0 -223.56c13,0 23.37,-4.17 30.89,-12.4 7.62,-8.35 11.32,-19.55 11.32,-33.74l0 -31.48c0,-13.01 -3.7,-23.38 -11.32,-30.89 -7.52,-7.51 -17.89,-11.33 -30.89,-11.33 -12.88,0 -23.13,3.82 -30.88,11.45 -7.87,7.75 -11.81,18.13 -11.81,31.12l0 31.84c0,14.19 3.94,25.28 11.57,33.39 7.75,7.99 18.12,12.04 31.12,12.04z"/>
   </g>
  </g>
 </g>
</svg>
