<?xml version="1.0" encoding="UTF-8"?>
<!DOCTYPE svg PUBLIC "-//W3C//DTD SVG 1.1//EN" "http://www.w3.org/Graphics/SVG/1.1/DTD/svg11.dtd">
<!-- Creator: CorelDRAW -->
<svg xmlns="http://www.w3.org/2000/svg" xml:space="preserve" width="124.89mm" height="111.701mm" version="1.1" style="shape-rendering:geometricPrecision; text-rendering:geometricPrecision; image-rendering:optimizeQuality; fill-rule:evenodd; clip-rule:evenodd"
viewBox="0 0 12487.9 11169.13"
 xmlns:xlink="http://www.w3.org/1999/xlink"
 xmlns:xodm="http://www.corel.com/coreldraw/odm/2003">
 <defs>
  <style type="text/css">
   <![CDATA[
    .str0 {stroke:white;stroke-width:149.99;stroke-linecap:round;stroke-linejoin:round;stroke-miterlimit:10}
    .fil4 {fill:none}
    .fil8 {fill:none;fill-rule:nonzero}
    .fil6 {fill:#1F54A1}
    .fil9 {fill:#2DA2C2}
    .fil5 {fill:#338AC2}
    .fil7 {fill:#47C0E3}
    .fil3 {fill:#CCCCCC}
    .fil2 {fill:#EEEEEE}
    .fil1 {fill:white}
    .fil12 {fill:#1F54A1;fill-rule:nonzero}
    .fil10 {fill:#338AC2;fill-rule:nonzero}
    .fil11 {fill:#338AC2;fill-rule:nonzero}
    .fil13 {fill:#47C0E3;fill-rule:nonzero}
    .fil14 {fill:white;fill-rule:nonzero}
    .fil0 {fill:white;fill-rule:nonzero}
    .fil17 {fill:url(#id29);fill-rule:nonzero}
    .fil18 {fill:url(#id30);fill-rule:nonzero}
    .fil15 {fill:url(#id31);fill-rule:nonzero}
    .fil16 {fill:url(#id32);fill-rule:nonzero}
   ]]>
  </style>
     <clipPath id="id0">
      <path d="M571.2 1518.11l3257.82 -1126.82c151.29,-52.33 317.87,28.64 370.2,179.91l1649.48 4768.91c52.33,151.29 -28.64,317.87 -179.92,370.2l-3257.81 1126.81c-151.29,52.33 -317.87,-28.63 -370.2,-179.91l-1649.48 -4768.91c-52.33,-151.28 28.64,-317.86 179.91,-370.19z"/>
     </clipPath>
     <clipPath id="id1">
      <path d="M980.73 1763.97l2678.21 -926.34c124.36,-43.02 261.31,23.54 304.32,147.91l1443.91 4174.58c43.02,124.37 -23.54,261.31 -147.9,304.32l-2678.21 926.34c-124.37,43.02 -261.31,-23.54 -304.33,-147.91l-1443.91 -4174.57c-43.02,-124.38 23.54,-261.32 147.91,-304.33z"/>
     </clipPath>
      <clipPath id="id2" style="clip-rule:nonzero">
       <path d="M2127.51 4215.19l-40.8 -117.96 192.31 -66.51c26.38,-9.13 44.83,-21.85 55.46,-37.85 10.63,-16 12.57,-34.06 5.69,-53.97l-16.23 -46.93c-7.45,-21.52 -20.58,-35.82 -39.55,-42.67 -18.77,-6.91 -41.45,-5.78 -68.2,3.48l-191.16 66.12 -40.52 -117.15 189.43 -65.52c24.06,-8.33 41.03,-20.35 50.39,-36.28 9.43,-15.76 10.68,-33.95 3.57,-54.5l-12.82 -37.06c-6.21,-17.96 -17.76,-29.55 -34.52,-34.99 -16.7,-5.27 -37.3,-3.76 -61.35,4.56l-189.43 65.52 -40.7 -117.64 199.06 -68.85c67.76,-23.44 125.11,-27.15 172.31,-11.58 47.06,15.79 79.78,49.94 97.91,102.37l12.76 36.89c12.37,35.77 10.24,69.47 -6.26,100.91 -16.45,31.6 -45.63,58.18 -87.91,79.86 49.6,-11.17 91.76,-8.91 126.75,6.89 34.94,15.64 59.22,43.47 72.99,83.27l16.4 47.42c18.25,52.75 13.87,99.92 -13.08,141.67 -27.13,41.82 -74.51,74.32 -142.09,97.7l-210.41 72.77zm-73.92 25.57l-238.43 -689.32 147.28 -50.94 238.42 689.32 -147.27 50.94z"/>
      </clipPath>
      <clipPath id="id3" style="clip-rule:nonzero">
       <path d="M2891.35 3958.96c-77.97,26.97 -145.1,29.18 -201.45,6.45 -56.5,-22.49 -96.55,-67.87 -120.17,-136.16l-166.45 -481.24 147.27 -50.94 167.57 484.47c9.74,28.16 25.96,47.01 48.66,56.55 22.65,9.38 49.98,8.62 81.93,-2.43 31.96,-11.05 54.11,-27.41 66.3,-48.85 12.34,-21.66 13.64,-46.57 3.9,-74.72l-167.57 -484.47 147.85 -51.14 166.45 481.23c23.62,68.29 19.98,128.79 -10.93,181.51 -30.66,52.82 -85.19,92.69 -163.36,119.73z"/>
      </clipPath>
      <clipPath id="id4" style="clip-rule:nonzero">
       <path d="M3342.46 3794.97l-41.72 -118.73 151.12 -52.28c34.46,-11.92 58.73,-29.01 72.71,-50.88 13.75,-21.97 15.79,-46.59 6.06,-73.47l-96.26 -278.33c-9.14,-27.64 -25.9,-45.57 -50.17,-54.03 -24.45,-8.39 -53.99,-6.51 -88.44,5.41l-150.54 52.07 -41.78 -118.89 156.13 -54.01c81.24,-28.1 150.1,-32.17 206.66,-12.6 56.43,19.8 95.63,61.49 117.57,124.93l99.57 287.87c14.1,40.78 16.73,79.54 7.76,116.52 -8.85,36.76 -29.47,69.98 -61.68,99.6 -32.47,29.53 -76.39,53.97 -132.03,73.2l-154.97 53.61zm-85.86 29.7l-41.24 -119.22 147.27 -50.94 41.24 119.22 -147.27 50.94zm-98.56 -284.95l-139.87 -404.38 147.28 -50.95 139.87 404.39 -147.28 50.94z"/>
      </clipPath>
      <clipPath id="id5" style="clip-rule:nonzero">
       <path d="M4090.89 3544.07c-46.2,15.98 -88.83,24.2 -127.84,24.83 -38.83,0.57 -73.63,-6.6 -104.43,-21.49 -30.56,-14.8 -56.52,-37.52 -78.03,-67.94l0 0 119.49 -98.22 0 0c20.6,24.04 44.25,39.42 70.92,46.13 26.68,6.72 55.71,4.65 86.89,-6.14 32.35,-11.19 55.5,-25.9 69.39,-44.29 13.76,-18.17 17.04,-37.97 9.6,-59.48l-10.69 -30.91c-5.88,-16.99 -16.55,-28.52 -31.82,-34.66 -15.41,-5.9 -34.05,-8.69 -55.87,-8.21 -22.02,0.55 -45.45,1.95 -70.32,4.21 -27.4,2.41 -55.33,3.92 -83.98,4.59 -28.46,0.6 -56.02,-1.82 -82.17,-7.63 -26.15,-5.81 -49.63,-17.62 -70.63,-35.36 -20.76,-17.64 -37.27,-44.18 -49.42,-79.29l-6.21 -17.96c-20.88,-60.35 -15.05,-114.55 17.37,-162.91 32.67,-48.26 89.14,-86.27 169.61,-114.1 61.22,-21.18 115.91,-26.32 163.75,-15.15 47.79,11.01 87.49,38.59 119.03,82.39l0 0 -112.42 96.86 0 0c-19.58,-22.95 -41.15,-37.95 -64.65,-44.86 -23.52,-6.91 -47.57,-6.02 -72.39,2.57 -31.58,10.93 -53.93,24.82 -67.06,41.68 -13.08,17.03 -16.23,35.33 -9.35,55.24l7.89 22.81c6.66,19.26 18.66,32.14 35.56,38.62 16.96,6.64 37.5,9.32 61.29,8.33 23.8,-0.98 49.39,-2.41 76.63,-4.04 26.63,-2.15 53.6,-3.32 80.84,-3.68 27.19,-0.53 53.03,2.49 77.83,8.77 24.61,6.34 46.83,18.23 66.2,35.62 19.51,17.17 34.94,42.45 46.42,75.61l10.18 29.46c20.77,60.02 14.37,114.42 -19.02,163.11 -33.58,48.76 -90.95,87.26 -172.59,115.5z"/>
      </clipPath>
     <clipPath id="id6">
      <path d="M10510.51 1634.3l-8.03 233.08c-8.02,36.65 -14.89,72.04 -25.65,108.62 -10.46,35.53 -30.32,73.06 -33.45,107.57 -1.26,1.08 -2.57,1.4 -3.37,3.69l-6.3 7.83c-0.79,1.19 -1.94,2.9 -2.78,4.26 -0.24,0.4 -8.57,17.07 -9.3,18.59l-62.56 107.78c-79.23,109.63 -117.62,144.75 -215.37,225.58 -24.52,20.27 -39.97,19.56 -48.77,63.36 -6.22,30.91 -15.56,71.82 -13.34,100.22l8.65 5.77c36.41,16.62 94.19,11.67 129.7,86.23 34.5,72.44 -3.83,112.53 -36.86,160.84 5.03,8.48 3.74,7.79 13.77,18.54 67.29,72.14 214.91,148.59 261.37,255.93l14.16 25.54c-7.98,50.46 35.16,207.28 -232.67,157.72 -138.06,-25.54 -210.65,-30.4 -243.34,166.3 -19.53,117.53 -24.16,256.85 -15.14,368.61 5.77,71.48 34.95,267.76 65.09,310.05 8.23,53.81 81.55,188.94 104.86,225.96 46.01,73.03 89.26,124.3 149.61,191.46 88.5,98.49 235.58,180.03 252.68,267.53 12.86,65.75 -32.78,100.26 -55.2,130.75l-115.43 43.33c-150.24,63.25 -205.62,214.15 -126.17,333.62 73.61,110.67 143.85,155.45 222.16,299.47 9.13,16.8 42.95,90.04 53.69,108.18l-0.7 5.27 38.63 215.27c-15.67,79.97 5.42,155.04 -77.8,312.6 -14.32,27.11 -36.48,57.86 -46.29,82.03 209.86,51.48 165.07,293.14 -3.71,306.08 -70.93,5.45 -470.51,-82.96 -571.49,-101.96 -382.74,-71.99 -765.48,-143.99 -1148.21,-215.98 -132.98,-25.01 -1670.03,-303.52 -1722.21,-330.96 -148.83,-78.25 -97.38,-312.14 111.99,-284.22 0.18,-25.1 -9.61,-63.63 -13.05,-93.19 -20.92,-179.79 29.1,-243.15 42.11,-325.37 40.37,-68.35 113.22,-180.55 113.22,-180.55l2.03 -5.52c18.73,-13.75 66.21,-63.88 84.72,-78.66 81.6,-65.11 115.96,-85.94 211.13,-136.77 37.28,-19.91 78.38,-40.69 108.83,-63.47 126.15,-94.4 112.81,-253.46 0.08,-360.31 -16.15,-15.31 -31.84,-25.76 -49.63,-42.22 -19.38,-17.94 -28.4,-33.11 -45.15,-47.26 -4.3,-40.46 -61.96,-128.12 84.61,-193.78 38.16,-17.09 135.07,-44.54 213.26,-77.88 292.54,-124.74 503.95,-346.81 632.54,-650.98 37.53,-88.76 114.37,-306.77 95.61,-407.35 -6.87,-36.8 -31.53,-78.59 -72.4,-85.44 -23.54,-26.45 -182.65,-32.61 -236.88,-72.63 -27.43,-20.25 -47.77,-46.98 -51.81,-85.1 -5.47,-51.76 19.58,-77.49 38.98,-114.52 49.25,-24.99 5.37,-33.09 174.31,-90.3 41.49,-14.06 162.87,-53.05 189.37,-71.06 -33.79,-94.61 -4.48,-176.86 88.2,-199.65 34,-8.37 48.46,-0.09 73.35,1.96 34.57,2.83 30.66,4.34 49.18,-99.2 9.71,-54.26 -44.04,-93.3 -93.26,-211.91 -42.47,-102.31 -48.93,-146.42 -54.63,-203.16l0.68 -1.95c0,0 -8.21,-127.24 2.52,-290.05 6.86,-104 53.41,-215.58 86.14,-282.65 26.63,-38.44 84.88,-130.58 98.53,-146.87 39.8,-47.49 86.32,-97.05 128.65,-130.01 92.07,-71.71 187.13,-134.93 327.06,-174.04 294.41,-82.27 577.16,-27.46 821,156.55 147.11,111.01 263.02,285.23 313.07,455.09 42.88,145.5 22.27,162.79 38.99,180.54l-3.6 3.18z"/>
     </clipPath>
     <clipPath id="id7">
      <path d="M8751.98 2786.36c-26.8,-11.46 -47.48,-20.85 -71.62,-38.73 -20.88,-15.47 -24.33,-18.2 -31.51,-42.57 -0.53,-1.83 -1.76,-7.42 -2.31,-9.22 -5.1,-16.84 4.52,0.73 -5.04,-14.08 -59.11,39.84 -198.59,60.71 -213.66,135.75 63.81,46.13 312.62,80.68 415.39,100.49 408.24,78.67 793.29,164.73 1202.49,230.31 -59.61,-67.04 -614.22,-174.6 -742.48,-204.47 -156.39,-36.43 -405.26,-95.05 -551.26,-157.49z"/>
     </clipPath>
     <clipPath id="id8">
      <path d="M8748.44 3067.31c-74.61,336.51 -140.92,548.73 -316,810.87 -103.33,154.7 -246.55,290.93 -395.58,376.25 -33.24,19.03 -133.47,69.83 -146.19,114.72 -18.55,65.48 113.34,87.21 171.68,100.81 200.07,46.66 542.05,103.68 752.75,143.32 166.41,31.31 332.81,62.6 499.22,93.9 164.48,30.95 341.98,71.22 506.09,94.38 -98.21,-124.39 -765.35,-289.82 -978.57,-330.44 -102.41,-19.5 -265.93,-48.82 -341.3,-105.05 -98.45,-73.43 -21.33,-187.73 25.49,-286.96 89.6,-189.9 293.04,-764.72 241.03,-976.91l-18.61 -34.9z"/>
     </clipPath>
     <clipPath id="id9">
      <path d="M7790.02 4972.05c-122.08,87.9 -364.91,221.77 -454.9,412.71 -62.76,133.15 -38.84,257.66 34.47,330.53 80.16,79.69 221.41,102.24 348.7,126.19 280.78,52.82 562.25,104.19 842.71,158.44 271.51,52.54 561.36,118.68 834.62,162.11 -75.31,-59.04 -476.99,-178.39 -598.31,-210.97 -217.34,-58.36 -436.55,-111.36 -655.18,-163.1 -220.19,-52.11 -448.99,-83.49 -517.08,-263.45 -76.74,-202.87 143.92,-487.99 164.98,-552.46z"/>
     </clipPath>
    <clipPath id="id10" style="clip-rule:nonzero">
     <path d="M3691.9 2272.12l0 2684.18 2345.49 1405.6 2362.42 -1363.26 25.4 -2718.05 -2370.89 -1414.07 -2362.42 1405.6z"/>
    </clipPath>
     <clipPath id="id11" style="clip-rule:nonzero">
      <path d="M4649.51 4478.51l1400.23 1694.16 1475.03 -1683.48 -2875.27 -10.68z"/>
     </clipPath>
     <clipPath id="id12" style="clip-rule:nonzero">
      <path d="M3691.9 2272.12l0 2684.18 2345.49 1405.6 2362.42 -1363.26 25.4 -2718.05 -2370.89 -1414.07 -2362.42 1405.6z"/>
     </clipPath>
     <clipPath id="id13" style="clip-rule:nonzero">
      <path d="M8267.64 4863.3l-742.88 -374.1 -1475.03 1683.47 2217.91 -1309.37z"/>
     </clipPath>
     <clipPath id="id14" style="clip-rule:nonzero">
      <path d="M3691.9 2272.12l0 2684.18 2345.49 1405.6 2362.42 -1363.26 25.4 -2718.05 -2370.89 -1414.07 -2362.42 1405.6z"/>
     </clipPath>
     <clipPath id="id15" style="clip-rule:nonzero">
      <path d="M4649.51 4478.51l1400.23 1694.16 -2231.28 -1287.99 831.05 -406.17z"/>
     </clipPath>
     <clipPath id="id16" style="clip-rule:nonzero">
      <path d="M3691.9 2272.12l0 2684.18 2345.49 1405.6 2362.42 -1363.26 25.4 -2718.05 -2370.89 -1414.07 -2362.42 1405.6z"/>
     </clipPath>
     <clipPath id="id17" style="clip-rule:nonzero">
      <path d="M3810.45 2314.04l839.06 2164.47 -831.05 406.17 -8.01 -2570.63z"/>
     </clipPath>
     <clipPath id="id18" style="clip-rule:nonzero">
      <path d="M3691.9 2272.12l0 2684.18 2345.49 1405.6 2362.42 -1363.26 25.4 -2718.05 -2370.89 -1414.07 -2362.42 1405.6z"/>
     </clipPath>
     <clipPath id="id19" style="clip-rule:nonzero">
      <path d="M6087.14 1998.73l-2276.7 315.31 839.07 2164.47 1437.63 -2479.78z"/>
     </clipPath>
     <clipPath id="id20" style="clip-rule:nonzero">
      <path d="M3691.9 2272.12l0 2684.18 2345.49 1405.6 2362.42 -1363.26 25.4 -2718.05 -2370.89 -1414.07 -2362.42 1405.6z"/>
     </clipPath>
     <clipPath id="id21" style="clip-rule:nonzero">
      <path d="M8299.71 2351.45l-2212.56 -352.73 1437.63 2490.48 774.93 -2137.75z"/>
     </clipPath>
     <clipPath id="id22" style="clip-rule:nonzero">
      <path d="M3691.9 2272.12l0 2684.18 2345.49 1405.6 2362.42 -1363.26 25.4 -2718.05 -2370.89 -1414.07 -2362.42 1405.6z"/>
     </clipPath>
     <clipPath id="id23" style="clip-rule:nonzero">
      <path d="M8299.71 2351.45l-32.07 2511.85 -742.87 -374.1 774.93 -2137.75z"/>
     </clipPath>
     <clipPath id="id24" style="clip-rule:nonzero">
      <path d="M3691.9 2272.12l0 2684.18 2345.49 1405.6 2362.42 -1363.26 25.4 -2718.05 -2370.89 -1414.07 -2362.42 1405.6z"/>
     </clipPath>
     <clipPath id="id25" style="clip-rule:nonzero">
      <path d="M3814.7 2314.04l2244.6 -1297.4 27.85 982.08 -2272.45 315.32z"/>
     </clipPath>
     <clipPath id="id26" style="clip-rule:nonzero">
      <path d="M3691.9 2272.12l0 2684.18 2345.49 1405.6 2362.42 -1363.26 25.4 -2718.05 -2370.89 -1414.07 -2362.42 1405.6z"/>
     </clipPath>
     <clipPath id="id27" style="clip-rule:nonzero">
      <path d="M8302.61 2353.27l-2243.3 -1336.63 27.83 982.08 2215.47 354.55z"/>
     </clipPath>
     <clipPath id="id28" style="clip-rule:nonzero">
      <path d="M3691.9 2272.12l0 2684.18 2345.49 1405.6 2362.42 -1363.26 25.4 -2718.05 -2370.89 -1414.07 -2362.42 1405.6z"/>
     </clipPath>
  <linearGradient id="id29" gradientUnits="userSpaceOnUse" x1="6007.84" y1="6909.33" x2="6027.42" y2="9748.63">
   <stop offset="0" style="stop-opacity:1; stop-color:#173966"/>
   <stop offset="1" style="stop-opacity:1; stop-color:#338AC2"/>
  </linearGradient>
  <linearGradient id="id30" gradientUnits="userSpaceOnUse" xlink:href="#id29" x1="6007.84" y1="6909.33" x2="6027.42" y2="9748.63">
  </linearGradient>
  <linearGradient id="id31" gradientUnits="userSpaceOnUse" xlink:href="#id29" x1="6007.85" y1="6909.33" x2="6027.43" y2="9748.63">
  </linearGradient>
  <linearGradient id="id32" gradientUnits="userSpaceOnUse" xlink:href="#id29" x1="6007.84" y1="6909.34" x2="6027.42" y2="9748.63">
  </linearGradient>
 </defs>
 <g id="Camada_x0020_1">
  <metadata id="CorelCorpID_0Corel-Layer"/>
  <g id="_1813066670880">
   <path class="fil0" d="M2517.24 10883.49l152.59 0 0 125.99c0,32.7 -6.35,61.08 -19.04,84.92 -12.82,23.83 -30.79,42.28 -54.14,55.22 -23.24,13.05 -50.91,19.52 -82.88,19.52 -32.1,0 -60,-6.23 -83.96,-18.57 -23.83,-12.45 -42.16,-29.94 -55.1,-52.7 -12.81,-22.64 -19.28,-49.59 -19.28,-80.72l0 -207.68c0,-32.94 6.47,-61.56 19.28,-85.63 12.94,-24.08 31.03,-42.64 54.5,-55.82 23.36,-13.06 50.79,-19.64 82.4,-19.64 31.39,0 58.1,5.99 80.13,17.72 22.16,11.86 39.4,29.59 51.86,53.19 12.34,23.59 19.76,53.06 22.04,88.38l0 0 -95.81 0 0 0c-1.8,-22.39 -7.91,-38.92 -18.09,-49.46 -10.06,-10.55 -23.48,-15.82 -40.13,-15.82 -18.92,0 -34.01,6.11 -45.03,18.33 -11.14,12.1 -16.77,28.39 -16.77,48.75l0 207.68c0,17.85 5.75,31.98 17.24,42.28 11.5,10.42 27.08,15.69 46.72,15.69 19.4,0 34.85,-5.75 46.23,-17.01 11.5,-11.37 17.25,-27.07 17.25,-47.19l0 -39.29 -60 0 0 -88.14zm927.21 280.38l158.22 -510.22 61.07 0 158.58 510.22 -95.09 0 -94.02 -341.46 -94.02 341.46 -94.73 0zm88.03 -80.72l0 -86.95 203.84 0 0 86.95 -203.84 0zm1096.68 -118.93l91.98 -310.56 104.2 0 0 510.22 -82.52 0 0 -376.2 4.19 22.52 -85.51 280.03 -64.31 0 -85.87 -273.08 5.27 -29.47 0 376.2 -83.24 0 0 -510.22 104.92 0 90.9 310.56zm843.61 199.65l0.36 -510.22 91.62 0 0 510.22 -91.98 0zm36.89 0l0 -88.75 247.69 0 0 88.75 -247.69 0zm0 -208.76l0 -89.1 219.66 0 0 88.74 -219.66 0.36zm0 -212.71l0 -88.74 247.69 0 0 88.74 -247.69 0zm1260.53 421.47l0.36 -510.22 91.5 0 0 510.22 -91.86 0zm-217.62 0l0.36 -510.22 91.62 0 0 510.22 -91.98 0zm43.24 -208.4l0 -87.43 234.03 -0.36 0 87.43 -234.03 0.36zm1067.22 213.67c-32.34,0 -60.36,-6.23 -84.08,-18.81 -23.71,-12.45 -42.04,-30.3 -54.98,-53.54 -12.81,-23.11 -19.28,-50.3 -19.28,-81.68l0 -212.71c0,-31.74 6.47,-59.16 19.28,-82.27 12.94,-23 31.27,-40.73 54.98,-53.07 23.72,-12.45 51.75,-18.68 84.08,-18.68 32.46,0 60.6,6.23 84.31,18.68 23.72,12.34 42.05,30.07 54.98,53.07 12.82,23.11 19.29,50.54 19.29,82.27l0 212.71c0,31.39 -6.47,58.58 -19.29,81.68 -12.93,23.24 -31.26,41.09 -54.98,53.54 -23.71,12.58 -51.86,18.81 -84.31,18.81zm0 -91.62c19.88,0 35.57,-5.99 47.19,-17.85 11.5,-11.98 17.37,-28.27 17.37,-49.11l0 -204.2c0,-20.37 -5.75,-36.66 -17.25,-48.63 -11.5,-12.1 -27.19,-18.09 -47.31,-18.09 -19.77,0 -35.34,5.99 -46.96,18.09 -11.49,11.97 -17.36,28.26 -17.36,48.63l0 204.2c0,20.84 5.87,37.13 17.36,49.11 11.62,11.86 27.19,17.85 46.96,17.85zm934.51 91.62c-48.51,0 -86.23,-13.89 -113.18,-41.8 -27.07,-27.79 -40.61,-66.95 -40.61,-117.5l0 -356.19 91.62 0 0 358.59c0,20.84 5.39,37.01 16.17,48.51 10.78,11.38 26.12,17.13 46,17.13 19.88,0 35.33,-5.75 46.23,-17.13 11.02,-11.5 16.53,-27.67 16.53,-48.51l0 -358.59 91.98 0 0 356.19c0,50.55 -13.65,89.71 -40.96,117.5 -27.19,27.91 -65.15,41.8 -113.78,41.8zm922.89 0c-28.75,0 -54.02,-4.31 -75.81,-12.82 -21.68,-8.5 -39.65,-21.2 -53.9,-38.09 -14.13,-16.77 -24.2,-37.73 -30.31,-62.75l0 0 85.28 -37.61 0 0c6.83,20.6 17.01,36.17 30.54,46.71 13.54,10.54 30.07,15.81 49.47,15.81 20.12,0 35.82,-4.43 47.07,-13.41 11.14,-8.87 16.77,-21.2 16.77,-37.13l0 -22.88c0,-12.58 -3.71,-22.64 -11.02,-30.19 -7.42,-7.42 -17.24,-13.53 -29.46,-18.2 -12.34,-4.67 -25.63,-9.11 -39.89,-13.3 -15.69,-4.67 -31.5,-10.06 -47.55,-16.17 -15.93,-6.11 -30.78,-14.01 -44.2,-23.84 -13.42,-9.82 -24.2,-22.99 -32.46,-39.52 -8.15,-16.41 -12.22,-37.73 -12.22,-63.72l0 -13.29c0,-44.68 13.66,-79.17 40.97,-103.72 27.43,-24.44 66.11,-36.65 116.17,-36.65 38.09,0 69.47,9.1 93.9,27.43 24.44,18.2 41.21,45.51 50.31,81.68l0 0 -81.08 38.33 0 0c-6.47,-19.65 -15.57,-34.5 -27.31,-44.44 -11.74,-9.94 -25.28,-14.86 -40.73,-14.86 -19.64,0 -34.73,4.08 -45.27,12.22 -10.54,8.27 -15.82,19.65 -15.82,34.38l0 16.89c0,14.25 4.2,25.51 12.34,33.66 8.15,8.26 19.05,14.73 32.46,19.52 13.42,4.79 27.91,9.7 43.36,14.85 15.21,4.67 30.43,10.06 45.64,16.05 15.21,5.87 28.99,13.78 41.56,23.6 12.46,9.82 22.52,22.76 29.95,38.69 7.54,15.81 11.26,36.05 11.26,60.6l0 21.8c0,44.44 -14.02,78.92 -41.93,103.48 -28.02,24.55 -67.3,36.89 -118.09,36.89zm788.51 -5.27l0.36 -510.22 91.62 0 0 510.22 -91.98 0zm36.89 0l0 -88.75 247.69 0 0 88.75 -247.69 0zm0 -208.76l0 -89.1 219.66 0 0 88.74 -219.66 0.36zm0 -212.71l0 -88.74 247.69 0 0 88.74 -247.69 0z"/>
   <g>
    <path class="fil1" d="M1935.56 10783.01c69.44,0 125.74,56.3 125.74,125.74 0,69.44 -56.3,125.75 -125.74,125.75 -69.44,0 -125.75,-56.31 -125.75,-125.75 0,-69.44 56.31,-125.74 125.75,-125.74z"/>
    <path class="fil1" d="M11013.69 10783.01c69.44,0 125.74,56.3 125.74,125.74 0,69.44 -56.3,125.75 -125.74,125.75 -69.44,0 -125.74,-56.31 -125.74,-125.75 0,-69.44 56.3,-125.74 125.74,-125.74z"/>
   </g>
   <path class="fil2" d="M6379.65 9582.38c-71.16,132.06 -166.73,252.57 -289.36,357.9 -320.02,274.92 -731.17,368.45 -1144.27,368.45 -412.37,0 -822.41,-93.59 -1140.78,-369.52 -110.55,-95.8 -198.83,-204.02 -266.92,-321.92 -68.4,137.77 -167.36,260.63 -298.92,363.46 -285.57,223.2 -649.14,292.96 -1003.92,292.96l-1398.84 0c-206.7,0 -375.3,-168.6 -375.3,-375.3l0 -3391.21c0,-206.7 168.6,-375.3 375.3,-375.3l625.34 0 -1425.36 -4120.91c-120.02,-347 64.92,-727.54 411.93,-847.56l3257.82 -1126.82c347,-120.02 727.54,64.93 847.56,411.94l250.7 724.83 1057.81 -629.38c121.52,-72.29 262.7,-72.21 384.15,0.21l1932.34 1152.51c0.95,-52.85 3.37,-105.67 6.83,-158.17 10.86,-164.71 65.26,-327.47 137.35,-475.08l4.7 -9.63c8.73,-17.89 17.34,-32.57 28.66,-48.94l6.1 -8.81c43.5,-62.82 77.07,-124.63 127.27,-184.53 62.54,-74.64 130.13,-145.78 207.11,-205.72 156.35,-121.75 313.27,-210.22 505.22,-263.88 449.4,-125.59 898.51,-39.28 1270.75,241.62 232.83,175.72 414.83,441.55 497.22,721.17 20.44,69.34 35.01,137.21 44.32,208.82 1.35,10.42 2.16,19.33 2.68,29.82l6.82 137.68c0.54,11.04 0.62,20.46 0.23,31.5l-6.39 185.36c-0.81,23.79 -3.36,44.02 -8.44,67.28l-2.73 12.48c-10.61,48.44 -20.68,96.28 -34.69,143.93 -5.45,18.51 -12.01,35.56 -18.6,52.81l-1.16 12.73c-8.29,91.66 -44.59,169.14 -108.7,232.03l-41.63 71.71c-6.57,11.31 -12.64,20.67 -20.3,31.28l-4.12 5.7c-16.85,23.34 -33.64,45.53 -50.59,66.83 7.13,25.89 12.6,52.07 16.39,78.39 70.64,67.99 130.7,143.77 174.82,234.19l29.14 52.55c42.32,76.3 56.11,154.41 42.5,240.59l-4.37 27.66c-9.41,139.93 -26.62,236.57 -115.06,360.9 -96.62,135.82 -227.99,212.2 -373.43,243.81 2.95,31.66 7.98,72.24 14.71,105.94 19.23,35.26 31.68,71.91 38.71,113.43 11.02,23.49 25.99,50.54 37.64,69.22 27.5,43.66 62.38,83.24 96.81,121.57 36.88,41.05 99.75,85.23 142.31,124.32 116.8,107.28 202.03,230.84 232.97,389.1 30.03,153.61 2.06,310.07 -78.86,443.98 -21.35,35.33 -43.28,61.2 -67.62,92.19l-24.25 32.99c-1.93,2.62 -3.88,5.21 -5.84,7.77 17.13,26.85 33.41,54.38 48.83,82.73 16.96,31.19 30.3,65.92 46.93,96.08l22.3 37.66c39.59,66.86 56.64,135.86 51.99,211.17l29.64 165.18c8.62,48.06 8.29,90.52 -1.1,138.43l-4.47 22.88c-0.61,4.72 -1.14,9.45 -1.61,14.18 277.36,17.53 550.25,85.43 788.43,235.08 279.83,175.83 463.17,437.54 557.63,753.04 56,187.01 -39.53,384.35 -220.95,456.42l-479.95 190.7c94.84,40.21 185.98,88.49 272.41,145.49 149.75,98.76 269.68,230.38 357.43,386.77 100.5,179.1 137.04,382.95 137.04,586.46l0 144.89c0,402.7 -158.14,749.35 -483.94,989.78 -331.92,244.93 -752.63,318.5 -1156.67,318.5 -241.69,0 -486.45,-28.24 -716.73,-103.95 -215.85,-70.98 -412.36,-182.88 -573.87,-343.84 -70.88,-70.63 -131.7,-148.21 -183.02,-231.47 -1.39,2.2 -2.79,4.4 -4.19,6.58 -142.63,222.48 -348.26,381.67 -589.51,485.88 -263.16,113.68 -555.45,151.78 -840.22,151.78l-1184.8 0c-206.7,0 -375.3,-168.6 -375.3,-375.3l0 -316.02z"/>
   <path class="fil1" d="M571.21 1518.1l3257.82 -1126.81c151.28,-52.33 317.86,28.64 370.19,179.91l401.32 1160.29 1453.78 -864.98 2370.89 1414.07 -2.11 226.11c18.21,-5.83 38.28,-12.07 58.11,-18.66 6.12,-114.25 74.9,-212.62 201.99,-246.36 -0.47,-0.79 -0.93,-1.55 -1.37,-2.29 -22.66,-38.26 -42.65,-76.66 -59.71,-117.79 -35.21,-84.77 -55.57,-152.27 -64.67,-243.05l-3.13 -31.03 1.72 -4.93c-4.46,-91.76 -1.74,-189.26 4.2,-279.36 7.52,-114.06 50.31,-233.1 100.1,-335.11l4.7 -9.62 6.1 -8.81c34.16,-49.3 68.82,-112.33 106.34,-157.11 44.64,-53.27 95.29,-108.02 150.06,-150.66 118.07,-91.96 229.79,-157.77 375.64,-198.53 336.69,-94.1 664.82,-30.68 943.66,179.74 168.6,127.24 303.72,325.46 363.3,527.67 16.25,55.13 25.38,99.1 32.14,151.14l6.83 137.68 -6.39 185.36 -2.73 12.48c-8.69,39.73 -16.62,79.15 -28.12,118.25 -6.93,23.57 -24.4,59.81 -28.39,81.51l-5.08 56.08 -29.87 25.55c-0.11,0.23 -0.23,0.45 -0.34,0.69l-2.18 4.5 -68.74 118.42 -4.12 5.7c-71.96,99.58 -127.45,156.88 -214.91,230.85 38.53,27 67.89,63.5 88.78,107.37 30.06,63.1 36.53,130.08 12.82,196.09 22.31,17.21 45.32,33.92 64.29,49.34 64.2,52.18 125.05,111.24 160.09,187.35l34.76 62.66 -7.09 44.83c-4.42,71.77 -1.33,119.92 -47.46,184.76 -80.86,113.67 -226.35,115.35 -350.31,92.41 -13.16,-2.43 -43.58,-8.56 -64.59,-10.11 -6.78,19.17 -12.2,48.38 -14.3,61.08 -17.59,105.87 -22.32,227.41 -13.71,334.22 4.48,55.29 23.01,194.65 43.97,246.07l14.91 20.92 4.86 31.98c8.75,37.7 62.99,138.36 85.04,173.36 40.2,63.82 84.9,116.43 135.21,172.42 95.22,105.98 256.33,182.2 286.13,334.6 12.23,62.58 1.16,123.41 -31.73,177.85 -15.31,25.31 -31.62,41 -48.25,63.27l-24.77 33.66 -151.58 56.92c-49.71,21.73 -97.58,70.69 -61.41,125.04 29.77,44.78 64.72,83.25 99.38,124.06 50.32,59.22 91.99,117.66 129.22,186.12 18.36,33.77 32.61,70.82 51.33,104.01l24.68 41.69 -4.25 31.81 39.41 219.6 -5.07 25.92c-7.4,37.72 -6.67,81.14 -12.44,120.52 -9.97,68.21 -30.98,131.2 -59.92,192.56 42.66,39.52 73.16,89.97 85.55,148.29 64,-5.02 130.79,-7.53 200.35,-7.53 301.16,0 549.29,60.5 742.51,182.29 193.2,121 325.8,302.5 397.79,542.91l-641.18 254.74c-51.16,-130.55 -123.13,-229.27 -215.93,-295.33 -92.82,-66.07 -199.84,-98.71 -322.01,-98.71 -155.33,0 -274.67,27.07 -358.01,81.2 -83.33,54.93 -125.01,130.55 -125.01,228.46l0 112.24c0,94.74 33.15,169.57 97.56,223.7 64.39,54.93 150.58,97.91 256.66,129.76 106.06,31.84 220.66,64.47 342.84,98.7 120.28,31.05 240.55,66.87 360.83,106.68 120.28,39.01 229.2,91.54 328.64,156.82 98.5,65.27 178.05,151.26 236.77,257.13 59.66,105.08 89.03,239.62 89.03,402.81l0 144.89c0,295.33 -110.81,524.61 -331.48,687.79 -221.62,163.19 -532.26,245.18 -933.83,245.18 -227.29,0 -427.13,-28.65 -599.51,-85.17 -171.42,-56.52 -313.47,-140.9 -426.17,-253.15 -111.77,-111.44 -191.32,-250.75 -239.62,-417.13l674.32 -249.96c53.98,136.92 134.49,240.41 241.52,310.46 107,70.05 237.71,105.08 391.14,105.08 159.12,0 283.17,-29.46 372.2,-89.16 88.07,-58.91 132.6,-140.9 132.6,-246.78l0 -152.05c0,-83.58 -29.36,-150.46 -87.14,-200.6 -58.72,-49.37 -136.37,-89.96 -232.98,-121.01 -97.55,-31.05 -202.66,-60.49 -315.37,-88.35 -124.08,-31.05 -249.08,-66.86 -376,-107.47 -125.96,-40.61 -243.4,-93.13 -349.47,-158.42 -106.07,-65.27 -191.3,-152.85 -256.66,-262.7 -64.39,-109.06 -96.6,-250.76 -96.6,-423.5l0 -88.36c0,-276.11 93.38,-493.72 280.1,-654.08 -38.15,-7.86 -76.31,-15.55 -114.5,-22.74 -382.73,-71.99 -765.47,-143.99 -1148.19,-215.97 -296.86,-55.84 -594.31,-109.02 -891.26,-164.55 -186.72,-34.92 -373.48,-70.04 -559.84,-106.89 -63.88,-12.64 -127.86,-25.4 -191.49,-39.25 -35.2,-7.67 -87.6,-17.46 -119.1,-34.03 -91.06,-47.88 -149.43,-135.49 -159.22,-231.98l-738.64 426.24 -824.3 -493.98 -2325.57 804.37c23.25,14.36 45.53,29.64 66.78,45.86 182.79,140.9 274.66,340.7 274.66,598.63l0 181.5c0,175.94 -60.61,320.8 -180.88,433.84 -120.28,113.84 -288.87,186.28 -507.64,217.33 234.87,26.27 416.71,100.3 546.46,222.9 129.75,121.79 194.15,281 194.15,476.83l0 233.25c0,259.51 -90.92,460.12 -272.77,602.61 -182.78,142.5 -440.39,213.35 -772.81,213.35l-1035.16 0 0 -580.33 946.13 0c129.76,0 230.16,-27.87 301.18,-81.99 71.02,-54.14 107.01,-130.56 107.01,-228.47l0 -230.86c0,-105.87 -35.99,-188.65 -108.91,-247.57 -71.98,-58.91 -173.32,-88.36 -304.95,-88.36l-940.46 0 0 -576.34 931.94 0c118.38,0 211.19,-27.07 276.54,-82.79 65.35,-54.94 98.5,-132.94 98.5,-234.04l0 -182.29c0,-88.36 -33.15,-156.83 -98.5,-206.18 -65.34,-48.57 -158.16,-73.24 -276.54,-73.24l-931.94 0 0 -578.73 788.57 0 -1597.59 -4618.89c-52.33,-151.29 28.64,-317.87 179.92,-370.2zm7844.32 1797.78l1.81 -193.58c6.34,1.27 12.54,2.63 18.38,4.08l12.77 14.33 7.21 1.22c-1.59,41.63 -19.85,110.36 -40.17,173.96zm-1238.18 6582.52l-2.84 -585.1 743.46 0c169.52,0 302.12,-38.22 396.82,-113.04 93.77,-75.63 140.18,-180.71 138.29,-313.65l0 -1369.22c1.89,-135.33 -44.52,-239.61 -138.29,-313.64 -94.69,-74.02 -227.3,-110.65 -396.82,-110.65l-740.62 0 -2.84 -585.9 768.08 0c399.67,0 708.41,86.77 927.19,258.72 217.82,172.75 326.73,415.54 326.73,727.6l0 1416.19c0,200.6 -47.35,374.94 -143,523.81 -94.71,148.07 -235.83,262.7 -422.39,343.9 -187.53,80.4 -417.67,121 -691.38,121l-762.4 0zm-422.4 0l0 -586.52 724.53 0 0 586.52 -724.53 0zm0 -1401.82l0 -1989.39 724.53 0 0 1989.39 -724.53 0zm-1808.93 1436.84c-383.58,0 -681.9,-92.34 -895,-277.82 -214.03,-184.68 -321.04,-444.99 -321.04,-780.93l0 -2367.48 724.5 0 0 2383.4c0,138.52 42.63,245.98 127.86,322.4 85.24,75.63 206.46,113.84 363.69,113.84 157.21,0 279.39,-38.21 365.57,-113.84 87.14,-76.42 130.7,-183.88 130.7,-322.4l0 -2383.4 727.36 0 0 2367.48c0,335.94 -107.97,596.25 -323.9,780.93 -214.98,185.47 -515.21,277.82 -899.72,277.82zm-4109.39 -35.02l0 -3391.21 724.53 0 0 3391.21 -724.53 0z"/>
   <g>
    <path class="fil1" d="M571.2 1518.11l3257.82 -1126.82c151.29,-52.33 317.87,28.64 370.2,179.91l1649.48 4768.91c52.33,151.29 -28.64,317.87 -179.92,370.2l-3257.81 1126.81c-151.29,52.33 -317.87,-28.63 -370.2,-179.91l-1649.48 -4768.91c-52.33,-151.28 28.64,-317.86 179.91,-370.19z"/>
    <g style="clip-path:url(#id0)">
     <g>
      <polygon id="_1" class="fil3" points="3565.99,2260.17 3565.99,5034.18 4818.77,5722.82 5657.11,6225.29 5850.41,4790.88 5234.73,1195.5 "/>
     </g>
    </g>
    <path class="fil4" d="M571.2 1518.11l3257.82 -1126.82c151.29,-52.33 317.87,28.64 370.2,179.91l1649.48 4768.91c52.33,151.29 -28.64,317.87 -179.92,370.2l-3257.81 1126.81c-151.29,52.33 -317.87,-28.63 -370.2,-179.91l-1649.48 -4768.91c-52.33,-151.28 28.64,-317.86 179.91,-370.19z"/>
    <path class="fil5" d="M980.73 1763.97l2678.21 -926.34c124.36,-43.02 261.31,23.54 304.32,147.91l1443.91 4174.58c43.02,124.37 -23.54,261.31 -147.9,304.32l-2678.21 926.34c-124.37,43.02 -261.31,-23.54 -304.33,-147.91l-1443.91 -4174.57c-43.02,-124.38 23.54,-261.32 147.91,-304.33z"/>
    <g style="clip-path:url(#id1)">
     <g>
      <polygon id="_1_0" class="fil6" points="4257.53,1836.28 3565.99,2260.17 3565.99,5034.18 4818.77,5722.82 5657.11,6225.29 5850.41,4790.88 5250.19,1504.94 "/>
      <path class="fil7" d="M3937.02 932.25l-2978.82 1013.89 1479.96 4308.67 115.35 322.37c0,0 -773.08,-139.67 -1354.96,-527.59 -581.88,-387.92 -3245.64,-4719.76 -1512.9,-5159.41 1732.73,-439.65 4375.1,-543.86 4251.37,42.06z"/>
     </g>
    </g>
    <path class="fil4" d="M980.73 1763.97l2678.21 -926.34c124.36,-43.02 261.31,23.54 304.32,147.91l1443.91 4174.58c43.02,124.37 -23.54,261.31 -147.9,304.32l-2678.21 926.34c-124.37,43.02 -261.31,-23.54 -304.33,-147.91l-1443.91 -4174.57c-43.02,-124.38 23.54,-261.32 147.91,-304.33z"/>
    <path class="fil0" d="M2435.62 4239.39l31.02 -10.73 8.86 25.61c2.3,6.65 2.99,12.86 2.09,18.6 -0.92,5.75 -3.28,10.75 -7.12,15.02 -3.81,4.29 -8.97,7.55 -15.48,9.8 -6.52,2.26 -12.63,2.95 -18.37,2.13 -5.71,-0.86 -10.67,-3.12 -14.9,-6.83 -4.19,-3.71 -7.4,-8.73 -9.59,-15.06l-14.6 -42.21c-2.32,-6.7 -3.01,-12.97 -2.11,-18.76 0.94,-5.81 3.32,-10.85 7.16,-15.19 3.83,-4.28 8.94,-7.55 15.37,-9.78 6.38,-2.2 12.22,-2.86 17.53,-2.03 5.34,0.85 10.09,3.24 14.28,7.17 4.17,3.92 7.75,9.39 10.7,16.41l0 0 -19.48 6.74 0 0c-1.94,-4.43 -4.34,-7.36 -7.15,-8.79 -2.8,-1.43 -5.89,-1.56 -9.27,-0.39 -3.85,1.33 -6.49,3.63 -7.87,6.89 -1.41,3.24 -1.41,6.95 0.02,11.09l14.6 42.21c1.26,3.63 3.41,6.1 6.48,7.39 3.07,1.31 6.61,1.28 10.59,-0.1 3.95,-1.37 6.69,-3.61 8.21,-6.71 1.54,-3.11 1.6,-6.71 0.18,-10.8l-2.76 -7.98 -12.19 4.22 -6.2 -17.92zm208.16 -8.2l-3.71 -114.83 12.41 -4.29 68.09 92.55 -19.32 6.69 -43.12 -62.79 4.9 76.01 -19.26 6.66zm12.21 -22.59l-6.11 -17.68 41.44 -14.33 6.11 17.67 -41.44 14.34zm214.54 -101.27l-3.14 -69.59 21.18 -7.33 35.87 103.71 -16.77 5.8 -26.45 -76.46 2.43 4.28 2.31 62.93 -13.07 4.52 -36.66 -49.48 -1 -6.35 26.45 76.45 -16.92 5.86 -35.87 -103.71 21.32 -7.37 40.32 56.74zm185.48 -18.73l-35.79 -103.73 18.61 -6.44 35.88 103.71 -18.7 6.46zm7.5 -2.59l-6.24 -18.04 50.35 -17.42 6.24 18.04 -50.35 17.42zm-14.68 -42.43l-6.27 -18.12 44.66 -15.45 6.24 18.04 -44.63 15.53zm-14.95 -43.24l-6.24 -18.04 50.35 -17.42 6.24 18.04 -50.35 17.42zm285.83 -2.95l-35.8 -103.73 18.6 -6.43 35.87 103.7 -18.67 6.46zm-44.23 15.3l-35.8 -103.73 18.62 -6.44 35.87 103.7 -18.69 6.47zm-5.87 -45.4l-6.14 -17.78 47.55 -16.52 6.14 17.77 -47.55 16.53zm231.92 -31.6c-6.57,2.27 -12.7,2.97 -18.4,2.09 -5.7,-0.87 -10.69,-3.21 -14.95,-7.02 -4.22,-3.8 -7.45,-8.86 -9.66,-15.24l-14.96 -43.24c-2.23,-6.45 -2.83,-12.49 -1.86,-18.08 1.01,-5.59 3.5,-10.48 7.45,-14.65 3.95,-4.2 9.2,-7.44 15.77,-9.71 6.6,-2.28 12.76,-2.99 18.45,-2.13 5.69,0.84 10.67,3.15 14.91,6.92 4.23,3.79 7.48,8.91 9.71,15.37l14.95 43.23c2.21,6.38 2.8,12.36 1.82,17.96 -0.99,5.63 -3.47,10.55 -7.41,14.75 -3.94,4.22 -9.22,7.46 -15.82,9.75zm-6.43 -18.62c4.04,-1.4 6.8,-3.72 8.33,-6.95 1.49,-3.25 1.54,-6.96 0.08,-11.2l-14.36 -41.51c-1.43,-4.14 -3.74,-7.05 -6.93,-8.67 -3.18,-1.65 -6.79,-1.77 -10.88,-0.35 -4.02,1.39 -6.76,3.7 -8.27,6.98 -1.5,3.23 -1.54,6.96 -0.11,11.1l14.36 41.51c1.46,4.23 3.8,7.13 6.97,8.76 3.2,1.59 6.79,1.72 10.81,0.33zm196.36 -47.08c-9.85,3.4 -18.5,3.24 -25.94,-0.54 -7.46,-3.74 -12.97,-10.76 -16.52,-21.03l-25.04 -72.39 18.63 -6.44 25.21 72.88c1.46,4.23 3.7,7.14 6.7,8.72 2.99,1.56 6.5,1.64 10.55,0.24 4.03,-1.39 6.78,-3.64 8.19,-6.72 1.43,-3.11 1.42,-6.79 -0.05,-11.02l-25.21 -72.89 18.69 -6.46 25.05 72.39c3.55,10.27 3.53,19.2 -0.07,26.76 -3.56,7.59 -10.3,13.08 -20.19,16.5zm187.57 -64.88c-5.85,2.03 -11.28,2.93 -16.31,2.74 -5.01,-0.21 -9.56,-1.53 -13.63,-3.96 -4.06,-2.41 -7.58,-5.97 -10.58,-10.62l0 0 14.69 -13.64 0 0c2.84,3.7 6,6.15 9.49,7.34 3.49,1.19 7.23,1.1 11.17,-0.26 4.09,-1.41 6.96,-3.42 8.62,-6.04 1.64,-2.59 1.92,-5.49 0.8,-8.73l-1.61 -4.65c-0.88,-2.55 -2.34,-4.33 -4.36,-5.36 -2.03,-0.98 -4.46,-1.53 -7.27,-1.62 -2.83,-0.09 -5.85,-0.05 -9.04,0.1 -3.52,0.15 -7.11,0.16 -10.8,0.05 -3.67,-0.11 -7.24,-0.68 -10.66,-1.74 -3.42,-1.05 -6.53,-2.97 -9.38,-5.75 -2.81,-2.76 -5.14,-6.8 -6.96,-12.09l-0.94 -2.7c-3.14,-9.08 -2.79,-17.05 1.04,-23.96 3.86,-6.89 10.86,-12.1 21.04,-15.62 7.74,-2.68 14.76,-3.03 21.02,-1.03 6.24,1.98 11.57,6.36 15.97,13.07l0 0 -13.79 13.49 0 0c-2.7,-3.54 -5.59,-5.92 -8.69,-7.11 -3.08,-1.2 -6.17,-1.24 -9.31,-0.16 -4,1.39 -6.78,3.27 -8.34,5.67 -1.57,2.42 -1.84,5.1 -0.8,8.1l1.19 3.43c1,2.9 2.64,4.89 4.87,5.97 2.23,1.11 4.91,1.66 7.97,1.69 3.06,0.03 6.35,0.02 9.86,-0.03 3.42,-0.12 6.89,-0.09 10.4,0.05 3.5,0.13 6.86,0.77 10.11,1.88 3.22,1.12 6.17,3.04 8.8,5.76 2.64,2.68 4.82,6.53 6.55,11.52l1.53 4.43c3.13,9.04 2.71,17.03 -1.24,23.99 -3.97,6.96 -11.09,12.22 -21.41,15.79zm159.88 -56.5l-35.79 -103.73 18.62 -6.44 35.87 103.71 -18.7 6.46zm7.5 -2.59l-6.24 -18.04 50.35 -17.42 6.24 18.04 -50.35 17.42zm-14.68 -42.43l-6.26 -18.12 44.65 -15.45 6.24 18.05 -44.63 15.52zm-14.95 -43.24l-6.24 -18.04 50.35 -17.42 6.24 18.04 -50.35 17.42z"/>
    <g>
     <path class="fil0" d="M2127.51 4215.19l-40.8 -117.96 192.31 -66.51c26.38,-9.13 44.83,-21.85 55.46,-37.85 10.63,-16 12.57,-34.06 5.69,-53.97l-16.23 -46.93c-7.45,-21.52 -20.58,-35.82 -39.55,-42.67 -18.77,-6.91 -41.45,-5.78 -68.2,3.48l-191.16 66.12 -40.52 -117.15 189.43 -65.52c24.06,-8.33 41.03,-20.35 50.39,-36.28 9.43,-15.76 10.68,-33.95 3.57,-54.5l-12.82 -37.06c-6.21,-17.96 -17.76,-29.55 -34.52,-34.99 -16.7,-5.27 -37.3,-3.76 -61.35,4.56l-189.43 65.52 -40.7 -117.64 199.06 -68.85c67.76,-23.44 125.11,-27.15 172.31,-11.58 47.06,15.79 79.78,49.94 97.91,102.37l12.76 36.89c12.37,35.77 10.24,69.47 -6.26,100.91 -16.45,31.6 -45.63,58.18 -87.91,79.86 49.6,-11.17 91.76,-8.91 126.75,6.89 34.94,15.64 59.22,43.47 72.99,83.27l16.4 47.42c18.25,52.75 13.87,99.92 -13.08,141.67 -27.13,41.82 -74.51,74.32 -142.09,97.7l-210.41 72.77zm-73.92 25.57l-238.43 -689.32 147.28 -50.94 238.42 689.32 -147.27 50.94z"/>
     <g style="clip-path:url(#id2)">
      <g>
       <polygon id="_1_1" class="fil3" points="4257.53,1836.28 3565.99,2260.17 3565.99,5034.18 4818.77,5722.82 5657.11,6225.29 5850.41,4790.88 5250.19,1504.94 "/>
      </g>
     </g>
     <path class="fil8" d="M2127.51 4215.19l-40.8 -117.96 192.31 -66.51c26.38,-9.13 44.83,-21.85 55.46,-37.85 10.63,-16 12.57,-34.06 5.69,-53.97l-16.23 -46.93c-7.45,-21.52 -20.58,-35.82 -39.55,-42.67 -18.77,-6.91 -41.45,-5.78 -68.2,3.48l-191.16 66.12 -40.52 -117.15 189.43 -65.52c24.06,-8.33 41.03,-20.35 50.39,-36.28 9.43,-15.76 10.68,-33.95 3.57,-54.5l-12.82 -37.06c-6.21,-17.96 -17.76,-29.55 -34.52,-34.99 -16.7,-5.27 -37.3,-3.76 -61.35,4.56l-189.43 65.52 -40.7 -117.64 199.06 -68.85c67.76,-23.44 125.11,-27.15 172.31,-11.58 47.06,15.79 79.78,49.94 97.91,102.37l12.76 36.89c12.37,35.77 10.24,69.47 -6.26,100.91 -16.45,31.6 -45.63,58.18 -87.91,79.86 49.6,-11.17 91.76,-8.91 126.75,6.89 34.94,15.64 59.22,43.47 72.99,83.27l16.4 47.42c18.25,52.75 13.87,99.92 -13.08,141.67 -27.13,41.82 -74.51,74.32 -142.09,97.7l-210.41 72.77zm-73.92 25.57l-238.43 -689.32 147.28 -50.94 238.42 689.32 -147.27 50.94z"/>
     <path class="fil0" d="M2891.35 3958.96c-77.97,26.97 -145.1,29.18 -201.45,6.45 -56.5,-22.49 -96.55,-67.87 -120.17,-136.16l-166.45 -481.24 147.27 -50.94 167.57 484.47c9.74,28.16 25.96,47.01 48.66,56.55 22.65,9.38 49.98,8.62 81.93,-2.43 31.96,-11.05 54.11,-27.41 66.3,-48.85 12.34,-21.66 13.64,-46.57 3.9,-74.72l-167.57 -484.47 147.85 -51.14 166.45 481.23c23.62,68.29 19.98,128.79 -10.93,181.51 -30.66,52.82 -85.19,92.69 -163.36,119.73z"/>
     <g style="clip-path:url(#id3)">
      <g>
       <polygon id="_1_2" class="fil3" points="4257.53,1836.28 3565.99,2260.17 3565.99,5034.18 4818.77,5722.82 5657.11,6225.29 5850.41,4790.88 5250.19,1504.94 "/>
      </g>
     </g>
     <path class="fil8" d="M2891.35 3958.96c-77.97,26.97 -145.1,29.18 -201.45,6.45 -56.5,-22.49 -96.55,-67.87 -120.17,-136.16l-166.45 -481.24 147.27 -50.94 167.57 484.47c9.74,28.16 25.96,47.01 48.66,56.55 22.65,9.38 49.98,8.62 81.93,-2.43 31.96,-11.05 54.11,-27.41 66.3,-48.85 12.34,-21.66 13.64,-46.57 3.9,-74.72l-167.57 -484.47 147.85 -51.14 166.45 481.23c23.62,68.29 19.98,128.79 -10.93,181.51 -30.66,52.82 -85.19,92.69 -163.36,119.73z"/>
     <path class="fil0" d="M3342.46 3794.97l-41.72 -118.73 151.12 -52.28c34.46,-11.92 58.73,-29.01 72.71,-50.88 13.75,-21.97 15.79,-46.59 6.06,-73.47l-96.26 -278.33c-9.14,-27.64 -25.9,-45.57 -50.17,-54.03 -24.45,-8.39 -53.99,-6.51 -88.44,5.41l-150.54 52.07 -41.78 -118.89 156.13 -54.01c81.24,-28.1 150.1,-32.17 206.66,-12.6 56.43,19.8 95.63,61.49 117.57,124.93l99.57 287.87c14.1,40.78 16.73,79.54 7.76,116.52 -8.85,36.76 -29.47,69.98 -61.68,99.6 -32.47,29.53 -76.39,53.97 -132.03,73.2l-154.97 53.61zm-85.86 29.7l-41.24 -119.22 147.27 -50.94 41.24 119.22 -147.27 50.94zm-98.56 -284.95l-139.87 -404.38 147.28 -50.95 139.87 404.39 -147.28 50.94z"/>
     <g style="clip-path:url(#id4)">
      <g>
       <polygon id="_1_3" class="fil3" points="4257.53,1836.28 3565.99,2260.17 3565.99,5034.18 4818.77,5722.82 5657.11,6225.29 5850.41,4790.88 5250.19,1504.94 "/>
      </g>
     </g>
     <path class="fil8" d="M3342.46 3794.97l-41.72 -118.73 151.12 -52.28c34.46,-11.92 58.73,-29.01 72.71,-50.88 13.75,-21.97 15.79,-46.59 6.06,-73.47l-96.26 -278.33c-9.14,-27.64 -25.9,-45.57 -50.17,-54.03 -24.45,-8.39 -53.99,-6.51 -88.44,5.41l-150.54 52.07 -41.78 -118.89 156.13 -54.01c81.24,-28.1 150.1,-32.17 206.66,-12.6 56.43,19.8 95.63,61.49 117.57,124.93l99.57 287.87c14.1,40.78 16.73,79.54 7.76,116.52 -8.85,36.76 -29.47,69.98 -61.68,99.6 -32.47,29.53 -76.39,53.97 -132.03,73.2l-154.97 53.61zm-85.86 29.7l-41.24 -119.22 147.27 -50.94 41.24 119.22 -147.27 50.94zm-98.56 -284.95l-139.87 -404.38 147.28 -50.95 139.87 404.39 -147.28 50.94z"/>
     <path class="fil0" d="M4090.89 3544.07c-46.2,15.98 -88.83,24.2 -127.84,24.83 -38.83,0.57 -73.63,-6.6 -104.43,-21.49 -30.56,-14.8 -56.52,-37.52 -78.03,-67.94l0 0 119.49 -98.22 0 0c20.6,24.04 44.25,39.42 70.92,46.13 26.68,6.72 55.71,4.65 86.89,-6.14 32.35,-11.19 55.5,-25.9 69.39,-44.29 13.76,-18.17 17.04,-37.97 9.6,-59.48l-10.69 -30.91c-5.88,-16.99 -16.55,-28.52 -31.82,-34.66 -15.41,-5.9 -34.05,-8.69 -55.87,-8.21 -22.02,0.55 -45.45,1.95 -70.32,4.21 -27.4,2.41 -55.33,3.92 -83.98,4.59 -28.46,0.6 -56.02,-1.82 -82.17,-7.63 -26.15,-5.81 -49.63,-17.62 -70.63,-35.36 -20.76,-17.64 -37.27,-44.18 -49.42,-79.29l-6.21 -17.96c-20.88,-60.35 -15.05,-114.55 17.37,-162.91 32.67,-48.26 89.14,-86.27 169.61,-114.1 61.22,-21.18 115.91,-26.32 163.75,-15.15 47.79,11.01 87.49,38.59 119.03,82.39l0 0 -112.42 96.86 0 0c-19.58,-22.95 -41.15,-37.95 -64.65,-44.86 -23.52,-6.91 -47.57,-6.02 -72.39,2.57 -31.58,10.93 -53.93,24.82 -67.06,41.68 -13.08,17.03 -16.23,35.33 -9.35,55.24l7.89 22.81c6.66,19.26 18.66,32.14 35.56,38.62 16.96,6.64 37.5,9.32 61.29,8.33 23.8,-0.98 49.39,-2.41 76.63,-4.04 26.63,-2.15 53.6,-3.32 80.84,-3.68 27.19,-0.53 53.03,2.49 77.83,8.77 24.61,6.34 46.83,18.23 66.2,35.62 19.51,17.17 34.94,42.45 46.42,75.61l10.18 29.46c20.77,60.02 14.37,114.42 -19.02,163.11 -33.58,48.76 -90.95,87.26 -172.59,115.5z"/>
     <g style="clip-path:url(#id5)">
      <g>
       <polygon id="_1_4" class="fil3" points="4257.53,1836.28 3565.99,2260.17 3565.99,5034.18 4818.77,5722.82 5657.11,6225.29 5850.41,4790.88 5250.19,1504.94 "/>
      </g>
     </g>
     <path class="fil8" d="M4090.89 3544.07c-46.2,15.98 -88.83,24.2 -127.84,24.83 -38.83,0.57 -73.63,-6.6 -104.43,-21.49 -30.56,-14.8 -56.52,-37.52 -78.03,-67.94l0 0 119.49 -98.22 0 0c20.6,24.04 44.25,39.42 70.92,46.13 26.68,6.72 55.71,4.65 86.89,-6.14 32.35,-11.19 55.5,-25.9 69.39,-44.29 13.76,-18.17 17.04,-37.97 9.6,-59.48l-10.69 -30.91c-5.88,-16.99 -16.55,-28.52 -31.82,-34.66 -15.41,-5.9 -34.05,-8.69 -55.87,-8.21 -22.02,0.55 -45.45,1.95 -70.32,4.21 -27.4,2.41 -55.33,3.92 -83.98,4.59 -28.46,0.6 -56.02,-1.82 -82.17,-7.63 -26.15,-5.81 -49.63,-17.62 -70.63,-35.36 -20.76,-17.64 -37.27,-44.18 -49.42,-79.29l-6.21 -17.96c-20.88,-60.35 -15.05,-114.55 17.37,-162.91 32.67,-48.26 89.14,-86.27 169.61,-114.1 61.22,-21.18 115.91,-26.32 163.75,-15.15 47.79,11.01 87.49,38.59 119.03,82.39l0 0 -112.42 96.86 0 0c-19.58,-22.95 -41.15,-37.95 -64.65,-44.86 -23.52,-6.91 -47.57,-6.02 -72.39,2.57 -31.58,10.93 -53.93,24.82 -67.06,41.68 -13.08,17.03 -16.23,35.33 -9.35,55.24l7.89 22.81c6.66,19.26 18.66,32.14 35.56,38.62 16.96,6.64 37.5,9.32 61.29,8.33 23.8,-0.98 49.39,-2.41 76.63,-4.04 26.63,-2.15 53.6,-3.32 80.84,-3.68 27.19,-0.53 53.03,2.49 77.83,8.77 24.61,6.34 46.83,18.23 66.2,35.62 19.51,17.17 34.94,42.45 46.42,75.61l10.18 29.46c20.77,60.02 14.37,114.42 -19.02,163.11 -33.58,48.76 -90.95,87.26 -172.59,115.5z"/>
    </g>
    <g>
     <path class="fil1" d="M2310.29 4259.87c14.11,-4.89 29.52,2.6 34.4,16.72 4.88,14.11 -2.6,29.52 -16.72,34.4 -14.12,4.88 -29.52,-2.6 -34.4,-16.72 -4.89,-14.12 2.6,-29.52 16.72,-34.4z"/>
     <path class="fil1" d="M4155.59 3621.61c14.12,-4.89 29.52,2.6 34.4,16.72 4.89,14.11 -2.6,29.52 -16.72,34.4 -14.11,4.88 -29.52,-2.6 -34.4,-16.72 -4.88,-14.12 2.6,-29.52 16.72,-34.4z"/>
    </g>
   </g>
   <g>
    <path class="fil1" d="M10548.51 2178.86c-0.11,0.23 -0.23,0.45 -0.34,0.69l-2.18 4.5 -68.74 118.41 -4.12 5.71c-71.96,99.58 -127.45,156.88 -214.91,230.84 38.53,27.02 67.9,63.52 88.78,107.38 30.06,63.11 36.53,130.08 12.81,196.09 22.33,17.21 45.33,33.92 64.3,49.34 64.2,52.18 125.05,111.23 160.09,187.35l34.76 62.66 -7.09 44.83c-4.42,71.77 -1.33,119.93 -47.46,184.76 -80.87,113.67 -226.35,115.35 -350.31,92.41 -13.16,-2.43 -43.58,-8.56 -64.59,-10.11 -6.78,19.17 -12.19,48.38 -14.29,61.07 -17.6,105.88 -22.33,227.42 -13.72,334.22 4.48,55.31 23.01,194.67 43.98,246.08l14.9 20.92 4.86 31.98c8.75,37.7 63,138.36 85.04,173.37 40.2,63.8 84.91,116.42 135.2,172.41 95.23,105.98 256.34,182.2 286.14,334.6 12.23,62.58 1.16,123.41 -31.73,177.85 -15.31,25.31 -31.61,41 -48.26,63.27l-24.76 33.67 -151.58 56.92c-49.71,21.72 -97.58,70.67 -61.42,125.03 29.78,44.78 64.73,83.25 99.39,124.06 50.31,59.22 91.99,117.65 129.22,186.12 18.36,33.77 32.6,70.82 51.33,104.01l24.69 41.69 -4.26 31.8 39.42 219.61 -5.08 25.92c-7.4,37.72 -6.67,81.13 -12.44,120.51 -9.98,68.23 -30.98,131.21 -59.92,192.57 62.48,57.88 98.91,139.22 90.47,234.39 -12.85,145.2 -128.52,255.4 -273.26,266.51 -79.33,6.09 -231.67,-28.22 -312.32,-44.04 -98.7,-19.35 -197.23,-41.37 -295.96,-59.94 -382.74,-71.99 -765.46,-143.98 -1148.19,-215.97 -296.85,-55.85 -594.32,-109.02 -891.26,-164.55 -186.72,-34.92 -373.48,-70.04 -559.84,-106.89 -63.88,-12.64 -127.86,-25.4 -191.49,-39.26 -35.21,-7.66 -87.6,-17.46 -119.1,-34.02 -127.12,-66.83 -190.49,-211.1 -147.05,-348.83 27.93,-88.56 90.36,-149.1 167.69,-179.65 -4.81,-69.13 -1.09,-136.55 15.19,-205.22 8.86,-37.44 25.92,-79.04 31.71,-115.63l4.19 -26.49 13.64 -23.09c34.23,-57.96 70.92,-116.07 107.87,-172.66l11.13 -30.23 33.25 -24.39c27.37,-22.41 51.84,-52.54 81.12,-75.91 79.67,-63.57 142.93,-103 232.62,-150.9 28.98,-15.48 64.65,-32.44 90.8,-52.01 57.08,-42.72 32.58,-102.84 -12.42,-145.49 -15.02,-14.25 -32.79,-26.64 -48.38,-41.07 -15.27,-14.13 -26.66,-29.88 -40.66,-43.29l-42.9 -36.25 -5.51 -51.89c-11.71,-51.02 -22.22,-82.43 -12.37,-138.54 17.38,-99.05 90.98,-163.42 178.94,-202.81 68.18,-30.55 145.35,-48.96 215.58,-78.9 264.88,-112.95 446.55,-312.45 558.11,-576.34 24.29,-57.46 84.94,-228.69 87.89,-306.14l-7.21 -1.22 -12.77 -14.33c-23.82,-5.93 -53.56,-10.17 -74.71,-14.64 -55.23,-11.67 -114.81,-27.09 -160.84,-61.06 -60.81,-44.91 -100.11,-107.39 -108.16,-183.53 -9.48,-89.75 17.38,-124.22 54.26,-194.61l20.88 -39.87 36.44 -18.48c57.72,-53.17 122.24,-74.79 196.5,-99.94 23.33,-7.9 52.46,-16.68 81.11,-26.2 6.12,-114.25 74.9,-212.61 201.99,-246.36 -0.48,-0.78 -0.93,-1.55 -1.38,-2.29 -22.65,-38.26 -42.64,-76.66 -59.7,-117.79 -35.2,-84.77 -55.57,-152.27 -64.67,-243.05l-3.13 -31.03 1.72 -4.93c-4.46,-91.76 -1.74,-189.27 4.2,-279.36 7.53,-114.06 50.32,-233.1 100.1,-335.11l4.7 -9.63 6.1 -8.81c34.16,-49.29 68.83,-112.33 106.34,-157.09 44.64,-53.28 95.28,-108.03 150.05,-150.68 118.09,-91.95 229.8,-157.77 375.66,-198.52 336.68,-94.1 664.81,-30.68 943.65,179.74 168.6,127.24 303.72,325.46 363.3,527.66 16.25,55.14 25.38,99.11 32.15,151.15l6.82 137.68 -6.39 185.35 -2.74 12.48c-8.69,39.74 -16.61,79.16 -28.11,118.26 -6.93,23.56 -24.41,59.81 -28.39,81.51l-5.08 56.08 -29.87 25.55z"/>
    <path class="fil5" d="M10510.51 1634.3l-8.03 233.08c-8.02,36.65 -14.89,72.04 -25.65,108.62 -10.46,35.53 -30.32,73.06 -33.45,107.57 -1.26,1.08 -2.57,1.4 -3.37,3.69l-6.3 7.83c-0.79,1.19 -1.94,2.9 -2.78,4.26 -0.24,0.4 -8.57,17.07 -9.3,18.59l-62.56 107.78c-79.23,109.63 -117.62,144.75 -215.37,225.58 -24.52,20.27 -39.97,19.56 -48.77,63.36 -6.22,30.91 -15.56,71.82 -13.34,100.22l8.65 5.77c36.41,16.62 94.19,11.67 129.7,86.23 34.5,72.44 -3.83,112.53 -36.86,160.84 5.03,8.48 3.74,7.79 13.77,18.54 67.29,72.14 214.91,148.59 261.37,255.93l14.16 25.54c-7.98,50.46 35.16,207.28 -232.67,157.72 -138.06,-25.54 -210.65,-30.4 -243.34,166.3 -19.53,117.53 -24.16,256.85 -15.14,368.61 5.77,71.48 34.95,267.76 65.09,310.05 8.23,53.81 81.55,188.94 104.86,225.96 46.01,73.03 89.26,124.3 149.61,191.46 88.5,98.49 235.58,180.03 252.68,267.53 12.86,65.75 -32.78,100.26 -55.2,130.75l-115.43 43.33c-150.24,63.25 -205.62,214.15 -126.17,333.62 73.61,110.67 143.85,155.45 222.16,299.47 9.13,16.8 42.95,90.04 53.69,108.18l-0.7 5.27 38.63 215.27c-15.67,79.97 5.42,155.04 -77.8,312.6 -14.32,27.11 -36.48,57.86 -46.29,82.03 209.86,51.48 165.07,293.14 -3.71,306.08 -70.93,5.45 -470.51,-82.96 -571.49,-101.96 -382.74,-71.99 -765.48,-143.99 -1148.21,-215.98 -132.98,-25.01 -1670.03,-303.52 -1722.21,-330.96 -148.83,-78.25 -97.38,-312.14 111.99,-284.22 0.18,-25.1 -9.61,-63.63 -13.05,-93.19 -20.92,-179.79 29.1,-243.15 42.11,-325.37 40.37,-68.35 113.22,-180.55 113.22,-180.55l2.03 -5.52c18.73,-13.75 66.21,-63.88 84.72,-78.66 81.6,-65.11 115.96,-85.94 211.13,-136.77 37.28,-19.91 78.38,-40.69 108.83,-63.47 126.15,-94.4 112.81,-253.46 0.08,-360.31 -16.15,-15.31 -31.84,-25.76 -49.63,-42.22 -19.38,-17.94 -28.4,-33.11 -45.15,-47.26 -4.3,-40.46 -61.96,-128.12 84.61,-193.78 38.16,-17.09 135.07,-44.54 213.26,-77.88 292.54,-124.74 503.95,-346.81 632.54,-650.98 37.53,-88.76 114.37,-306.77 95.61,-407.35 -6.87,-36.8 -31.53,-78.59 -72.4,-85.44 -23.54,-26.45 -182.65,-32.61 -236.88,-72.63 -27.43,-20.25 -47.77,-46.98 -51.81,-85.1 -5.47,-51.76 19.58,-77.49 38.98,-114.52 49.25,-24.99 5.37,-33.09 174.31,-90.3 41.49,-14.06 162.87,-53.05 189.37,-71.06 -33.79,-94.61 -4.48,-176.86 88.2,-199.65 34,-8.37 48.46,-0.09 73.35,1.96 34.57,2.83 30.66,4.34 49.18,-99.2 9.71,-54.26 -44.04,-93.3 -93.26,-211.91 -42.47,-102.31 -48.93,-146.42 -54.63,-203.16l0.68 -1.95c0,0 -8.21,-127.24 2.52,-290.05 6.86,-104 53.41,-215.58 86.14,-282.65 26.63,-38.44 84.88,-130.58 98.53,-146.87 39.8,-47.49 86.32,-97.05 128.65,-130.01 92.07,-71.71 187.13,-134.93 327.06,-174.04 294.41,-82.27 577.16,-27.46 821,156.55 147.11,111.01 263.02,285.23 313.07,455.09 42.88,145.5 22.27,162.79 38.99,180.54l-3.6 3.18z"/>
    <g style="clip-path:url(#id6)">
     <g>
      <polygon id="_1_5" class="fil6" points="8108.9,1821.92 8649.87,2181.55 8603.36,5168.29 6722.68,6307.29 5869.03,4110.21 7585.06,1351.4 "/>
     </g>
    </g>
    <path class="fil4" d="M10510.51 1634.3l-8.03 233.08c-8.02,36.65 -14.89,72.04 -25.65,108.62 -10.46,35.53 -30.32,73.06 -33.45,107.57 -1.26,1.08 -2.57,1.4 -3.37,3.69l-6.3 7.83c-0.79,1.19 -1.94,2.9 -2.78,4.26 -0.24,0.4 -8.57,17.07 -9.3,18.59l-62.56 107.78c-79.23,109.63 -117.62,144.75 -215.37,225.58 -24.52,20.27 -39.97,19.56 -48.77,63.36 -6.22,30.91 -15.56,71.82 -13.34,100.22l8.65 5.77c36.41,16.62 94.19,11.67 129.7,86.23 34.5,72.44 -3.83,112.53 -36.86,160.84 5.03,8.48 3.74,7.79 13.77,18.54 67.29,72.14 214.91,148.59 261.37,255.93l14.16 25.54c-7.98,50.46 35.16,207.28 -232.67,157.72 -138.06,-25.54 -210.65,-30.4 -243.34,166.3 -19.53,117.53 -24.16,256.85 -15.14,368.61 5.77,71.48 34.95,267.76 65.09,310.05 8.23,53.81 81.55,188.94 104.86,225.96 46.01,73.03 89.26,124.3 149.61,191.46 88.5,98.49 235.58,180.03 252.68,267.53 12.86,65.75 -32.78,100.26 -55.2,130.75l-115.43 43.33c-150.24,63.25 -205.62,214.15 -126.17,333.62 73.61,110.67 143.85,155.45 222.16,299.47 9.13,16.8 42.95,90.04 53.69,108.18l-0.7 5.27 38.63 215.27c-15.67,79.97 5.42,155.04 -77.8,312.6 -14.32,27.11 -36.48,57.86 -46.29,82.03 209.86,51.48 165.07,293.14 -3.71,306.08 -70.93,5.45 -470.51,-82.96 -571.49,-101.96 -382.74,-71.99 -765.48,-143.99 -1148.21,-215.98 -132.98,-25.01 -1670.03,-303.52 -1722.21,-330.96 -148.83,-78.25 -97.38,-312.14 111.99,-284.22 0.18,-25.1 -9.61,-63.63 -13.05,-93.19 -20.92,-179.79 29.1,-243.15 42.11,-325.37 40.37,-68.35 113.22,-180.55 113.22,-180.55l2.03 -5.52c18.73,-13.75 66.21,-63.88 84.72,-78.66 81.6,-65.11 115.96,-85.94 211.13,-136.77 37.28,-19.91 78.38,-40.69 108.83,-63.47 126.15,-94.4 112.81,-253.46 0.08,-360.31 -16.15,-15.31 -31.84,-25.76 -49.63,-42.22 -19.38,-17.94 -28.4,-33.11 -45.15,-47.26 -4.3,-40.46 -61.96,-128.12 84.61,-193.78 38.16,-17.09 135.07,-44.54 213.26,-77.88 292.54,-124.74 503.95,-346.81 632.54,-650.98 37.53,-88.76 114.37,-306.77 95.61,-407.35 -6.87,-36.8 -31.53,-78.59 -72.4,-85.44 -23.54,-26.45 -182.65,-32.61 -236.88,-72.63 -27.43,-20.25 -47.77,-46.98 -51.81,-85.1 -5.47,-51.76 19.58,-77.49 38.98,-114.52 49.25,-24.99 5.37,-33.09 174.31,-90.3 41.49,-14.06 162.87,-53.05 189.37,-71.06 -33.79,-94.61 -4.48,-176.86 88.2,-199.65 34,-8.37 48.46,-0.09 73.35,1.96 34.57,2.83 30.66,4.34 49.18,-99.2 9.71,-54.26 -44.04,-93.3 -93.26,-211.91 -42.47,-102.31 -48.93,-146.42 -54.63,-203.16l0.68 -1.95c0,0 -8.21,-127.24 2.52,-290.05 6.86,-104 53.41,-215.58 86.14,-282.65 26.63,-38.44 84.88,-130.58 98.53,-146.87 39.8,-47.49 86.32,-97.05 128.65,-130.01 92.07,-71.71 187.13,-134.93 327.06,-174.04 294.41,-82.27 577.16,-27.46 821,156.55 147.11,111.01 263.02,285.23 313.07,455.09 42.88,145.5 22.27,162.79 38.99,180.54l-3.6 3.18z"/>
    <path class="fil7" d="M8933.77 1900.25c27.43,71.64 54.87,110.15 110.85,163.41 41.54,39.5 139.13,94.16 210.53,98.64 -50.45,-82.14 -108.42,-101.5 -161.32,-295.23 -33.55,-122.88 -28.87,-277.08 21.15,-413.23 81.78,-222.57 298.46,-413.78 526.59,-432.25l-9.25 -5.69c-47.26,-19.42 -174.34,-0.78 -218.32,9.62 -66.47,15.72 -147.99,49.17 -191.06,78.45 -105.06,71.48 -201.76,159.67 -267.31,316.11 -65.27,155.79 -73.64,344.9 -21.86,480.18z"/>
    <path class="fil7" d="M8751.98 2786.36c-26.8,-11.46 -47.48,-20.85 -71.62,-38.73 -20.88,-15.47 -24.33,-18.2 -31.51,-42.57 -0.53,-1.83 -1.76,-7.42 -2.31,-9.22 -5.1,-16.84 4.52,0.73 -5.04,-14.08 -59.11,39.84 -198.59,60.71 -213.66,135.75 63.81,46.13 312.62,80.68 415.39,100.49 408.24,78.67 793.29,164.73 1202.49,230.31 -59.61,-67.04 -614.22,-174.6 -742.48,-204.47 -156.39,-36.43 -405.26,-95.05 -551.26,-157.49z"/>
    <g style="clip-path:url(#id7)">
     <g>
      <polygon id="_1_6" class="fil9" points="8108.9,1821.92 8649.87,2181.55 8603.36,5168.29 6722.68,6307.29 5869.03,4110.21 7585.06,1351.4 "/>
     </g>
    </g>
    <path class="fil4" d="M8751.98 2786.36c-26.8,-11.46 -47.48,-20.85 -71.62,-38.73 -20.88,-15.47 -24.33,-18.2 -31.51,-42.57 -0.53,-1.83 -1.76,-7.42 -2.31,-9.22 -5.1,-16.84 4.52,0.73 -5.04,-14.08 -59.11,39.84 -198.59,60.71 -213.66,135.75 63.81,46.13 312.62,80.68 415.39,100.49 408.24,78.67 793.29,164.73 1202.49,230.31 -59.61,-67.04 -614.22,-174.6 -742.48,-204.47 -156.39,-36.43 -405.26,-95.05 -551.26,-157.49z"/>
    <path class="fil7" d="M8748.44 3067.31c-74.61,336.51 -140.92,548.73 -316,810.87 -103.33,154.7 -246.55,290.93 -395.58,376.25 -33.24,19.03 -133.47,69.83 -146.19,114.72 -18.55,65.48 113.34,87.21 171.68,100.81 200.07,46.66 542.05,103.68 752.75,143.32 166.41,31.31 332.81,62.6 499.22,93.9 164.48,30.95 341.98,71.22 506.09,94.38 -98.21,-124.39 -765.35,-289.82 -978.57,-330.44 -102.41,-19.5 -265.93,-48.82 -341.3,-105.05 -98.45,-73.43 -21.33,-187.73 25.49,-286.96 89.6,-189.9 293.04,-764.72 241.03,-976.91l-18.61 -34.9z"/>
    <g style="clip-path:url(#id8)">
     <g>
      <polygon id="_1_7" class="fil9" points="8108.9,1821.92 8649.87,2181.55 8603.36,5168.29 6722.68,6307.29 5869.03,4110.21 7585.06,1351.4 "/>
     </g>
    </g>
    <path class="fil4" d="M8748.44 3067.31c-74.61,336.51 -140.92,548.73 -316,810.87 -103.33,154.7 -246.55,290.93 -395.58,376.25 -33.24,19.03 -133.47,69.83 -146.19,114.72 -18.55,65.48 113.34,87.21 171.68,100.81 200.07,46.66 542.05,103.68 752.75,143.32 166.41,31.31 332.81,62.6 499.22,93.9 164.48,30.95 341.98,71.22 506.09,94.38 -98.21,-124.39 -765.35,-289.82 -978.57,-330.44 -102.41,-19.5 -265.93,-48.82 -341.3,-105.05 -98.45,-73.43 -21.33,-187.73 25.49,-286.96 89.6,-189.9 293.04,-764.72 241.03,-976.91l-18.61 -34.9z"/>
    <path class="fil7" d="M7790.02 4972.05c-122.08,87.9 -364.91,221.77 -454.9,412.71 -62.76,133.15 -38.84,257.66 34.47,330.53 80.16,79.69 221.41,102.24 348.7,126.19 280.78,52.82 562.25,104.19 842.71,158.44 271.51,52.54 561.36,118.68 834.62,162.11 -75.31,-59.04 -476.99,-178.39 -598.31,-210.97 -217.34,-58.36 -436.55,-111.36 -655.18,-163.1 -220.19,-52.11 -448.99,-83.49 -517.08,-263.45 -76.74,-202.87 143.92,-487.99 164.98,-552.46z"/>
    <g style="clip-path:url(#id9)">
     <g>
      <polygon id="_1_8" class="fil9" points="8108.9,1821.92 8649.87,2181.55 8603.36,5168.29 6722.68,6307.29 5869.03,4110.21 7585.06,1351.4 "/>
     </g>
    </g>
    <path class="fil4" d="M7790.02 4972.05c-122.08,87.9 -364.91,221.77 -454.9,412.71 -62.76,133.15 -38.84,257.66 34.47,330.53 80.16,79.69 221.41,102.24 348.7,126.19 280.78,52.82 562.25,104.19 842.71,158.44 271.51,52.54 561.36,118.68 834.62,162.11 -75.31,-59.04 -476.99,-178.39 -598.31,-210.97 -217.34,-58.36 -436.55,-111.36 -655.18,-163.1 -220.19,-52.11 -448.99,-83.49 -517.08,-263.45 -76.74,-202.87 143.92,-487.99 164.98,-552.46z"/>
   </g>
   <polygon class="fil0" points="3691.9,2272.12 3691.9,4956.3 6037.39,6361.9 8399.81,4998.64 8425.2,2280.59 6054.32,866.52 "/>
   <g style="clip-path:url(#id10)">
    <g>
     <polygon id="_1_9" class="fil10 str0" points="4649.51,4478.51 6087.13,1998.73 7524.77,4489.19 "/>
     <polygon class="fil11" points="4649.51,4478.51 6049.74,6172.67 7524.77,4489.19 "/>
    </g>
    <g style="clip-path:url(#id11)">
     <g>
      <polygon id="_1_10" class="fil7" points="7284.77,4639.61 4964.15,4636.41 6193.5,6118.21 6049.73,6172.66 4669.48,4502.69 4950.99,4479.64 7454.5,4514.68 "/>
     </g>
    </g>
    <g style="clip-path:url(#id12)">
     <polygon class="fil8 str0" points="4649.51,4478.51 6049.74,6172.67 7524.77,4489.19 "/>
     <polygon class="fil12" points="8267.64,4863.3 7524.76,4489.2 6049.73,6172.67 "/>
    </g>
    <g style="clip-path:url(#id13)">
     <g>
      <polygon id="_1_11" class="fil5" points="7735.79,4373.75 7764.64,4485.38 6267.89,6082.97 6202.43,5952.04 7670.9,4309.99 "/>
      <g>
       <path class="fil0" d="M7620.68 5374.73l-417.26 -401.49 31.23 -57.82 330.58 318.07 -0.43 -61.48 80.12 77.09 4.87 71.72 -29.11 53.9zm-501.36 -257.08c14.47,-26.79 35.47,-38.1 62.88,-34.03 27.43,4.08 59.05,23.24 94.8,57.64l27.33 26.29c20.08,19.33 37.87,39.32 53.5,59.98 15.67,20.6 30.9,42.84 45.97,66.76l139.96 222.87 -34.37 63.65 -170.25 -270.19 19.16 -6.52c14.06,27.44 16.35,49.66 7.11,66.75 -12.55,23.24 -31.72,32.28 -57.56,27.2 -25.93,-5.17 -56.1,-24.3 -90.47,-57.38l-30.76 -29.6c-35.75,-34.4 -59.56,-68.57 -71.38,-102.37 -11.81,-33.8 -10.43,-64.2 4.08,-91.07zm71.99 69.27c-4.78,8.85 -5.18,18.7 -1.35,29.52 3.97,10.84 12.11,22.23 24.55,34.21l29 27.89c13.22,12.72 24.58,20.09 34.03,22.17 9.49,1.99 16.65,-1.35 21.43,-10.21 4.58,-8.47 4.61,-18.45 0.17,-30.08 -4.57,-11.65 -13.35,-23.78 -26.58,-36.51l-28.99 -27.89c-12.45,-11.98 -23.16,-18.6 -32,-19.86 -8.89,-1.19 -15.68,2.28 -20.26,10.76z"/>
      </g>
     </g>
    </g>
    <g style="clip-path:url(#id14)">
     <polygon class="fil8 str0" points="8267.64,4863.3 7524.76,4489.2 6049.73,6172.67 "/>
     <polygon class="fil11" points="4649.51,4478.51 6049.74,6172.67 3818.46,4884.68 "/>
    </g>
    <g style="clip-path:url(#id15)">
     <g>
      <g>
       <path id="_1_12" class="fil0" d="M4645.8 5342.91l374.93 -164.45 56.52 73.01 -297.04 130.28 59.15 42.02 -71.98 31.57 -68.9 -44.4 -52.67 -68.03zm226.36 -363.09c27.15,35.07 39.14,65.63 35.92,91.63 -3.25,26.12 -20.26,45.88 -50.98,59.34l-186.14 81.64c-30.99,13.59 -62.27,14.89 -94.12,3.9 -31.69,-10.93 -61.03,-33.77 -87.88,-68.45 -26.99,-34.88 -38.99,-65.46 -36.16,-91.65 2.91,-26.11 19.93,-45.99 51.09,-59.65l186.15 -81.64c30.89,-13.55 62.26,-14.89 93.87,-4.05 31.62,10.84 61.1,33.86 88.25,68.93zm-65.48 28.72c-9.24,-11.95 -19.84,-19.08 -31.75,-21.54 -11.92,-2.45 -24.27,-0.74 -37.39,5.02l-168.11 73.72c-13.2,5.79 -21.36,13.07 -24.32,22.05 -2.95,8.98 0.16,19.39 9.41,31.34 8.95,11.56 19.38,18.64 31.21,21.13 11.9,2.58 24.42,0.93 37.62,-4.86l168.11 -73.72c13.12,-5.75 21.11,-13.1 24.23,-22.02 3.04,-9.01 0.09,-19.37 -9.01,-31.12z"/>
      </g>
      <polygon class="fil7" points="4003.18,5008.83 4800.55,4610.16 4677.76,4429.78 3818.45,4884.68 "/>
     </g>
    </g>
    <g style="clip-path:url(#id16)">
     <polygon class="fil8 str0" points="4649.51,4478.51 6049.74,6172.67 3818.46,4884.68 "/>
     <polygon class="fil13" points="3810.45,2314.04 4649.51,4478.51 3818.46,4884.68 "/>
    </g>
    <g style="clip-path:url(#id17)">
     <g>
      <g>
       <path id="_1_13" class="fil0" d="M3872.25 4194.81l416.47 -176 31.57 74.69 -329.96 139.44 44.04 42.57 -79.97 33.8 -52.73 -44.89 -29.42 -69.61zm379.99 -262.35l-67.84 28.68 -214.95 -42.95c-19.36,-3 -36.6,-4.24 -51.77,-3.35 -15.23,0.79 -27.9,3.26 -37.97,7.52l-3.23 1.36c-10.65,4.5 -17.47,10.72 -20.63,18.52 -3.12,7.88 -2.39,17.25 2.19,28.1 4.71,11.15 12.07,18.19 21.9,21.28 9.89,3.2 22.17,2.28 36.91,-2.92l7.73 -3.26 32.22 76.25 -7.72 3.26c-38.42,14.63 -71.53,16.41 -99.47,5.4 -28.02,-10.97 -49.26,-33.69 -63.8,-68.1 -15.24,-36.07 -17.95,-67.3 -8.28,-93.51 9.72,-26.35 31.66,-46.68 65.87,-61.13l2.83 -1.2c17.02,-7.19 36.51,-11.51 58.73,-12.94 22.07,-1.5 45.91,-0.16 71.46,3.9l162.89 30.72 -52.55 -124.35 72.73 -30.75 92.75 219.48z"/>
      </g>
      <polygon class="fil6" points="4441.11,4142.46 3882.61,4436.67 3818.22,4808.17 4012.27,4810.67 4458.57,4543.88 4665.51,4421.71 "/>
     </g>
    </g>
    <g style="clip-path:url(#id18)">
     <polygon class="fil8 str0" points="3810.45,2314.04 4649.51,4478.51 3818.46,4884.68 "/>
     <polygon class="fil13" points="6087.14,1998.73 3810.45,2314.04 4649.52,4478.51 "/>
    </g>
    <g style="clip-path:url(#id19)">
     <g>
      <polygon id="_1_14" class="fil6" points="5752.19,2107.41 4506.65,4110 4677.95,4429.44 5071.77,3678.17 5944.46,2195.45 6044.22,2004.67 "/>
     </g>
    </g>
    <g style="clip-path:url(#id20)">
     <polygon class="fil8 str0" points="6087.14,1998.73 3810.45,2314.04 4649.52,4478.51 "/>
     <polygon class="fil12" points="8299.71,2351.45 6087.14,1998.72 7524.77,4489.2 "/>
    </g>
    <g style="clip-path:url(#id21)">
     <g>
      <polygon id="_1_15" class="fil5" points="6328.69,2037.39 7593.46,4299.76 7516.6,4576.08 7290.82,4163.37 6055.26,1964.89 "/>
     </g>
    </g>
    <g style="clip-path:url(#id22)">
     <polygon class="fil8 str0" points="8299.71,2351.45 6087.14,1998.72 7524.77,4489.2 "/>
     <polygon class="fil12" points="8299.71,2351.45 8267.64,4863.3 7524.77,4489.2 "/>
    </g>
    <g style="clip-path:url(#id23)">
     <g>
      <polygon id="_1_16" class="fil5" points="7680.51,4628.32 8378.29,2252.61 8097.1,2361.12 7501.93,4515.25 "/>
      <g>
       <path class="fil0" d="M7828.99 3976.76c11.45,-35.79 30.43,-60.24 56.82,-73.41 26.4,-13.17 58.08,-13.95 94.97,-2.14l28.2 9.02c20.73,6.64 39.33,15.38 55.94,26.15 16.64,10.68 33.01,23.27 49.36,37.65l151.98 134.11 -27.21 85.02 -184.77 -162.24 17.64 -18.53c15.69,18.51 19.77,39.2 12.45,62.04 -9.93,31.03 -27.36,52.09 -52.34,63.25 -25.08,11.15 -55.36,11.04 -90.83,-0.32l-31.74 -10.16c-36.9,-11.81 -62.44,-30.9 -76.55,-57.15 -14.1,-26.25 -15.39,-57.42 -3.9,-93.3zm74.29 23.78c-3.78,11.83 -3.32,21.9 1.24,30.27 4.7,8.3 13.4,14.54 26.24,18.65l29.93 9.58c13.64,4.36 25.05,4.56 34.21,0.7 9.19,-3.98 15.7,-11.81 19.49,-23.64 3.62,-11.32 2.8,-21.28 -2.41,-30.07 -5.34,-8.74 -14.72,-15.31 -28.37,-19.68l-29.92 -9.57c-12.84,-4.11 -23.58,-3.98 -32.09,0.32 -8.54,4.39 -14.69,12.12 -18.32,23.44z"/>
      </g>
     </g>
    </g>
    <g style="clip-path:url(#id24)">
     <polygon class="fil8 str0" points="8299.71,2351.45 8267.64,4863.3 7524.77,4489.2 "/>
     <polygon class="fil13" points="3814.7,2314.04 6059.3,1016.64 6087.14,1998.72 "/>
    </g>
    <g style="clip-path:url(#id25)">
     <g>
      <polygon id="_1_17" class="fil6" points="5870.99,1909.57 5951.69,799.48 6311.55,843.1 6248.3,2070.95 5894.99,2084.04 "/>
      <polygon class="fil5" points="4160.53,2097.72 5878.47,1819.34 6103.41,2026.9 3722.5,2349.15 "/>
     </g>
    </g>
    <g style="clip-path:url(#id26)">
     <polygon class="fil8 str0" points="3814.7,2314.04 6059.3,1016.64 6087.14,1998.72 "/>
     <polygon class="fil11" points="8302.61,2353.27 6059.31,1016.64 6087.13,1998.72 "/>
    </g>
    <g style="clip-path:url(#id27)">
     <g>
      <polygon id="_1_18" class="fil6" points="6087.14,1998.72 6198.98,1862.88 8211.45,2216.97 8363.25,2385.1 "/>
      <polygon class="fil7" points="6108.46,1992 6198.98,1862.88 6197.18,865.99 6025.04,883.95 6010.14,1379.66 6066.42,2034.46 "/>
     </g>
    </g>
    <g style="clip-path:url(#id28)">
     <polygon class="fil8 str0" points="8302.61,2353.27 6059.31,1016.64 6087.13,1998.72 "/>
     <g>
      <path class="fil0" d="M7484.71 2722.38l-388.63 231.07 -41.45 -69.69 307.89 -183.07 -49.42 -36.19 74.62 -44.37 58.35 37.29 38.63 64.96zm-281.75 275.22l64.57 -38.02 323.77 -57.31 45.3 76.17 -318.6 58.55 92.18 154.61 -67.87 40.36 -139.35 -234.36zm23.09 175.08l221.59 -131.76 41.13 68.52 -221.87 131.93 -40.85 -68.69z"/>
     </g>
     <g>
      <path class="fil0" d="M6007.78 5400.49c-25.47,0 -47.55,-4.56 -66.12,-13.69 -18.47,-9.13 -32.8,-22.07 -42.88,-38.85 -10.09,-16.77 -15.08,-36.83 -15.08,-60.07l0 -39.49c0,-19.42 5.42,-37.46 16.35,-53.91 10.83,-16.45 25.69,-29.09 44.59,-37.79 -16.57,-7.22 -29.73,-17.52 -39.49,-30.89 -9.77,-13.38 -14.66,-28.02 -14.66,-43.74l0 -37.68c0,-32.47 10.62,-58.16 31.64,-77.04 21.01,-18.9 49.57,-28.35 85.65,-28.35 36.09,0 64.63,9.45 85.65,28.35 21.01,18.89 31.53,44.58 31.53,77.04l0 37.68c0,15.93 -4.89,30.58 -14.87,43.85 -9.97,13.26 -23.46,23.56 -40.44,30.78 19.32,8.7 34.5,21.34 45.54,37.79 11.15,16.45 16.66,34.49 16.66,53.91l0 39.49c0,23.25 -5.09,43.31 -15.28,60.07 -10.09,16.78 -24.42,29.72 -42.88,38.85 -18.48,9.13 -40.44,13.69 -65.91,13.69zm0 -78.32c13.27,0 23.88,-3.71 31.84,-11.25 7.96,-7.43 12,-17.51 12,-30.15l0 -39.8c0,-12.21 -3.93,-21.97 -11.79,-29.09 -7.95,-7.11 -18.57,-10.72 -32.05,-10.72 -13.27,0 -23.88,3.61 -31.84,10.72 -8.07,7.12 -12,16.98 -12,29.41l0 40.12c0,12.41 3.93,22.29 11.78,29.72 7.85,7.33 18.58,11.04 32.06,11.04zm0 -199c11.57,0 20.8,-3.72 27.49,-11.05 6.79,-7.42 10.08,-17.4 10.08,-30.04l0 -28.01c0,-11.58 -3.29,-20.81 -10.08,-27.5 -6.69,-6.69 -15.92,-10.08 -27.49,-10.08 -11.47,0 -20.6,3.39 -27.49,10.19 -7.01,6.89 -10.51,16.13 -10.51,27.7l0 28.35c0,12.62 3.5,22.5 10.3,29.71 6.9,7.12 16.13,10.73 27.7,10.73z"/>
     </g>
     <g>
      <path class="fil0" d="M4919.62 3076.92l-63.78 -36.83 -95.38 -197.35c-9.29,-17.25 -18.69,-31.75 -28.55,-43.32 -9.82,-11.67 -19.43,-20.28 -28.9,-25.75l-3.03 -1.75c-10.02,-5.78 -19.09,-7.48 -27.22,-5.29 -8.17,2.26 -15.2,8.49 -21.09,18.7 -6.05,10.48 -7.23,20.59 -3.77,30.3 3.41,9.81 11.55,19.05 24.59,27.68l7.26 4.19 -41.39 71.69 -7.26 -4.19c-34.84,-21.82 -56.23,-47.17 -64.29,-76.08 -8.15,-28.97 -2.84,-59.61 15.84,-91.97 19.58,-33.91 42.87,-54.91 69.59,-63 26.88,-8.14 56.34,-2.9 88.5,15.68l2.66 1.54c16,9.23 31.2,22.18 45.74,39.03 14.5,16.71 27.82,36.53 40,59.36l73.73 148.46 67.49 -116.92 68.39 39.49 -119.14 206.34z"/>
     </g>
     <g>
      <path class="fil0" d="M5513.98 1575.71l-335.89 333.26 -59.76 0 266.11 -264.02 -59.35 17.67 64.49 -63.99 68.71 -22.92 55.7 0zm-177.17 336.7c-18.77,0 -31.66,-3.36 -38.57,-10.09 -6.83,-6.73 -7.77,-16.27 -2.75,-28.63 5.02,-12.36 16.26,-27.15 33.52,-44.29l29.34 -29.1c14.43,-14.32 31.82,-27.62 52.11,-39.75 20.2,-12.12 40.53,-21.43 60.92,-27.84 -6.85,-5.32 -8.89,-12.92 -6.16,-22.78 2.74,-9.85 10.02,-20.65 21.68,-32.22l28 -27.78c24.13,-23.94 51.04,-42.87 80.56,-56.8 29.52,-13.93 57.58,-20.89 84.18,-20.89 26.6,0 40.63,6.96 42.08,20.89 1.45,13.93 -9.88,32.86 -34.01,56.8l-28 27.78c-11.83,11.73 -26.3,22.53 -43.51,32.3 -17.21,9.78 -34.8,17.38 -52.68,22.7 7.77,6.41 9.58,15.72 5.49,27.84 -4.01,12.13 -13.34,25.43 -27.77,39.75l-29.34 29.1c-17.27,17.14 -35.93,31.93 -55.89,44.29 -19.9,12.36 -40.08,21.9 -60.46,28.63 -20.4,6.73 -39.98,10.09 -58.76,10.09zm58.19 -57.73c9.78,0 20.37,-2.74 31.83,-8.3 11.39,-5.47 21.86,-12.91 31.24,-22.22l29.57 -29.33c9.07,-9 13.42,-16.2 12.92,-21.44 -0.58,-5.25 -5.73,-7.9 -15.66,-7.9 -9.79,0 -20.28,2.65 -31.44,7.9 -11.23,5.24 -21.46,12.52 -30.68,21.67l-29.81 29.57c-9.22,9.15 -13.66,16.43 -13.39,21.91 0.35,5.4 5.49,8.14 15.42,8.14zm147.84 -146.68c8.53,0 18.1,-2.75 28.47,-8.15 10.53,-5.47 20.37,-12.83 29.75,-22.13l20.81 -20.66c8.61,-8.53 13.03,-15.33 13,-20.27 0.03,-4.92 -4.25,-7.42 -12.78,-7.42 -8.45,0 -17.7,2.5 -27.83,7.5 -10.29,5.09 -19.73,11.9 -28.33,20.43l-21.05 20.88c-9.38,9.31 -14.14,16.59 -14.49,21.91 -0.2,5.24 3.92,7.91 12.45,7.91z"/>
     </g>
     <g>
      <path class="fil0" d="M6825.95 1857.89l-79.47 -55.24 -241.47 -226.71 65.32 0 240.14 223.89 132.45 -0.16 83.99 58.22 -200.96 0zm193.65 51.31l-274.2 -190.01 58.58 -0.24 274.53 190.25 -58.91 0z"/>
     </g>
     <circle class="fil1" cx="7807.41" cy="4167.16" r="34.85"/>
     <polygon class="fil6" points="6066.93,2390.46 6082.29,2144.48 7427.54,4444.66 4757.47,4413.81 4936.9,4288.75 7141.82,4288.75 "/>
     <polygon class="fil7" points="6082.29,2144.48 4757.47,4413.81 4936.9,4288.75 6066.93,2390.46 "/>
     <g>
      <path class="fil14" d="M5460.89 3980.42l0 -68.9 112.34 0c15.41,0 27.33,-3.31 35.77,-9.74 8.43,-6.43 12.7,-15.5 12.7,-27.13l0 -27.41c0,-12.57 -4.27,-22.4 -12.93,-29.4 -8.55,-6.99 -20.58,-10.49 -36.21,-10.49l-111.67 0 0 -68.43 110.66 0c14.05,0 25.08,-3.21 32.84,-9.83 7.76,-6.53 11.69,-15.79 11.69,-27.79l0 -21.65c0,-10.49 -3.93,-18.62 -11.69,-24.48 -7.76,-5.77 -18.79,-8.7 -32.84,-8.7l-110.66 0 0 -68.71 116.28 0c39.59,0 70.17,8.41 91.98,25.05 21.71,16.73 32.62,40.46 32.62,71.07l0 21.56c0,20.89 -7.2,38.09 -21.48,51.51 -14.29,13.52 -34.3,22.12 -60.27,25.81 27.89,3.12 49.48,11.91 64.88,26.47 15.41,14.46 23.05,33.37 23.05,56.62l0 27.7c0,30.81 -10.79,54.64 -32.39,71.55 -21.7,16.92 -52.29,25.33 -91.75,25.33l-122.92 0zm-43.18 0l0 -402.66 86.02 0 0 402.66 -86.02 0z"/>
      <path class="fil14" d="M5905.64 3984.58c-45.55,0 -80.96,-10.97 -106.27,-32.99 -25.41,-21.93 -38.12,-52.84 -38.12,-92.72l0 -281.11 86.02 0 0 283c0,16.44 5.06,29.21 15.19,38.28 10.12,8.98 24.51,13.52 43.18,13.52 18.67,0 33.18,-4.54 43.41,-13.52 10.35,-9.07 15.52,-21.84 15.52,-38.28l0 -283 86.36 0 0 281.11c0,39.89 -12.82,70.79 -38.46,92.72 -25.53,22.02 -61.17,32.99 -106.83,32.99z"/>
      <path class="fil14" d="M6170.58 3980.42l-0.33 -69.47 88.27 0c20.13,0 35.88,-4.54 47.12,-13.42 11.14,-8.98 16.65,-21.46 16.42,-37.25l0 -162.58c0.23,-16.07 -5.28,-28.45 -16.42,-37.24 -11.24,-8.79 -26.99,-13.14 -47.12,-13.14l-87.94 0 -0.33 -69.56 91.19 0c47.46,0 84.12,10.3 110.09,30.72 25.87,20.51 38.8,49.34 38.8,86.39l0 168.15c0,23.83 -5.62,44.53 -16.98,62.19 -11.24,17.59 -28,31.2 -50.16,40.84 -22.26,9.55 -49.59,14.37 -82.08,14.37l-90.53 0zm-50.15 0l0 -69.64 86.02 0 0 69.64 -86.02 0zm0 -166.45l0 -236.21 86.02 0 0 236.21 -86.02 0z"/>
      <path class="fil14" d="M6606.34 3984.58c-26.99,0 -50.72,-3.4 -71.18,-10.11 -20.36,-6.72 -37.23,-16.74 -50.61,-30.07 -13.27,-13.23 -22.72,-29.77 -28.45,-49.53l0 0 80.06 -29.68 0 0c6.41,16.26 15.97,28.55 28.68,36.87 12.7,8.31 28.23,12.47 46.44,12.47 18.9,0 33.63,-3.49 44.2,-10.58 10.46,-7 15.75,-16.73 15.75,-29.31l0 -18.05c0,-9.93 -3.49,-17.87 -10.35,-23.82 -6.97,-5.87 -16.19,-10.69 -27.67,-14.37 -11.58,-3.69 -24.06,-7.19 -37.45,-10.49 -14.73,-3.69 -29.57,-7.94 -44.64,-12.77 -14.96,-4.82 -28.91,-11.06 -41.5,-18.81 -12.6,-7.75 -22.72,-18.15 -30.48,-31.19 -7.65,-12.95 -11.47,-29.78 -11.47,-50.29l0 -10.49c0,-35.26 12.82,-62.48 38.46,-81.86 25.76,-19.28 62.07,-28.92 109.08,-28.92 35.76,0 65.22,7.18 88.16,21.65 22.94,14.36 38.69,35.92 47.24,64.45l0 0 -76.13 30.25 0 0c-6.08,-15.5 -14.62,-27.22 -25.64,-35.07 -11.02,-7.84 -23.73,-11.72 -38.24,-11.72 -18.44,0 -32.62,3.21 -42.51,9.64 -9.9,6.53 -14.85,15.51 -14.85,27.13l0 13.33c0,11.25 3.94,20.14 11.59,26.56 7.64,6.53 17.88,11.63 30.48,15.41 12.59,3.78 26.2,7.66 40.71,11.72 14.28,3.69 28.56,7.94 42.84,12.67 14.29,4.63 27.22,10.87 39.03,18.62 11.7,7.75 21.14,17.96 28.11,30.54 7.09,12.47 10.58,28.45 10.58,47.83l0 17.2c0,35.07 -13.16,62.29 -39.37,81.66 -26.31,19.38 -63.19,29.12 -110.87,29.12z"/>
     </g>
    </g>
   </g>
   <polygon class="fil8" points="3691.9,2272.12 3691.9,4956.3 6037.39,6361.9 8399.81,4998.64 8425.2,2280.59 6054.32,866.52 "/>
   <g>
    <path class="fil14" d="M1148.6 9970.8l0 -580.33 946.13 0c129.76,0 230.16,-27.87 301.18,-81.99 71.02,-54.14 107.01,-130.56 107.01,-228.47l0 -230.86c0,-105.87 -35.99,-188.65 -108.91,-247.57 -71.98,-58.91 -173.32,-88.36 -304.95,-88.36l-940.46 0 0 -576.34 931.94 0c118.38,0 211.19,-27.07 276.54,-82.79 65.35,-54.94 98.5,-132.94 98.5,-234.04l0 -182.29c0,-88.36 -33.15,-156.83 -98.5,-206.18 -65.34,-48.57 -158.16,-73.24 -276.54,-73.24l-931.94 0 0 -578.73 979.29 0c333.36,0 590.98,70.85 774.7,210.96 182.79,140.9 274.66,340.7 274.66,598.63l0 181.5c0,175.94 -60.61,320.8 -180.88,433.84 -120.28,113.84 -288.87,186.28 -507.64,217.33 234.87,26.27 416.71,100.3 546.46,222.9 129.75,121.79 194.15,281 194.15,476.83l0 233.25c0,259.51 -90.92,460.12 -272.77,602.61 -182.78,142.5 -440.39,213.35 -772.81,213.35l-1035.16 0zm-363.68 0l0 -3391.21 724.53 0 0 3391.21 -724.53 0z"/>
    <path class="fil14" d="M4894.31 10005.82c-383.58,0 -681.9,-92.34 -895,-277.82 -214.03,-184.68 -321.04,-444.99 -321.04,-780.93l0 -2367.48 724.5 0 0 2383.4c0,138.52 42.63,245.98 127.86,322.4 85.24,75.63 206.46,113.84 363.69,113.84 157.21,0 279.39,-38.21 365.57,-113.84 87.14,-76.42 130.7,-183.88 130.7,-322.4l0 -2383.4 727.36 0 0 2367.48c0,335.94 -107.97,596.25 -323.9,780.93 -214.98,185.47 -515.21,277.82 -899.72,277.82z"/>
    <path class="fil14" d="M7125.65 9970.8l-2.84 -585.1 743.46 0c169.52,0 302.12,-38.22 396.82,-113.04 93.77,-75.63 140.18,-180.71 138.29,-313.65l0 -1369.22c1.89,-135.33 -44.52,-239.61 -138.29,-313.64 -94.69,-74.02 -227.3,-110.65 -396.82,-110.65l-740.62 0 -2.84 -585.9 768.08 0c399.67,0 708.41,86.77 927.19,258.72 217.82,172.75 326.73,415.54 326.73,727.6l0 1416.19c0,200.6 -47.35,374.94 -143,523.81 -94.71,148.07 -235.83,262.7 -422.39,343.9 -187.53,80.4 -417.67,121 -691.38,121l-762.4 0zm-422.4 0l0 -586.52 724.53 0 0 586.52 -724.53 0zm0 -1401.82l0 -1989.39 724.53 0 0 1989.39 -724.53 0z"/>
    <path class="fil14" d="M10795.58 10005.82c-227.29,0 -427.13,-28.65 -599.51,-85.17 -171.42,-56.52 -313.47,-140.9 -426.17,-253.15 -111.77,-111.44 -191.32,-250.75 -239.62,-417.13l0 0 674.32 -249.96 0 0c53.98,136.92 134.49,240.41 241.52,310.46 107,70.05 237.71,105.08 391.14,105.08 159.12,0 283.17,-29.46 372.2,-89.16 88.07,-58.91 132.6,-140.9 132.6,-246.78l0 -152.05c0,-83.58 -29.36,-150.46 -87.14,-200.6 -58.72,-49.37 -136.37,-89.96 -232.98,-121.01 -97.55,-31.05 -202.66,-60.49 -315.37,-88.35 -124.08,-31.05 -249.08,-66.86 -376,-107.47 -125.96,-40.61 -243.4,-93.13 -349.47,-158.42 -106.07,-65.27 -191.3,-152.85 -256.66,-262.7 -64.39,-109.06 -96.6,-250.76 -96.6,-423.5l0 -88.36c0,-296.92 107.97,-526.2 323.89,-689.38 216.89,-162.4 522.8,-243.6 918.68,-243.6 301.16,0 549.29,60.5 742.51,182.29 193.2,121 325.8,302.5 397.79,542.91l0 0 -641.18 254.74 0 0c-51.16,-130.55 -123.13,-229.27 -215.93,-295.33 -92.82,-66.07 -199.84,-98.71 -322.01,-98.71 -155.33,0 -274.67,27.07 -358.01,81.2 -83.33,54.93 -125.01,130.55 -125.01,228.46l0 112.24c0,94.74 33.15,169.57 97.56,223.7 64.39,54.93 150.58,97.91 256.66,129.76 106.06,31.84 220.66,64.47 342.84,98.7 120.28,31.05 240.55,66.87 360.83,106.68 120.28,39.01 229.2,91.54 328.64,156.82 98.5,65.27 178.05,151.26 236.77,257.13 59.66,105.08 89.03,239.62 89.03,402.81l0 144.89c0,295.33 -110.81,524.61 -331.48,687.79 -221.62,163.19 -532.26,245.18 -933.83,245.18z"/>
   </g>
   <g>
    <path class="fil15" d="M1200.31 9898.4l0 -580.33 946.13 0c129.76,0 230.16,-27.87 301.18,-81.99 71.02,-54.14 107.01,-130.56 107.01,-228.47l0 -230.86c0,-105.87 -35.99,-188.65 -108.91,-247.57 -71.98,-58.91 -173.32,-88.36 -304.95,-88.36l-940.46 0 0 -576.34 931.94 0c118.38,0 211.19,-27.07 276.54,-82.79 65.35,-54.94 98.5,-132.94 98.5,-234.04l0 -182.29c0,-88.36 -33.15,-156.83 -98.5,-206.18 -65.34,-48.57 -158.16,-73.24 -276.54,-73.24l-931.94 0 0 -578.73 979.29 0c333.36,0 590.98,70.85 774.7,210.96 182.79,140.9 274.66,340.7 274.66,598.63l0 181.5c0,175.94 -60.61,320.8 -180.88,433.84 -120.28,113.84 -288.87,186.28 -507.64,217.33 234.87,26.27 416.71,100.3 546.46,222.9 129.75,121.79 194.15,281 194.15,476.83l0 233.25c0,259.51 -90.92,460.12 -272.77,602.61 -182.78,142.5 -440.39,213.35 -772.81,213.35l-1035.16 0zm-363.68 0l0 -3391.21 724.53 0 0 3391.21 -724.53 0z"/>
    <path class="fil16" d="M4946.02 9933.42c-383.58,0 -681.9,-92.34 -895,-277.82 -214.03,-184.68 -321.04,-444.99 -321.04,-780.93l0 -2367.48 724.5 0 0 2383.4c0,138.52 42.63,245.98 127.86,322.4 85.24,75.63 206.46,113.84 363.69,113.84 157.21,0 279.39,-38.21 365.57,-113.84 87.14,-76.42 130.7,-183.88 130.7,-322.4l0 -2383.4 727.36 0 0 2367.48c0,335.94 -107.97,596.25 -323.9,780.93 -214.98,185.47 -515.21,277.82 -899.72,277.82z"/>
    <path class="fil17" d="M7177.35 9898.4l-2.84 -585.1 743.46 0c169.52,0 302.12,-38.22 396.82,-113.04 93.77,-75.63 140.18,-180.71 138.29,-313.65l0 -1369.22c1.89,-135.33 -44.52,-239.61 -138.29,-313.64 -94.69,-74.02 -227.3,-110.65 -396.82,-110.65l-740.62 0 -2.84 -585.9 768.08 0c399.67,0 708.41,86.77 927.19,258.72 217.82,172.75 326.73,415.54 326.73,727.6l0 1416.19c0,200.6 -47.35,374.94 -143,523.81 -94.71,148.07 -235.83,262.7 -422.39,343.9 -187.53,80.4 -417.67,121 -691.38,121l-762.4 0zm-422.4 0l0 -586.52 724.53 0 0 586.52 -724.53 0zm0 -1401.82l0 -1989.39 724.53 0 0 1989.39 -724.53 0z"/>
    <path class="fil18" d="M10847.29 9933.42c-227.29,0 -427.13,-28.65 -599.51,-85.17 -171.42,-56.52 -313.47,-140.9 -426.17,-253.15 -111.77,-111.44 -191.32,-250.75 -239.62,-417.13l0 0 674.32 -249.96 0 0c53.98,136.92 134.49,240.41 241.52,310.46 107,70.05 237.71,105.08 391.14,105.08 159.12,0 283.17,-29.46 372.2,-89.16 88.07,-58.91 132.6,-140.9 132.6,-246.78l0 -152.05c0,-83.58 -29.36,-150.46 -87.14,-200.6 -58.72,-49.37 -136.37,-89.96 -232.98,-121.01 -97.55,-31.05 -202.66,-60.49 -315.37,-88.35 -124.08,-31.05 -249.08,-66.86 -376,-107.47 -125.96,-40.61 -243.4,-93.13 -349.47,-158.42 -106.07,-65.27 -191.3,-152.85 -256.66,-262.7 -64.39,-109.06 -96.6,-250.76 -96.6,-423.5l0 -88.36c0,-296.92 107.97,-526.2 323.89,-689.38 216.89,-162.4 522.8,-243.6 918.68,-243.6 301.16,0 549.29,60.5 742.51,182.29 193.2,121 325.8,302.5 397.79,542.91l0 0 -641.18 254.74 0 0c-51.16,-130.55 -123.13,-229.27 -215.93,-295.33 -92.82,-66.07 -199.84,-98.71 -322.01,-98.71 -155.33,0 -274.67,27.07 -358.01,81.2 -83.33,54.93 -125.01,130.55 -125.01,228.46l0 112.24c0,94.74 33.15,169.57 97.56,223.7 64.39,54.93 150.58,97.91 256.66,129.76 106.06,31.84 220.66,64.47 342.84,98.7 120.28,31.05 240.55,66.87 360.83,106.68 120.28,39.01 229.2,91.54 328.64,156.82 98.5,65.27 178.05,151.26 236.77,257.13 59.66,105.08 89.03,239.62 89.03,402.81l0 144.89c0,295.33 -110.81,524.61 -331.48,687.79 -221.62,163.19 -532.26,245.18 -933.83,245.18z"/>
   </g>
  </g>
 </g>
</svg>
