<?xml version="1.0" encoding="UTF-8"?>
<!DOCTYPE svg PUBLIC "-//W3C//DTD SVG 1.1//EN" "http://www.w3.org/Graphics/SVG/1.1/DTD/svg11.dtd">
<!-- Creator: CorelDRAW -->
<svg xmlns="http://www.w3.org/2000/svg" xml:space="preserve" width="220.307mm" height="54.0485mm" version="1.1" style="shape-rendering:geometricPrecision; text-rendering:geometricPrecision; image-rendering:optimizeQuality; fill-rule:evenodd; clip-rule:evenodd"
viewBox="0 0 22029.64 5404.59"
 xmlns:xlink="http://www.w3.org/1999/xlink"
 xmlns:xodm="http://www.corel.com/coreldraw/odm/2003">
 <defs>
  <style type="text/css">
   <![CDATA[
    .fil3 {fill:none}
    .fil4 {fill:none;fill-rule:nonzero}
    .fil6 {fill:#CCCCCC}
    .fil2 {fill:#CCCCCC}
    .fil1 {fill:#EEEEEE}
    .fil5 {fill:white}
    .fil0 {fill:#EEEEEE;fill-rule:nonzero}
   ]]>
  </style>
     <clipPath id="id0">
      <path d="M163.39 953.42l2718.12 -940.13c126.22,-43.66 265.22,23.88 308.87,150.1l361.82 1046.09 -270.07 134.05 -0.02 0 -288.62 -834.44c-35.87,-103.76 -150.13,-159.3 -253.89,-123.4l-2234.53 772.88c-103.77,35.89 -159.31,150.14 -123.42,253.93l1204.72 3482.99c35.88,103.77 150.15,159.3 253.91,123.4l1971.93 -682.06 337.85 206.45 -2451.7 848.01c-126.22,43.67 -265.22,-23.89 -308.87,-150.11l-1376.21 -3978.9c-43.66,-126.2 23.88,-265.2 150.1,-308.86zm4407.89 3203.96c33.5,122.01 -33.56,251.84 -154.78,293.76l-10.11 3.5 164.89 -297.26z"/>
     </clipPath>
      <clipPath id="id1" style="clip-rule:nonzero">
       <path d="M1461.87 3203.71l-34.03 -98.41 160.44 -55.5c22.03,-7.63 37.4,-18.23 46.27,-31.59 8.87,-13.35 10.51,-28.42 4.76,-45.02l-13.54 -39.16c-6.21,-17.94 -17.16,-29.88 -32.98,-35.6 -15.69,-5.77 -34.6,-4.82 -56.92,2.91l-159.49 55.17 -33.83 -97.75 158.07 -54.66c20.08,-6.96 34.21,-17 42.04,-30.28 7.87,-13.14 8.92,-28.31 2.96,-45.47l-10.69 -30.92c-5.17,-14.98 -14.79,-24.66 -28.8,-29.18 -13.93,-4.41 -31.12,-3.15 -51.18,3.78l-158.05 54.7 -33.96 -98.16 166.07 -57.46c56.55,-19.56 104.38,-22.66 143.78,-9.66 39.25,13.16 66.56,41.66 81.7,85.4l10.64 30.77c10.31,29.87 8.55,57.99 -5.22,84.23 -13.74,26.36 -38.06,48.53 -73.36,66.62 41.38,-9.3 76.57,-7.44 105.74,5.75 29.15,13.06 49.42,36.28 60.9,69.47l13.7 39.57c15.21,44 11.57,83.38 -10.92,118.19 -22.64,34.9 -62.16,62.03 -118.54,81.53l-175.57 60.72zm-61.67 21.34l-198.94 -575.13 122.87 -42.49 198.94 575.13 -122.87 42.49z"/>
      </clipPath>
      <clipPath id="id2" style="clip-rule:nonzero">
       <path d="M2099.19 2989.93c-65.06,22.52 -121.06,24.34 -168.08,5.4 -47.15,-18.78 -80.55,-56.65 -100.27,-113.6l-138.88 -401.54 122.89 -42.49 139.78 404.2c8.15,23.5 21.67,39.22 40.61,47.19 18.91,7.83 41.7,7.2 68.36,-2.03 26.68,-9.22 45.14,-22.86 55.34,-40.74 10.29,-18.09 11.37,-38.88 3.22,-62.35l-139.78 -404.23 123.36 -42.66 138.86 401.51c19.72,56.98 16.67,107.46 -9.13,151.45 -25.57,44.06 -71.08,77.33 -136.28,99.89z"/>
      </clipPath>
      <clipPath id="id3" style="clip-rule:nonzero">
       <path d="M2475.55 2853.11l-34.8 -99.07 126.08 -43.63c28.76,-9.94 49,-24.18 60.67,-42.43 11.47,-18.33 13.16,-38.87 5.06,-61.32l-80.32 -232.21c-7.63,-23.07 -21.62,-38.03 -41.85,-45.08 -20.4,-7 -45.06,-5.43 -73.81,4.51l-125.58 43.45 -34.86 -99.21 130.25 -45.06c67.78,-23.43 125.22,-26.84 172.43,-10.52 47.08,16.53 79.79,51.33 98.11,104.25l83.06 240.17c11.76,34.02 13.96,66.37 6.47,97.23 -7.37,30.65 -24.57,58.39 -51.47,83.1 -27.09,24.63 -63.74,45.03 -110.14,61.08l-129.3 44.73zm-71.65 24.77l-34.4 -99.46 122.87 -42.51 34.41 99.49 -122.88 42.48zm-82.23 -237.74l-116.68 -337.38 122.86 -42.52 116.7 337.4 -122.88 42.5z"/>
      </clipPath>
      <clipPath id="id4" style="clip-rule:nonzero">
       <path d="M2834.62 2386.23c-12.32,-5.35 -23.81,-12.55 -34.54,-21.61 -17.34,-14.71 -31.1,-36.85 -41.25,-66.17l-5.18 -14.98c-17.41,-50.36 -12.57,-95.59 14.49,-135.92 16.19,-23.93 39.41,-44.82 69.66,-62.71l-3.18 301.39z"/>
      </clipPath>
     <clipPath id="id5">
      <path d="M6988.93 2011.59c-22.36,-9.56 -39.61,-17.4 -59.76,-32.31 -17.42,-12.91 -20.3,-15.19 -26.29,-35.52 -0.44,-1.53 -1.47,-6.19 -1.93,-7.69 -4.25,-14.05 3.78,0.6 -4.2,-11.75 -49.32,33.24 -165.69,50.66 -178.26,113.25 53.24,38.49 260.83,67.33 346.57,83.86 340.61,65.64 661.88,137.43 1003.29,192.15 -49.74,-55.94 -512.48,-145.67 -619.48,-170.6 -130.48,-30.39 -338.12,-79.31 -459.95,-131.39z"/>
     </clipPath>
     <clipPath id="id6">
      <path d="M6985.99 2245.98c-62.25,280.78 -117.59,457.84 -263.68,676.56 -34.45,51.57 -74.22,100.67 -117.48,145.6l-3.35 387.17c149.46,28.7 320.25,58 440.12,80.55 138.82,26.13 277.68,52.22 416.52,78.35 137.22,25.83 285.33,59.42 422.23,78.76 -81.94,-103.78 -638.55,-241.81 -816.44,-275.7 -85.45,-16.28 -221.87,-40.74 -284.77,-87.66 -82.14,-61.3 -17.8,-156.63 21.27,-239.42 74.77,-158.44 244.49,-638.04 201.09,-815.08l-15.51 -29.13z"/>
     </clipPath>
     <clipPath id="id7">
      <path d="M5777.41 4286.67c-5.13,68.3 17.32,128.07 58.15,168.65 66.88,66.48 184.72,85.3 290.93,105.29 234.28,44.04 469.12,86.9 703.12,132.17 226.52,43.81 468.37,99.04 696.35,135.25 -62.83,-49.28 -397.97,-148.85 -499.2,-176.02 -181.33,-48.7 -364.24,-92.93 -546.64,-136.09 -183.71,-43.46 -374.61,-69.66 -431.41,-219.8 -18.9,-49.95 -16.17,-105.89 -2.5,-161.31l-268.79 151.85z"/>
     </clipPath>
 </defs>
 <g id="Camada_x0020_1">
  <metadata id="CorelCorpID_0Corel-Layer"/>
  <g id="_1848390280736">
   <g>
    <path class="fil0" d="M11249.12 5019.94l171.42 0 0 141.55c0,36.74 -7.13,68.63 -21.4,95.4 -14.39,26.78 -34.58,47.5 -60.82,62.04 -26.1,14.66 -57.19,21.93 -93.11,21.93 -36.07,0 -67.42,-7 -94.33,-20.86 -26.78,-13.99 -47.37,-33.64 -61.9,-59.2 -14.4,-25.44 -21.66,-55.71 -21.66,-90.7l0 -233.32c0,-37 7.26,-69.16 21.66,-96.21 14.53,-27.05 34.85,-47.9 61.23,-62.71 26.23,-14.66 57.05,-22.06 92.57,-22.06 35.26,0 65.27,6.72 90.03,19.91 24.89,13.32 44.27,33.24 58.26,59.75 13.86,26.51 22.2,59.61 24.76,99.3l0 0 -107.64 0 0 0c-2.02,-25.16 -8.88,-43.73 -20.32,-55.57 -11.3,-11.84 -26.37,-17.76 -45.08,-17.76 -21.26,0 -38.21,6.86 -50.59,20.59 -12.52,13.59 -18.84,31.89 -18.84,54.76l0 233.32c0,20.05 6.46,35.93 19.38,47.5 12.91,11.71 30.41,17.63 52.48,17.63 21.79,0 39.15,-6.46 51.94,-19.11 12.91,-12.78 19.37,-30.41 19.37,-53.02l0 -44.13 -67.41 0 0 -99.04zm1041.71 314.99l177.75 -573.2 68.62 0 178.15 573.2 -106.83 0 -105.62 -383.62 -105.62 383.62 -106.43 0zm98.9 -90.69l0 -97.7 229.02 0 0 97.7 -229.02 0zm1232.11 -133.61l103.33 -348.9 117.06 0 0 573.2 -92.71 0 0 -422.64 4.71 25.3 -96.08 314.58 -72.26 0 -96.48 -306.79 5.92 -33.1 0 422.64 -93.52 0 0 -573.2 117.87 0 102.13 348.9zm947.79 224.3l0.4 -573.2 102.94 0 0 573.2 -103.33 0zm41.44 0l0 -99.71 278.26 0 0 99.71 -278.26 0zm0 -234.53l0 -100.11 246.78 0 0 99.71 -246.78 0.4zm0 -238.97l0 -99.71 278.26 0 0 99.71 -278.26 0zm1416.17 473.5l0.41 -573.2 102.8 0 0 573.2 -103.2 0zm-244.48 0l0.4 -573.2 102.94 0 0 573.2 -103.33 0zm48.57 -234.13l0 -98.23 262.93 -0.4 0 98.23 -262.93 0.4zm1199 240.05c-36.33,0 -67.82,-7 -94.46,-21.13 -26.65,-13.99 -47.23,-34.04 -61.77,-60.14 -14.39,-25.97 -21.66,-56.52 -21.66,-91.78l0 -238.97c0,-35.66 7.27,-66.47 21.66,-92.44 14.54,-25.84 35.12,-45.75 61.77,-59.61 26.64,-14 58.13,-20.99 94.46,-20.99 36.47,0 68.09,6.99 94.73,20.99 26.64,13.86 47.23,33.77 61.76,59.61 14.4,25.97 21.67,56.78 21.67,92.44l0 238.97c0,35.26 -7.27,65.81 -21.67,91.78 -14.53,26.1 -35.12,46.15 -61.76,60.14 -26.64,14.13 -58.26,21.13 -94.73,21.13zm0 -102.94c22.34,0 39.96,-6.73 53.02,-20.05 12.91,-13.45 19.51,-31.76 19.51,-55.17l0 -229.42c0,-22.87 -6.46,-41.17 -19.38,-54.63 -12.92,-13.59 -30.54,-20.32 -53.15,-20.32 -22.2,0 -39.7,6.73 -52.75,20.32 -12.92,13.46 -19.51,31.76 -19.51,54.63l0 229.42c0,23.41 6.59,41.72 19.51,55.17 13.05,13.32 30.55,20.05 52.75,20.05zm1049.91 102.94c-54.49,0 -96.88,-15.61 -127.15,-46.96 -30.41,-31.22 -45.61,-75.22 -45.61,-132l0 -400.16 102.94 0 0 402.85c0,23.42 6.05,41.58 18.16,54.5 12.11,12.79 29.34,19.24 51.67,19.24 22.34,0 39.7,-6.45 51.95,-19.24 12.38,-12.92 18.57,-31.08 18.57,-54.5l0 -402.85 103.33 0 0 400.16c0,56.79 -15.34,100.79 -46.02,132 -30.55,31.35 -73.2,46.96 -127.83,46.96zm1036.87 0c-32.3,0 -60.69,-4.84 -85.18,-14.4 -24.35,-9.55 -44.54,-23.81 -60.55,-42.79 -15.88,-18.84 -27.18,-42.38 -34.04,-70.51l0 0 95.8 -42.25 0 0c7.67,23.14 19.11,40.64 34.32,52.48 15.2,11.84 33.77,17.76 55.57,17.76 22.61,0 40.23,-4.98 52.88,-15.07 12.52,-9.96 18.84,-23.82 18.84,-41.71l0 -25.71c0,-14.12 -4.17,-25.43 -12.38,-33.91 -8.34,-8.34 -19.37,-15.2 -33.1,-20.45 -13.86,-5.25 -28.8,-10.23 -44.81,-14.94 -17.63,-5.24 -35.39,-11.3 -53.42,-18.16 -17.9,-6.86 -34.58,-15.74 -49.65,-26.78 -15.07,-11.03 -27.18,-25.83 -36.47,-44.4 -9.15,-18.44 -13.73,-42.39 -13.73,-71.59l0 -14.94c0,-50.19 15.35,-88.94 46.03,-116.52 30.81,-27.45 74.27,-41.17 130.51,-41.17 42.79,0 78.05,10.22 105.49,30.81 27.45,20.45 46.29,51.13 56.51,91.77l0 0 -91.1 43.06 0 0c-7.26,-22.07 -17.49,-38.75 -30.68,-49.92 -13.18,-11.17 -28.39,-16.69 -45.75,-16.69 -22.07,0 -39.02,4.58 -50.86,13.73 -11.84,9.28 -17.76,22.07 -17.76,38.62l0 18.97c0,16.01 4.71,28.66 13.86,37.81 9.15,9.29 21.39,16.55 36.46,21.94 15.07,5.38 31.36,10.9 48.71,16.68 17.09,5.25 34.18,11.31 51.27,18.03 17.09,6.6 32.57,15.48 46.69,26.51 14,11.04 25.3,25.57 33.65,43.47 8.47,17.76 12.64,40.5 12.64,68.08l0 24.49c0,49.93 -15.74,88.68 -47.09,116.26 -31.49,27.58 -75.63,41.44 -132.67,41.44zm885.9 -5.92l0.4 -573.2 102.94 0 0 573.2 -103.33 0zm41.44 0l0 -99.71 278.26 0 0 99.71 -278.26 0zm0 -234.53l0 -100.11 246.78 0 0 99.71 -246.78 0.4zm0 -238.97l0 -99.71 278.26 0 0 99.71 -278.26 0z"/>
    <g>
     <path class="fil1" d="M10595.6 4907.04c78.02,0 141.27,63.25 141.27,141.27 0,78.02 -63.26,141.27 -141.27,141.27 -78.03,0 -141.27,-63.26 -141.27,-141.27 0,-78.03 63.25,-141.27 141.27,-141.27z"/>
     <path class="fil1" d="M20794.99 4907.04c78.03,0 141.28,63.25 141.28,141.27 0,78.02 -63.26,141.27 -141.28,141.27 -78.02,0 -141.27,-63.26 -141.27,-141.27 0,-78.03 63.26,-141.27 141.27,-141.27z"/>
    </g>
    <g>
     <path class="fil0" d="M9769.55 3913.16l0 -652.01 1062.99 0c145.77,0 258.58,-31.31 338.37,-92.12 79.8,-60.83 120.23,-146.68 120.23,-256.7l0 -259.37c0,-118.94 -40.44,-211.96 -122.36,-278.16 -80.87,-66.18 -194.72,-99.28 -342.62,-99.28l-1056.61 0 0 -647.52 1047.04 0c133,0 237.28,-30.42 310.69,-93.03 73.43,-61.72 110.66,-149.35 110.66,-262.95l0 -204.81c0,-99.28 -37.24,-176.2 -110.66,-231.65 -73.42,-54.56 -177.69,-82.29 -310.69,-82.29l-1047.04 0 0 -650.21 1100.24 0c374.54,0 663.97,79.6 870.39,237.01 205.37,158.3 308.59,382.79 308.59,672.58l0 203.92c0,197.66 -68.11,360.43 -203.23,487.43 -135.14,127.9 -324.54,209.29 -570.34,244.17 263.89,29.52 468.2,112.7 613.96,250.44 145.77,136.83 218.14,315.71 218.14,535.73l0 262.06c0,291.56 -102.16,516.94 -306.46,677.04 -205.37,160.1 -494.79,239.7 -868.27,239.7l-1163.01 0zm-408.61 0l0 -3810.06 814.02 0 0 3810.06 -814.02 0z"/>
     <path class="fil0" d="M13977.9 3952.51c-430.96,0 -766.13,-103.74 -1005.55,-312.13 -240.47,-207.5 -360.7,-499.96 -360.7,-877.39l0 -2659.89 813.99 0 0 2677.78c0,155.62 47.89,276.36 143.64,362.21 95.78,84.98 231.97,127.9 408.62,127.9 176.62,0 313.88,-42.93 410.72,-127.9 97.9,-85.86 146.84,-206.59 146.84,-362.21l0 -2677.78 817.19 0 0 2659.89c0,377.43 -121.3,669.89 -363.9,877.39 -241.55,208.39 -578.85,312.13 -1010.85,312.13z"/>
     <path class="fil0" d="M16484.82 3913.16l-3.18 -657.37 835.27 0c190.46,0 339.44,-42.94 445.84,-127 105.34,-84.98 157.48,-203.03 155.37,-352.38l0 -1538.35c2.11,-152.04 -50.03,-269.21 -155.37,-352.38 -106.39,-83.18 -255.38,-124.31 -445.84,-124.31l-832.09 0 -3.18 -658.27 862.94 0c449.04,0 795.92,97.49 1041.72,290.67 244.73,194.09 367.09,466.87 367.09,817.47l0 1591.1c0,225.38 -53.2,421.25 -160.66,588.5 -106.41,166.36 -264.96,295.15 -474.57,386.38 -210.69,90.33 -469.26,135.94 -776.77,135.94l-856.57 0zm-474.57 0l0 -658.96 814.01 0 0 658.96 -814.01 0zm0 -1574.96l0 -2235.1 814.01 0 0 2235.1 -814.01 0z"/>
     <path class="fil0" d="M20608.04 3952.51c-255.36,0 -479.88,-32.19 -673.55,-95.7 -192.59,-63.5 -352.19,-158.31 -478.82,-284.42 -125.56,-125.2 -214.95,-281.73 -269.22,-468.66l0 0 757.62 -280.83 0 0c60.64,153.82 151.09,270.1 271.34,348.8 120.22,78.71 267.08,118.05 439.45,118.05 178.77,0 318.15,-33.09 418.18,-100.17 98.95,-66.19 148.96,-158.3 148.96,-277.27l0 -170.82c0,-93.91 -32.98,-169.04 -97.9,-225.38 -65.97,-55.46 -153.21,-101.08 -261.76,-135.95 -109.6,-34.88 -227.7,-67.97 -354.33,-99.27 -139.39,-34.89 -279.84,-75.13 -422.43,-120.75 -141.51,-45.61 -273.47,-104.63 -392.63,-177.98 -119.18,-73.34 -214.94,-171.72 -288.37,-295.15 -72.35,-122.52 -108.53,-281.73 -108.53,-475.81l0 -99.28c0,-333.6 121.3,-591.19 363.9,-774.53 243.68,-182.45 587.36,-273.69 1032.15,-273.69 338.36,0 617.14,67.98 834.22,204.82 217.07,135.93 366.03,339.86 446.91,609.96l0 0 -720.37 286.21 0 0c-57.47,-146.68 -138.33,-257.59 -242.61,-331.81 -104.28,-74.24 -224.52,-110.91 -361.78,-110.91 -174.51,0 -308.59,30.42 -402.22,91.24 -93.63,61.72 -140.45,146.67 -140.45,256.69l0 126.1c0,106.43 37.24,190.5 109.6,251.33 72.35,61.71 169.18,110 288.37,145.78 119.15,35.77 247.92,72.45 385.19,110.89 135.12,34.89 270.26,75.14 405.39,119.85 135.13,43.83 257.51,102.86 369.23,176.19 110.66,73.34 200.05,169.94 266.02,288.89 67.03,118.06 100.03,269.22 100.03,452.56l0 162.78c0,331.81 -124.49,589.4 -372.43,772.74 -248.98,183.35 -597.99,275.47 -1049.17,275.47z"/>
    </g>
   </g>
   <g>
    <path class="fil1" d="M163.39 953.42l2718.12 -940.13c126.22,-43.66 265.22,23.88 308.87,150.1l361.82 1046.09 -270.07 134.05 -0.02 0 -288.62 -834.44c-35.87,-103.76 -150.13,-159.3 -253.89,-123.4l-2234.53 772.88c-103.77,35.89 -159.31,150.14 -123.42,253.93l1204.72 3482.99c35.88,103.77 150.15,159.3 253.91,123.4l1971.93 -682.06 337.85 206.45 -2451.7 848.01c-126.22,43.67 -265.22,-23.89 -308.87,-150.11l-1376.21 -3978.9c-43.66,-126.2 23.88,-265.2 150.1,-308.86zm4407.89 3203.96c33.5,122.01 -33.56,251.84 -154.78,293.76l-10.11 3.5 164.89 -297.26z"/>
    <g style="clip-path:url(#id0)">
     <g>
      <polygon id="_1" class="fil2" points="2662.05,1572.56 2662.05,3887.03 3707.3,4461.59 4406.77,4880.82 4568.04,3684.04 4054.35,684.27 "/>
     </g>
    </g>
    <path class="fil3" d="M163.39 953.42l2718.12 -940.13c126.22,-43.66 265.22,23.88 308.87,150.1l361.82 1046.09 -270.07 134.05 -0.02 0 -288.62 -834.44c-35.87,-103.76 -150.13,-159.3 -253.89,-123.4l-2234.53 772.88c-103.77,35.89 -159.31,150.14 -123.42,253.93l1204.72 3482.99c35.88,103.77 150.15,159.3 253.91,123.4l1971.93 -682.06 337.85 206.45 -2451.7 848.01c-126.22,43.67 -265.22,-23.89 -308.87,-150.11l-1376.21 -3978.9c-43.66,-126.2 23.88,-265.2 150.1,-308.86zm4407.89 3203.96c33.5,122.01 -33.56,251.84 -154.78,293.76l-10.11 3.5 164.89 -297.26z"/>
    <path class="fil1" d="M1718.95 3223.92l25.87 -8.96 7.4 21.37c1.9,5.55 2.5,10.72 1.75,15.5 -0.77,4.8 -2.75,8.98 -5.96,12.55 -3.16,3.57 -7.48,6.29 -12.9,8.16 -5.44,1.88 -10.53,2.48 -15.32,1.78 -4.77,-0.71 -8.9,-2.6 -12.43,-5.7 -3.51,-3.1 -6.17,-7.27 -8,-12.56l-12.18 -35.22c-1.94,-5.59 -2.51,-10.8 -1.76,-15.64 0.79,-4.84 2.76,-9.06 5.96,-12.66 3.21,-3.58 7.47,-6.31 12.83,-8.16 5.32,-1.85 10.2,-2.4 14.62,-1.69 4.47,0.69 8.42,2.69 11.91,5.97 3.48,3.26 6.47,7.83 8.92,13.69l-16.25 5.62c-1.6,-3.7 -3.61,-6.14 -5.95,-7.32 -2.33,-1.2 -4.91,-1.32 -7.74,-0.34 -3.21,1.12 -5.41,3.04 -6.56,5.75 -1.17,2.71 -1.17,5.81 0.01,9.25l12.2 35.22c1.04,3.02 2.84,5.08 5.4,6.15 2.55,1.09 5.5,1.09 8.84,-0.07 3.28,-1.14 5.56,-3.03 6.83,-5.59 1.29,-2.61 1.33,-5.62 0.15,-9.03l-2.3 -6.64 -10.17 3.51 -5.17 -14.94zm173.63 -6.83l-3.11 -95.81 10.36 -3.57 56.82 77.22 -16.12 5.57 -35.97 -52.39 4.07 63.41 -16.05 5.57zm10.18 -18.87l-5.09 -14.72 34.56 -11.96 5.1 14.73 -34.57 11.95zm178.94 -84.47l-2.62 -58.06 17.67 -6.11 29.93 86.52 -13.99 4.84 -22.06 -63.78 2.02 3.57 1.93 52.5 -10.92 3.77 -30.55 -41.26 -0.85 -5.32 22.07 63.8 -14.13 4.88 -29.92 -86.52 17.79 -6.15 33.63 47.32zm154.72 -15.61l-29.86 -86.54 15.53 -5.37 29.92 86.52 -15.59 5.39zm6.26 -2.16l-5.2 -15.05 41.99 -14.52 5.2 15.04 -41.99 14.53zm-12.25 -35.4l-5.22 -15.1 37.24 -12.89 5.2 15.06 -37.22 12.93zm-12.47 -36.07l-5.2 -15.04 41.99 -14.54 5.2 15.06 -41.99 14.52zm238.42 -2.45l-29.87 -86.53 15.53 -5.37 29.91 86.52 -15.57 5.38zm-36.89 12.76l-29.88 -86.53 15.53 -5.38 29.93 86.52 -15.58 5.39zm-4.9 -37.86l-5.13 -14.83 39.67 -13.79 5.13 14.82 -39.67 13.8zm193.44 -26.37c-5.48,1.89 -10.59,2.49 -15.34,1.75 -4.76,-0.72 -8.92,-2.66 -12.47,-5.85 -3.53,-3.16 -6.21,-7.4 -8.06,-12.71l-12.47 -36.08c-1.86,-5.37 -2.38,-10.41 -1.56,-15.08 0.84,-4.66 2.92,-8.74 6.21,-12.22 3.3,-3.51 7.67,-6.2 13.15,-8.09 5.52,-1.9 10.64,-2.51 15.41,-1.79 4.74,0.71 8.89,2.63 12.43,5.78 3.53,3.16 6.24,7.44 8.1,12.83l12.47 36.05c1.83,5.32 2.34,10.32 1.51,14.99 -0.82,4.7 -2.89,8.79 -6.16,12.3 -3.3,3.51 -7.7,6.22 -13.22,8.12zm-5.36 -15.51c3.36,-1.17 5.67,-3.12 6.96,-5.81 1.23,-2.7 1.27,-5.81 0.06,-9.35l-11.98 -34.61c-1.2,-3.45 -3.12,-5.88 -5.78,-7.24 -2.65,-1.37 -5.67,-1.47 -9.08,-0.3 -3.35,1.15 -5.64,3.09 -6.91,5.84 -1.23,2.7 -1.27,5.8 -0.07,9.26l11.98 34.61c1.21,3.54 3.16,5.95 5.8,7.32 2.68,1.32 5.67,1.43 9.02,0.28zm163.79 -39.28c-8.23,2.84 -15.44,2.7 -21.65,-0.45 -6.21,-3.12 -10.81,-8.97 -13.77,-17.54l-20.89 -60.4 15.55 -5.37 21.01 60.8c1.23,3.54 3.08,5.95 5.58,7.28 2.5,1.3 5.45,1.38 8.81,0.21 3.37,-1.16 5.65,-3.04 6.84,-5.62 1.19,-2.6 1.18,-5.65 -0.05,-9.19l-21.03 -60.8 15.6 -5.39 20.89 60.4c2.96,8.56 2.95,16 -0.04,22.32 -2.98,6.32 -8.61,10.9 -16.85,13.75z"/>
    <g>
     <path class="fil0" d="M1461.87 3203.71l-34.03 -98.41 160.44 -55.5c22.03,-7.63 37.4,-18.23 46.27,-31.59 8.87,-13.35 10.51,-28.42 4.76,-45.02l-13.54 -39.16c-6.21,-17.94 -17.16,-29.88 -32.98,-35.6 -15.69,-5.77 -34.6,-4.82 -56.92,2.91l-159.49 55.17 -33.83 -97.75 158.07 -54.66c20.08,-6.96 34.21,-17 42.04,-30.28 7.87,-13.14 8.92,-28.31 2.96,-45.47l-10.69 -30.92c-5.17,-14.98 -14.79,-24.66 -28.8,-29.18 -13.93,-4.41 -31.12,-3.15 -51.18,3.78l-158.05 54.7 -33.96 -98.16 166.07 -57.46c56.55,-19.56 104.38,-22.66 143.78,-9.66 39.25,13.16 66.56,41.66 81.7,85.4l10.64 30.77c10.31,29.87 8.55,57.99 -5.22,84.23 -13.74,26.36 -38.06,48.53 -73.36,66.62 41.38,-9.3 76.57,-7.44 105.74,5.75 29.15,13.06 49.42,36.28 60.9,69.47l13.7 39.57c15.21,44 11.57,83.38 -10.92,118.19 -22.64,34.9 -62.16,62.03 -118.54,81.53l-175.57 60.72zm-61.67 21.34l-198.94 -575.13 122.87 -42.49 198.94 575.13 -122.87 42.49z"/>
     <g style="clip-path:url(#id1)">
      <g>
       <polygon id="_1_0" class="fil2" points="-20245,5399.84 -20821.98,5753.5 -20821.98,8067.97 -19776.73,8642.54 -19077.27,9061.77 -18915.99,7864.98 -19416.78,5123.39 "/>
      </g>
     </g>
     <path class="fil4" d="M1461.87 3203.71l-34.03 -98.41 160.44 -55.5c22.03,-7.63 37.4,-18.23 46.27,-31.59 8.87,-13.35 10.51,-28.42 4.76,-45.02l-13.54 -39.16c-6.21,-17.94 -17.16,-29.88 -32.98,-35.6 -15.69,-5.77 -34.6,-4.82 -56.92,2.91l-159.49 55.17 -33.83 -97.75 158.07 -54.66c20.08,-6.96 34.21,-17 42.04,-30.28 7.87,-13.14 8.92,-28.31 2.96,-45.47l-10.69 -30.92c-5.17,-14.98 -14.79,-24.66 -28.8,-29.18 -13.93,-4.41 -31.12,-3.15 -51.18,3.78l-158.05 54.7 -33.96 -98.16 166.07 -57.46c56.55,-19.56 104.38,-22.66 143.78,-9.66 39.25,13.16 66.56,41.66 81.7,85.4l10.64 30.77c10.31,29.87 8.55,57.99 -5.22,84.23 -13.74,26.36 -38.06,48.53 -73.36,66.62 41.38,-9.3 76.57,-7.44 105.74,5.75 29.15,13.06 49.42,36.28 60.9,69.47l13.7 39.57c15.21,44 11.57,83.38 -10.92,118.19 -22.64,34.9 -62.16,62.03 -118.54,81.53l-175.57 60.72zm-61.67 21.34l-198.94 -575.13 122.87 -42.49 198.94 575.13 -122.87 42.49z"/>
     <path class="fil0" d="M2099.19 2989.93c-65.06,22.52 -121.06,24.34 -168.08,5.4 -47.15,-18.78 -80.55,-56.65 -100.27,-113.6l-138.88 -401.54 122.89 -42.49 139.78 404.2c8.15,23.5 21.67,39.22 40.61,47.19 18.91,7.83 41.7,7.2 68.36,-2.03 26.68,-9.22 45.14,-22.86 55.34,-40.74 10.29,-18.09 11.37,-38.88 3.22,-62.35l-139.78 -404.23 123.36 -42.66 138.86 401.51c19.72,56.98 16.67,107.46 -9.13,151.45 -25.57,44.06 -71.08,77.33 -136.28,99.89z"/>
     <g style="clip-path:url(#id2)">
      <g>
       <polygon id="_1_1" class="fil2" points="-20245,5399.84 -20821.98,5753.5 -20821.98,8067.97 -19776.73,8642.54 -19077.27,9061.77 -18915.99,7864.98 -19416.78,5123.39 "/>
      </g>
     </g>
     <path class="fil4" d="M2099.19 2989.93c-65.06,22.52 -121.06,24.34 -168.08,5.4 -47.15,-18.78 -80.55,-56.65 -100.27,-113.6l-138.88 -401.54 122.89 -42.49 139.78 404.2c8.15,23.5 21.67,39.22 40.61,47.19 18.91,7.83 41.7,7.2 68.36,-2.03 26.68,-9.22 45.14,-22.86 55.34,-40.74 10.29,-18.09 11.37,-38.88 3.22,-62.35l-139.78 -404.23 123.36 -42.66 138.86 401.51c19.72,56.98 16.67,107.46 -9.13,151.45 -25.57,44.06 -71.08,77.33 -136.28,99.89z"/>
     <path class="fil0" d="M2475.55 2853.11l-34.8 -99.07 126.08 -43.63c28.76,-9.94 49,-24.18 60.67,-42.43 11.47,-18.33 13.16,-38.87 5.06,-61.32l-80.32 -232.21c-7.63,-23.07 -21.62,-38.03 -41.85,-45.08 -20.4,-7 -45.06,-5.43 -73.81,4.51l-125.58 43.45 -34.86 -99.21 130.25 -45.06c67.78,-23.43 125.22,-26.84 172.43,-10.52 47.08,16.53 79.79,51.33 98.11,104.25l83.06 240.17c11.76,34.02 13.96,66.37 6.47,97.23 -7.37,30.65 -24.57,58.39 -51.47,83.1 -27.09,24.63 -63.74,45.03 -110.14,61.08l-129.3 44.73zm-71.65 24.77l-34.4 -99.46 122.87 -42.51 34.41 99.49 -122.88 42.48zm-82.23 -237.74l-116.68 -337.38 122.86 -42.52 116.7 337.4 -122.88 42.5z"/>
     <g style="clip-path:url(#id3)">
      <g>
       <polygon id="_1_2" class="fil2" points="-20245,5399.84 -20821.98,5753.5 -20821.98,8067.97 -19776.73,8642.54 -19077.27,9061.77 -18915.99,7864.98 -19416.78,5123.39 "/>
      </g>
     </g>
     <path class="fil4" d="M2475.55 2853.11l-34.8 -99.07 126.08 -43.63c28.76,-9.94 49,-24.18 60.67,-42.43 11.47,-18.33 13.16,-38.87 5.06,-61.32l-80.32 -232.21c-7.63,-23.07 -21.62,-38.03 -41.85,-45.08 -20.4,-7 -45.06,-5.43 -73.81,4.51l-125.58 43.45 -34.86 -99.21 130.25 -45.06c67.78,-23.43 125.22,-26.84 172.43,-10.52 47.08,16.53 79.79,51.33 98.11,104.25l83.06 240.17c11.76,34.02 13.96,66.37 6.47,97.23 -7.37,30.65 -24.57,58.39 -51.47,83.1 -27.09,24.63 -63.74,45.03 -110.14,61.08l-129.3 44.73zm-71.65 24.77l-34.4 -99.46 122.87 -42.51 34.41 99.49 -122.88 42.48zm-82.23 -237.74l-116.68 -337.38 122.86 -42.52 116.7 337.4 -122.88 42.5z"/>
     <path class="fil0" d="M2834.62 2386.23c-12.32,-5.35 -23.81,-12.55 -34.54,-21.61 -17.34,-14.71 -31.1,-36.85 -41.25,-66.17l-5.18 -14.98c-17.41,-50.36 -12.57,-95.59 14.49,-135.92 16.19,-23.93 39.41,-44.82 69.66,-62.71l-3.18 301.39z"/>
     <g style="clip-path:url(#id4)">
      <g>
       <polygon id="_1_3" class="fil2" points="-20245,5399.84 -20821.98,5753.5 -20821.98,8067.97 -19776.73,8642.54 -19077.27,9061.77 -18915.99,7864.98 -19416.78,5123.39 "/>
      </g>
     </g>
     <path class="fil4" d="M2834.62 2386.23c-12.32,-5.35 -23.81,-12.55 -34.54,-21.61 -17.34,-14.71 -31.1,-36.85 -41.25,-66.17l-5.18 -14.98c-17.41,-50.36 -12.57,-95.59 14.49,-135.92 16.19,-23.93 39.41,-44.82 69.66,-62.71l-3.18 301.39z"/>
    </g>
    <g>
     <path class="fil5" d="M1614.38 3240.98c11.77,-4.07 24.63,2.18 28.7,13.96 4.08,11.78 -2.17,24.63 -13.95,28.7 -11.78,4.08 -24.63,-2.17 -28.7,-13.95 -4.08,-11.77 2.17,-24.63 13.95,-28.71z"/>
     <path class="fil5" d="M3153.99 2708.47c11.78,-4.07 24.63,2.17 28.7,13.95 4.08,11.78 -2.17,24.63 -13.95,28.7 -11.77,4.07 -24.63,-2.17 -28.71,-13.95 -4.06,-11.78 2.18,-24.62 13.96,-28.7z"/>
    </g>
    <path class="fil1" d="M8487.86 1504.73c-0.1,0.19 -0.2,0.37 -0.3,0.57l-1.79 3.75 -57.38 98.8 -3.42 4.77c-60.06,83.08 -106.33,130.9 -179.33,192.6 32.16,22.53 56.67,53 74.08,89.59 25.09,52.66 30.5,108.53 10.71,163.61 18.6,14.36 37.8,28.31 53.63,41.16 53.58,43.54 104.34,92.83 133.58,156.31l28.99 52.31 -5.91 37.38c-3.7,59.9 -1.11,100.09 -39.59,154.15 -67.48,94.85 -188.85,96.25 -292.28,77.11 -10.98,-2.01 -36.36,-7.15 -53.9,-8.44 -5.66,16.01 -10.17,40.38 -11.93,50.97 -14.68,88.34 -18.62,189.75 -11.45,278.87 3.75,46.14 19.22,162.41 36.7,205.3l12.42 17.47 4.08 26.66c7.29,31.47 52.56,115.43 70.93,144.64 33.55,53.24 70.87,97.15 112.81,143.86 79.47,88.41 213.86,152.01 238.74,279.16 10.2,52.24 0.97,102.96 -26.46,148.4 -12.79,21.12 -26.4,34.21 -40.28,52.8l-20.67 28.08 -126.45 47.49c-41.46,18.11 -81.41,58.98 -51.26,104.3 24.85,37.37 54.02,69.49 82.94,103.51 41.98,49.42 76.75,98.18 107.81,155.3 15.32,28.16 27.2,59.09 42.82,86.78l20.6 34.79 -3.55 26.52 32.89 183.24 -4.23 21.61c-6.18,31.48 -5.56,67.69 -10.39,100.56 -8.33,56.93 -25.84,109.46 -50,160.66 52.14,48.29 82.53,116.18 75.48,195.57 -10.71,121.15 -107.22,213.07 -227.99,222.35 -66.18,5.08 -193.28,-23.55 -260.58,-36.74 -82.34,-16.15 -164.56,-34.49 -246.93,-50.01 -319.33,-60.08 -638.65,-120.11 -957.98,-180.19 -247.68,-46.6 -495.87,-90.97 -743.63,-137.29 -155.79,-29.13 -311.6,-58.45 -467.08,-89.19 -53.3,-10.54 -106.69,-21.19 -159.79,-32.76 -29.37,-6.39 -73.08,-14.58 -99.38,-28.39 -106.05,-55.76 -158.92,-176.11 -122.66,-291.03 1.86,-5.91 3.91,-11.66 6.14,-17.28l250.86 -141.72c0.68,9.92 1.62,20.31 2.89,31.22 2.86,24.66 11.02,56.81 10.89,77.76 -174.69,-23.32 -217.64,171.83 -93.45,237.14 43.55,22.89 1325.96,255.28 1436.9,276.14 319.34,60.07 638.67,120.12 958,180.19 84.26,15.85 417.63,89.62 476.83,85.09 140.8,-10.82 178.18,-212.44 3.09,-255.37 8.18,-20.2 26.67,-45.84 38.62,-68.46 69.42,-131.46 51.83,-194.09 64.92,-260.82l-32.25 -179.62 0.6 -4.39c-8.95,-15.14 -37.17,-76.25 -44.79,-90.26 -65.35,-120.17 -123.95,-157.51 -185.37,-249.87 -66.3,-99.68 -20.08,-225.58 105.28,-278.35l96.3 -36.14c18.71,-25.44 56.79,-54.24 46.06,-109.11 -14.26,-72.99 -136.99,-141.02 -210.82,-223.21 -50.36,-56.03 -86.43,-98.79 -124.82,-159.75 -19.46,-30.87 -80.62,-143.62 -87.5,-188.51 -25.14,-35.29 -49.48,-199.06 -54.3,-258.7 -7.53,-93.25 -3.67,-209.49 12.62,-307.55 27.28,-164.11 87.86,-160.04 203.02,-138.75 223.47,41.35 187.48,-89.49 194.13,-131.56l-11.82 -21.32c-38.74,-89.57 -161.93,-153.35 -218.07,-213.52 -8.36,-8.97 -7.28,-8.41 -11.48,-15.49 27.58,-40.29 59.53,-73.75 30.76,-134.18 -29.63,-62.22 -77.84,-58.09 -108.21,-71.95l-7.22 -4.82c-1.87,-23.7 5.93,-57.84 11.12,-83.62 7.35,-36.55 20.24,-35.97 40.71,-52.88 81.56,-67.45 113.58,-96.74 179.68,-188.2l52.21 -89.93c0.61,-1.27 7.56,-15.18 7.76,-15.52 0.69,-1.12 1.65,-2.57 2.3,-3.55l5.26 -6.53c0.67,-1.89 1.77,-2.18 2.81,-3.08 2.63,-28.79 19.2,-60.11 27.91,-89.75 8.97,-30.53 14.72,-60.05 21.41,-90.65l6.69 -194.45 3.02 -2.64c-13.96,-14.82 3.22,-29.26 -32.55,-150.65 -41.75,-141.72 -138.44,-287.08 -261.2,-379.68 -203.45,-153.54 -439.35,-199.26 -685.01,-130.63 -116.73,32.63 -196.05,85.39 -272.87,145.2 -35.31,27.51 -74.13,68.87 -107.34,108.48 -11.37,13.6 -59.98,90.46 -82.2,122.52 -27.32,55.97 -66.18,149.06 -71.87,235.83 -8.96,135.84 -2.12,241.99 -2.12,241.99l-0.55 1.65c4.73,47.34 10.14,84.14 45.56,169.5 41.08,98.97 85.93,131.52 77.81,176.79 -15.43,86.4 -12.18,85.13 -41.03,82.78 -20.76,-1.71 -32.82,-8.63 -61.19,-1.65 -77.33,19.04 -101.78,87.66 -73.59,166.58 -22.12,15.04 -123.39,47.56 -158,59.31 -88.13,29.83 -106.82,43.67 -118.52,54.93l1.17 -136.6c25.03,-11.07 51.52,-20.01 79.68,-29.54 19.46,-6.59 43.74,-13.92 67.67,-21.86 5.11,-95.33 62.5,-177.38 168.53,-205.55 -0.41,-0.65 -0.78,-1.3 -1.16,-1.9 -18.89,-31.93 -35.58,-63.97 -49.82,-98.29 -29.36,-70.73 -46.33,-127.03 -53.94,-202.79l-2.63 -25.89 1.43 -4.1c-3.72,-76.56 -1.45,-157.91 3.52,-233.09 6.29,-95.16 41.97,-194.48 83.53,-279.58l3.91 -8.05 5.09 -7.35c28.49,-41.13 57.42,-93.74 88.73,-131.06 37.25,-44.44 79.51,-90.14 125.19,-125.71 98.52,-76.73 191.72,-131.63 313.43,-165.65 280.88,-78.5 554.68,-25.57 787.32,149.97 140.65,106.17 253.4,271.56 303.11,440.26 13.55,45.99 21.17,82.7 26.82,126.1l5.7 114.87 -5.34 154.65 -2.29 10.4c-7.25,33.17 -13.86,66.04 -23.46,98.68 -5.76,19.64 -20.34,49.91 -23.66,68.01l-4.25 46.79 -24.92 21.32zm-1879.72 1179.86c22.3,-38.24 42.37,-78.57 60.27,-120.9 20.27,-47.95 70.87,-190.83 73.33,-255.43l-6 -1.03 -10.66 -11.97c-19.88,-4.94 -44.7,-8.47 -62.33,-12.2 -16.78,-3.53 -34.03,-7.49 -51.03,-12.46l1.09 -124.45c54.14,25.96 165.28,32.08 183.12,52.11 34.11,5.72 54.69,40.6 60.41,71.29 15.65,83.91 -48.46,265.82 -79.78,339.84 -44.74,105.85 -101.52,199.77 -170.2,280.87l1.78 -205.66z"/>
    <path class="fil1" d="M7140.61 1272.27c22.89,59.78 45.78,91.91 92.49,136.33 34.65,32.96 116.08,78.57 175.65,82.31 -42.08,-68.54 -90.46,-84.69 -134.59,-246.33 -27.99,-102.52 -24.08,-231.18 17.65,-344.77 68.24,-185.7 249.02,-345.24 439.35,-360.65l-7.71 -4.74c-39.43,-16.2 -145.46,-0.65 -182.15,8.02 -55.47,13.12 -123.48,41.02 -159.42,65.46 -87.66,59.64 -168.33,133.21 -223.02,263.75 -54.47,129.97 -61.45,287.77 -18.24,400.63z"/>
    <path class="fil1" d="M6988.93 2011.59c-22.36,-9.56 -39.61,-17.4 -59.76,-32.31 -17.42,-12.91 -20.3,-15.19 -26.29,-35.52 -0.44,-1.53 -1.47,-6.19 -1.93,-7.69 -4.25,-14.05 3.78,0.6 -4.2,-11.75 -49.32,33.24 -165.69,50.66 -178.26,113.25 53.24,38.49 260.83,67.33 346.57,83.86 340.61,65.64 661.88,137.43 1003.29,192.15 -49.74,-55.94 -512.48,-145.67 -619.48,-170.6 -130.48,-30.39 -338.12,-79.31 -459.95,-131.39z"/>
    <g style="clip-path:url(#id5)">
     <g>
      <polygon id="_1_4" class="fil6" points="6452.4,1206.91 6903.73,1506.98 6864.94,3998.93 5295.81,4949.25 4583.58,3116.13 6015.33,814.34 "/>
     </g>
    </g>
    <path class="fil3" d="M6988.93 2011.59c-22.36,-9.56 -39.61,-17.4 -59.76,-32.31 -17.42,-12.91 -20.3,-15.19 -26.29,-35.52 -0.44,-1.53 -1.47,-6.19 -1.93,-7.69 -4.25,-14.05 3.78,0.6 -4.2,-11.75 -49.32,33.24 -165.69,50.66 -178.26,113.25 53.24,38.49 260.83,67.33 346.57,83.86 340.61,65.64 661.88,137.43 1003.29,192.15 -49.74,-55.94 -512.48,-145.67 -619.48,-170.6 -130.48,-30.39 -338.12,-79.31 -459.95,-131.39z"/>
    <path class="fil1" d="M6985.99 2245.98c-62.25,280.78 -117.59,457.84 -263.68,676.56 -34.45,51.57 -74.22,100.67 -117.48,145.6l-3.35 387.17c149.46,28.7 320.25,58 440.12,80.55 138.82,26.13 277.68,52.22 416.52,78.35 137.22,25.83 285.33,59.42 422.23,78.76 -81.94,-103.78 -638.55,-241.81 -816.44,-275.7 -85.45,-16.28 -221.87,-40.74 -284.77,-87.66 -82.14,-61.3 -17.8,-156.63 21.27,-239.42 74.77,-158.44 244.49,-638.04 201.09,-815.08l-15.51 -29.13z"/>
    <g style="clip-path:url(#id6)">
     <g>
      <polygon id="_1_5" class="fil6" points="6452.4,1206.91 6903.73,1506.98 6864.94,3998.93 5295.81,4949.25 4583.58,3116.13 6015.33,814.34 "/>
     </g>
    </g>
    <path class="fil3" d="M6985.99 2245.98c-62.25,280.78 -117.59,457.84 -263.68,676.56 -34.45,51.57 -74.22,100.67 -117.48,145.6l-3.35 387.17c149.46,28.7 320.25,58 440.12,80.55 138.82,26.13 277.68,52.22 416.52,78.35 137.22,25.83 285.33,59.42 422.23,78.76 -81.94,-103.78 -638.55,-241.81 -816.44,-275.7 -85.45,-16.28 -221.87,-40.74 -284.77,-87.66 -82.14,-61.3 -17.8,-156.63 21.27,-239.42 74.77,-158.44 244.49,-638.04 201.09,-815.08l-15.51 -29.13z"/>
    <path class="fil1" d="M5777.41 4286.67c-5.13,68.3 17.32,128.07 58.15,168.65 66.88,66.48 184.72,85.3 290.93,105.29 234.28,44.04 469.12,86.9 703.12,132.17 226.52,43.81 468.37,99.04 696.35,135.25 -62.83,-49.28 -397.97,-148.85 -499.2,-176.02 -181.33,-48.7 -364.24,-92.93 -546.64,-136.09 -183.71,-43.46 -374.61,-69.66 -431.41,-219.8 -18.9,-49.95 -16.17,-105.89 -2.5,-161.31l-268.79 151.85z"/>
    <g style="clip-path:url(#id7)">
     <g>
      <polygon id="_1_6" class="fil6" points="6452.4,1206.91 6903.73,1506.98 6864.94,3998.93 5295.81,4949.25 4583.58,3116.13 6015.33,814.34 "/>
     </g>
    </g>
    <path class="fil3" d="M5777.41 4286.67c-5.13,68.3 17.32,128.07 58.15,168.65 66.88,66.48 184.72,85.3 290.93,105.29 234.28,44.04 469.12,86.9 703.12,132.17 226.52,43.81 468.37,99.04 696.35,135.25 -62.83,-49.28 -397.97,-148.85 -499.2,-176.02 -181.33,-48.7 -364.24,-92.93 -546.64,-136.09 -183.71,-43.46 -374.61,-69.66 -431.41,-219.8 -18.9,-49.95 -16.17,-105.89 -2.5,-161.31l-268.79 151.85z"/>
    <g>
     <path class="fil1" d="M4738.17 409.78l1978.13 1179.81 -21.19 2267.79 -1971.06 1137.43 -1956.94 -1172.75 0 -2239.53 1971.06 -1172.75zm-1039.11 3076.46l2128.91 7.91 -1092.16 1246.45 -1036.75 -1254.36zm-690.59 279.43l543.49 -266.5 916.56 1111.47 -1460.05 -844.97zm2971.29 -255.84l476.6 237.87 -1419.6 834.47 943 -1072.34zm62.53 -108.82l482.17 242.76 20.14 -1627.04 -502.31 1384.28zm-1157.37 -1960.78l1066.94 1841.71 572.76 -1581.61 -1639.7 -260.1zm-58.6 -139.72l1473.54 233.96 -1493.13 -893.97 19.59 660.01zm-144.21 -656.89l19.69 657.41 -1526.32 207.38 1506.63 -864.79zm-1734.06 1022.71l1705.21 -233.15 -1077.5 1847.77 -627.71 -1614.62zm537.32 1718.9l-556.58 -1429.01 1.07 1704.12 555.51 -275.11zm170.79 -15.8l2227.74 25.74 -1122.4 -1919.13 -1105.35 1893.39z"/>
     <path class="fil1" d="M3700.22 4166.01l-80.19 -46.41 255.76 -112.18 47.16 60.9 -222.73 97.7zm51.63 -324.34c22.65,29.27 32.65,54.78 29.96,76.47 -2.69,21.78 -16.89,38.28 -42.51,49.5l-155.32 68.13c-25.86,11.36 -51.96,12.42 -78.54,3.25 -26.44,-9.1 -50.93,-28.17 -73.32,-57.09 -22.52,-29.14 -32.53,-54.65 -30.17,-76.49 2.42,-21.79 16.62,-38.37 42.63,-49.78l155.31 -68.12c25.76,-11.29 51.95,-12.42 78.31,-3.38 26.38,9.05 51,28.26 73.65,57.51zm-54.64 23.98c-7.71,-9.98 -16.55,-15.93 -26.49,-17.98 -9.94,-2.04 -20.25,-0.62 -31.2,4.2l-140.25 61.5c-11.02,4.84 -17.81,10.91 -20.3,18.4 -2.44,7.5 0.16,16.18 7.88,26.14 7.45,9.66 16.16,15.57 26.03,17.63 9.94,2.17 20.35,0.78 31.37,-4.05l140.25 -61.5c10.97,-4.81 17.64,-10.94 20.24,-18.39 2.51,-7.51 0.06,-16.15 -7.53,-25.95z"/>
     <path class="fil1" d="M6008.01 4011.26l-9.48 5.56 -0.1 -14.78 9.58 9.22zm-32.88 19.33l-47.32 27.81 -230.91 -222.2 6.59 -12.19 26.11 -29.69 245.53 236.27zm-114.83 67.49l-31.92 18.77 -2.24 -4.6 -15.98 5.46 4.52 7.18 -75.13 44.18c-9.84,-7.11 -20.17,-15.86 -31,-26.28l-25.66 -24.7c-29.82,-28.69 -49.68,-57.21 -59.56,-85.42 -9.85,-28.2 -8.7,-53.58 3.41,-75.99 12.08,-22.35 29.6,-31.78 52.47,-28.4 22.88,3.43 49.27,19.39 79.1,48.09l22.8 21.95c16.74,16.12 31.59,32.8 44.65,50.05 11.75,15.45 23.2,32.01 34.54,49.71zm-173.48 -83.61c-3.99,7.39 -4.32,15.61 -1.12,24.66 3.31,9.03 10.09,18.53 20.47,28.51l24.2 23.29c11.05,10.6 20.51,16.76 28.39,18.49 7.93,1.68 13.89,-1.14 17.88,-8.51 3.83,-7.08 3.84,-15.41 0.15,-25.1 -3.82,-9.73 -11.14,-19.85 -22.18,-30.46l-24.2 -23.27c-10.37,-10 -19.3,-15.53 -26.69,-16.58 -7.4,-0.99 -13.06,1.92 -16.9,8.97z"/>
     <path class="fil1" d="M6530.46 3158.55l1.11 -90.12 -74.71 -65.93c-13.65,-11.99 -27.3,-22.52 -41.19,-31.41 -13.85,-9 -29.38,-16.29 -46.66,-21.84l-23.53 -7.5c-30.8,-9.85 -57.24,-9.2 -79.25,1.78 -22.02,10.98 -37.85,31.39 -47.4,61.25 -9.59,29.95 -8.52,55.95 3.25,77.85 11.76,21.89 33.08,37.84 63.87,47.67l26.48 8.48c29.61,9.49 54.88,9.57 75.81,0.29 20.83,-9.33 35.38,-26.9 43.66,-52.8 6.11,-19.07 2.7,-36.32 -10.39,-51.76l-14.72 15.46 123.66 108.57zm-249.63 -133.92c-3.16,9.88 -2.77,18.27 1.04,25.26 3.91,6.92 11.18,12.14 21.88,15.55l24.98 8c11.36,3.64 20.91,3.8 28.53,0.58 7.67,-3.31 13.12,-9.84 16.27,-19.74 3.02,-9.43 2.33,-17.72 -2.02,-25.06 -4.44,-7.3 -12.27,-12.77 -23.65,-16.43l-24.98 -7.98c-10.7,-3.43 -19.67,-3.33 -26.77,0.27 -7.13,3.66 -12.25,10.11 -15.28,19.55z"/>
     <path class="fil1" d="M6200.85 3134.57c16.06,0 29.07,13.02 29.07,29.07 0,16.07 -13.01,29.08 -29.07,29.08 -16.07,0 -29.08,-13.01 -29.08,-29.08 0,-16.05 13.01,-29.07 29.08,-29.07z"/>
     <path class="fil0" d="M5931.6 1958.2l-324.24 192.79 -34.58 -58.15 256.89 -152.74 -41.24 -30.19 62.27 -37.03 48.69 31.12 32.22 54.2zm-235.07 229.63l53.87 -31.73 270.14 -47.82 37.79 63.56 -265.81 48.85 76.91 128.99 -56.63 33.68 -116.26 -195.53zm19.27 146.06l184.88 -109.93 34.31 57.18 -185.11 110.06 -34.08 -57.31z"/>
     <path class="fil0" d="M5381.97 1236.92l-66.3 -46.08 -201.47 -189.15 54.5 0 200.36 186.8 110.51 -0.13 70.08 48.56 -167.68 0zm161.58 42.82l-228.78 -158.53 48.88 -0.2 229.05 158.73 -49.15 0z"/>
     <path class="fil0" d="M4287.34 1001.5l-280.25 278.05 -49.86 0 222.02 -220.29 -49.53 14.75 53.82 -53.39 57.33 -19.12 46.47 0zm-147.82 280.92c-15.66,0 -26.41,-2.81 -32.17,-8.42 -5.71,-5.62 -6.49,-13.58 -2.3,-23.89 4.2,-10.31 13.56,-22.65 27.97,-36.94l24.48 -24.29c12.03,-11.94 26.54,-23.04 43.47,-33.15 16.85,-10.12 33.82,-17.89 50.83,-23.24 -5.71,-4.44 -7.42,-10.77 -5.14,-19 2.29,-8.22 8.36,-17.23 18.1,-26.89l23.35 -23.17c20.14,-19.97 42.58,-35.77 67.22,-47.39 24.63,-11.62 48.05,-17.43 70.24,-17.43 22.19,0 33.9,5.81 35.11,17.43 1.21,11.62 -8.25,27.42 -28.38,47.39l-23.35 23.17c-9.87,9.79 -21.96,18.8 -36.31,26.95 -14.36,8.17 -29.03,14.5 -43.95,18.94 6.49,5.35 7.99,13.12 4.58,23.24 -3.34,10.11 -11.13,21.21 -23.17,33.15l-24.47 24.29c-14.41,14.29 -29.97,26.63 -46.64,36.94 -16.59,10.31 -33.43,18.27 -50.45,23.89 -17.01,5.61 -33.35,8.42 -49.02,8.42zm48.55 -48.17c8.16,0 16.99,-2.29 26.56,-6.92 9.5,-4.57 18.23,-10.78 26.06,-18.54l24.67 -24.47c7.56,-7.51 11.2,-13.52 10.78,-17.89 -0.49,-4.38 -4.78,-6.6 -13.07,-6.6 -8.16,0 -16.92,2.22 -26.23,6.6 -9.36,4.37 -17.9,10.45 -25.59,18.08l-24.87 24.67c-7.7,7.64 -11.4,13.71 -11.17,18.28 0.29,4.5 4.57,6.79 12.86,6.79zm123.35 -122.38c7.11,0 15.09,-2.29 23.74,-6.79 8.79,-4.57 17,-10.71 24.82,-18.47l17.37 -17.23c7.18,-7.12 10.87,-12.8 10.84,-16.91 0.03,-4.11 -3.55,-6.19 -10.66,-6.19 -7.05,0 -14.76,2.08 -23.21,6.26 -8.59,4.24 -16.47,9.92 -23.64,17.03l-17.56 17.43c-7.84,7.77 -11.8,13.84 -12.09,18.28 -0.17,4.37 3.27,6.59 10.39,6.59z"/>
     <path class="fil0" d="M3791.45 2254.02l-53.22 -30.73 -79.59 -164.66c-7.74,-14.39 -15.59,-26.48 -23.81,-36.15 -8.19,-9.73 -16.21,-16.92 -24.1,-21.48l-2.54 -1.46c-8.36,-4.82 -15.93,-6.23 -22.7,-4.41 -6.82,1.89 -12.69,7.09 -17.6,15.6 -5.05,8.74 -6.03,17.18 -3.15,25.28 2.84,8.19 9.64,15.9 20.52,23.09l6.06 3.5 -34.54 59.83 -6.06 -3.5c-29.06,-18.21 -46.91,-39.36 -53.64,-63.49 -6.81,-24.17 -2.37,-49.74 13.22,-76.73 16.33,-28.3 35.75,-45.82 58.06,-52.57 22.43,-6.8 47,-2.42 73.85,13.07l2.22 1.29c13.34,7.7 26.03,18.5 38.15,32.56 12.1,13.93 23.21,30.47 33.38,49.54l61.51 123.85 56.32 -97.55 57.07 32.94 -99.41 172.17z"/>
     <path class="fil1" d="M2929.37 2886.87l0.04 70.48c7.36,-2.31 16.05,-3.7 26.06,-4.23 12.67,-0.72 27.06,0.3 43.2,2.81l179.35 35.85 56.6 -23.94 -77.39 -183.14 -60.68 25.69 43.84 103.72 -135.88 -25.62c-21.34,-3.38 -41.23,-4.51 -59.64,-3.25 -5.36,0.33 -10.52,0.88 -15.5,1.63zm0.09 131.53l0.04 70.39c15.88,0.24 33.26,-3.21 52.19,-10.42l6.43 -2.72 -26.88 -63.63 -6.44 2.73c-9.73,3.42 -18.16,4.62 -25.34,3.65zm0.1 163.24l0.03 33.42 12.55 29.72 43.99 37.46 66.73 -28.19 -36.74 -35.5 275.29 -116.36 -26.34 -62.3 -335.5 141.75z"/>
     <g>
      <path class="fil0" d="M4243.05 3007.84l0 -57.5 93.73 0c12.86,0 22.8,-2.76 29.84,-8.12 7.04,-5.36 10.6,-12.93 10.6,-22.63l0 -22.88c0,-10.48 -3.56,-18.69 -10.79,-24.52 -7.13,-5.84 -17.17,-8.76 -30.21,-8.76l-93.17 0 0 -57.1 92.32 0c11.73,0 20.93,-2.68 27.4,-8.2 6.48,-5.44 9.76,-13.17 9.76,-23.19l0 -18.06c0,-8.75 -3.28,-15.53 -9.76,-20.42 -6.47,-4.81 -15.67,-7.26 -27.4,-7.26l-92.32 0 0 -57.33 97.02 0c33.02,0 58.54,7.02 76.75,20.9 18.11,13.96 27.21,33.75 27.21,59.3l0 17.99c0,17.42 -6.01,31.78 -17.92,42.98 -11.92,11.27 -28.62,18.45 -50.3,21.53 23.27,2.6 41.29,9.94 54.14,22.08 12.86,12.07 19.24,27.84 19.24,47.24l0 23.11c0,25.71 -9.01,45.58 -27.03,59.7 -18.1,14.12 -43.63,21.14 -76.56,21.14l-102.55 0zm-36.03 0l0 -335.95 71.78 0 0 335.95 -71.78 0z"/>
      <path class="fil0" d="M4614.13 3011.31c-38,0 -67.56,-9.15 -88.67,-27.53 -21.21,-18.29 -31.81,-44.08 -31.81,-77.37l0 -234.53 71.78 0 0 236.11c0,13.72 4.22,24.37 12.67,31.94 8.44,7.5 20.45,11.28 36.03,11.28 15.57,0 27.68,-3.78 36.22,-11.28 8.63,-7.57 12.94,-18.22 12.94,-31.94l0 -236.11 72.06 0 0 234.53c0,33.29 -10.69,59.08 -32.09,77.37 -21.29,18.38 -51.04,27.53 -89.13,27.53z"/>
      <path class="fil0" d="M4835.18 3007.84l-0.28 -57.97 73.65 0c16.8,0 29.93,-3.79 39.31,-11.2 9.29,-7.49 13.89,-17.9 13.71,-31.07l0 -135.64c0.18,-13.41 -4.42,-23.74 -13.71,-31.08 -9.38,-7.33 -22.51,-10.96 -39.31,-10.96l-73.37 0 -0.28 -58.04 76.09 0c39.6,0 70.18,8.59 91.86,25.63 21.58,17.11 32.37,41.17 32.37,72.08l0 140.29c0,19.88 -4.69,37.15 -14.17,51.9 -9.38,14.67 -23.36,26.02 -41.85,34.07 -18.57,7.96 -41.37,11.99 -68.49,11.99l-75.53 0zm-41.85 0l0 -58.11 71.78 0 0 58.11 -71.78 0zm0 -138.87l0 -197.08 71.78 0 0 197.08 -71.78 0z"/>
      <path class="fil0" d="M5198.74 3011.31c-22.52,0 -42.31,-2.84 -59.39,-8.44 -16.98,-5.6 -31.06,-13.96 -42.22,-25.08 -11.08,-11.04 -18.96,-24.84 -23.74,-41.33l0 0 66.8 -24.76 0 0c5.35,13.56 13.33,23.82 23.93,30.76 10.6,6.94 23.55,10.41 38.75,10.41 15.77,0 28.06,-2.92 36.88,-8.84 8.72,-5.83 13.13,-13.95 13.13,-24.44l0 -15.07c0,-8.28 -2.91,-14.9 -8.63,-19.87 -5.82,-4.89 -13.51,-8.91 -23.08,-11.99 -9.67,-3.08 -20.08,-5.99 -31.25,-8.75 -12.29,-3.08 -24.67,-6.63 -37.25,-10.65 -12.48,-4.02 -24.11,-9.23 -34.62,-15.7 -10.51,-6.46 -18.95,-15.14 -25.43,-26.02 -6.38,-10.81 -9.57,-24.84 -9.57,-41.96l0 -8.75c0,-29.42 10.7,-52.13 32.09,-68.3 21.49,-16.09 51.79,-24.13 91.02,-24.13 29.83,0 54.41,5.99 73.56,18.06 19.14,11.98 32.27,29.97 39.41,53.78l0 0 -63.53 25.24 0 0c-5.06,-12.93 -12.19,-22.71 -21.39,-29.26 -9.2,-6.54 -19.8,-9.78 -31.9,-9.78 -15.39,0 -27.21,2.68 -35.47,8.05 -8.26,5.44 -12.38,12.93 -12.38,22.63l0 11.12c0,9.39 3.28,16.8 9.66,22.16 6.38,5.44 14.92,9.7 25.43,12.86 10.51,3.15 21.86,6.39 33.96,9.78 11.92,3.07 23.84,6.62 35.75,10.57 11.92,3.86 22.71,9.06 32.56,15.53 9.76,6.47 17.64,14.99 23.46,25.48 5.91,10.41 8.82,23.73 8.82,39.9l0 14.36c0,29.25 -10.98,51.97 -32.84,68.14 -21.96,16.16 -52.73,24.29 -92.52,24.29z"/>
     </g>
     <path class="fil0" d="M4699.33 4192.67c-21.25,0 -39.67,-3.81 -55.17,-11.43 -15.41,-7.61 -27.36,-18.42 -35.77,-32.41 -8.41,-13.99 -12.58,-30.73 -12.58,-50.12l0 -32.94c0,-16.21 4.52,-31.26 13.63,-44.98 9.04,-13.73 21.44,-24.27 37.2,-31.53 -13.81,-6.02 -24.79,-14.61 -32.94,-25.76 -8.15,-11.17 -12.22,-23.39 -12.22,-36.49l0 -31.44c0,-27.09 8.86,-48.52 26.39,-64.28 17.53,-15.78 41.36,-23.66 71.46,-23.66 30.11,0 53.93,7.88 71.46,23.66 17.54,15.76 26.3,37.19 26.3,64.28l0 31.44c0,13.28 -4.07,25.5 -12.4,36.57 -8.32,11.07 -19.56,19.66 -33.73,25.68 16.11,7.26 28.77,17.8 37.99,31.53 9.3,13.72 13.9,28.77 13.9,44.98l0 32.94c0,19.39 -4.25,36.13 -12.75,50.12 -8.42,13.99 -20.37,24.8 -35.78,32.41 -15.41,7.62 -33.74,11.43 -54.99,11.43zm0 -65.36c11.07,0 19.93,-3.1 26.56,-9.38 6.64,-6.2 10.01,-14.61 10.01,-25.15l0 -33.21c0,-10.18 -3.28,-18.33 -9.83,-24.26 -6.64,-5.94 -15.5,-8.94 -26.74,-8.94 -11.06,0 -19.92,3 -26.57,8.94 -6.73,5.93 -10,14.17 -10,24.52l0 33.48c0,10.36 3.27,18.6 9.83,24.79 6.56,6.11 15.49,9.21 26.74,9.21zm0 -166.03c9.66,0 17.36,-3.09 22.94,-9.2 5.66,-6.2 8.41,-14.52 8.41,-25.06l0 -23.38c0,-9.66 -2.75,-17.36 -8.41,-22.94 -5.58,-5.57 -13.28,-8.41 -22.94,-8.41 -9.56,0 -17.18,2.84 -22.93,8.5 -5.85,5.76 -8.77,13.47 -8.77,23.11l0 23.65c0,10.54 2.92,18.77 8.59,24.79 5.76,5.94 13.46,8.94 23.11,8.94z"/>
    </g>
   </g>
  </g>
 </g>
</svg>
