<?xml version="1.0" encoding="UTF-8"?>
<!DOCTYPE svg PUBLIC "-//W3C//DTD SVG 1.1//EN" "http://www.w3.org/Graphics/SVG/1.1/DTD/svg11.dtd">
<!-- Creator: CorelDRAW -->
<svg xmlns="http://www.w3.org/2000/svg" xml:space="preserve" width="221.03mm" height="54.1014mm" version="1.1" style="shape-rendering:geometricPrecision; text-rendering:geometricPrecision; image-rendering:optimizeQuality; fill-rule:evenodd; clip-rule:evenodd"
viewBox="0 0 22101.96 5409.88"
 xmlns:xlink="http://www.w3.org/1999/xlink"
 xmlns:xodm="http://www.corel.com/coreldraw/odm/2003">
 <defs>
  <style type="text/css">
   <![CDATA[
    .str0 {stroke:white;stroke-width:149.99;stroke-linecap:round;stroke-linejoin:round;stroke-miterlimit:10}
    .fil2 {fill:none}
    .fil7 {fill:none;fill-rule:nonzero}
    .fil4 {fill:#1F54A1}
    .fil15 {fill:#296FB2}
    .fil9 {fill:#2DA2C2}
    .fil16 {fill:#338AC2}
    .fil3 {fill:#338AC2}
    .fil17 {fill:#3DA5D3}
    .fil5 {fill:#47C0E3}
    .fil1 {fill:#CCCCCC}
    .fil0 {fill:#EEEEEE}
    .fil8 {fill:white}
    .fil13 {fill:#1F54A1;fill-rule:nonzero}
    .fil11 {fill:#338AC2;fill-rule:nonzero}
    .fil12 {fill:#338AC2;fill-rule:nonzero}
    .fil14 {fill:#47C0E3;fill-rule:nonzero}
    .fil10 {fill:#EEEEEE;fill-rule:nonzero}
    .fil18 {fill:white;fill-rule:nonzero}
    .fil6 {fill:white;fill-rule:nonzero}
   ]]>
  </style>
     <clipPath id="id0">
      <path d="M141.71 1173.43l2357.38 -815.38c109.47,-37.86 230.01,20.72 267.87,130.19l1193.57 3450.78c37.86,109.47 -20.72,230.01 -130.19,267.88l-2357.37 815.37c-109.47,37.87 -230.01,-20.72 -267.88,-130.18l-1193.56 -3450.79c-37.87,-109.46 20.72,-230.01 130.18,-267.87z"/>
     </clipPath>
     <clipPath id="id1">
      <path d="M438.05 1351.33l1937.96 -670.3c89.99,-31.13 189.08,17.03 220.21,107.02l1044.82 3020.72c31.12,90 -17.04,189.09 -107.03,220.22l-1937.95 670.3c-90,31.13 -189.09,-17.03 -220.22,-107.02l-1044.81 -3020.72c-31.13,-90 17.03,-189.09 107.02,-220.22z"/>
     </clipPath>
      <clipPath id="id2" style="clip-rule:nonzero">
       <path d="M1267.86 3125.05l-29.52 -85.36 139.15 -48.14c19.09,-6.6 32.44,-15.81 40.13,-27.38 7.7,-11.58 9.1,-24.65 4.12,-39.05l-11.74 -33.96c-5.39,-15.57 -14.9,-25.92 -28.62,-30.88 -13.58,-5 -29.99,-4.18 -49.35,2.52l-138.33 47.85 -29.32 -84.78 137.07 -47.41c17.41,-6.02 29.69,-14.73 36.47,-26.25 6.82,-11.4 7.72,-24.56 2.58,-39.43l-9.28 -26.82c-4.49,-13 -12.85,-21.38 -24.97,-25.31 -12.09,-3.82 -27,-2.73 -44.41,3.29l-137.07 47.42 -29.44 -85.13 144.03 -49.82c49.04,-16.96 90.54,-19.65 124.68,-8.39 34.05,11.43 57.73,36.14 70.85,74.08l9.24 26.7c8.95,25.88 7.41,50.27 -4.53,73.02 -11.91,22.86 -33.02,42.1 -63.62,57.79 35.89,-8.08 66.4,-6.44 91.72,4.99 25.28,11.31 42.86,31.45 52.82,60.26l11.87 34.31c13.2,38.17 10.03,72.3 -9.46,102.51 -19.64,30.26 -53.93,53.79 -102.82,70.7l-152.26 52.67zm-53.49 18.5l-172.53 -498.8 106.56 -36.86 172.53 498.8 -106.56 36.86z"/>
      </clipPath>
      <clipPath id="id3" style="clip-rule:nonzero">
       <path d="M1820.58 2939.64c-56.42,19.52 -104.99,21.11 -145.77,4.67 -40.88,-16.28 -69.87,-49.12 -86.96,-98.53l-120.44 -348.22 106.56 -36.86 121.25 350.56c7.05,20.37 18.78,34.01 35.21,40.92 16.39,6.78 36.16,6.24 59.29,-1.76 23.12,-8 39.15,-19.84 47.98,-35.35 8.93,-15.67 9.87,-33.7 2.82,-54.07l-121.25 -350.56 106.98 -37 120.44 348.21c17.09,49.42 14.45,93.2 -7.91,131.34 -22.19,38.22 -61.65,67.08 -118.2,86.64z"/>
      </clipPath>
      <clipPath id="id4" style="clip-rule:nonzero">
       <path d="M2147 2820.97l-30.19 -85.92 109.35 -37.83c24.93,-8.62 42.5,-20.99 52.62,-36.81 9.94,-15.9 11.42,-33.71 4.38,-53.17l-69.66 -201.4c-6.61,-20 -18.74,-32.98 -36.3,-39.1 -17.69,-6.07 -39.06,-4.71 -64,3.92l-108.93 37.68 -30.22 -86.04 112.97 -39.08c58.78,-20.33 108.6,-23.27 149.53,-9.11 40.83,14.32 69.2,44.5 85.08,90.4l72.05 208.3c10.21,29.51 12.11,57.56 5.62,84.32 -6.4,26.6 -21.33,50.64 -44.64,72.08 -23.49,21.36 -55.28,39.04 -95.54,52.97l-112.13 38.79zm-62.13 21.49l-29.84 -86.27 106.56 -36.87 29.84 86.28 -106.56 36.86zm-71.32 -206.19l-101.22 -292.61 106.57 -36.86 101.21 292.61 -106.56 36.86z"/>
      </clipPath>
      <clipPath id="id5" style="clip-rule:nonzero">
       <path d="M2688.57 2639.42c-33.43,11.56 -64.28,17.51 -92.51,17.97 -28.09,0.41 -53.28,-4.78 -75.57,-15.56 -22.11,-10.7 -40.9,-27.15 -56.47,-49.16l0 0 86.47 -71.08 0 0c14.91,17.4 32.01,28.52 51.32,33.38 19.31,4.86 40.31,3.36 62.88,-4.44 23.41,-8.1 40.15,-18.74 50.21,-32.05 9.96,-13.15 12.34,-27.47 6.95,-43.05l-7.73 -22.36c-4.26,-12.3 -11.98,-20.64 -23.03,-25.08 -11.15,-4.27 -24.63,-6.29 -40.42,-5.94 -15.93,0.39 -32.89,1.41 -50.89,3.05 -19.83,1.74 -40.04,2.83 -60.77,3.32 -20.6,0.43 -40.54,-1.32 -59.47,-5.53 -18.92,-4.2 -35.91,-12.74 -51.11,-25.58 -15.03,-12.76 -26.97,-31.97 -35.76,-57.38l-4.5 -12.99c-15.1,-43.68 -10.89,-82.9 12.57,-117.88 23.64,-34.92 64.51,-62.43 122.73,-82.57 44.3,-15.32 83.88,-19.04 118.48,-10.96 34.58,7.97 63.31,27.92 86.13,59.62l0 0 -81.35 70.09 0 0c-14.16,-16.6 -29.77,-27.46 -46.79,-32.45 -17.01,-5 -34.41,-4.36 -52.38,1.86 -22.85,7.9 -39.03,17.95 -48.53,30.16 -9.47,12.32 -11.75,25.56 -6.77,39.96l5.71 16.51c4.82,13.94 13.51,23.26 25.74,27.94 12.26,4.81 27.13,6.75 44.35,6.03 17.22,-0.71 35.74,-1.74 55.45,-2.92 19.27,-1.55 38.79,-2.4 58.5,-2.67 19.68,-0.38 38.37,1.81 56.32,6.35 17.81,4.59 33.89,13.19 47.91,25.77 14.12,12.43 25.29,30.72 33.59,54.73l7.37 21.31c15.03,43.44 10.39,82.8 -13.76,118.02 -24.3,35.28 -65.82,63.14 -124.88,83.58z"/>
      </clipPath>
     <clipPath id="id6">
      <path d="M7333.81 1257.51l-5.81 168.65c-5.81,26.52 -10.77,52.14 -18.56,78.61 -7.57,25.71 -21.94,52.87 -24.21,77.84 -0.91,0.78 -1.86,1.01 -2.43,2.67l-4.57 5.66c-0.57,0.87 -1.4,2.1 -2,3.09 -0.18,0.29 -6.2,12.35 -6.73,13.45l-45.28 78c-57.33,79.32 -85.12,104.73 -155.84,163.22 -17.74,14.67 -28.92,14.15 -35.29,45.85 -4.5,22.37 -11.25,51.98 -9.65,72.53l6.26 4.17c26.34,12.03 68.16,8.45 93.85,62.4 24.97,52.43 -2.77,81.43 -26.66,116.38 3.63,6.14 2.7,5.64 9.95,13.41 48.7,52.21 155.51,107.52 189.13,185.2l10.25 18.48c-5.78,36.51 25.44,149.98 -168.36,114.12 -99.91,-18.49 -152.42,-22 -176.08,120.32 -14.13,85.05 -17.49,185.86 -10.96,266.73 4.18,51.73 25.3,193.75 47.11,224.36 5.95,38.94 59.01,136.72 75.88,163.5 33.29,52.85 64.59,89.95 108.25,138.54 64.04,71.27 170.47,130.27 182.84,193.59 9.3,47.58 -23.72,72.55 -39.94,94.61l-83.53 31.35c-108.71,45.77 -148.79,154.96 -91.3,241.41 53.27,80.09 104.08,112.48 160.75,216.71 6.61,12.15 31.08,65.15 38.85,78.28l-0.51 3.81 27.96 155.77c-11.34,57.87 3.92,112.18 -56.3,226.2 -10.36,19.62 -26.4,41.87 -33.5,59.37 151.86,37.25 119.44,212.11 -2.69,221.48 -51.32,3.94 -340.45,-60.04 -413.53,-73.78 -276.95,-52.1 -553.89,-104.19 -830.84,-156.29 -96.23,-18.1 -1208.44,-219.63 -1246.2,-239.48 -107.69,-56.63 -70.47,-225.88 81.04,-205.66 0.13,-18.17 -6.96,-46.05 -9.44,-67.44 -15.14,-130.1 21.05,-175.95 30.47,-235.44 29.21,-49.46 81.92,-130.65 81.92,-130.65l1.48 -3.99c13.55,-9.95 47.91,-46.23 61.3,-56.93 59.05,-47.12 83.92,-62.19 152.77,-98.96 26.98,-14.41 56.73,-29.45 78.76,-45.94 91.29,-68.32 81.63,-183.4 0.06,-260.72 -11.69,-11.08 -23.04,-18.64 -35.91,-30.55 -14.03,-12.98 -20.55,-23.96 -32.67,-34.2 -3.11,-29.28 -44.84,-92.71 61.23,-140.21 27.61,-12.37 97.73,-32.23 154.31,-56.36 211.68,-90.27 364.66,-250.96 457.71,-471.06 27.15,-64.24 82.76,-221.98 69.18,-294.76 -4.96,-26.63 -22.81,-56.88 -52.39,-61.83 -17.03,-19.14 -132.17,-23.6 -171.4,-52.56 -19.85,-14.66 -34.57,-34 -37.49,-61.59 -3.96,-37.45 14.16,-56.08 28.2,-82.87 35.64,-18.08 3.89,-23.94 126.13,-65.35 30.02,-10.17 117.84,-38.38 137.02,-51.42 -24.45,-68.47 -3.24,-127.97 63.83,-144.47 24.6,-6.05 35.06,-0.06 53.09,1.42 25,2.05 22.17,3.14 35.58,-71.78 7.02,-39.26 -31.87,-67.52 -67.49,-153.34 -30.73,-74.03 -35.41,-105.95 -39.53,-147.01l0.49 -1.41c0,0 -5.94,-92.07 1.83,-209.88 4.96,-75.25 38.64,-155.99 62.33,-204.51 19.27,-27.82 61.43,-94.5 71.31,-106.27 28.79,-34.37 62.46,-70.23 93.09,-94.09 66.62,-51.89 135.41,-97.63 236.66,-125.92 213.04,-59.54 417.64,-19.87 594.08,113.27 106.44,80.33 190.32,206.39 226.54,329.3 31.03,105.28 16.11,117.79 28.21,130.64l-2.6 2.3z"/>
     </clipPath>
     <clipPath id="id7">
      <path d="M6061.34 2091.14c-19.39,-8.29 -34.36,-15.08 -51.83,-28.02 -15.11,-11.19 -17.6,-13.17 -22.8,-30.8 -0.38,-1.33 -1.28,-5.37 -1.67,-6.67 -3.69,-12.19 3.27,0.52 -3.65,-10.19 -42.77,28.83 -143.69,43.94 -154.6,98.23 46.18,33.38 226.21,58.39 300.58,72.72 295.41,56.93 574.03,119.19 870.13,166.65 -43.14,-48.51 -444.45,-126.33 -537.25,-147.96 -113.16,-26.35 -293.25,-68.77 -398.9,-113.95z"/>
     </clipPath>
     <clipPath id="id8">
      <path d="M6058.78 2294.43c-54,243.51 -101.97,397.07 -228.67,586.75 -74.77,111.94 -178.39,210.52 -286.24,272.26 -24.05,13.77 -96.58,50.53 -105.77,83.01 -13.43,47.39 82.01,63.11 124.22,72.96 144.77,33.76 392.23,75.03 544.68,103.7 120.41,22.65 240.83,45.3 361.24,67.95 119,22.39 247.46,51.54 366.2,68.3 -71.07,-90.02 -553.8,-209.72 -708.1,-239.11 -74.1,-14.12 -192.42,-35.33 -246.97,-76.02 -71.24,-53.14 -15.43,-135.84 18.44,-207.64 64.84,-137.42 212.04,-553.35 174.41,-706.9l-13.46 -25.26z"/>
     </clipPath>
     <clipPath id="id9">
      <path d="M5365.26 3672.71c-88.34,63.61 -264.05,160.47 -329.16,298.64 -45.42,96.35 -28.1,186.44 24.94,239.18 58.01,57.67 160.21,73.99 252.32,91.31 203.17,38.22 406.85,75.4 609.79,114.64 196.46,38.02 406.2,85.89 603.93,117.3 -54.5,-42.73 -345.15,-129.09 -432.94,-152.66 -157.27,-42.23 -315.89,-80.59 -474.1,-118.01 -159.32,-37.71 -324.88,-60.42 -374.15,-190.63 -55.54,-146.8 104.13,-353.11 119.37,-399.76z"/>
     </clipPath>
    <clipPath id="id10" style="clip-rule:nonzero">
     <path d="M2399.85 1719.04l0 1942.28 1697.2 1017.09 1709.46 -986.46 18.38 -1966.77 -1715.58 -1023.23 -1709.46 1017.1z"/>
    </clipPath>
     <clipPath id="id11" style="clip-rule:nonzero">
      <path d="M3092.78 3315.58l1013.21 1225.9 1067.34 -1218.17 -2080.55 -7.73z"/>
     </clipPath>
     <clipPath id="id12" style="clip-rule:nonzero">
      <path d="M2399.85 1719.04l0 1942.28 1697.2 1017.09 1709.46 -986.46 18.38 -1966.77 -1715.58 -1023.23 -1709.46 1017.1z"/>
     </clipPath>
     <clipPath id="id13" style="clip-rule:nonzero">
      <path d="M5710.86 3594.02l-537.54 -270.7 -1067.34 1218.16 1604.88 -947.46z"/>
     </clipPath>
     <clipPath id="id14" style="clip-rule:nonzero">
      <path d="M2399.85 1719.04l0 1942.28 1697.2 1017.09 1709.46 -986.46 18.38 -1966.77 -1715.58 -1023.23 -1709.46 1017.1z"/>
     </clipPath>
     <clipPath id="id15" style="clip-rule:nonzero">
      <path d="M3092.78 3315.58l1013.21 1225.9 -1614.56 -931.99 601.35 -293.91z"/>
     </clipPath>
     <clipPath id="id16" style="clip-rule:nonzero">
      <path d="M2399.85 1719.04l0 1942.28 1697.2 1017.09 1709.46 -986.46 18.38 -1966.77 -1715.58 -1023.23 -1709.46 1017.1z"/>
     </clipPath>
     <clipPath id="id17" style="clip-rule:nonzero">
      <path d="M2485.63 1749.37l607.15 1566.21 -601.35 293.91 -5.8 -1860.12z"/>
     </clipPath>
     <clipPath id="id18" style="clip-rule:nonzero">
      <path d="M2399.85 1719.04l0 1942.28 1697.2 1017.09 1709.46 -986.46 18.38 -1966.77 -1715.58 -1023.23 -1709.46 1017.1z"/>
     </clipPath>
     <clipPath id="id19" style="clip-rule:nonzero">
      <path d="M4133.06 1521.21l-1647.42 228.17 607.15 1566.2 1040.27 -1794.37z"/>
     </clipPath>
     <clipPath id="id20" style="clip-rule:nonzero">
      <path d="M2399.85 1719.04l0 1942.28 1697.2 1017.09 1709.46 -986.46 18.38 -1966.77 -1715.58 -1023.23 -1709.46 1017.1z"/>
     </clipPath>
     <clipPath id="id21" style="clip-rule:nonzero">
      <path d="M5734.07 1776.44l-1601.01 -255.24 1040.27 1802.11 560.74 -1546.88z"/>
     </clipPath>
     <clipPath id="id22" style="clip-rule:nonzero">
      <path d="M2399.85 1719.04l0 1942.28 1697.2 1017.09 1709.46 -986.46 18.38 -1966.77 -1715.58 -1023.23 -1709.46 1017.1z"/>
     </clipPath>
     <clipPath id="id23" style="clip-rule:nonzero">
      <path d="M5734.07 1776.44l-23.21 1817.57 -537.53 -270.7 560.74 -1546.88z"/>
     </clipPath>
     <clipPath id="id24" style="clip-rule:nonzero">
      <path d="M2399.85 1719.04l0 1942.28 1697.2 1017.09 1709.46 -986.46 18.38 -1966.77 -1715.58 -1023.23 -1709.46 1017.1z"/>
     </clipPath>
     <clipPath id="id25" style="clip-rule:nonzero">
      <path d="M2488.71 1749.37l1624.2 -938.79 20.15 710.64 -1644.35 228.16z"/>
     </clipPath>
     <clipPath id="id26" style="clip-rule:nonzero">
      <path d="M2399.85 1719.04l0 1942.28 1697.2 1017.09 1709.46 -986.46 18.38 -1966.77 -1715.58 -1023.23 -1709.46 1017.1z"/>
     </clipPath>
     <clipPath id="id27" style="clip-rule:nonzero">
      <path d="M5736.17 1777.75l-1623.26 -967.18 20.14 710.64 1603.12 256.55z"/>
     </clipPath>
     <clipPath id="id28" style="clip-rule:nonzero">
      <path d="M2399.85 1719.04l0 1942.28 1697.2 1017.09 1709.46 -986.46 18.38 -1966.77 -1715.58 -1023.23 -1709.46 1017.1z"/>
     </clipPath>
     <clipPath id="id29">
     </clipPath>
     <clipPath id="id30">
      <path d="M2399.85 1719.04l0 1942.28 1697.2 1017.09 1709.46 -986.46 18.38 -1966.77 -1715.58 -1023.23 -1709.46 1017.1z"/>
     </clipPath>
 </defs>
 <g id="Camada_x0020_1">
  <metadata id="CorelCorpID_0Corel-Layer"/>
  <g id="_1848395239184">
   <g>
    <path class="fil0" d="M141.71 1173.43l2357.38 -815.38c109.47,-37.86 230.01,20.72 267.87,130.19l1193.57 3450.78c37.86,109.47 -20.72,230.01 -130.19,267.88l-2357.37 815.37c-109.47,37.87 -230.01,-20.72 -267.88,-130.18l-1193.56 -3450.79c-37.87,-109.46 20.72,-230.01 130.18,-267.87z"/>
    <g style="clip-path:url(#id0)">
     <g>
      <polygon id="_1" class="fil1" points="2308.74,1710.39 2308.74,3717.67 3215.26,4215.98 3821.88,4579.56 3961.76,3541.62 3516.25,939.99 "/>
     </g>
    </g>
    <path class="fil2" d="M141.71 1173.43l2357.38 -815.38c109.47,-37.86 230.01,20.72 267.87,130.19l1193.57 3450.78c37.86,109.47 -20.72,230.01 -130.19,267.88l-2357.37 815.37c-109.47,37.87 -230.01,-20.72 -267.88,-130.18l-1193.56 -3450.79c-37.87,-109.46 20.72,-230.01 130.18,-267.87z"/>
    <path class="fil3" d="M438.05 1351.33l1937.96 -670.3c89.99,-31.13 189.08,17.03 220.21,107.02l1044.82 3020.72c31.12,90 -17.04,189.09 -107.03,220.22l-1937.95 670.3c-90,31.13 -189.09,-17.03 -220.22,-107.02l-1044.81 -3020.72c-31.13,-90 17.03,-189.09 107.02,-220.22z"/>
    <g style="clip-path:url(#id1)">
     <g>
      <polygon id="_1_0" class="fil4" points="2809.14,1403.66 2308.74,1710.39 2308.74,3717.67 3215.26,4215.98 3821.88,4579.56 3961.76,3541.62 3527.44,1163.9 "/>
      <path class="fil5" d="M2577.22 749.5l-2155.48 733.65 1070.91 3117.77 83.47 233.27c0,0 -559.4,-101.07 -980.45,-381.76 -421.05,-280.7 -2348.56,-3415.23 -1094.74,-3733.37 1253.81,-318.13 3165.83,-393.54 3076.29,30.44z"/>
     </g>
    </g>
    <path class="fil2" d="M438.05 1351.33l1937.96 -670.3c89.99,-31.13 189.08,17.03 220.21,107.02l1044.82 3020.72c31.12,90 -17.04,189.09 -107.03,220.22l-1937.95 670.3c-90,31.13 -189.09,-17.03 -220.22,-107.02l-1044.81 -3020.72c-31.13,-90 17.03,-189.09 107.02,-220.22z"/>
    <path class="fil6" d="M1490.82 3142.56l22.43 -7.76 6.41 18.53c1.66,4.8 2.17,9.3 1.52,13.45 -0.67,4.16 -2.37,7.79 -5.15,10.88 -2.75,3.1 -6.5,5.46 -11.19,7.08 -4.73,1.64 -9.15,2.14 -13.3,1.54 -4.14,-0.62 -7.72,-2.26 -10.78,-4.94 -3.04,-2.68 -5.36,-6.32 -6.94,-10.89l-10.56 -30.55c-1.68,-4.85 -2.19,-9.38 -1.53,-13.58 0.68,-4.19 2.39,-7.84 5.18,-10.97 2.77,-3.11 6.47,-5.48 11.12,-7.08 4.61,-1.6 8.84,-2.08 12.68,-1.47 3.86,0.61 7.3,2.34 10.33,5.18 3.02,2.85 5.6,6.8 7.74,11.88l0 0 -14.09 4.87 0 0c-1.4,-3.2 -3.14,-5.32 -5.18,-6.35 -2.01,-1.04 -4.25,-1.13 -6.7,-0.29 -2.78,0.96 -4.69,2.63 -5.7,4.99 -1.01,2.35 -1.02,5.03 0.02,8.02l10.56 30.55c0.91,2.63 2.48,4.4 4.7,5.34 2.22,0.94 4.77,0.93 7.66,-0.07 2.85,-0.99 4.83,-2.63 5.93,-4.86 1.12,-2.26 1.16,-4.85 0.14,-7.81l-2 -5.77 -8.82 3.05 -4.48 -12.97zm150.63 -5.94l-2.69 -83.09 8.99 -3.1 49.27 66.97 -13.99 4.84 -31.19 -45.44 3.54 55 -13.93 4.82zm8.84 -16.35l-4.42 -12.79 29.98 -10.36 4.42 12.78 -29.98 10.37zm155.26 -73.29l-2.28 -50.35 15.32 -5.3 25.96 75.04 -12.14 4.2 -19.13 -55.33 1.76 3.09 1.67 45.54 -9.46 3.27 -26.52 -35.79 -0.72 -4.6 19.13 55.32 -12.24 4.24 -25.96 -75.04 15.44 -5.34 29.17 41.05zm134.23 -13.55l-25.91 -75.06 13.48 -4.66 25.95 75.04 -13.52 4.68zm5.42 -1.88l-4.51 -13.05 36.42 -12.6 4.52 13.05 -36.43 12.6zm-10.62 -30.7l-4.53 -13.1 32.31 -11.18 4.51 13.05 -32.29 11.23zm-10.82 -31.29l-4.51 -13.05 36.42 -12.6 4.52 13.06 -36.43 12.59zm206.83 -2.13l-25.9 -75.06 13.46 -4.66 25.95 75.04 -13.51 4.68zm-32 11.06l-25.91 -75.05 13.48 -4.66 25.95 75.04 -13.52 4.67zm-4.25 -32.84l-4.45 -12.86 34.4 -11.96 4.45 12.86 -34.4 11.96zm167.83 -22.87c-4.75,1.64 -9.19,2.15 -13.32,1.5 -4.12,-0.61 -7.72,-2.31 -10.81,-5.07 -3.05,-2.74 -5.39,-6.42 -6.99,-11.03l-10.82 -31.28c-1.61,-4.67 -2.06,-9.04 -1.35,-13.09 0.74,-4.03 2.53,-7.57 5.39,-10.59 2.85,-3.04 6.66,-5.39 11.41,-7.03 4.77,-1.65 9.23,-2.17 13.35,-1.54 4.12,0.61 7.71,2.29 10.79,5 3.06,2.75 5.41,6.46 7.02,11.13l10.82 31.28c1.6,4.61 2.03,8.95 1.32,12.99 -0.73,4.08 -2.51,7.64 -5.37,10.67 -2.84,3.06 -6.67,5.41 -11.44,7.06zm-4.66 -13.48c2.93,-1.01 4.93,-2.69 6.03,-5.03 1.08,-2.34 1.12,-5.03 0.06,-8.1l-10.39 -30.04c-1.03,-2.98 -2.71,-5.09 -5.01,-6.26 -2.31,-1.2 -4.92,-1.28 -7.88,-0.26 -2.9,1 -4.89,2.68 -5.97,5.05 -1.09,2.34 -1.13,5.04 -0.09,8.03l10.38 30.04c1.07,3.07 2.76,5.16 5.06,6.33 2.31,1.16 4.91,1.24 7.81,0.24zm142.11 -34.07c-7.13,2.47 -13.39,2.35 -18.78,-0.38 -5.39,-2.72 -9.37,-7.78 -11.95,-15.22l-18.12 -52.39 13.48 -4.66 18.24 52.74c1.06,3.07 2.68,5.17 4.85,6.31 2.17,1.12 4.71,1.2 7.64,0.18 2.92,-1.01 4.89,-2.64 5.92,-4.87 1.03,-2.25 1.03,-4.9 -0.04,-7.98l-18.24 -52.73 13.54 -4.68 18.12 52.38c2.57,7.44 2.55,13.89 -0.06,19.37 -2.57,5.49 -7.45,9.46 -14.6,11.93zm135.73 -46.95c-4.22,1.46 -8.16,2.12 -11.8,1.98 -3.62,-0.16 -6.91,-1.1 -9.86,-2.87 -2.93,-1.74 -5.48,-4.31 -7.65,-7.69l0 0 10.63 -9.86 0 0c2.05,2.68 4.34,4.45 6.86,5.32 2.53,0.86 5.23,0.79 8.08,-0.2 2.96,-1.02 5.04,-2.47 6.25,-4.37 1.18,-1.87 1.38,-3.97 0.57,-6.31l-1.16 -3.37c-0.64,-1.84 -1.7,-3.14 -3.16,-3.87 -1.46,-0.72 -3.22,-1.12 -5.26,-1.19 -2.05,-0.05 -4.23,-0.02 -6.54,0.09 -2.54,0.11 -5.14,0.12 -7.82,0.04 -2.65,-0.09 -5.23,-0.5 -7.71,-1.26 -2.47,-0.77 -4.72,-2.16 -6.78,-4.16 -2.04,-2 -3.72,-4.93 -5.04,-8.76l-0.68 -1.95c-2.27,-6.57 -2.01,-12.34 0.75,-17.34 2.79,-4.99 7.86,-8.75 15.22,-11.3 5.6,-1.93 10.68,-2.19 15.21,-0.74 4.52,1.43 8.37,4.6 11.55,9.46l0 0 -9.97 9.75 0 0c-1.95,-2.55 -4.05,-4.27 -6.28,-5.14 -2.23,-0.87 -4.48,-0.9 -6.74,-0.11 -2.9,1 -4.91,2.36 -6.04,4.1 -1.13,1.75 -1.33,3.69 -0.58,5.86l0.86 2.48c0.72,2.09 1.92,3.54 3.52,4.32 1.62,0.8 3.56,1.2 5.78,1.22 2.21,0.03 4.59,0.01 7.12,-0.02 2.48,-0.09 5,-0.07 7.53,0.04 2.54,0.09 4.96,0.55 7.31,1.35 2.34,0.82 4.47,2.21 6.38,4.17 1.91,1.94 3.48,4.73 4.73,8.34l1.11 3.21c2.26,6.53 1.96,12.32 -0.89,17.35 -2.88,5.04 -8.03,8.85 -15.5,11.43zm115.71 -40.89l-25.91 -75.06 13.48 -4.66 25.96 75.04 -13.53 4.68zm5.43 -1.88l-4.52 -13.05 36.42 -12.6 4.52 13.06 -36.42 12.59zm-10.62 -30.7l-4.54 -13.1 32.31 -11.17 4.51 13.05 -32.28 11.22zm-10.82 -31.28l-4.52 -13.06 36.42 -12.59 4.52 13.05 -36.42 12.6z"/>
    <g>
     <path class="fil6" d="M1267.86 3125.05l-29.52 -85.36 139.15 -48.14c19.09,-6.6 32.44,-15.81 40.13,-27.38 7.7,-11.58 9.1,-24.65 4.12,-39.05l-11.74 -33.96c-5.39,-15.57 -14.9,-25.92 -28.62,-30.88 -13.58,-5 -29.99,-4.18 -49.35,2.52l-138.33 47.85 -29.32 -84.78 137.07 -47.41c17.41,-6.02 29.69,-14.73 36.47,-26.25 6.82,-11.4 7.72,-24.56 2.58,-39.43l-9.28 -26.82c-4.49,-13 -12.85,-21.38 -24.97,-25.31 -12.09,-3.82 -27,-2.73 -44.41,3.29l-137.07 47.42 -29.44 -85.13 144.03 -49.82c49.04,-16.96 90.54,-19.65 124.68,-8.39 34.05,11.43 57.73,36.14 70.85,74.08l9.24 26.7c8.95,25.88 7.41,50.27 -4.53,73.02 -11.91,22.86 -33.02,42.1 -63.62,57.79 35.89,-8.08 66.4,-6.44 91.72,4.99 25.28,11.31 42.86,31.45 52.82,60.26l11.87 34.31c13.2,38.17 10.03,72.3 -9.46,102.51 -19.64,30.26 -53.93,53.79 -102.82,70.7l-152.26 52.67zm-53.49 18.5l-172.53 -498.8 106.56 -36.86 172.53 498.8 -106.56 36.86z"/>
     <g style="clip-path:url(#id2)">
      <g>
       <polygon id="_1_1" class="fil1" points="2809.14,1403.66 2308.74,1710.39 2308.74,3717.67 3215.26,4215.98 3821.88,4579.56 3961.76,3541.62 3527.44,1163.9 "/>
      </g>
     </g>
     <path class="fil7" d="M1267.86 3125.05l-29.52 -85.36 139.15 -48.14c19.09,-6.6 32.44,-15.81 40.13,-27.38 7.7,-11.58 9.1,-24.65 4.12,-39.05l-11.74 -33.96c-5.39,-15.57 -14.9,-25.92 -28.62,-30.88 -13.58,-5 -29.99,-4.18 -49.35,2.52l-138.33 47.85 -29.32 -84.78 137.07 -47.41c17.41,-6.02 29.69,-14.73 36.47,-26.25 6.82,-11.4 7.72,-24.56 2.58,-39.43l-9.28 -26.82c-4.49,-13 -12.85,-21.38 -24.97,-25.31 -12.09,-3.82 -27,-2.73 -44.41,3.29l-137.07 47.42 -29.44 -85.13 144.03 -49.82c49.04,-16.96 90.54,-19.65 124.68,-8.39 34.05,11.43 57.73,36.14 70.85,74.08l9.24 26.7c8.95,25.88 7.41,50.27 -4.53,73.02 -11.91,22.86 -33.02,42.1 -63.62,57.79 35.89,-8.08 66.4,-6.44 91.72,4.99 25.28,11.31 42.86,31.45 52.82,60.26l11.87 34.31c13.2,38.17 10.03,72.3 -9.46,102.51 -19.64,30.26 -53.93,53.79 -102.82,70.7l-152.26 52.67zm-53.49 18.5l-172.53 -498.8 106.56 -36.86 172.53 498.8 -106.56 36.86z"/>
     <path class="fil6" d="M1820.58 2939.64c-56.42,19.52 -104.99,21.11 -145.77,4.67 -40.88,-16.28 -69.87,-49.12 -86.96,-98.53l-120.44 -348.22 106.56 -36.86 121.25 350.56c7.05,20.37 18.78,34.01 35.21,40.92 16.39,6.78 36.16,6.24 59.29,-1.76 23.12,-8 39.15,-19.84 47.98,-35.35 8.93,-15.67 9.87,-33.7 2.82,-54.07l-121.25 -350.56 106.98 -37 120.44 348.21c17.09,49.42 14.45,93.2 -7.91,131.34 -22.19,38.22 -61.65,67.08 -118.2,86.64z"/>
     <g style="clip-path:url(#id3)">
      <g>
       <polygon id="_1_2" class="fil1" points="2809.14,1403.66 2308.74,1710.39 2308.74,3717.67 3215.26,4215.98 3821.88,4579.56 3961.76,3541.62 3527.44,1163.9 "/>
      </g>
     </g>
     <path class="fil7" d="M1820.58 2939.64c-56.42,19.52 -104.99,21.11 -145.77,4.67 -40.88,-16.28 -69.87,-49.12 -86.96,-98.53l-120.44 -348.22 106.56 -36.86 121.25 350.56c7.05,20.37 18.78,34.01 35.21,40.92 16.39,6.78 36.16,6.24 59.29,-1.76 23.12,-8 39.15,-19.84 47.98,-35.35 8.93,-15.67 9.87,-33.7 2.82,-54.07l-121.25 -350.56 106.98 -37 120.44 348.21c17.09,49.42 14.45,93.2 -7.91,131.34 -22.19,38.22 -61.65,67.08 -118.2,86.64z"/>
     <path class="fil6" d="M2147 2820.97l-30.19 -85.92 109.35 -37.83c24.93,-8.62 42.5,-20.99 52.62,-36.81 9.94,-15.9 11.42,-33.71 4.38,-53.17l-69.66 -201.4c-6.61,-20 -18.74,-32.98 -36.3,-39.1 -17.69,-6.07 -39.06,-4.71 -64,3.92l-108.93 37.68 -30.22 -86.04 112.97 -39.08c58.78,-20.33 108.6,-23.27 149.53,-9.11 40.83,14.32 69.2,44.5 85.08,90.4l72.05 208.3c10.21,29.51 12.11,57.56 5.62,84.32 -6.4,26.6 -21.33,50.64 -44.64,72.08 -23.49,21.36 -55.28,39.04 -95.54,52.97l-112.13 38.79zm-62.13 21.49l-29.84 -86.27 106.56 -36.87 29.84 86.28 -106.56 36.86zm-71.32 -206.19l-101.22 -292.61 106.57 -36.86 101.21 292.61 -106.56 36.86z"/>
     <g style="clip-path:url(#id4)">
      <g>
       <polygon id="_1_3" class="fil1" points="2809.14,1403.66 2308.74,1710.39 2308.74,3717.67 3215.26,4215.98 3821.88,4579.56 3961.76,3541.62 3527.44,1163.9 "/>
      </g>
     </g>
     <path class="fil7" d="M2147 2820.97l-30.19 -85.92 109.35 -37.83c24.93,-8.62 42.5,-20.99 52.62,-36.81 9.94,-15.9 11.42,-33.71 4.38,-53.17l-69.66 -201.4c-6.61,-20 -18.74,-32.98 -36.3,-39.1 -17.69,-6.07 -39.06,-4.71 -64,3.92l-108.93 37.68 -30.22 -86.04 112.97 -39.08c58.78,-20.33 108.6,-23.27 149.53,-9.11 40.83,14.32 69.2,44.5 85.08,90.4l72.05 208.3c10.21,29.51 12.11,57.56 5.62,84.32 -6.4,26.6 -21.33,50.64 -44.64,72.08 -23.49,21.36 -55.28,39.04 -95.54,52.97l-112.13 38.79zm-62.13 21.49l-29.84 -86.27 106.56 -36.87 29.84 86.28 -106.56 36.86zm-71.32 -206.19l-101.22 -292.61 106.57 -36.86 101.21 292.61 -106.56 36.86z"/>
     <path class="fil6" d="M2688.57 2639.42c-33.43,11.56 -64.28,17.51 -92.51,17.97 -28.09,0.41 -53.28,-4.78 -75.57,-15.56 -22.11,-10.7 -40.9,-27.15 -56.47,-49.16l0 0 86.47 -71.08 0 0c14.91,17.4 32.01,28.52 51.32,33.38 19.31,4.86 40.31,3.36 62.88,-4.44 23.41,-8.1 40.15,-18.74 50.21,-32.05 9.96,-13.15 12.34,-27.47 6.95,-43.05l-7.73 -22.36c-4.26,-12.3 -11.98,-20.64 -23.03,-25.08 -11.15,-4.27 -24.63,-6.29 -40.42,-5.94 -15.93,0.39 -32.89,1.41 -50.89,3.05 -19.83,1.74 -40.04,2.83 -60.77,3.32 -20.6,0.43 -40.54,-1.32 -59.47,-5.53 -18.92,-4.2 -35.91,-12.74 -51.11,-25.58 -15.03,-12.76 -26.97,-31.97 -35.76,-57.38l-4.5 -12.99c-15.1,-43.68 -10.89,-82.9 12.57,-117.88 23.64,-34.92 64.51,-62.43 122.73,-82.57 44.3,-15.32 83.88,-19.04 118.48,-10.96 34.58,7.97 63.31,27.92 86.13,59.62l0 0 -81.35 70.09 0 0c-14.16,-16.6 -29.77,-27.46 -46.79,-32.45 -17.01,-5 -34.41,-4.36 -52.38,1.86 -22.85,7.9 -39.03,17.95 -48.53,30.16 -9.47,12.32 -11.75,25.56 -6.77,39.96l5.71 16.51c4.82,13.94 13.51,23.26 25.74,27.94 12.26,4.81 27.13,6.75 44.35,6.03 17.22,-0.71 35.74,-1.74 55.45,-2.92 19.27,-1.55 38.79,-2.4 58.5,-2.67 19.68,-0.38 38.37,1.81 56.32,6.35 17.81,4.59 33.89,13.19 47.91,25.77 14.12,12.43 25.29,30.72 33.59,54.73l7.37 21.31c15.03,43.44 10.39,82.8 -13.76,118.02 -24.3,35.28 -65.82,63.14 -124.88,83.58z"/>
     <g style="clip-path:url(#id5)">
      <g>
       <polygon id="_1_4" class="fil1" points="2809.14,1403.66 2308.74,1710.39 2308.74,3717.67 3215.26,4215.98 3821.88,4579.56 3961.76,3541.62 3527.44,1163.9 "/>
      </g>
     </g>
     <path class="fil7" d="M2688.57 2639.42c-33.43,11.56 -64.28,17.51 -92.51,17.97 -28.09,0.41 -53.28,-4.78 -75.57,-15.56 -22.11,-10.7 -40.9,-27.15 -56.47,-49.16l0 0 86.47 -71.08 0 0c14.91,17.4 32.01,28.52 51.32,33.38 19.31,4.86 40.31,3.36 62.88,-4.44 23.41,-8.1 40.15,-18.74 50.21,-32.05 9.96,-13.15 12.34,-27.47 6.95,-43.05l-7.73 -22.36c-4.26,-12.3 -11.98,-20.64 -23.03,-25.08 -11.15,-4.27 -24.63,-6.29 -40.42,-5.94 -15.93,0.39 -32.89,1.41 -50.89,3.05 -19.83,1.74 -40.04,2.83 -60.77,3.32 -20.6,0.43 -40.54,-1.32 -59.47,-5.53 -18.92,-4.2 -35.91,-12.74 -51.11,-25.58 -15.03,-12.76 -26.97,-31.97 -35.76,-57.38l-4.5 -12.99c-15.1,-43.68 -10.89,-82.9 12.57,-117.88 23.64,-34.92 64.51,-62.43 122.73,-82.57 44.3,-15.32 83.88,-19.04 118.48,-10.96 34.58,7.97 63.31,27.92 86.13,59.62l0 0 -81.35 70.09 0 0c-14.16,-16.6 -29.77,-27.46 -46.79,-32.45 -17.01,-5 -34.41,-4.36 -52.38,1.86 -22.85,7.9 -39.03,17.95 -48.53,30.16 -9.47,12.32 -11.75,25.56 -6.77,39.96l5.71 16.51c4.82,13.94 13.51,23.26 25.74,27.94 12.26,4.81 27.13,6.75 44.35,6.03 17.22,-0.71 35.74,-1.74 55.45,-2.92 19.27,-1.55 38.79,-2.4 58.5,-2.67 19.68,-0.38 38.37,1.81 56.32,6.35 17.81,4.59 33.89,13.19 47.91,25.77 14.12,12.43 25.29,30.72 33.59,54.73l7.37 21.31c15.03,43.44 10.39,82.8 -13.76,118.02 -24.3,35.28 -65.82,63.14 -124.88,83.58z"/>
    </g>
    <g>
     <path class="fil8" d="M1400.12 3157.37c10.21,-3.53 21.36,1.89 24.89,12.1 3.53,10.22 -1.88,21.36 -12.1,24.9 -10.21,3.53 -21.36,-1.89 -24.89,-12.1 -3.53,-10.22 1.88,-21.36 12.1,-24.9z"/>
     <path class="fil8" d="M2735.38 2695.53c10.22,-3.53 21.36,1.88 24.9,12.1 3.53,10.21 -1.89,21.36 -12.1,24.89 -10.22,3.53 -21.36,-1.88 -24.9,-12.1 -3.53,-10.21 1.89,-21.36 12.1,-24.89z"/>
    </g>
   </g>
   <g>
    <path class="fil0" d="M7361.31 1651.55c-0.08,0.16 -0.16,0.33 -0.25,0.5l-1.57 3.25 -49.75 85.69 -2.98 4.13c-52.07,72.06 -92.23,113.51 -155.51,167.04 27.88,19.55 49.14,45.96 64.25,77.7 21.75,45.67 26.43,94.13 9.27,141.89 16.15,12.46 32.8,24.55 46.53,35.7 46.46,37.76 90.49,80.49 115.84,135.57l25.15 45.35 -5.13 32.43c-3.2,51.94 -0.97,86.79 -34.35,133.7 -58.52,82.25 -163.78,83.47 -253.48,66.87 -9.52,-1.76 -31.53,-6.19 -46.74,-7.31 -4.91,13.86 -8.83,35 -10.35,44.19 -12.73,76.62 -16.15,164.56 -9.92,241.85 3.24,40.01 16.65,140.86 31.82,178.06l10.78 15.13 3.52 23.14c6.33,27.28 45.59,100.13 61.54,125.44 29.09,46.18 61.44,84.25 97.84,124.76 68.91,76.69 185.48,131.84 207.04,242.11 8.85,45.3 0.84,89.31 -22.96,128.7 -11.07,18.31 -22.87,29.67 -34.91,45.79l-17.92 24.36 -109.68 41.18c-35.97,15.72 -70.61,51.15 -44.45,90.48 21.55,32.4 46.85,60.25 71.93,89.77 36.4,42.86 66.56,85.14 93.5,134.68 13.29,24.44 23.59,51.25 37.14,75.27l17.87 30.16 -3.08 23.02 28.52 158.9 -3.68 18.76c-5.35,27.29 -4.82,58.71 -8.99,87.2 -7.23,49.38 -22.42,94.95 -43.37,139.34 45.21,41.89 71.57,100.75 65.47,169.61 -9.3,105.06 -93,184.81 -197.73,192.84 -57.41,4.41 -167.64,-20.42 -226,-31.86 -71.42,-14.01 -142.72,-29.94 -214.16,-43.38 -276.95,-52.1 -553.89,-104.18 -830.84,-156.28 -214.8,-40.41 -430.04,-78.88 -644.92,-119.06 -135.11,-25.26 -270.25,-50.69 -405.1,-77.35 -46.23,-9.15 -92.52,-18.38 -138.56,-28.4 -25.48,-5.55 -63.4,-12.64 -86.19,-24.62 -91.99,-48.37 -137.84,-152.76 -106.4,-252.42 20.21,-64.09 65.39,-107.88 121.34,-130 -3.48,-50.02 -0.79,-98.81 10.99,-148.49 6.41,-27.09 18.75,-57.2 22.94,-83.67l3.04 -19.17 9.86 -16.71c24.77,-41.94 51.33,-83.99 78.06,-124.93l8.05 -21.87 24.06 -17.65c19.81,-16.22 37.52,-38.02 58.71,-54.93 57.66,-46.01 103.42,-74.54 168.32,-109.19 20.97,-11.2 46.79,-23.47 65.71,-37.63 41.31,-30.92 23.58,-74.43 -8.98,-105.27 -10.87,-10.31 -23.73,-19.28 -35.02,-29.72 -11.04,-10.22 -19.29,-21.62 -29.41,-31.32l-31.04 -26.23 -3.99 -37.55c-8.47,-36.92 -16.08,-59.65 -8.95,-100.25 12.57,-71.68 65.83,-118.25 129.48,-146.76 49.34,-22.1 105.16,-35.42 155.99,-57.09 191.67,-81.74 323.12,-226.09 403.85,-417.04 17.58,-41.58 61.47,-165.48 63.6,-221.53l-5.21 -0.88 -9.24 -10.37c-17.24,-4.29 -38.76,-7.36 -54.07,-10.6 -39.96,-8.44 -83.08,-19.59 -116.38,-44.18 -44.01,-32.5 -72.44,-77.71 -78.26,-132.8 -6.87,-64.95 12.57,-89.9 39.26,-140.82l15.11 -28.85 26.36 -13.38c41.77,-38.47 88.46,-54.12 142.19,-72.32 16.88,-5.72 37.96,-12.06 58.7,-18.96 4.43,-82.67 54.2,-153.84 146.15,-178.26 -0.34,-0.57 -0.67,-1.12 -0.99,-1.65 -16.39,-27.69 -30.86,-55.48 -43.21,-85.24 -25.47,-61.35 -40.21,-110.18 -46.8,-175.87l-2.26 -22.46 1.24 -3.56c-3.23,-66.41 -1.26,-136.96 3.04,-202.15 5.45,-82.53 36.41,-168.66 72.43,-242.48l3.41 -6.97 4.41 -6.37c24.72,-35.67 49.81,-81.29 76.96,-113.67 32.3,-38.55 68.95,-78.17 108.57,-109.02 85.45,-66.55 166.28,-114.16 271.82,-143.65 243.63,-68.1 481.07,-22.2 682.83,130.06 122,92.07 219.78,235.5 262.89,381.81 11.76,39.9 18.36,71.72 23.26,109.36l4.94 99.63 -4.63 134.12 -1.98 9.03c-6.28,28.76 -12.02,57.29 -20.34,85.58 -5.01,17.05 -17.66,43.28 -20.54,58.98l-3.68 40.58 -21.61 18.49z"/>
    <path class="fil3" d="M7333.81 1257.51l-5.81 168.65c-5.81,26.52 -10.77,52.14 -18.56,78.61 -7.57,25.71 -21.94,52.87 -24.21,77.84 -0.91,0.78 -1.86,1.01 -2.43,2.67l-4.57 5.66c-0.57,0.87 -1.4,2.1 -2,3.09 -0.18,0.29 -6.2,12.35 -6.73,13.45l-45.28 78c-57.33,79.32 -85.12,104.73 -155.84,163.22 -17.74,14.67 -28.92,14.15 -35.29,45.85 -4.5,22.37 -11.25,51.98 -9.65,72.53l6.26 4.17c26.34,12.03 68.16,8.45 93.85,62.4 24.97,52.43 -2.77,81.43 -26.66,116.38 3.63,6.14 2.7,5.64 9.95,13.41 48.7,52.21 155.51,107.52 189.13,185.2l10.25 18.48c-5.78,36.51 25.44,149.98 -168.36,114.12 -99.91,-18.49 -152.42,-22 -176.08,120.32 -14.13,85.05 -17.49,185.86 -10.96,266.73 4.18,51.73 25.3,193.75 47.11,224.36 5.95,38.94 59.01,136.72 75.88,163.5 33.29,52.85 64.59,89.95 108.25,138.54 64.04,71.27 170.47,130.27 182.84,193.59 9.3,47.58 -23.72,72.55 -39.94,94.61l-83.53 31.35c-108.71,45.77 -148.79,154.96 -91.3,241.41 53.27,80.09 104.08,112.48 160.75,216.71 6.61,12.15 31.08,65.15 38.85,78.28l-0.51 3.81 27.96 155.77c-11.34,57.87 3.92,112.18 -56.3,226.2 -10.36,19.62 -26.4,41.87 -33.5,59.37 151.86,37.25 119.44,212.11 -2.69,221.48 -51.32,3.94 -340.45,-60.04 -413.53,-73.78 -276.95,-52.1 -553.89,-104.19 -830.84,-156.29 -96.23,-18.1 -1208.44,-219.63 -1246.2,-239.48 -107.69,-56.63 -70.47,-225.88 81.04,-205.66 0.13,-18.17 -6.96,-46.05 -9.44,-67.44 -15.14,-130.1 21.05,-175.95 30.47,-235.44 29.21,-49.46 81.92,-130.65 81.92,-130.65l1.48 -3.99c13.55,-9.95 47.91,-46.23 61.3,-56.93 59.05,-47.12 83.92,-62.19 152.77,-98.96 26.98,-14.41 56.73,-29.45 78.76,-45.94 91.29,-68.32 81.63,-183.4 0.06,-260.72 -11.69,-11.08 -23.04,-18.64 -35.91,-30.55 -14.03,-12.98 -20.55,-23.96 -32.67,-34.2 -3.11,-29.28 -44.84,-92.71 61.23,-140.21 27.61,-12.37 97.73,-32.23 154.31,-56.36 211.68,-90.27 364.66,-250.96 457.71,-471.06 27.15,-64.24 82.76,-221.98 69.18,-294.76 -4.96,-26.63 -22.81,-56.88 -52.39,-61.83 -17.03,-19.14 -132.17,-23.6 -171.4,-52.56 -19.85,-14.66 -34.57,-34 -37.49,-61.59 -3.96,-37.45 14.16,-56.08 28.2,-82.87 35.64,-18.08 3.89,-23.94 126.13,-65.35 30.02,-10.17 117.84,-38.38 137.02,-51.42 -24.45,-68.47 -3.24,-127.97 63.83,-144.47 24.6,-6.05 35.06,-0.06 53.09,1.42 25,2.05 22.17,3.14 35.58,-71.78 7.02,-39.26 -31.87,-67.52 -67.49,-153.34 -30.73,-74.03 -35.41,-105.95 -39.53,-147.01l0.49 -1.41c0,0 -5.94,-92.07 1.83,-209.88 4.96,-75.25 38.64,-155.99 62.33,-204.51 19.27,-27.82 61.43,-94.5 71.31,-106.27 28.79,-34.37 62.46,-70.23 93.09,-94.09 66.62,-51.89 135.41,-97.63 236.66,-125.92 213.04,-59.54 417.64,-19.87 594.08,113.27 106.44,80.33 190.32,206.39 226.54,329.3 31.03,105.28 16.11,117.79 28.21,130.64l-2.6 2.3z"/>
    <g style="clip-path:url(#id6)">
     <g>
      <polygon id="_1_5" class="fil4" points="5596.01,1393.27 5987.45,1653.51 5953.8,3814.72 4592.94,4638.9 3975.24,3049.08 5216.95,1052.8 "/>
     </g>
    </g>
    <path class="fil2" d="M7333.81 1257.51l-5.81 168.65c-5.81,26.52 -10.77,52.14 -18.56,78.61 -7.57,25.71 -21.94,52.87 -24.21,77.84 -0.91,0.78 -1.86,1.01 -2.43,2.67l-4.57 5.66c-0.57,0.87 -1.4,2.1 -2,3.09 -0.18,0.29 -6.2,12.35 -6.73,13.45l-45.28 78c-57.33,79.32 -85.12,104.73 -155.84,163.22 -17.74,14.67 -28.92,14.15 -35.29,45.85 -4.5,22.37 -11.25,51.98 -9.65,72.53l6.26 4.17c26.34,12.03 68.16,8.45 93.85,62.4 24.97,52.43 -2.77,81.43 -26.66,116.38 3.63,6.14 2.7,5.64 9.95,13.41 48.7,52.21 155.51,107.52 189.13,185.2l10.25 18.48c-5.78,36.51 25.44,149.98 -168.36,114.12 -99.91,-18.49 -152.42,-22 -176.08,120.32 -14.13,85.05 -17.49,185.86 -10.96,266.73 4.18,51.73 25.3,193.75 47.11,224.36 5.95,38.94 59.01,136.72 75.88,163.5 33.29,52.85 64.59,89.95 108.25,138.54 64.04,71.27 170.47,130.27 182.84,193.59 9.3,47.58 -23.72,72.55 -39.94,94.61l-83.53 31.35c-108.71,45.77 -148.79,154.96 -91.3,241.41 53.27,80.09 104.08,112.48 160.75,216.71 6.61,12.15 31.08,65.15 38.85,78.28l-0.51 3.81 27.96 155.77c-11.34,57.87 3.92,112.18 -56.3,226.2 -10.36,19.62 -26.4,41.87 -33.5,59.37 151.86,37.25 119.44,212.11 -2.69,221.48 -51.32,3.94 -340.45,-60.04 -413.53,-73.78 -276.95,-52.1 -553.89,-104.19 -830.84,-156.29 -96.23,-18.1 -1208.44,-219.63 -1246.2,-239.48 -107.69,-56.63 -70.47,-225.88 81.04,-205.66 0.13,-18.17 -6.96,-46.05 -9.44,-67.44 -15.14,-130.1 21.05,-175.95 30.47,-235.44 29.21,-49.46 81.92,-130.65 81.92,-130.65l1.48 -3.99c13.55,-9.95 47.91,-46.23 61.3,-56.93 59.05,-47.12 83.92,-62.19 152.77,-98.96 26.98,-14.41 56.73,-29.45 78.76,-45.94 91.29,-68.32 81.63,-183.4 0.06,-260.72 -11.69,-11.08 -23.04,-18.64 -35.91,-30.55 -14.03,-12.98 -20.55,-23.96 -32.67,-34.2 -3.11,-29.28 -44.84,-92.71 61.23,-140.21 27.61,-12.37 97.73,-32.23 154.31,-56.36 211.68,-90.27 364.66,-250.96 457.71,-471.06 27.15,-64.24 82.76,-221.98 69.18,-294.76 -4.96,-26.63 -22.81,-56.88 -52.39,-61.83 -17.03,-19.14 -132.17,-23.6 -171.4,-52.56 -19.85,-14.66 -34.57,-34 -37.49,-61.59 -3.96,-37.45 14.16,-56.08 28.2,-82.87 35.64,-18.08 3.89,-23.94 126.13,-65.35 30.02,-10.17 117.84,-38.38 137.02,-51.42 -24.45,-68.47 -3.24,-127.97 63.83,-144.47 24.6,-6.05 35.06,-0.06 53.09,1.42 25,2.05 22.17,3.14 35.58,-71.78 7.02,-39.26 -31.87,-67.52 -67.49,-153.34 -30.73,-74.03 -35.41,-105.95 -39.53,-147.01l0.49 -1.41c0,0 -5.94,-92.07 1.83,-209.88 4.96,-75.25 38.64,-155.99 62.33,-204.51 19.27,-27.82 61.43,-94.5 71.31,-106.27 28.79,-34.37 62.46,-70.23 93.09,-94.09 66.62,-51.89 135.41,-97.63 236.66,-125.92 213.04,-59.54 417.64,-19.87 594.08,113.27 106.44,80.33 190.32,206.39 226.54,329.3 31.03,105.28 16.11,117.79 28.21,130.64l-2.6 2.3z"/>
    <path class="fil5" d="M6192.88 1449.95c19.85,51.84 39.7,79.71 80.22,118.23 30.05,28.59 100.68,68.14 152.34,71.38 -36.51,-59.44 -78.46,-73.44 -116.73,-213.62 -24.28,-88.92 -20.89,-200.5 15.31,-299.03 59.18,-161.05 215.96,-299.42 381.03,-312.77l-6.69 -4.12c-34.19,-14.05 -126.15,-0.56 -157.97,6.96 -48.11,11.38 -107.09,35.58 -138.26,56.77 -76.02,51.73 -145.99,115.53 -193.42,228.75 -47.23,112.71 -53.29,249.57 -15.82,347.45z"/>
    <path class="fil5" d="M6061.34 2091.14c-19.39,-8.29 -34.36,-15.08 -51.83,-28.02 -15.11,-11.19 -17.6,-13.17 -22.8,-30.8 -0.38,-1.33 -1.28,-5.37 -1.67,-6.67 -3.69,-12.19 3.27,0.52 -3.65,-10.19 -42.77,28.83 -143.69,43.94 -154.6,98.23 46.18,33.38 226.21,58.39 300.58,72.72 295.41,56.93 574.03,119.19 870.13,166.65 -43.14,-48.51 -444.45,-126.33 -537.25,-147.96 -113.16,-26.35 -293.25,-68.77 -398.9,-113.95z"/>
    <g style="clip-path:url(#id7)">
     <g>
      <polygon id="_1_6" class="fil9" points="5596.01,1393.27 5987.45,1653.51 5953.8,3814.72 4592.94,4638.9 3975.24,3049.08 5216.95,1052.8 "/>
     </g>
    </g>
    <path class="fil2" d="M6061.34 2091.14c-19.39,-8.29 -34.36,-15.08 -51.83,-28.02 -15.11,-11.19 -17.6,-13.17 -22.8,-30.8 -0.38,-1.33 -1.28,-5.37 -1.67,-6.67 -3.69,-12.19 3.27,0.52 -3.65,-10.19 -42.77,28.83 -143.69,43.94 -154.6,98.23 46.18,33.38 226.21,58.39 300.58,72.72 295.41,56.93 574.03,119.19 870.13,166.65 -43.14,-48.51 -444.45,-126.33 -537.25,-147.96 -113.16,-26.35 -293.25,-68.77 -398.9,-113.95z"/>
    <path class="fil5" d="M6058.78 2294.43c-54,243.51 -101.97,397.07 -228.67,586.75 -74.77,111.94 -178.39,210.52 -286.24,272.26 -24.05,13.77 -96.58,50.53 -105.77,83.01 -13.43,47.39 82.01,63.11 124.22,72.96 144.77,33.76 392.23,75.03 544.68,103.7 120.41,22.65 240.83,45.3 361.24,67.95 119,22.39 247.46,51.54 366.2,68.3 -71.07,-90.02 -553.8,-209.72 -708.1,-239.11 -74.1,-14.12 -192.42,-35.33 -246.97,-76.02 -71.24,-53.14 -15.43,-135.84 18.44,-207.64 64.84,-137.42 212.04,-553.35 174.41,-706.9l-13.46 -25.26z"/>
    <g style="clip-path:url(#id8)">
     <g>
      <polygon id="_1_7" class="fil9" points="5596.01,1393.27 5987.45,1653.51 5953.8,3814.72 4592.94,4638.9 3975.24,3049.08 5216.95,1052.8 "/>
     </g>
    </g>
    <path class="fil2" d="M6058.78 2294.43c-54,243.51 -101.97,397.07 -228.67,586.75 -74.77,111.94 -178.39,210.52 -286.24,272.26 -24.05,13.77 -96.58,50.53 -105.77,83.01 -13.43,47.39 82.01,63.11 124.22,72.96 144.77,33.76 392.23,75.03 544.68,103.7 120.41,22.65 240.83,45.3 361.24,67.95 119,22.39 247.46,51.54 366.2,68.3 -71.07,-90.02 -553.8,-209.72 -708.1,-239.11 -74.1,-14.12 -192.42,-35.33 -246.97,-76.02 -71.24,-53.14 -15.43,-135.84 18.44,-207.64 64.84,-137.42 212.04,-553.35 174.41,-706.9l-13.46 -25.26z"/>
    <path class="fil5" d="M5365.26 3672.71c-88.34,63.61 -264.05,160.47 -329.16,298.64 -45.42,96.35 -28.1,186.44 24.94,239.18 58.01,57.67 160.21,73.99 252.32,91.31 203.17,38.22 406.85,75.4 609.79,114.64 196.46,38.02 406.2,85.89 603.93,117.3 -54.5,-42.73 -345.15,-129.09 -432.94,-152.66 -157.27,-42.23 -315.89,-80.59 -474.1,-118.01 -159.32,-37.71 -324.88,-60.42 -374.15,-190.63 -55.54,-146.8 104.13,-353.11 119.37,-399.76z"/>
    <g style="clip-path:url(#id9)">
     <g>
      <polygon id="_1_8" class="fil9" points="5596.01,1393.27 5987.45,1653.51 5953.8,3814.72 4592.94,4638.9 3975.24,3049.08 5216.95,1052.8 "/>
     </g>
    </g>
    <path class="fil2" d="M5365.26 3672.71c-88.34,63.61 -264.05,160.47 -329.16,298.64 -45.42,96.35 -28.1,186.44 24.94,239.18 58.01,57.67 160.21,73.99 252.32,91.31 203.17,38.22 406.85,75.4 609.79,114.64 196.46,38.02 406.2,85.89 603.93,117.3 -54.5,-42.73 -345.15,-129.09 -432.94,-152.66 -157.27,-42.23 -315.89,-80.59 -474.1,-118.01 -159.32,-37.71 -324.88,-60.42 -374.15,-190.63 -55.54,-146.8 104.13,-353.11 119.37,-399.76z"/>
   </g>
   <polygon class="fil10" points="2399.85,1719.04 2399.85,3661.31 4097.05,4678.4 5806.51,3691.94 5824.89,1725.17 4109.31,701.94 "/>
   <g style="clip-path:url(#id10)">
    <g>
     <polygon id="_1_9" class="fil11 str0" points="3092.78,3315.58 4133.05,1521.21 5173.33,3323.31 "/>
     <polygon class="fil12" points="3092.78,3315.58 4105.99,4541.48 5173.33,3323.31 "/>
    </g>
    <g style="clip-path:url(#id11)">
     <g>
      <polygon id="_1_10" class="fil5" points="4999.66,3432.15 3320.46,3429.84 4210.02,4502.07 4105.98,4541.47 3107.24,3333.08 3310.93,3316.4 5122.48,3341.75 "/>
     </g>
    </g>
    <g style="clip-path:url(#id12)">
     <polygon class="fil7 str0" points="3092.78,3315.58 4105.99,4541.48 5173.33,3323.31 "/>
     <polygon class="fil13" points="5710.86,3594.02 5173.32,3323.32 4105.98,4541.48 "/>
    </g>
    <g style="clip-path:url(#id13)">
     <g>
      <polygon id="_1_11" class="fil3" points="5326.02,3239.77 5346.9,3320.56 4263.84,4476.57 4216.49,4381.84 5279.06,3193.65 "/>
      <g>
       <path class="fil6" d="M5242.74 3964.09l-301.95 -290.51 22.6 -41.85 239.22 230.17 -0.32 -44.5 57.98 55.79 3.53 51.91 -21.06 38.99zm-362.79 -186.02c10.47,-19.38 25.67,-27.57 45.51,-24.62 19.84,2.95 42.73,16.82 68.6,41.71l19.78 19.02c14.53,13.98 27.4,28.45 38.71,43.41 11.34,14.9 22.36,31 33.26,48.31l101.28 161.27 -24.87 46.06 -123.18 -195.5 13.86 -4.72c10.17,19.85 11.82,35.93 5.14,48.3 -9.08,16.82 -22.95,23.36 -41.65,19.68 -18.76,-3.74 -40.59,-17.58 -65.47,-41.52l-22.25 -21.41c-25.87,-24.89 -43.11,-49.63 -51.66,-74.08 -8.55,-24.46 -7.55,-46.46 2.95,-65.91zm52.1 50.13c-3.46,6.41 -3.75,13.54 -0.98,21.37 2.88,7.83 8.77,16.08 17.77,24.74l20.98 20.19c9.57,9.2 17.78,14.53 24.62,16.04 6.87,1.44 12.05,-0.98 15.51,-7.39 3.31,-6.13 3.34,-13.35 0.13,-21.76 -3.31,-8.43 -9.67,-17.21 -19.24,-26.42l-20.98 -20.19c-9,-8.66 -16.75,-13.45 -23.15,-14.36 -6.43,-0.87 -11.34,1.65 -14.66,7.78z"/>
      </g>
     </g>
    </g>
    <g style="clip-path:url(#id14)">
     <polygon class="fil7 str0" points="5710.86,3594.02 5173.32,3323.32 4105.98,4541.48 "/>
     <polygon class="fil12" points="3092.78,3315.58 4105.99,4541.48 2491.43,3609.49 "/>
    </g>
    <g style="clip-path:url(#id15)">
     <g>
      <g>
       <path id="_1_12" class="fil6" d="M3090.1 3941.06l271.3 -118.98 40.89 52.83 -214.94 94.27 42.81 30.41 -52.1 22.84 -49.85 -32.12 -38.11 -49.24zm163.79 -262.73c19.64,25.37 28.32,47.5 25.99,66.3 -2.35,18.91 -14.66,33.2 -36.89,42.95l-134.69 59.08c-22.42,9.83 -45.06,10.78 -68.11,2.83 -22.93,-7.92 -44.16,-24.44 -63.59,-49.55 -19.54,-25.23 -28.22,-47.36 -26.17,-66.32 2.1,-18.89 14.42,-33.28 36.97,-43.16l134.69 -59.08c22.36,-9.81 45.06,-10.78 67.94,-2.94 22.87,7.85 44.22,24.51 63.86,49.89zm-47.39 20.78c-6.69,-8.64 -14.35,-13.81 -22.97,-15.58 -8.63,-1.78 -17.56,-0.54 -27.05,3.62l-121.64 53.36c-9.56,4.19 -15.46,9.45 -17.6,15.95 -2.13,6.49 0.12,14.03 6.81,22.67 6.47,8.37 14.02,13.49 22.58,15.3 8.61,1.87 17.67,0.67 27.22,-3.52l121.64 -53.35c9.49,-4.16 15.27,-9.48 17.53,-15.93 2.2,-6.52 0.07,-14.02 -6.52,-22.52z"/>
      </g>
      <polygon class="fil5" points="2625.09,3699.33 3202.07,3410.84 3113.23,3280.33 2491.43,3609.49 "/>
     </g>
    </g>
    <g style="clip-path:url(#id16)">
     <polygon class="fil7 str0" points="3092.78,3315.58 4105.99,4541.48 2491.43,3609.49 "/>
     <polygon class="fil14" points="2485.63,1749.37 3092.78,3315.58 2491.43,3609.49 "/>
    </g>
    <g style="clip-path:url(#id17)">
     <g>
      <g>
       <path id="_1_13" class="fil6" d="M2530.36 3110.3l301.37 -127.35 22.84 54.05 -238.76 100.91 31.86 30.8 -57.87 24.46 -38.15 -32.49 -21.29 -50.37zm274.96 -189.83l-49.09 20.75 -155.54 -31.08c-14.01,-2.17 -26.48,-3.07 -37.46,-2.42 -11.02,0.57 -20.19,2.36 -27.47,5.44l-2.34 0.98c-7.71,3.26 -12.64,7.76 -14.93,13.4 -2.25,5.7 -1.73,12.48 1.59,20.34 3.41,8.06 8.73,13.15 15.85,15.4 7.15,2.31 16.03,1.64 26.71,-2.12l5.58 -2.36 23.32 55.18 -5.59 2.36c-27.8,10.59 -51.76,11.87 -71.97,3.91 -20.28,-7.94 -35.65,-24.38 -46.18,-49.28 -11.03,-26.11 -12.99,-48.71 -5.99,-67.67 7.03,-19.07 22.91,-33.78 47.67,-44.25l2.05 -0.86c12.31,-5.2 26.41,-8.33 42.49,-9.37 15.97,-1.08 33.22,-0.11 51.72,2.83l117.86 22.23 -38.03 -89.99 52.64 -22.24 67.11 158.81z"/>
      </g>
      <polygon class="fil4" points="2941.99,3072.42 2537.86,3285.31 2491.26,3554.13 2631.67,3555.94 2954.62,3362.89 3104.37,3274.48 "/>
     </g>
    </g>
    <g style="clip-path:url(#id18)">
     <polygon class="fil7 str0" points="2485.63,1749.37 3092.78,3315.58 2491.43,3609.49 "/>
     <polygon class="fil14" points="4133.06,1521.21 2485.64,1749.38 3092.79,3315.58 "/>
    </g>
    <g style="clip-path:url(#id19)">
     <g>
      <polygon id="_1_14" class="fil4" points="3890.69,1599.85 2989.42,3048.92 3113.37,3280.08 3398.34,2736.46 4029.8,1663.56 4101.99,1525.51 "/>
     </g>
    </g>
    <g style="clip-path:url(#id20)">
     <polygon class="fil7 str0" points="4133.06,1521.21 2485.64,1749.38 3092.79,3315.58 "/>
     <polygon class="fil13" points="5734.07,1776.44 4133.06,1521.21 5173.33,3323.32 "/>
    </g>
    <g style="clip-path:url(#id21)">
     <g>
      <polygon id="_1_15" class="fil3" points="4307.84,1549.19 5223.03,3186.24 5167.41,3386.19 5004.04,3087.54 4109.99,1496.73 "/>
     </g>
    </g>
    <g style="clip-path:url(#id22)">
     <polygon class="fil7 str0" points="5734.07,1776.44 4133.06,1521.21 5173.33,3323.32 "/>
     <polygon class="fil13" points="5734.07,1776.44 5710.86,3594.02 5173.33,3323.32 "/>
    </g>
    <g style="clip-path:url(#id23)">
     <g>
      <polygon id="_1_16" class="fil3" points="5286.02,3423.98 5790.93,1704.92 5587.47,1783.43 5156.8,3342.17 "/>
      <g>
       <path class="fil6" d="M5393.46 2952.52c8.29,-25.89 22.02,-43.59 41.12,-53.13 19.1,-9.52 42.02,-10.09 68.72,-1.55l20.4 6.54c15,4.8 28.46,11.12 40.48,18.92 12.04,7.72 23.88,16.84 35.72,27.24l109.96 97.05 -19.69 61.52 -133.7 -117.39 12.77 -13.41c11.35,13.39 14.3,28.37 9.01,44.9 -7.19,22.46 -19.8,37.69 -37.88,45.78 -18.14,8.06 -40.05,7.98 -65.73,-0.24l-22.96 -7.35c-26.7,-8.54 -45.19,-22.36 -55.4,-41.35 -10.2,-19 -11.13,-41.55 -2.82,-67.52zm53.76 17.21c-2.73,8.56 -2.4,15.84 0.9,21.9 3.4,6.01 9.7,10.52 18.99,13.5l21.65 6.92c9.87,3.16 18.13,3.31 24.75,0.51 6.65,-2.87 11.37,-8.54 14.11,-17.1 2.62,-8.19 2.02,-15.4 -1.75,-21.76 -3.86,-6.32 -10.64,-11.08 -20.52,-14.24l-21.65 -6.93c-9.29,-2.97 -17.06,-2.87 -23.22,0.24 -6.18,3.17 -10.63,8.77 -13.26,16.96z"/>
      </g>
     </g>
    </g>
    <g style="clip-path:url(#id24)">
     <polygon class="fil7 str0" points="5734.07,1776.44 5710.86,3594.02 5173.33,3323.32 "/>
     <polygon class="fil14" points="2488.71,1749.37 4112.91,810.57 4133.06,1521.21 "/>
    </g>
    <g style="clip-path:url(#id25)">
     <g>
      <polygon id="_1_17" class="fil4" points="3976.66,1456.69 4035.04,653.43 4295.44,685 4249.67,1573.47 3994.02,1582.94 "/>
      <polygon class="fil3" points="2738.95,1592.84 3982.07,1391.4 4144.83,1541.6 2422,1774.77 "/>
     </g>
    </g>
    <g style="clip-path:url(#id26)">
     <polygon class="fil7 str0" points="2488.71,1749.37 4112.91,810.57 4133.06,1521.21 "/>
     <polygon class="fil12" points="5736.17,1777.75 4112.91,810.57 4133.05,1521.21 "/>
    </g>
    <g style="clip-path:url(#id27)">
     <g>
      <polygon id="_1_18" class="fil4" points="4133.06,1521.21 4213.99,1422.91 5670.22,1679.13 5780.05,1800.78 "/>
      <polygon class="fil5" points="4148.48,1516.35 4213.99,1422.91 4212.69,701.56 4088.12,714.56 4077.33,1073.26 4118.06,1547.07 "/>
     </g>
    </g>
    <g style="clip-path:url(#id28)">
     <polygon class="fil7 str0" points="5736.17,1777.75 4112.91,810.57 4133.05,1521.21 "/>
     <g>
      <path class="fil6" d="M5144.34 2044.84l-281.21 167.21 -29.99 -50.44 222.79 -132.47 -35.76 -26.18 54 -32.11 42.22 26.98 27.95 47.01zm-203.87 199.15l46.73 -27.51 234.28 -41.47 32.78 55.12 -230.54 42.37 66.7 111.87 -49.11 29.2 -100.84 -169.58zm16.71 126.68l160.34 -95.35 29.76 49.59 -160.54 95.47 -29.56 -49.71z"/>
     </g>
     <g>
      <path class="fil6" d="M4075.63 3982.73c-18.43,0 -34.41,-3.3 -47.85,-9.9 -13.37,-6.61 -23.73,-15.97 -31.03,-28.11 -7.3,-12.14 -10.91,-26.65 -10.91,-43.48l0 -28.57c0,-14.05 3.92,-27.11 11.83,-39.01 7.83,-11.9 18.59,-21.04 32.26,-27.34 -11.98,-5.22 -21.51,-12.68 -28.57,-22.35 -7.07,-9.68 -10.6,-20.28 -10.6,-31.65l0 -27.26c0,-23.5 7.68,-42.09 22.89,-55.76 15.2,-13.67 35.86,-20.51 61.98,-20.51 26.11,0 46.77,6.84 61.98,20.51 15.2,13.67 22.81,32.26 22.81,55.76l0 27.26c0,11.52 -3.53,22.13 -10.75,31.73 -7.22,9.59 -16.98,17.05 -29.27,22.27 13.98,6.3 24.97,15.44 32.95,27.34 8.07,11.9 12.06,24.96 12.06,39.01l0 28.57c0,16.83 -3.68,31.34 -11.06,43.48 -7.3,12.14 -17.67,21.5 -31.03,28.11 -13.36,6.6 -29.26,9.9 -47.69,9.9zm0 -56.67c9.6,0 17.28,-2.69 23.04,-8.15 5.76,-5.37 8.68,-12.67 8.68,-21.81l0 -28.8c0,-8.83 -2.85,-15.9 -8.53,-21.05 -5.76,-5.14 -13.44,-7.75 -23.19,-7.75 -9.61,0 -17.28,2.61 -23.04,7.75 -5.84,5.15 -8.68,12.29 -8.68,21.28l0 29.03c0,8.99 2.84,16.13 8.52,21.51 5.68,5.3 13.44,7.99 23.2,7.99zm0 -144c8.37,0 15.05,-2.69 19.89,-7.99 4.91,-5.38 7.29,-12.6 7.29,-21.74l0 -20.27c0,-8.37 -2.38,-15.05 -7.29,-19.9 -4.84,-4.84 -11.52,-7.29 -19.89,-7.29 -8.3,0 -14.9,2.45 -19.9,7.37 -5.06,4.99 -7.6,11.68 -7.6,20.05l0 20.51c0,9.13 2.54,16.28 7.45,21.5 4.99,5.15 11.67,7.76 20.05,7.76z"/>
     </g>
     <g>
      <path class="fil6" d="M3288.24 2301.39l-46.16 -26.65 -69.03 -142.8c-6.71,-12.48 -13.52,-22.97 -20.65,-31.34 -7.1,-8.45 -14.06,-14.68 -20.91,-18.64l-2.2 -1.26c-7.24,-4.19 -13.81,-5.41 -19.69,-3.83 -5.91,1.64 -11,6.14 -15.26,13.53 -4.38,7.58 -5.23,14.9 -2.73,21.92 2.47,7.1 8.36,13.79 17.8,20.04l5.25 3.03 -29.95 51.88 -5.26 -3.04c-25.2,-15.79 -40.68,-34.13 -46.52,-55.06 -5.9,-20.96 -2.06,-43.13 11.46,-66.55 14.17,-24.54 31.02,-39.73 50.37,-45.59 19.44,-5.89 40.76,-2.1 64.04,11.35l1.92 1.11c11.58,6.68 22.58,16.04 33.1,28.24 10.49,12.09 20.12,26.43 28.94,42.96l53.35 107.42 48.85 -84.61 49.49 28.57 -86.21 149.31z"/>
     </g>
     <g>
      <path class="fil6" d="M3718.32 1215.11l-243.05 241.15 -43.25 0 192.55 -191.05 -42.95 12.79 46.67 -46.3 49.72 -16.59 40.31 0zm-128.2 243.64c-13.59,0 -22.91,-2.43 -27.91,-7.3 -4.94,-4.87 -5.62,-11.78 -1.99,-20.72 3.63,-8.94 11.76,-19.65 24.26,-32.04l21.22 -21.06c10.45,-10.36 23.03,-19.99 37.71,-28.76 14.61,-8.78 29.33,-15.51 44.08,-20.15 -4.95,-3.85 -6.43,-9.35 -4.45,-16.48 1.98,-7.13 7.25,-14.94 15.69,-23.32l20.26 -20.1c17.46,-17.32 36.93,-31.02 58.29,-41.1 21.36,-10.07 41.67,-15.11 60.92,-15.11 19.25,0 29.4,5.04 30.45,15.11 1.05,10.08 -7.15,23.78 -24.61,41.1l-20.26 20.1c-8.56,8.49 -19.03,16.3 -31.48,23.38 -12.46,7.07 -25.19,12.57 -38.12,16.42 5.62,4.64 6.93,11.37 3.98,20.15 -2.91,8.77 -9.66,18.4 -20.1,28.76l-21.23 21.06c-12.49,12.39 -26,23.1 -40.44,32.04 -14.4,8.94 -29,15.85 -43.76,20.72 -14.75,4.87 -28.92,7.3 -42.51,7.3zm42.1 -41.78c7.08,0 14.74,-1.98 23.03,-6 8.24,-3.96 15.82,-9.34 22.61,-16.08l21.39 -21.22c6.56,-6.51 9.72,-11.72 9.35,-15.52 -0.42,-3.79 -4.14,-5.71 -11.33,-5.71 -7.08,0 -14.67,1.92 -22.75,5.71 -8.12,3.8 -15.53,9.06 -22.2,15.69l-21.57 21.39c-6.67,6.63 -9.88,11.89 -9.69,15.85 0.26,3.91 3.97,5.89 11.16,5.89zm106.98 -106.13c6.16,0 13.09,-1.98 20.59,-5.89 7.62,-3.96 14.74,-9.29 21.53,-16.02l15.06 -14.94c6.22,-6.18 9.43,-11.1 9.4,-14.67 0.02,-3.56 -3.07,-5.37 -9.24,-5.37 -6.12,0 -12.81,1.81 -20.14,5.43 -7.45,3.68 -14.28,8.61 -20.5,14.78l-15.23 15.11c-6.79,6.74 -10.23,12 -10.48,15.85 -0.15,3.79 2.83,5.72 9.01,5.72z"/>
     </g>
     <g>
      <path class="fil6" d="M4667.65 1419.3l-57.5 -39.97 -174.73 -164.05 47.27 0 173.77 162.01 95.84 -0.12 60.78 42.13 -145.42 0zm140.13 37.13l-198.41 -137.5 42.39 -0.17 198.65 137.67 -42.63 0z"/>
     </g>
     <circle class="fil8" cx="5377.85" cy="3090.29" r="25.22"/>
    </g>
    <g style="clip-path:url(#id29)">
     <image x="5941.75" y="-1449.21" width="12659.92" height="21756.29" xlink:href="Buds logo 2_Images\Buds logo 2_ImgID1.png"/>
    </g>
    <g style="clip-path:url(#id30)">
     <polygon class="fil4" points="4118.42,1804.66 4129.55,1626.67 5102.97,3291.09 3170.9,3268.76 3300.74,3178.27 4896.22,3178.27 "/>
     <polygon class="fil5" points="4129.55,1626.67 3170.9,3268.76 3300.74,3178.27 4118.42,1804.66 "/>
     <rect class="fil4" x="-3481.52" y="-2323.19" width="721.35" height="721.35"/>
     <path class="fil15" d="M-2112.48 -2323.19c240.46,0 480.91,0 721.36,0 0,240.45 0,480.91 0,721.35 -240.45,0 -480.9,0 -721.36,0 0,-240.44 0,-480.9 0,-721.35z"/>
     <path class="fil16" d="M-743.43 -2323.19c240.46,0 480.91,0 721.36,0 0,240.45 0,480.91 0,721.35 -240.45,0 -480.9,0 -721.36,0 0,-240.44 0,-480.9 0,-721.35z"/>
     <path class="fil17" d="M625.61 -2323.19c240.45,0 480.91,0 721.35,0 0,240.45 0,480.91 0,721.35 -240.44,0 -480.9,0 -721.35,0 0,-240.44 0,-480.9 0,-721.35z"/>
     <rect class="fil5" x="1994.65" y="-2323.19" width="721.35" height="721.35"/>
     <g>
      <path class="fil18" d="M3679.9 2955.17l0 -49.86 81.29 0c11.15,0 19.78,-2.4 25.88,-7.05 6.1,-4.65 9.19,-11.22 9.19,-19.63l0 -19.83c0,-9.1 -3.09,-16.21 -9.35,-21.28 -6.19,-5.06 -14.9,-7.59 -26.21,-7.59l-80.8 0 0 -49.52 80.07 0c10.17,0 18.15,-2.32 23.76,-7.11 5.62,-4.72 8.47,-11.42 8.47,-20.11l0 -15.67c0,-7.59 -2.85,-13.47 -8.47,-17.71 -5.61,-4.17 -13.59,-6.29 -23.76,-6.29l-80.07 0 0 -49.73 84.14 0c28.64,0 50.78,6.09 66.56,18.13 15.71,12.1 23.6,29.27 23.6,51.43l0 15.6c0,15.11 -5.2,27.56 -15.54,37.27 -10.33,9.79 -24.82,16.01 -43.62,18.68 20.18,2.25 35.81,8.62 46.96,19.15 11.15,10.46 16.68,24.14 16.68,40.97l0 20.04c0,22.3 -7.81,39.54 -23.44,51.78 -15.7,12.24 -37.84,18.33 -66.4,18.33l-88.94 0zm-31.25 0l0 -291.37 62.25 0 0 291.37 -62.25 0z"/>
      <path class="fil18" d="M4001.73 2958.18c-32.96,0 -58.59,-7.94 -76.9,-23.87 -18.39,-15.87 -27.59,-38.24 -27.59,-67.1l0 -203.41 62.25 0 0 204.78c0,11.9 3.66,21.13 10.99,27.7 7.32,6.5 17.74,9.78 31.25,9.78 13.5,0 24,-3.28 31.41,-9.78 7.48,-6.57 11.23,-15.8 11.23,-27.7l0 -204.78 62.49 0 0 203.41c0,28.86 -9.27,51.23 -27.83,67.1 -18.47,15.93 -44.27,23.87 -77.3,23.87z"/>
      <path class="fil18" d="M4193.44 2955.17l-0.25 -50.27 63.88 0c14.57,0 25.96,-3.29 34.1,-9.72 8.05,-6.49 12.04,-15.52 11.88,-26.95l0 -117.63c0.16,-11.63 -3.83,-20.59 -11.88,-26.95 -8.14,-6.36 -19.53,-9.51 -34.1,-9.51l-63.63 0 -0.25 -50.34 66 0c34.34,0 60.87,7.46 79.66,22.23 18.72,14.84 28.08,35.7 28.08,62.52l0 121.67c0,17.23 -4.07,32.21 -12.29,45 -8.14,12.73 -20.26,22.58 -36.29,29.55 -16.12,6.91 -35.89,10.4 -59.41,10.4l-65.5 0zm-36.3 0l0 -50.4 62.26 0 0 50.4 -62.26 0zm0 -120.44l0 -170.92 62.26 0 0 170.92 -62.26 0z"/>
      <path class="fil18" d="M4508.74 2958.18c-19.53,0 -36.7,-2.46 -51.51,-7.32 -14.73,-4.86 -26.93,-12.11 -36.61,-21.75 -9.61,-9.58 -16.44,-21.55 -20.59,-35.84l0 0 57.94 -21.48 0 0c4.63,11.77 11.55,20.66 20.75,26.68 9.19,6.02 20.42,9.03 33.6,9.03 13.68,0 24.34,-2.53 31.99,-7.67 7.56,-5.06 11.39,-12.1 11.39,-21.2l0 -13.06c0,-7.18 -2.52,-12.93 -7.49,-17.24 -5.04,-4.24 -11.72,-7.73 -20.02,-10.4 -8.38,-2.66 -17.41,-5.19 -27.1,-7.59 -10.66,-2.67 -21.4,-5.74 -32.3,-9.23 -10.82,-3.49 -20.91,-8 -30.03,-13.61 -9.11,-5.61 -16.44,-13.14 -22.05,-22.58 -5.53,-9.37 -8.3,-21.54 -8.3,-36.38l0 -7.6c0,-25.51 9.28,-45.21 27.83,-59.23 18.63,-13.95 44.92,-20.93 78.93,-20.93 25.88,0 47.2,5.2 63.8,15.66 16.6,10.4 27.99,26 34.18,46.65l0 0 -55.09 21.89 0 0c-4.4,-11.22 -10.58,-19.7 -18.56,-25.38 -7.97,-5.67 -17.17,-8.48 -27.66,-8.48 -13.35,0 -23.6,2.33 -30.76,6.98 -7.16,4.72 -10.74,11.22 -10.74,19.63l0 9.64c0,8.14 2.84,14.57 8.38,19.22 5.53,4.72 12.94,8.42 22.05,11.15 9.11,2.74 18.96,5.54 29.46,8.48 10.33,2.67 20.67,5.75 31,9.17 10.34,3.35 19.69,7.87 28.24,13.47 8.46,5.61 15.3,13 20.34,22.1 5.13,9.03 7.65,20.59 7.65,34.61l0 12.45c0,25.37 -9.52,45.07 -28.48,59.09 -19.04,14.02 -45.73,21.07 -80.24,21.07z"/>
     </g>
    </g>
   </g>
   <polygon class="fil7" points="2399.85,1719.04 2399.85,3661.31 4097.05,4678.4 5806.51,3691.94 5824.89,1725.17 4109.31,701.94 "/>
  </g>
  <path class="fil10" d="M9874.83 5026.84l204.6 0 0 168.96c0,43.85 -8.51,81.91 -25.53,113.86 -17.19,31.96 -41.28,56.7 -72.6,74.04 -31.16,17.51 -68.26,26.18 -111.14,26.18 -43.04,0 -80.46,-8.35 -112.57,-24.89 -31.97,-16.71 -56.54,-40.15 -73.88,-70.67 -17.19,-30.36 -25.86,-66.5 -25.86,-108.24l0 -278.5c0,-44.16 8.67,-82.55 25.86,-114.82 17.34,-32.28 41.6,-57.18 73.08,-74.84 31.31,-17.52 68.09,-26.34 110.49,-26.34 42.08,0 77.89,8.03 107.43,23.77 29.71,15.89 52.84,39.66 69.54,71.31 16.55,31.64 26.51,71.15 29.57,118.52l0 0 -128.49 0 0 0c-2.41,-30.04 -10.59,-52.2 -24.25,-66.33 -13.49,-14.14 -31.48,-21.21 -53.8,-21.21 -25.38,0 -45.62,8.2 -60.39,24.58 -14.94,16.22 -22.49,38.06 -22.49,65.36l0 278.5c0,23.92 7.71,42.88 23.12,56.7 15.43,13.97 36.31,21.04 62.64,21.04 26.03,0 46.75,-7.72 62,-22.81 15.42,-15.26 23.13,-36.3 23.13,-63.29l0 -52.68 -80.46 0 0 -118.2zm1243.36 375.98l212.16 -684.18 81.91 0 212.64 684.18 -127.52 0 -126.07 -457.89 -126.06 457.89 -127.04 0zm118.04 -108.24l0 -116.6 273.35 0 0 116.6 -273.35 0zm1470.62 -159.49l123.34 -416.44 139.72 0 0 684.18 -110.65 0 0 -504.47 5.62 30.21 -114.66 375.48 -86.25 0 -115.15 -366.18 7.07 -39.51 0 504.47 -111.62 0 0 -684.18 140.69 0 121.89 416.44zm1131.27 267.74l0.49 -684.18 122.85 0 0 684.18 -123.34 0zm49.47 0l0 -119 332.12 0 0 119 -332.12 0zm0 -279.94l0 -119.48 294.55 0 0 119 -294.55 0.48zm0 -285.24l0 -119 332.12 0 0 119 -332.12 0zm1690.33 565.17l0.48 -684.18 122.69 0 0 684.18 -123.17 0zm-291.82 0l0.48 -684.18 122.85 0 0 684.18 -123.33 0zm57.97 -279.46l0 -117.23 313.82 -0.48 0 117.23 -313.82 0.48zm1431.12 286.52c-43.36,0 -80.95,-8.35 -112.74,-25.21 -31.8,-16.7 -56.37,-40.64 -73.72,-71.79 -17.19,-31.01 -25.86,-67.46 -25.86,-109.53l0 -285.24c0,-42.56 8.67,-79.34 25.86,-110.33 17.35,-30.83 41.92,-54.6 73.72,-71.15 31.8,-16.71 69.39,-25.05 112.74,-25.05 43.53,0 81.27,8.34 113.06,25.05 31.8,16.55 56.37,40.32 73.72,71.15 17.19,31 25.86,67.78 25.86,110.33l0 285.24c0,42.08 -8.67,78.53 -25.86,109.53 -17.35,31.15 -41.92,55.09 -73.72,71.79 -31.8,16.86 -69.54,25.21 -113.06,25.21zm0 -122.85c26.66,0 47.7,-8.03 63.28,-23.94 15.41,-16.06 23.29,-37.9 23.29,-65.85l0 -273.83c0,-27.3 -7.71,-49.15 -23.13,-65.21 -15.42,-16.22 -36.46,-24.25 -63.44,-24.25 -26.5,0 -47.38,8.03 -62.96,24.25 -15.42,16.06 -23.29,37.91 -23.29,65.21l0 273.83c0,27.95 7.87,49.79 23.29,65.85 15.58,15.91 36.46,23.94 62.96,23.94zm1253.16 122.85c-65.04,0 -115.62,-18.63 -151.76,-56.05 -36.3,-37.26 -54.44,-89.79 -54.44,-157.55l0 -477.64 122.85 0 0 480.85c0,27.95 7.23,49.63 21.69,65.05 14.45,15.26 35.01,22.97 61.66,22.97 26.67,0 47.38,-7.71 62,-22.97 14.78,-15.42 22.16,-37.1 22.16,-65.05l0 -480.85 123.35 0 0 477.64c0,67.77 -18.31,120.29 -54.94,157.55 -36.45,37.42 -87.37,56.05 -152.57,56.05zm1237.59 0c-38.54,0 -72.44,-5.77 -101.66,-17.18 -29.08,-11.4 -53.17,-28.44 -72.27,-51.08 -18.96,-22.48 -32.45,-50.59 -40.64,-84.15l0 0 114.34 -50.44 0 0c9.16,27.63 22.81,48.5 40.96,62.64 18.14,14.14 40.31,21.2 66.33,21.2 26.98,0 48.02,-5.94 63.12,-17.99 14.94,-11.88 22.48,-28.42 22.48,-49.79l0 -30.68c0,-16.86 -4.98,-30.36 -14.77,-40.47 -9.96,-9.95 -23.13,-18.15 -39.51,-24.42 -16.54,-6.26 -34.37,-12.2 -53.48,-17.81 -21.04,-6.27 -42.25,-13.5 -63.77,-21.69 -21.36,-8.19 -41.27,-18.79 -59.26,-31.96 -17.99,-13.18 -32.45,-30.84 -43.53,-53.01 -10.92,-22 -16.38,-50.59 -16.38,-85.44l0 -17.83c0,-59.91 18.31,-106.15 54.92,-139.07 36.79,-32.78 88.67,-49.15 155.8,-49.15 51.07,0 93.15,12.2 125.9,36.78 32.76,24.4 55.26,61.02 67.46,109.53l0 0 -108.72 51.39 0 0c-8.68,-26.34 -20.89,-46.26 -36.63,-59.59 -15.73,-13.33 -33.89,-19.91 -54.6,-19.91 -26.34,0 -46.58,5.46 -60.72,16.37 -14.12,11.09 -21.19,26.34 -21.19,46.11l0 22.64c0,19.11 5.61,34.21 16.54,45.13 10.92,11.09 25.54,19.75 43.52,26.19 17.99,6.42 37.43,13 58.14,19.91 20.41,6.26 40.8,13.49 61.2,21.52 20.39,7.87 38.87,18.46 55.73,31.64 16.71,13.17 30.2,30.51 40.15,51.88 10.12,21.2 15.1,48.34 15.1,81.26l0 29.24c0,59.58 -18.79,105.83 -56.22,138.76 -37.58,32.92 -90.25,49.46 -158.35,49.46zm1057.39 -7.06l0.49 -684.18 122.85 0 0 684.18 -123.34 0zm49.47 0l0 -119 332.12 0 0 119 -332.12 0zm0 -279.94l0 -119.48 294.55 0 0 119 -294.55 0.48zm0 -285.24l0 -119 332.12 0 0 119 -332.12 0z"/>
  <path class="fil0" d="M9094.82 4892.11c93.13,0 168.61,75.5 168.61,168.61 0,93.13 -75.49,168.62 -168.61,168.62 -93.12,0 -168.61,-75.5 -168.61,-168.62 0,-93.12 75.5,-168.61 168.61,-168.61z"/>
  <path class="fil0" d="M21268.05 4892.11c93.13,0 168.62,75.5 168.62,168.61 0,93.13 -75.5,168.62 -168.62,168.62 -93.12,0 -168.6,-75.5 -168.6,-168.62 0,-93.12 75.49,-168.61 168.6,-168.61z"/>
  <path class="fil10" d="M8707.33 4205.65l0 -712.34 1161.35 0c159.26,0 282.51,-34.21 369.69,-100.65 87.18,-66.46 131.35,-160.26 131.35,-280.45l0 -283.38c0,-129.95 -44.18,-231.58 -133.68,-303.9 -88.36,-72.3 -212.74,-108.46 -374.33,-108.46l-1154.38 0 0 -707.45 1143.92 0c145.31,0 259.24,-33.22 339.45,-101.63 80.23,-67.43 120.9,-163.18 120.9,-287.29l0 -223.76c0,-108.46 -40.68,-192.5 -120.9,-253.08 -80.22,-59.62 -194.14,-89.91 -339.45,-89.91l-1143.92 0 0 -710.38 1202.05 0c409.19,0 725.41,86.97 950.93,258.94 224.37,172.95 337.13,418.22 337.13,734.81l0 222.79c0,215.95 -74.4,393.78 -222.04,532.54 -147.64,139.73 -354.57,228.65 -623.11,266.76 288.3,32.25 511.52,123.12 670.77,273.61 159.27,149.5 238.33,344.93 238.33,585.31l0 286.31c0,318.54 -111.6,564.78 -334.81,739.69 -224.37,174.91 -540.57,261.88 -948.61,261.88l-1270.64 0zm-446.42 0l0 -4162.64 889.34 0 0 4162.64 -889.34 0z"/>
  <path class="fil10" d="M13305.12 4248.63c-470.84,0 -837.03,-113.34 -1098.6,-341.02 -262.73,-226.69 -394.08,-546.21 -394.08,-958.57l0 -2906.03 889.32 0 0 2925.57c0,170.02 52.32,301.94 156.93,395.74 104.63,92.84 253.43,139.73 446.43,139.73 192.97,0 342.93,-46.9 448.73,-139.73 106.96,-93.81 160.43,-225.72 160.43,-395.74l0 -2925.57 892.82 0 0 2906.03c0,412.36 -132.53,731.88 -397.58,958.57 -263.9,227.68 -632.41,341.02 -1104.4,341.02z"/>
  <path class="fil10" d="M16044.02 4205.65l-3.48 -718.21 912.58 0c208.08,0 370.85,-46.91 487.09,-138.75 115.1,-92.84 172.06,-221.81 169.75,-384.99l0 -1680.7c2.31,-166.12 -54.65,-294.12 -169.75,-384.99 -116.23,-90.88 -279.01,-135.82 -487.09,-135.82l-909.1 0 -3.48 -719.18 942.8 0c490.59,0 869.57,106.5 1138.11,317.56 267.38,212.05 401.06,510.07 401.06,893.12l0 1738.34c0,246.24 -58.12,460.24 -175.52,642.96 -116.26,181.76 -289.48,322.46 -518.49,422.14 -230.18,98.69 -512.68,148.52 -848.65,148.52l-935.83 0zm-518.48 0l0 -719.94 889.34 0 0 719.94 -889.34 0zm0 -1720.71l0 -2441.93 889.34 0 0 2441.93 -889.34 0z"/>
  <path class="fil10" d="M20548.81 4248.63c-279,0 -524.28,-35.17 -735.87,-104.54 -210.41,-69.38 -384.79,-172.96 -523.13,-310.73 -137.18,-136.79 -234.84,-307.8 -294.13,-512.03l0 0 827.73 -306.83 0 0c66.26,168.07 165.08,295.1 296.46,381.08 131.34,86 291.79,128.99 480.11,128.99 195.32,0 347.59,-36.16 456.88,-109.44 108.1,-72.31 162.75,-172.95 162.75,-302.92l0 -186.63c0,-102.61 -36.04,-184.68 -106.95,-246.25 -72.08,-60.59 -167.4,-110.41 -285.99,-148.53 -119.74,-38.11 -248.77,-74.26 -387.11,-108.44 -152.3,-38.12 -305.75,-82.09 -461.53,-131.93 -154.61,-49.83 -298.77,-114.31 -428.97,-194.45 -130.2,-80.12 -234.83,-187.6 -315.04,-322.45 -79.05,-133.86 -118.58,-307.8 -118.58,-519.83l0 -108.46c0,-364.47 132.53,-645.9 397.58,-846.21 266.23,-199.34 641.72,-299.02 1127.66,-299.02 369.68,0 674.26,74.28 911.43,223.77 237.15,148.52 399.91,371.32 488.27,666.42l0 0 -787.03 312.68 0 0c-62.79,-160.25 -151.13,-281.42 -265.06,-362.52 -113.93,-81.1 -245.3,-121.16 -395.25,-121.16 -190.66,0 -337.14,33.22 -439.45,99.68 -102.3,67.42 -153.45,160.24 -153.45,280.44l0 137.77c0,116.28 40.69,208.13 119.75,274.59 79.04,67.42 184.83,120.18 315.04,159.27 130.18,39.08 270.86,79.15 420.83,121.16 147.63,38.11 295.27,82.08 442.92,130.94 147.63,47.88 281.33,112.36 403.4,192.49 120.9,80.13 218.55,185.66 290.63,315.61 73.24,128.99 109.28,294.14 109.28,494.45l0 177.84c0,362.51 -136.01,643.94 -406.89,844.25 -272.03,200.31 -653.34,300.96 -1146.26,300.96z"/>
 </g>
</svg>
